<svg xmlns="http://www.w3.org/2000/svg" viewBox="0 0 706.36 867.57"><defs><style>.cls-1{fill:#707070;}</style></defs><g id="Layer_2" data-name="Layer 2"><g id="Layer_1-2" data-name="Layer 1"><path class="cls-1" d="M683.8,295.78c-5,3.91-93.88,54-93.88,165.29,0,128.76,113.05,174.31,116.44,175.44-.53,2.78-18,62.38-59.61,123.12-37.14,53.45-75.92,106.81-134.92,106.81s-74.19-34.27-142.3-34.27c-66.37,0-90,35.4-143.94,35.4S134,818.11,90.67,757.37C40.52,686.05,0,575.25,0,470.09,0,301.42,109.67,212,217.61,212c57.35,0,105.16,37.65,141.16,37.65,34.28,0,87.72-39.91,153-39.91,24.73,0,113.58,2.26,172.06,86.07Zm-203-157.48c27-32,46.07-76.44,46.07-120.86A83.14,83.14,0,0,0,525.19,0c-43.9,1.65-96.14,29.24-127.63,65.77-24.73,28.11-47.81,72.53-47.81,117.56A79.74,79.74,0,0,0,351.4,199a68,68,0,0,0,11.8,1.13c39.39,0,88.93-26.38,117.57-61.87Z"/></g></g></svg>