<svg xmlns="http://www.w3.org/2000/svg" viewBox="0 0 1726.05 992.41"><defs><style>.cls-1{fill:#1a0c88;}.cls-2{fill:#0b57b2;}.cls-3{fill:#4c3578;}</style></defs><g id="Layer_2" data-name="Layer 2"><g id="Layer_1-2" data-name="Layer 1"><circle class="cls-1" cx="28.9" cy="642.42" r="5.14"/><circle class="cls-1" cx="45.95" cy="693.58" r="5.14"/><circle class="cls-1" cx="181.03" cy="904.32" r="5.14"/><circle class="cls-1" cx="432.4" cy="790.24" r="3.63"/><circle class="cls-1" cx="215.92" cy="847.47" r="3.63"/><circle class="cls-1" cx="130.66" cy="708.84" r="4.82"/><circle class="cls-1" cx="322.55" cy="770.42" r="3.41"/><circle class="cls-1" cx="35.53" cy="728.31" r="3.63"/><circle class="cls-1" cx="137.65" cy="902.81" r="3.63"/><circle class="cls-1" cx="168.29" cy="943.87" r="2.93"/><circle class="cls-1" cx="68.65" cy="957.92" r="2.57"/><circle class="cls-1" cx="84.97" cy="592.16" r="6.21"/><circle class="cls-1" cx="346.29" cy="841.26" r="6.21"/><circle class="cls-1" cx="332.17" cy="679.94" r="6.21"/><circle class="cls-1" cx="1535.39" cy="516" r="5.14"/><circle class="cls-1" cx="1705.08" cy="623.37" r="5.14"/><circle class="cls-1" cx="1510.13" cy="563.37" r="3.63"/><circle class="cls-1" cx="1722.42" cy="721.06" r="3.63"/><circle class="cls-1" cx="1637.15" cy="582.42" r="4.82"/><circle class="cls-1" cx="1591.46" cy="465.74" r="6.21"/><circle class="cls-1" cx="1577.75" cy="592.05" r="7.5"/><circle class="cls-1" cx="564.08" cy="899.65" r="5.14"/><circle class="cls-1" cx="502.5" cy="861.91" r="5.14"/><circle class="cls-1" cx="759.03" cy="839.65" r="3.63"/><circle class="cls-1" cx="632.01" cy="858.7" r="4.82"/><circle class="cls-1" cx="487.16" cy="920.28" r="3.41"/><circle class="cls-1" cx="471.53" cy="911.28" r="3.41"/><circle class="cls-1" cx="677.7" cy="742.02" r="6.21"/><circle class="cls-1" cx="691.41" cy="868.33" r="7.5"/><circle class="cls-1" cx="483.07" cy="947.6" r="7.5"/><circle class="cls-1" cx="988.31" cy="774.57" r="5.14"/><circle class="cls-1" cx="926.73" cy="736.84" r="5.14"/><circle class="cls-1" cx="830.76" cy="786.2" r="3.63"/><circle class="cls-1" cx="1056.24" cy="733.62" r="4.82"/><circle class="cls-1" cx="1078.2" cy="850.34" r="3.41"/><circle class="cls-1" cx="895.76" cy="786.2" r="3.41"/><circle class="cls-1" cx="1031.15" cy="850.34" r="3.41"/><circle class="cls-1" cx="996.7" cy="948.42" r="3.63"/><circle class="cls-1" cx="966.06" cy="989.48" r="2.93"/><circle class="cls-1" cx="840.6" cy="866.05" r="6.21"/><circle class="cls-1" cx="854.72" cy="704.73" r="6.21"/><circle class="cls-1" cx="1073.44" cy="958.71" r="5.38"/><circle class="cls-1" cx="313.9" cy="45.95" r="5.14"/><circle class="cls-1" cx="513.44" cy="167.53" r="5.14"/><circle class="cls-1" cx="349.19" cy="449.05" r="3.63"/><circle class="cls-1" cx="406.43" cy="232.57" r="3.63"/><circle class="cls-1" cx="329.37" cy="292.15" r="3.41"/><circle class="cls-1" cx="320.37" cy="307.78" r="3.41"/><circle class="cls-1" cx="348.64" cy="35.53" r="3.63"/><circle class="cls-1" cx="535.55" cy="46.63" r="3.63"/><circle class="cls-1" cx="511.94" cy="124.16" r="3.63"/><circle class="cls-1" cx="552.99" cy="154.79" r="2.93"/><circle class="cls-1" cx="567.05" cy="55.15" r="2.57"/><circle class="cls-1" cx="151.11" cy="101.62" r="6.21"/><circle class="cls-1" cx="400.22" cy="362.94" r="6.21"/><circle class="cls-1" cx="800.68" cy="147.49" r="3.63"/><circle class="cls-1" cx="780.86" cy="37.65" r="3.41"/><circle class="cls-1" cx="851.7" cy="61.39" r="6.21"/><circle class="cls-1" cx="238.9" cy="348.82" r="6.21"/><circle class="cls-1" cx="338.79" cy="71.26" r="7.5"/><circle class="cls-1" cx="356.69" cy="296.25" r="7.5"/><circle class="cls-1" cx="1548.86" cy="97.82" r="5.14"/><circle class="cls-1" cx="1379.17" cy="205.19" r="5.14"/><circle class="cls-1" cx="1396.73" cy="359.72" r="5.14"/><circle class="cls-1" cx="1574.12" cy="145.19" r="3.63"/><circle class="cls-1" cx="1145.35" cy="245.64" r="3.63"/><circle class="cls-1" cx="1361.83" cy="302.88" r="3.63"/><circle class="cls-1" cx="1447.1" cy="164.24" r="4.82"/><circle class="cls-1" cx="1286.62" cy="216.82" r="3.41"/><circle class="cls-1" cx="1255.2" cy="225.82" r="3.41"/><circle class="cls-1" cx="1542.23" cy="183.72" r="3.63"/><circle class="cls-1" cx="1517.63" cy="381.83" r="3.63"/><circle class="cls-1" cx="1516.53" cy="779.1" r="7.26"/><circle class="cls-1" cx="1231.46" cy="296.67" r="6.21"/><circle class="cls-1" cx="1298.16" cy="253.14" r="7.5"/><circle class="cls-1" cx="843.98" cy="247.68" r="5.14"/><circle class="cls-1" cx="1013.67" cy="355.05" r="5.14"/><circle class="cls-1" cx="1075.25" cy="317.32" r="5.14"/><circle class="cls-1" cx="1090.59" cy="375.69" r="3.41"/><circle class="cls-1" cx="1106.22" cy="366.69" r="3.41"/><circle class="cls-1" cx="850.62" cy="333.58" r="3.63"/><circle class="cls-1" cx="900.06" cy="197.43" r="6.21"/><circle class="cls-1" cx="1094.68" cy="403" r="7.5"/><circle class="cls-1" cx="1238.81" cy="766.93" r="5.14"/><circle class="cls-1" cx="1298.81" cy="571.98" r="3.63"/><circle class="cls-1" cx="1090.59" cy="55.81" r="3.63"/><circle class="cls-1" cx="1227.18" cy="924.49" r="3.63"/><circle class="cls-1" cx="1141.12" cy="784.27" r="3.63"/><circle class="cls-1" cx="1279.76" cy="699.01" r="4.82"/><circle class="cls-1" cx="1218.18" cy="843.85" r="3.41"/><circle class="cls-1" cx="1227.18" cy="859.48" r="3.41"/><circle class="cls-1" cx="1218.18" cy="890.91" r="3.41"/><circle class="cls-1" cx="1062.18" cy="628.48" r="3.63"/><circle class="cls-1" cx="1085.79" cy="706.01" r="3.63"/><circle class="cls-1" cx="1044.73" cy="736.64" r="2.93"/><circle class="cls-1" cx="1030.68" cy="637" r="2.57"/><circle class="cls-1" cx="1147.34" cy="914.64" r="6.21"/><circle class="cls-1" cx="1308.65" cy="900.52" r="6.21"/><circle class="cls-1" cx="1270.13" cy="639.61" r="7.5"/><circle class="cls-1" cx="692.88" cy="510.71" r="5.14"/><circle class="cls-1" cx="887.83" cy="570.71" r="3.63"/><circle class="cls-1" cx="535.33" cy="499.07" r="3.63"/><circle class="cls-1" cx="760.81" cy="551.65" r="4.82"/><circle class="cls-1" cx="615.96" cy="490.07" r="3.41"/><circle class="cls-1" cx="600.33" cy="499.07" r="3.41"/><circle class="cls-1" cx="855.94" cy="532.18" r="3.63"/><circle class="cls-1" cx="559.29" cy="580.55" r="6.21"/><circle class="cls-1" cx="671.49" cy="296.67" r="7.5"/><circle class="cls-1" cx="1190.86" cy="847.95" r="7.5"/><circle class="cls-1" cx="1054.68" cy="681.8" r="5.38"/><circle class="cls-2" cx="198.58" cy="749.79" r="5.14"/><circle class="cls-2" cx="3.63" cy="689.79" r="3.63"/><circle class="cls-2" cx="356.13" cy="761.42" r="3.63"/><circle class="cls-2" cx="31.02" cy="307.5" r="7.26"/><circle class="cls-2" cx="1552.44" cy="567.16" r="5.14"/><circle class="cls-2" cx="1542.02" cy="601.9" r="3.63"/><circle class="cls-2" cx="727.14" cy="878.18" r="3.63"/><circle class="cls-2" cx="953.32" cy="949.93" r="5.14"/><circle class="cls-2" cx="918.43" cy="893.08" r="3.63"/><circle class="cls-2" cx="1074.11" cy="877.66" r="7.5"/><circle class="cls-2" cx="308.74" cy="215.23" r="5.14"/><circle class="cls-2" cx="329.16" cy="130.66" r="4.82"/><circle class="cls-2" cx="1221.62" cy="216.82" r="3.63"/><circle class="cls-2" cx="1492.79" cy="47.56" r="6.21"/><circle class="cls-2" cx="861.04" cy="298.84" r="5.14"/><circle class="cls-2" cx="818.72" cy="295.05" r="3.63"/><circle class="cls-2" cx="1260.29" cy="603.88" r="3.63"/><circle class="cls-2" cx="845.51" cy="566.92" r="5.14"/><circle class="cls-3" cx="16.5" cy="266.72" r="7.26"/><circle class="cls-3" cx="260.16" cy="712.05" r="5.14"/><circle class="cls-3" cx="275.5" cy="770.42" r="3.41"/><circle class="cls-3" cx="291.13" cy="761.42" r="3.41"/><circle class="cls-3" cx="60.13" cy="926.42" r="3.63"/><circle class="cls-3" cx="31.02" cy="227.4" r="7.26"/><circle class="cls-3" cx="71.26" cy="718.47" r="7.5"/><circle class="cls-3" cx="279.6" cy="797.74" r="7.5"/><circle class="cls-3" cx="733.77" cy="792.28" r="5.14"/><circle class="cls-3" cx="716.72" cy="843.44" r="5.14"/><circle class="cls-3" cx="113.45" cy="933.92" r="5.38"/><circle class="cls-3" cx="201.37" cy="45.55" r="5.14"/><circle class="cls-3" cx="271" cy="276.81" r="5.14"/><circle class="cls-3" cx="310.11" cy="3.63" r="3.63"/><circle class="cls-3" cx="320.37" cy="372.79" r="3.63"/><circle class="cls-3" cx="329.37" cy="339.21" r="3.41"/><circle class="cls-3" cx="771.86" cy="71.23" r="3.63"/><circle class="cls-3" cx="543.05" cy="99.95" r="5.38"/><circle class="cls-3" cx="1531.05" cy="818.42" r="7.26"/><circle class="cls-3" cx="1531.8" cy="148.98" r="5.14"/><circle class="cls-3" cx="1317.59" cy="167.45" r="5.14"/><circle class="cls-3" cx="1302.25" cy="225.82" r="3.41"/><circle class="cls-3" cx="1440.1" cy="358.22" r="3.63"/><circle class="cls-3" cx="1409.47" cy="399.27" r="2.93"/><circle class="cls-3" cx="1509.1" cy="413.32" r="2.57"/><circle class="cls-3" cx="1516.53" cy="859.2" r="7.26"/><circle class="cls-3" cx="1245.58" cy="135.35" r="6.21"/><circle class="cls-3" cx="1506.5" cy="173.87" r="7.5"/><circle class="cls-3" cx="945.75" cy="314.11" r="4.82"/><circle class="cls-3" cx="886.35" cy="323.74" r="7.5"/><circle class="cls-3" cx="1464.3" cy="389.32" r="5.38"/><circle class="cls-3" cx="1346.18" cy="597.25" r="5.14"/><circle class="cls-3" cx="1295.02" cy="614.3" r="5.14"/><circle class="cls-3" cx="1276.55" cy="828.51" r="5.14"/><circle class="cls-3" cx="1084.28" cy="749.38" r="5.14"/><circle class="cls-3" cx="1396.44" cy="653.32" r="6.21"/><circle class="cls-3" cx="862.57" cy="618.08" r="5.14"/><circle class="cls-3" cx="631.3" cy="548.44" r="5.14"/><circle class="cls-3" cx="568.91" cy="490.07" r="3.41"/></g></g></svg>