<svg xmlns="http://www.w3.org/2000/svg" viewBox="0 0 78.16 82.97"><defs><style>.cls-1{fill:#657c0c;}.cls-2{fill:#5e6f0e;}.cls-3{fill:#6d850c;}.cls-4{fill:#7f9713;}.cls-5{fill:#5d6e0e;}.cls-6{fill:#c3f51a;}.cls-7{fill:#aeda18;}.cls-8{fill:#d2fb1a;}.cls-9{fill:#c4ea15;}.cls-10{fill:#d5ff1b;}.cls-11{fill:#9ab914;}.cls-12{fill:none;}.cls-13{fill:#076e6e;}</style></defs><g id="Layer_2" data-name="Layer 2"><g id="Layer_1-2" data-name="Layer 1"><polygon class="cls-1" points="34.59 36.33 17.31 60.82 17.31 71.4 8.65 71.4 8.65 60.83 8.66 60.82 23.9 39.21 23.97 39.21 24.86 37.95 26 36.33 30.18 30.37 31.11 31.62 34.59 36.33"/><polygon class="cls-1" points="23.94 39.16 23.9 39.21 15.32 39.21 14.28 37.79 7.81 28.89 13.53 20.71 13.53 13.43 19.44 5.12 19.44 0 28.09 0.01 28.09 5.12 22.19 13.43 22.19 20.71 16.46 28.89 16.46 28.9 19.57 33.16 22.93 37.79 23.94 39.16"/><polygon class="cls-1" points="0 71.41 8.65 71.43 8.65 82.97 0 82.97 0 71.41"/><polygon class="cls-2" points="23.95 39.17 23.91 39.22 15.33 39.22 14.29 37.79 7.82 28.9 16.47 28.9 19.58 33.17 22.94 37.79 23.95 39.17"/><polygon class="cls-3" points="22.2 20.72 16.47 28.9 7.82 28.9 13.54 20.72 22.2 20.72"/><rect class="cls-4" x="13.54" y="13.43" width="8.65" height="7.28"/><polygon class="cls-3" points="28.1 5.12 22.2 13.43 13.54 13.43 19.45 5.12 28.1 5.12"/><polygon class="cls-4" points="28.1 0.02 28.1 5.12 19.45 5.12 19.45 0.01 28.1 0.02"/><polygon class="cls-5" points="17.32 60.83 17.32 71.44 8.66 71.41 8.66 60.83 17.32 60.83"/><polygon class="cls-1" points="34.6 36.33 17.32 60.83 8.66 60.83 23.91 39.22 23.98 39.22 26.01 36.33 34.6 36.33"/><polygon class="cls-2" points="34.6 36.33 26.01 36.33 30.19 30.37 34.6 36.33"/><polygon class="cls-6" points="56.16 71.41 66 71.41 66 82.97 8.66 82.97 8.66 71.41 10.47 71.41 17.32 71.44 17.32 60.83 34.6 36.33 31.12 31.62 30.19 30.37 26.01 36.33 24.87 37.95 23.98 39.22 23.95 39.17 22.94 37.79 19.58 33.17 16.47 28.9 22.2 20.72 22.2 13.43 28.1 5.12 28.1 0.01 28.12 0.01 29.91 0.01 51.74 0.03 60.1 13.43 60.1 32.03 68.46 43.35 56.16 60.83 56.16 71.41"/><polygon class="cls-7" points="17.32 71.43 19.13 71.44 17.32 71.44 17.32 71.43"/><polygon class="cls-8" points="24.01 20.72 18.28 28.9 21.39 33.17 24.75 37.79 24.87 37.95 23.98 39.22 23.95 39.17 22.94 37.79 19.58 33.17 16.47 28.9 22.2 20.72 22.2 13.43 28.1 5.12 28.1 0.01 28.12 0.01 29.91 0.01 29.91 5.12 24.01 13.43 24.01 20.72"/><rect class="cls-9" x="17.32" y="60.83" width="1.81" height="10.6"/><polygon class="cls-10" points="36.41 36.33 19.13 60.83 17.32 60.83 34.6 36.33 31.12 31.62 32 30.37 36.41 36.33"/><rect class="cls-11" x="8.66" y="71.41" width="57.34" height="11.57"/><line class="cls-12" x1="17.32" y1="60.83" x2="34.6" y2="36.33"/><polygon class="cls-13" points="78.16 67.17 78.16 67.19 71.31 67.17 69.5 67.17 69.5 67.17 78.16 67.17"/></g></g></svg>