<svg width="151" height="81" viewBox="0 0 151 81" fill="none" xmlns="http://www.w3.org/2000/svg">
<path d="M73.8569 80.677L1.49728 42.9485C1.04518 42.7126 0.666939 42.36 0.403155 41.9286C0.13937 41.4972 0 41.0034 0 40.5C0 39.9966 0.13937 39.5028 0.403155 39.0714C0.666939 38.64 1.04518 38.2875 1.49728 38.0515L73.8569 0.323052C74.2637 0.110916 74.717 0 75.1774 0C75.6378 0 76.0912 0.110916 76.4979 0.323052L148.868 38.0515C149.32 38.2875 149.698 38.64 149.962 39.0714C150.226 39.5028 150.365 39.9966 150.365 40.5C150.365 41.0034 150.226 41.4972 149.962 41.9286C149.698 42.36 149.32 42.7126 148.868 42.9485L76.4979 80.677C76.0912 80.8891 75.6378 81 75.1774 81C74.717 81 74.2637 80.8891 73.8569 80.677Z" fill="#213C9E"/>
<path d="M73.8573 58.8304L22.4477 32.0252C21.9956 31.7893 21.6174 31.4367 21.3536 31.0053C21.0898 30.574 20.9504 30.0801 20.9504 29.5767C20.9504 29.0733 21.0898 28.5795 21.3536 28.1481C21.6174 27.7167 21.9956 27.3642 22.4477 27.1282L73.8573 0.323052C74.264 0.110916 74.7174 0 75.1778 0C75.6382 0 76.0915 0.110916 76.4983 0.323052L127.918 27.1693C128.37 27.4052 128.749 27.7578 129.012 28.1892C129.276 28.6205 129.416 29.1144 129.416 29.6178C129.416 30.1212 129.276 30.615 129.012 31.0464C128.749 31.4778 128.37 31.8303 127.918 32.0663L76.4983 58.8304C76.0915 59.0425 75.6382 59.1534 75.1778 59.1534C74.7174 59.1534 74.264 59.0425 73.8573 58.8304Z" fill="#7491FF"/>
<path d="M72.9698 51.8913L38.0321 33.6687C37.2684 33.2775 36.6284 32.6878 36.1818 31.9638C35.7352 31.2397 35.499 30.4091 35.499 29.5622C35.499 28.7154 35.7352 27.8847 36.1818 27.1607C36.6284 26.4366 37.2684 25.8469 38.0321 25.4557L72.9698 7.27421C73.6486 6.91567 74.4071 6.72803 75.1775 6.72803C75.948 6.72803 76.7065 6.91567 77.3853 7.27421L112.323 25.4865C113.087 25.8777 113.727 26.4674 114.173 27.1915C114.62 27.9155 114.856 28.7462 114.856 29.593C114.856 30.4399 114.62 31.2705 114.173 31.9946C113.727 32.7186 113.087 33.3083 112.323 33.6995L77.4166 51.8913C76.7325 52.2508 75.9688 52.4388 75.1932 52.4388C74.4176 52.4388 73.6539 52.2508 72.9698 51.8913Z" fill="#344EAF"/>
<path d="M75.1826 61.1923V76.7559C75.1814 77.2384 75.3078 77.7128 75.5493 78.1328C75.7909 78.5527 76.1394 78.9036 76.5605 79.1511C76.9816 79.3986 77.4609 79.5341 77.9514 79.5443C78.4419 79.5546 78.9266 79.4392 79.358 79.2095L148.899 42.9492C149.351 42.7132 149.73 42.3606 149.993 41.9293C150.257 41.4979 150.397 41.004 150.397 40.5007C150.397 39.9973 150.257 39.5034 149.993 39.072C149.73 38.6407 149.351 38.2881 148.899 38.0522L133.941 30.2498C133.534 30.0377 133.081 29.9268 132.62 29.9268C132.16 29.9268 131.707 30.0377 131.3 30.2498L76.6753 58.7386C76.224 58.9765 75.8468 59.3303 75.584 59.7624C75.3211 60.1945 75.1824 60.6887 75.1826 61.1923Z" fill="#375CE3"/>
<path d="M72.4974 37.5878L59.4993 30.2418L65.9041 26.4244L72.4974 30.2418L86.3985 21.5552L93.1679 25.2961L72.4974 37.5878Z" fill="white"/>
</svg>
