<svg id="Layer_1" data-name="Layer 1" xmlns="http://www.w3.org/2000/svg" viewBox="0 0 422.06 720"><defs><style>.cls-1{fill:#213c9e;}.cls-2{fill:#7491ff;}.cls-3{fill:#344eaf;}.cls-4{fill:#375ce3;}.cls-5{fill:#fff;}</style></defs><path class="cls-1" d="M207.26,633.54,4.2,525.86a7.91,7.91,0,0,1,0-14L207.26,404.22a7.87,7.87,0,0,1,7.42,0L417.77,511.89a7.91,7.91,0,0,1,0,14L214.68,633.54a7.94,7.94,0,0,1-7.42,0Z"/><path class="cls-2" d="M207.27,571.19,63,494.69a7.92,7.92,0,0,1,0-14l144.28-76.49a7.85,7.85,0,0,1,7.41,0L359,480.83a8,8,0,0,1,3.07,2.91,7.93,7.93,0,0,1,0,8.16,8,8,0,0,1-3.07,2.91l-144.3,76.38a7.92,7.92,0,0,1-7.41,0Z"/><path class="cls-3" d="M204.77,551.39l-98-52a13.21,13.21,0,0,1-7.11-11.72,13.24,13.24,0,0,1,7.11-11.72l98-51.89a13.17,13.17,0,0,1,12.4,0l98,52a13.22,13.22,0,0,1,0,23.44l-98,51.92a13.26,13.26,0,0,1-12.48,0Z"/><path class="cls-4" d="M211,577.93v44.42a8.09,8.09,0,0,0,1,3.93,8,8,0,0,0,2.84,2.9,7.8,7.8,0,0,0,3.9,1.12,8,8,0,0,0,3.95-.95L417.85,525.87a7.91,7.91,0,0,0,0-14l-42-22.27a7.92,7.92,0,0,0-7.41,0l-153.3,81.31a8,8,0,0,0-3.06,2.92A7.91,7.91,0,0,0,211,577.93Z"/><path class="cls-5" d="M203.45,510.57,167,489.6l18-10.89,18.5,10.89,39-24.79,19,10.68Z"/></svg>