<svg xmlns="http://www.w3.org/2000/svg" viewBox="0 0 258 264.78"><defs><style>.cls-1{fill:#995300;}.cls-2{fill:#fee003;}.cls-3{fill:#d88500;stroke:#995300;stroke-miterlimit:10;stroke-width:6px;}.cls-4{fill:#fee102;}</style></defs><g id="Layer_2" data-name="Layer 2"><g id="Layer_1-2" data-name="Layer 1"><polygon class="cls-1" points="228 12 228 210.78 114 264.78 0 210.78 0 12 48.4 12 48.4 44.87 81.52 44.87 81.52 12 146.48 12 146.48 44.87 179.35 44.87 179.35 12 228 12"/><polygon class="cls-1" points="229 11.6 229 210.38 115 264.38 1 210.38 1 11.6 49.4 11.6 49.4 44.47 82.52 44.47 82.52 11.6 147.48 11.6 147.48 44.47 180.35 44.47 180.35 11.6 229 11.6"/><polygon class="cls-1" points="230 11.2 230 209.98 116 263.98 2 209.98 2 11.2 50.4 11.2 50.4 44.07 83.52 44.07 83.52 11.2 148.48 11.2 148.48 44.07 181.35 44.07 181.35 11.2 230 11.2"/><polygon class="cls-1" points="231 10.8 231 209.58 117 263.58 3 209.58 3 10.8 51.4 10.8 51.4 43.67 84.52 43.67 84.52 10.8 149.48 10.8 149.48 43.67 182.35 43.67 182.35 10.8 231 10.8"/><polygon class="cls-1" points="232 10.4 232 209.18 118 263.18 4 209.18 4 10.4 52.4 10.4 52.4 43.27 85.52 43.27 85.52 10.4 150.48 10.4 150.48 43.27 183.35 43.27 183.35 10.4 232 10.4"/><polygon class="cls-1" points="233 10 233 208.78 119 262.78 5 208.78 5 10 53.4 10 53.4 42.87 86.52 42.87 86.52 10 151.48 10 151.48 42.87 184.35 42.87 184.35 10 233 10"/><polygon class="cls-1" points="234 9.6 234 208.38 120 262.38 6 208.38 6 9.6 54.4 9.6 54.4 42.47 87.52 42.47 87.52 9.6 152.48 9.6 152.48 42.47 185.35 42.47 185.35 9.6 234 9.6"/><polygon class="cls-1" points="235 9.2 235 207.98 121 261.98 7 207.98 7 9.2 55.4 9.2 55.4 42.07 88.52 42.07 88.52 9.2 153.48 9.2 153.48 42.07 186.35 42.07 186.35 9.2 235 9.2"/><polygon class="cls-1" points="236 8.8 236 207.58 122 261.58 8 207.58 8 8.8 56.4 8.8 56.4 41.67 89.52 41.67 89.52 8.8 154.48 8.8 154.48 41.67 187.35 41.67 187.35 8.8 236 8.8"/><polygon class="cls-1" points="237 8.4 237 207.18 123 261.18 9 207.18 9 8.4 57.4 8.4 57.4 41.27 90.52 41.27 90.52 8.4 155.48 8.4 155.48 41.27 188.35 41.27 188.35 8.4 237 8.4"/><polygon class="cls-1" points="238 8 238 206.78 124 260.78 10 206.78 10 8 58.4 8 58.4 40.87 91.52 40.87 91.52 8 156.48 8 156.48 40.87 189.35 40.87 189.35 8 238 8"/><polygon class="cls-1" points="239 7.6 239 206.38 125 260.38 11 206.38 11 7.6 59.4 7.6 59.4 40.47 92.52 40.47 92.52 7.6 157.48 7.6 157.48 40.47 190.35 40.47 190.35 7.6 239 7.6"/><polygon class="cls-1" points="240 7.2 240 205.98 126 259.98 12 205.98 12 7.2 60.4 7.2 60.4 40.07 93.52 40.07 93.52 7.2 158.48 7.2 158.48 40.07 191.35 40.07 191.35 7.2 240 7.2"/><polygon class="cls-1" points="241 6.8 241 205.58 127 259.58 13 205.58 13 6.8 61.4 6.8 61.4 39.67 94.52 39.67 94.52 6.8 159.48 6.8 159.48 39.67 192.35 39.67 192.35 6.8 241 6.8"/><polygon class="cls-1" points="242 6.4 242 205.18 128 259.18 14 205.18 14 6.4 62.4 6.4 62.4 39.27 95.52 39.27 95.52 6.4 160.48 6.4 160.48 39.27 193.35 39.27 193.35 6.4 242 6.4"/><polygon class="cls-1" points="243 6 243 204.78 129 258.78 15 204.78 15 6 63.4 6 63.4 38.87 96.52 38.87 96.52 6 161.48 6 161.48 38.87 194.35 38.87 194.35 6 243 6"/><polygon class="cls-1" points="244 5.6 244 204.38 130 258.38 16 204.38 16 5.6 64.4 5.6 64.4 38.47 97.52 38.47 97.52 5.6 162.48 5.6 162.48 38.47 195.35 38.47 195.35 5.6 244 5.6"/><polygon class="cls-1" points="245 5.2 245 203.98 131 257.98 17 203.98 17 5.2 65.4 5.2 65.4 38.07 98.52 38.07 98.52 5.2 163.48 5.2 163.48 38.07 196.35 38.07 196.35 5.2 245 5.2"/><polygon class="cls-1" points="246 4.8 246 203.58 132 257.58 18 203.58 18 4.8 66.4 4.8 66.4 37.67 99.52 37.67 99.52 4.8 164.48 4.8 164.48 37.67 197.35 37.67 197.35 4.8 246 4.8"/><polygon class="cls-1" points="247 4.4 247 203.18 133 257.18 19 203.18 19 4.4 67.4 4.4 67.4 37.27 100.52 37.27 100.52 4.4 165.48 4.4 165.48 37.27 198.35 37.27 198.35 4.4 247 4.4"/><polygon class="cls-1" points="248 4 248 202.78 134 256.78 20 202.78 20 4 68.4 4 68.4 36.87 101.52 36.87 101.52 4 166.48 4 166.48 36.87 199.35 36.87 199.35 4 248 4"/><polygon class="cls-1" points="249 3.6 249 202.38 135 256.38 21 202.38 21 3.6 69.4 3.6 69.4 36.47 102.52 36.47 102.52 3.6 167.48 3.6 167.48 36.47 200.35 36.47 200.35 3.6 249 3.6"/><polygon class="cls-1" points="250 3.2 250 201.98 136 255.98 22 201.98 22 3.2 70.4 3.2 70.4 36.07 103.52 36.07 103.52 3.2 168.48 3.2 168.48 36.07 201.35 36.07 201.35 3.2 250 3.2"/><polygon class="cls-1" points="251 2.8 251 201.58 137 255.58 23 201.58 23 2.8 71.4 2.8 71.4 35.67 104.52 35.67 104.52 2.8 169.48 2.8 169.48 35.67 202.35 35.67 202.35 2.8 251 2.8"/><polygon class="cls-1" points="252 2.4 252 201.18 138 255.18 24 201.18 24 2.4 72.4 2.4 72.4 35.27 105.52 35.27 105.52 2.4 170.48 2.4 170.48 35.27 203.35 35.27 203.35 2.4 252 2.4"/><polygon class="cls-1" points="253 2 253 200.78 139 254.78 25 200.78 25 2 73.4 2 73.4 34.87 106.52 34.87 106.52 2 171.48 2 171.48 34.87 204.35 34.87 204.35 2 253 2"/><polygon class="cls-1" points="254 1.6 254 200.38 140 254.38 26 200.38 26 1.6 74.4 1.6 74.4 34.47 107.52 34.47 107.52 1.6 172.48 1.6 172.48 34.47 205.35 34.47 205.35 1.6 254 1.6"/><polygon class="cls-1" points="255 1.2 255 199.98 141 253.98 27 199.98 27 1.2 75.4 1.2 75.4 34.07 108.52 34.07 108.52 1.2 173.48 1.2 173.48 34.07 206.35 34.07 206.35 1.2 255 1.2"/><polygon class="cls-1" points="256 0.8 256 199.58 142 253.58 28 199.58 28 0.8 76.4 0.8 76.4 33.67 109.52 33.67 109.52 0.8 174.48 0.8 174.48 33.67 207.35 33.67 207.35 0.8 256 0.8"/><polygon class="cls-1" points="257 0.4 257 199.18 143 253.18 29 199.18 29 0.4 77.4 0.4 77.4 33.27 110.52 33.27 110.52 0.4 175.48 0.4 175.48 33.27 208.35 33.27 208.35 0.4 257 0.4"/><polygon class="cls-1" points="258 0 258 198.78 144 252.78 30 198.78 30 0 78.4 0 78.4 32.87 111.52 32.87 111.52 0 176.48 0 176.48 32.87 209.35 32.87 209.35 0 258 0"/><polygon class="cls-2" points="258 0 258 198.78 144 252.78 30 198.78 30 0 78.4 0 78.4 32.87 111.52 32.87 111.52 0 176.48 0 176.48 32.87 209.35 32.87 209.35 0 258 0"/><polygon class="cls-3" points="229.57 59.08 229.57 179.87 144 220.4 58.44 179.87 58.44 59.08 229.57 59.08"/><rect class="cls-4" x="128.07" y="79.64" width="31.01" height="93.5"/></g></g></svg>