<?xml version="1.0" encoding="utf-8"?>
<!-- Generator: Adobe Illustrator 25.4.1, SVG Export Plug-In . SVG Version: 6.00 Build 0)  -->
<svg version="1.1" id="Layer_1" xmlns="http://www.w3.org/2000/svg" xmlns:xlink="http://www.w3.org/1999/xlink" x="0px" y="0px"
	 viewBox="0 0 77.8 102.7" style="enable-background:new 0 0 77.8 102.7;" xml:space="preserve">
<style type="text/css">
	.st0{fill:#F2922A;}
</style>
<g id="Layer_2_00000078020202188288476320000017734748296354515593_">
	<g id="Layer_1-2">
		<path class="st0" d="M15.8,73.6v11.9c9.5,0,17.2,7.7,17.2,17.2c0,0,0,0,0,0h11.8c0-9.5,7.7-17.2,17.2-17.2c0,0,0,0,0,0V73.6
			c-9.5,0-17.2-7.7-17.2-17.2h5.1v-9h-6.5V32.3h13v-9h-13v-5.9h13v-9h-13V0h-9v47.4h-6.5v9H33C33,65.9,25.3,73.6,15.8,73.6
			C15.8,73.6,15.8,73.6,15.8,73.6z M38.9,70.3l9.2,9.2l-9.2,9.2l-9.2-9.2L38.9,70.3z"/>
	</g>
</g>
</svg>
