<?xml version="1.0" encoding="utf-8"?>
<!-- Generator: Adobe Illustrator 25.4.1, SVG Export Plug-In . SVG Version: 6.00 Build 0)  -->
<svg version="1.1" id="Layer_1" xmlns="http://www.w3.org/2000/svg" xmlns:xlink="http://www.w3.org/1999/xlink" x="0px" y="0px"
	 viewBox="0 0 77.8 102.7" style="enable-background:new 0 0 77.8 102.7;" xml:space="preserve">
<style type="text/css">
	.st0{display:none;}
	.st1{display:inline;}
	.st2{fill:#F2922A;}
	.st3{fill:#FFFFFF;}
</style>
<g id="Layer_2_00000078020202188288476320000017734748296354515593_" class="st0">
	<g id="Layer_1-2" class="st1">
		<path class="st2" d="M-62.1,73.6v11.9c9.5,0,17.2,7.7,17.2,17.2l0,0h11.8c0-9.5,7.7-17.2,17.2-17.2l0,0V73.6
			c-9.5,0-17.2-7.7-17.2-17.2h5.1v-9h-6.5V32.3h13v-9h-13v-5.9h13v-9h-13V0h-9v47.4H-50v9h5.1C-44.9,65.9-52.6,73.6-62.1,73.6
			L-62.1,73.6z M-39,70.3l9.2,9.2l-9.2,9.2l-9.2-9.2L-39,70.3z"/>
	</g>
</g>
<g>
	<path class="st2" d="M55.1,99.3h-23c-0.2,0-0.5-0.1-0.7-0.2L22,92.9c-1-0.7-0.5-2.2,0.7-2.2h23c0.2,0,0.5,0.1,0.7,0.2l9.4,6.2
		C56.7,97.8,56.3,99.3,55.1,99.3z"/>
	<path class="st3" d="M55.1,99.3h-23c-0.2,0-0.5-0.1-0.7-0.2L22,92.9c-1-0.7-0.5-2.2,0.7-2.2h23c0.2,0,0.5,0.1,0.7,0.2l9.4,6.2
		C56.7,97.8,56.3,99.3,55.1,99.3z"/>
	<path class="st2" d="M61.2,74.5L49.8,67v-26c0-0.9-0.7-1.7-1.6-1.8h-1V2.9l0,0l-0.3-0.5l-1.6-2.1C45.1,0.1,44.9,0,44.6,0h-9.3
		c-0.2,0-0.5,0.1-0.6,0.3l-1.9,2.6h-0.5c-0.3,0-0.5,0.1-0.7,0.3l-0.8,1c-0.1,0.1-0.2,0.3-0.2,0.5v34.4h-0.8c-1,0-1.8,0.8-1.8,1.8v26
		h-9.9c-1.8,0-3.2,1.4-3.2,3.2v22c0,1.2,0.6,2.3,1.6,3l10.5,6.9c0.6,0.4,1.3,0.6,2,0.6h30.7c1.8,0,3.2-1.4,3.2-3.2v-22
		C62.9,76.3,62.2,75.2,61.2,74.5z M55.1,99.3h-23c-0.2,0-0.5-0.1-0.7-0.2L22,92.9c-1-0.7-0.5-2.2,0.7-2.2h23c0.2,0,0.5,0.1,0.7,0.2
		l9.4,6.2C56.7,97.8,56.3,99.3,55.1,99.3z"/>
</g>
</svg>
