<?xml version="1.0" encoding="utf-8"?>
<!-- Generator: Adobe Illustrator 25.4.1, SVG Export Plug-In . SVG Version: 6.00 Build 0)  -->
<svg version="1.1" id="Layer_1" xmlns="http://www.w3.org/2000/svg" xmlns:xlink="http://www.w3.org/1999/xlink" x="0px" y="0px"
	 viewBox="0 0 77.8 102.7" style="enable-background:new 0 0 77.8 102.7;" xml:space="preserve">
<style type="text/css">
	.st0{fill:#F2922A;}
	.st1{display:none;}
	.st2{display:inline;fill:#F2922A;}
	.st3{display:inline;fill:#FFFFFF;}
	.st4{fill:#FFFFFF;}
</style>
<g id="Layer_2_00000078020202188288476320000017734748296354515593_">
	<g id="Layer_1-2">
		<path class="st0" d="M-62.1,73.6v11.9c9.5,0,17.2,7.7,17.2,17.2l0,0h11.8c0-9.5,7.7-17.2,17.2-17.2l0,0V73.6
			c-9.5,0-17.2-7.7-17.2-17.2h5.1v-9h-6.5V32.3h13v-9h-13v-5.9h13v-9h-13V0h-9v47.4H-50v9h5.1C-44.9,65.9-52.6,73.6-62.1,73.6
			L-62.1,73.6z M-39,70.3l9.2,9.2l-9.2,9.2l-9.2-9.2L-39,70.3z"/>
	</g>
</g>
<g class="st1">
	<path class="st2" d="M62.9,77.5v22c0,1.8-1.4,3.2-3.2,3.2H29c-0.7,0-1.4-0.2-2-0.6l-10.5-6.9c-1-0.7-1.6-1.8-1.6-3v-22
		c0-1.8,1.4-3.2,3.2-3.2h31.7l11.4,7.5C62.2,75.2,62.9,76.3,62.9,77.5z"/>
	<path class="st2" d="M49.8,40.9v26H28v-26c0-1,0.8-1.8,1.8-1.8h18.4C49.1,39.2,49.8,40,49.8,40.9z"/>
	<path class="st2" d="M47.2,2.9v36.3H30.6V4.8c0-0.2,0.1-0.4,0.2-0.5l0.8-1C31.8,3.1,32,3,32.3,3h14.9V2.9z"/>
	<path class="st3" d="M55.1,99.3h-23c-0.2,0-0.5-0.1-0.7-0.2L22,92.9c-1-0.7-0.5-2.2,0.7-2.2h23c0.2,0,0.5,0.1,0.7,0.2l9.4,6.2
		C56.7,97.8,56.3,99.3,55.1,99.3z"/>
	<path class="st2" d="M47.2,2.9H32.8l1.9-2.6C34.8,0.1,35.1,0,35.3,0h9.3c0.3,0,0.5,0.1,0.7,0.3l1.6,2.1L47.2,2.9z"/>
</g>
<g>
	<path class="st0" d="M63,77.6v22c0,1.8-1.4,3.2-3.2,3.2H29.1c-0.7,0-1.4-0.2-2-0.6l-10.5-6.9c-1-0.7-1.6-1.8-1.6-3v-22
		c0-1.8,1.4-3.2,3.2-3.2h31.7l11.4,7.5C62.3,75.3,63,76.4,63,77.6z"/>
	<path class="st0" d="M49.9,41v26H28.1V41c0-1,0.8-1.8,1.8-1.8h18.4C49.2,39.3,49.9,40.1,49.9,41z"/>
	<path class="st0" d="M47.3,3v36.3H30.7V4.9c0-0.2,0.1-0.4,0.2-0.5l0.8-1c0.2-0.2,0.4-0.3,0.7-0.3h14.9V3z"/>
	<path class="st4" d="M55.2,99.4h-23c-0.2,0-0.5-0.1-0.7-0.2L22.1,93c-1-0.7-0.5-2.2,0.7-2.2h23c0.2,0,0.5,0.1,0.7,0.2l9.4,6.2
		C56.8,97.9,56.4,99.4,55.2,99.4z"/>
	<path class="st0" d="M47.3,3H32.9l1.9-2.6c0.1-0.2,0.4-0.3,0.6-0.3h9.3c0.3,0,0.5,0.1,0.7,0.3L47,2.5L47.3,3z"/>
</g>
</svg>
