<svg xmlns="http://www.w3.org/2000/svg" viewBox="0 0 50.62 68.77"><defs><style>.cls-1{fill:#686868;}.cls-2{fill:#999;}.cls-3{fill:#c99f02;}.cls-4{fill:#fcd623;}.cls-5{fill:#e29200;}.cls-6{fill:#ffb921;}.cls-7{fill:#c68100;}.cls-8{fill:#f9b521;}.cls-9{fill:#b87700;}.cls-10{fill:#ebaa1f;}.cls-11{fill:#a36a00;}.cls-12{fill:#d69b1c;}.cls-13{fill:#c98200;}.cls-14{fill:#fcb621;}</style></defs><g id="Layer_2" data-name="Layer 2"><g id="Layer_1-2" data-name="Layer 1"><polyline class="cls-1" points="7.09 53.26 7.09 62.18 13.68 68.77 27.38 68.77 33.97 62.18 33.97 53.26"/><polyline class="cls-1" points="7.39 53.26 7.39 62.18 13.98 68.77 27.68 68.77 34.27 62.18 34.27 53.26"/><polyline class="cls-1" points="7.69 53.26 7.69 62.18 14.28 68.77 27.98 68.77 34.57 62.18 34.57 53.26"/><polyline class="cls-1" points="7.99 53.26 7.99 62.18 14.58 68.77 28.28 68.77 34.87 62.18 34.87 53.26"/><polyline class="cls-1" points="8.29 53.26 8.29 62.18 14.88 68.77 28.58 68.77 35.17 62.18 35.17 53.26"/><polyline class="cls-1" points="8.59 53.26 8.59 62.18 15.18 68.77 28.88 68.77 35.47 62.18 35.47 53.26"/><polyline class="cls-1" points="8.89 53.26 8.89 62.18 15.48 68.77 29.18 68.77 35.77 62.18 35.77 53.26"/><polyline class="cls-1" points="9.19 53.26 9.19 62.18 15.78 68.77 29.48 68.77 36.07 62.18 36.07 53.26"/><polyline class="cls-1" points="9.49 53.26 9.49 62.18 16.08 68.77 29.78 68.77 36.37 62.18 36.37 53.26"/><polyline class="cls-1" points="9.79 53.26 9.79 62.18 16.38 68.77 30.08 68.77 36.67 62.18 36.67 53.26"/><polyline class="cls-1" points="10.09 53.26 10.09 62.18 16.68 68.77 30.38 68.77 36.97 62.18 36.97 53.26"/><polyline class="cls-1" points="10.39 53.26 10.39 62.18 16.98 68.77 30.68 68.77 37.27 62.18 37.27 53.26"/><polyline class="cls-1" points="10.69 53.26 10.69 62.18 17.28 68.77 30.98 68.77 37.57 62.18 37.57 53.26"/><polyline class="cls-1" points="10.99 53.26 10.99 62.18 17.58 68.77 31.28 68.77 37.87 62.18 37.87 53.26"/><polyline class="cls-1" points="11.29 53.26 11.29 62.18 17.88 68.77 31.58 68.77 38.17 62.18 38.17 53.26"/><polyline class="cls-1" points="11.59 53.26 11.59 62.18 18.18 68.77 31.88 68.77 38.47 62.18 38.47 53.26"/><polyline class="cls-1" points="11.89 53.26 11.89 62.18 18.48 68.77 32.18 68.77 38.77 62.18 38.77 53.26"/><polyline class="cls-1" points="12.19 53.26 12.19 62.18 18.78 68.77 32.48 68.77 39.07 62.18 39.07 53.26"/><polyline class="cls-1" points="12.49 53.26 12.49 62.18 19.08 68.77 32.78 68.77 39.37 62.18 39.37 53.26"/><polyline class="cls-1" points="12.79 53.26 12.79 62.18 19.38 68.77 33.08 68.77 39.67 62.18 39.67 53.26"/><polyline class="cls-1" points="13.09 53.26 13.09 62.18 19.68 68.77 33.38 68.77 39.97 62.18 39.97 53.26"/><polyline class="cls-1" points="13.39 53.26 13.39 62.18 19.98 68.77 33.68 68.77 40.27 62.18 40.27 53.26"/><polyline class="cls-1" points="13.69 53.26 13.69 62.18 20.28 68.77 33.98 68.77 40.57 62.18 40.57 53.26"/><polyline class="cls-1" points="13.99 53.26 13.99 62.18 20.58 68.77 34.28 68.77 40.87 62.18 40.87 53.26"/><polyline class="cls-1" points="14.29 53.26 14.29 62.18 20.88 68.77 34.58 68.77 41.17 62.18 41.17 53.26"/><polyline class="cls-1" points="14.59 53.26 14.59 62.18 21.18 68.77 34.88 68.77 41.47 62.18 41.47 53.26"/><polyline class="cls-1" points="14.89 53.26 14.89 62.18 21.48 68.77 35.18 68.77 41.77 62.18 41.77 53.26"/><polyline class="cls-1" points="15.19 53.26 15.19 62.18 21.78 68.77 35.48 68.77 42.07 62.18 42.07 53.26"/><polyline class="cls-1" points="15.49 53.26 15.49 62.18 22.08 68.77 35.78 68.77 42.37 62.18 42.37 53.26"/><polyline class="cls-1" points="15.79 53.26 15.79 62.18 22.38 68.77 36.08 68.77 42.67 62.18 42.67 53.26"/><polyline class="cls-1" points="16.09 53.26 16.09 62.18 22.68 68.77 36.38 68.77 42.97 62.18 42.97 53.26"/><polyline class="cls-2" points="16.09 53.26 16.09 62.18 22.68 68.77 36.38 68.77 42.97 62.18 42.97 53.26"/><polyline class="cls-3" points="0 30.93 0 46.45 6.81 53.26 34.82 53.26 41.62 46.45 41.59 30.93"/><polyline class="cls-3" points="0.3 30.93 0.3 46.45 7.11 53.26 35.12 53.26 41.92 46.45 41.89 30.93"/><polyline class="cls-3" points="0.6 30.93 0.6 46.45 7.41 53.26 35.42 53.26 42.22 46.45 42.19 30.93"/><polyline class="cls-3" points="0.9 30.93 0.9 46.45 7.71 53.26 35.72 53.26 42.52 46.45 42.49 30.93"/><polyline class="cls-3" points="1.2 30.93 1.2 46.45 8.01 53.26 36.02 53.26 42.82 46.45 42.79 30.93"/><polyline class="cls-3" points="1.5 30.93 1.5 46.45 8.31 53.26 36.32 53.26 43.12 46.45 43.09 30.93"/><polyline class="cls-3" points="1.8 30.93 1.8 46.45 8.61 53.26 36.62 53.26 43.42 46.45 43.39 30.93"/><polyline class="cls-3" points="2.1 30.93 2.1 46.45 8.91 53.26 36.92 53.26 43.72 46.45 43.69 30.93"/><polyline class="cls-3" points="2.4 30.93 2.4 46.45 9.21 53.26 37.22 53.26 44.02 46.45 43.99 30.93"/><polyline class="cls-3" points="2.7 30.93 2.7 46.45 9.51 53.26 37.52 53.26 44.32 46.45 44.29 30.93"/><polyline class="cls-3" points="3 30.93 3 46.45 9.81 53.26 37.82 53.26 44.62 46.45 44.59 30.93"/><polyline class="cls-3" points="3.3 30.93 3.3 46.45 10.11 53.26 38.12 53.26 44.92 46.45 44.89 30.93"/><polyline class="cls-3" points="3.6 30.93 3.6 46.45 10.41 53.26 38.42 53.26 45.22 46.45 45.19 30.93"/><polyline class="cls-3" points="3.9 30.93 3.9 46.45 10.71 53.26 38.72 53.26 45.52 46.45 45.49 30.93"/><polyline class="cls-3" points="4.2 30.93 4.2 46.45 11.01 53.26 39.02 53.26 45.82 46.45 45.79 30.93"/><polyline class="cls-3" points="4.5 30.93 4.5 46.45 11.31 53.26 39.32 53.26 46.12 46.45 46.09 30.93"/><polyline class="cls-3" points="4.8 30.93 4.8 46.45 11.61 53.26 39.62 53.26 46.42 46.45 46.39 30.93"/><polyline class="cls-3" points="5.1 30.93 5.1 46.45 11.91 53.26 39.92 53.26 46.72 46.45 46.69 30.93"/><polyline class="cls-3" points="5.4 30.93 5.4 46.45 12.21 53.26 40.22 53.26 47.02 46.45 46.99 30.93"/><polyline class="cls-3" points="5.7 30.93 5.7 46.45 12.51 53.26 40.52 53.26 47.32 46.45 47.29 30.93"/><polyline class="cls-3" points="6 30.93 6 46.45 12.81 53.26 40.82 53.26 47.62 46.45 47.59 30.93"/><polyline class="cls-3" points="6.3 30.93 6.3 46.45 13.11 53.26 41.12 53.26 47.92 46.45 47.89 30.93"/><polyline class="cls-3" points="6.6 30.93 6.6 46.45 13.41 53.26 41.42 53.26 48.22 46.45 48.19 30.93"/><polyline class="cls-3" points="6.9 30.93 6.9 46.45 13.71 53.26 41.72 53.26 48.52 46.45 48.49 30.93"/><polyline class="cls-3" points="7.2 30.93 7.2 46.45 14.01 53.26 42.02 53.26 48.82 46.45 48.79 30.93"/><polyline class="cls-3" points="7.5 30.93 7.5 46.45 14.31 53.26 42.32 53.26 49.12 46.45 49.09 30.93"/><polyline class="cls-3" points="7.8 30.93 7.8 46.45 14.61 53.26 42.62 53.26 49.42 46.45 49.39 30.93"/><polyline class="cls-3" points="8.1 30.93 8.1 46.45 14.91 53.26 42.92 53.26 49.72 46.45 49.69 30.93"/><polyline class="cls-3" points="8.4 30.93 8.4 46.45 15.21 53.26 43.22 53.26 50.02 46.45 49.99 30.93"/><polyline class="cls-3" points="8.7 30.93 8.7 46.45 15.51 53.26 43.52 53.26 50.32 46.45 50.29 30.93"/><polyline class="cls-3" points="9 30.93 9 46.45 15.81 53.26 43.82 53.26 50.62 46.45 50.59 30.93"/><polyline class="cls-4" points="9 30.93 9 46.45 15.81 53.26 43.82 53.26 50.62 46.45 50.59 30.93"/><rect class="cls-5" x="35.89" width="5.73" height="30.93"/><rect class="cls-5" x="36.19" width="5.73" height="30.93"/><rect class="cls-5" x="36.49" width="5.73" height="30.93"/><rect class="cls-5" x="36.79" width="5.73" height="30.93"/><rect class="cls-5" x="37.09" width="5.73" height="30.93"/><rect class="cls-5" x="37.39" width="5.73" height="30.93"/><rect class="cls-5" x="37.69" width="5.73" height="30.93"/><rect class="cls-5" x="37.99" width="5.73" height="30.93"/><rect class="cls-5" x="38.29" width="5.73" height="30.93"/><rect class="cls-5" x="38.59" width="5.73" height="30.93"/><rect class="cls-5" x="38.89" width="5.73" height="30.93"/><rect class="cls-5" x="39.19" width="5.73" height="30.93"/><rect class="cls-5" x="39.49" width="5.73" height="30.93"/><rect class="cls-5" x="39.79" width="5.73" height="30.93"/><rect class="cls-5" x="40.09" width="5.73" height="30.93"/><rect class="cls-5" x="40.39" width="5.73" height="30.93"/><rect class="cls-5" x="40.69" width="5.73" height="30.93"/><rect class="cls-5" x="40.99" width="5.73" height="30.93"/><rect class="cls-5" x="41.29" width="5.73" height="30.93"/><rect class="cls-5" x="41.59" width="5.73" height="30.93"/><rect class="cls-5" x="41.89" width="5.73" height="30.93"/><rect class="cls-5" x="42.19" width="5.73" height="30.93"/><rect class="cls-5" x="42.49" width="5.73" height="30.93"/><rect class="cls-5" x="42.79" width="5.73" height="30.93"/><rect class="cls-5" x="43.09" width="5.73" height="30.93"/><rect class="cls-5" x="43.39" width="5.73" height="30.93"/><rect class="cls-5" x="43.69" width="5.73" height="30.93"/><rect class="cls-5" x="43.99" width="5.73" height="30.93"/><rect class="cls-5" x="44.29" width="5.73" height="30.93"/><rect class="cls-5" x="44.59" width="5.73" height="30.93"/><rect class="cls-5" x="44.89" width="5.73" height="30.93"/><rect class="cls-6" x="44.89" width="5.73" height="30.93"/><rect class="cls-7" x="26.69" y="3.78" width="5.73" height="27.14"/><rect class="cls-7" x="26.99" y="3.78" width="5.73" height="27.14"/><rect class="cls-7" x="27.29" y="3.78" width="5.73" height="27.14"/><rect class="cls-7" x="27.59" y="3.78" width="5.73" height="27.14"/><rect class="cls-7" x="27.89" y="3.78" width="5.73" height="27.14"/><rect class="cls-7" x="28.19" y="3.78" width="5.73" height="27.14"/><rect class="cls-7" x="28.49" y="3.78" width="5.73" height="27.14"/><rect class="cls-7" x="28.79" y="3.78" width="5.73" height="27.14"/><rect class="cls-7" x="29.09" y="3.78" width="5.73" height="27.14"/><rect class="cls-7" x="29.39" y="3.78" width="5.73" height="27.14"/><rect class="cls-7" x="29.69" y="3.78" width="5.73" height="27.14"/><rect class="cls-7" x="29.99" y="3.78" width="5.73" height="27.14"/><rect class="cls-7" x="30.29" y="3.78" width="5.73" height="27.14"/><rect class="cls-7" x="30.59" y="3.78" width="5.73" height="27.14"/><rect class="cls-7" x="30.89" y="3.78" width="5.73" height="27.14"/><rect class="cls-7" x="31.19" y="3.78" width="5.73" height="27.14"/><rect class="cls-7" x="31.49" y="3.78" width="5.73" height="27.14"/><rect class="cls-7" x="31.79" y="3.78" width="5.73" height="27.14"/><rect class="cls-7" x="32.09" y="3.78" width="5.73" height="27.14"/><rect class="cls-7" x="32.39" y="3.78" width="5.73" height="27.14"/><rect class="cls-7" x="32.69" y="3.78" width="5.73" height="27.14"/><rect class="cls-7" x="32.99" y="3.78" width="5.73" height="27.14"/><rect class="cls-7" x="33.29" y="3.78" width="5.73" height="27.14"/><rect class="cls-7" x="33.59" y="3.78" width="5.73" height="27.14"/><rect class="cls-7" x="33.89" y="3.78" width="5.73" height="27.14"/><rect class="cls-7" x="34.19" y="3.78" width="5.73" height="27.14"/><rect class="cls-7" x="34.49" y="3.78" width="5.73" height="27.14"/><rect class="cls-7" x="34.79" y="3.78" width="5.73" height="27.14"/><rect class="cls-7" x="35.09" y="3.78" width="5.73" height="27.14"/><rect class="cls-7" x="35.39" y="3.78" width="5.73" height="27.14"/><rect class="cls-7" x="35.69" y="3.78" width="5.73" height="27.14"/><rect class="cls-8" x="35.69" y="3.78" width="5.73" height="27.14"/><rect class="cls-9" x="17.67" y="11.25" width="5.73" height="19.67"/><rect class="cls-9" x="17.97" y="11.25" width="5.73" height="19.67"/><rect class="cls-9" x="18.27" y="11.25" width="5.73" height="19.67"/><rect class="cls-9" x="18.57" y="11.25" width="5.73" height="19.67"/><rect class="cls-9" x="18.87" y="11.25" width="5.73" height="19.67"/><rect class="cls-9" x="19.17" y="11.25" width="5.73" height="19.67"/><rect class="cls-9" x="19.47" y="11.25" width="5.73" height="19.67"/><rect class="cls-9" x="19.77" y="11.25" width="5.73" height="19.67"/><rect class="cls-9" x="20.07" y="11.25" width="5.73" height="19.67"/><rect class="cls-9" x="20.37" y="11.25" width="5.73" height="19.67"/><rect class="cls-9" x="20.67" y="11.25" width="5.73" height="19.67"/><rect class="cls-9" x="20.97" y="11.25" width="5.73" height="19.67"/><rect class="cls-9" x="21.27" y="11.25" width="5.73" height="19.67"/><rect class="cls-9" x="21.57" y="11.25" width="5.73" height="19.67"/><rect class="cls-9" x="21.87" y="11.25" width="5.73" height="19.67"/><rect class="cls-9" x="22.17" y="11.25" width="5.73" height="19.67"/><rect class="cls-9" x="22.47" y="11.25" width="5.73" height="19.67"/><rect class="cls-9" x="22.77" y="11.25" width="5.73" height="19.67"/><rect class="cls-9" x="23.07" y="11.25" width="5.73" height="19.67"/><rect class="cls-9" x="23.37" y="11.25" width="5.73" height="19.67"/><rect class="cls-9" x="23.67" y="11.25" width="5.73" height="19.67"/><rect class="cls-9" x="23.97" y="11.25" width="5.73" height="19.67"/><rect class="cls-9" x="24.27" y="11.25" width="5.73" height="19.67"/><rect class="cls-9" x="24.57" y="11.25" width="5.73" height="19.67"/><rect class="cls-9" x="24.87" y="11.25" width="5.73" height="19.67"/><rect class="cls-9" x="25.17" y="11.25" width="5.73" height="19.67"/><rect class="cls-9" x="25.47" y="11.25" width="5.73" height="19.67"/><rect class="cls-9" x="25.77" y="11.25" width="5.73" height="19.67"/><rect class="cls-9" x="26.07" y="11.25" width="5.73" height="19.67"/><rect class="cls-9" x="26.37" y="11.25" width="5.73" height="19.67"/><rect class="cls-9" x="26.67" y="11.25" width="5.73" height="19.67"/><rect class="cls-10" x="26.67" y="11.25" width="5.73" height="19.67"/><rect class="cls-11" x="8.83" y="7.66" width="5.73" height="23.27"/><rect class="cls-11" x="9.13" y="7.66" width="5.73" height="23.27"/><rect class="cls-11" x="9.43" y="7.66" width="5.73" height="23.27"/><rect class="cls-11" x="9.73" y="7.66" width="5.73" height="23.27"/><rect class="cls-11" x="10.03" y="7.66" width="5.73" height="23.27"/><rect class="cls-11" x="10.33" y="7.66" width="5.73" height="23.27"/><rect class="cls-11" x="10.63" y="7.66" width="5.73" height="23.27"/><rect class="cls-11" x="10.93" y="7.66" width="5.73" height="23.27"/><rect class="cls-11" x="11.23" y="7.66" width="5.73" height="23.27"/><rect class="cls-11" x="11.53" y="7.66" width="5.73" height="23.27"/><rect class="cls-11" x="11.83" y="7.66" width="5.73" height="23.27"/><rect class="cls-11" x="12.13" y="7.66" width="5.73" height="23.27"/><rect class="cls-11" x="12.43" y="7.66" width="5.73" height="23.27"/><rect class="cls-11" x="12.73" y="7.66" width="5.73" height="23.27"/><rect class="cls-11" x="13.03" y="7.66" width="5.73" height="23.27"/><rect class="cls-11" x="13.33" y="7.66" width="5.73" height="23.27"/><rect class="cls-11" x="13.63" y="7.66" width="5.73" height="23.27"/><rect class="cls-11" x="13.93" y="7.66" width="5.73" height="23.27"/><rect class="cls-11" x="14.23" y="7.66" width="5.73" height="23.27"/><rect class="cls-11" x="14.53" y="7.66" width="5.73" height="23.27"/><rect class="cls-11" x="14.83" y="7.66" width="5.73" height="23.27"/><rect class="cls-11" x="15.13" y="7.66" width="5.73" height="23.27"/><rect class="cls-11" x="15.43" y="7.66" width="5.73" height="23.27"/><rect class="cls-11" x="15.73" y="7.66" width="5.73" height="23.27"/><rect class="cls-11" x="16.03" y="7.66" width="5.73" height="23.27"/><rect class="cls-11" x="16.33" y="7.66" width="5.73" height="23.27"/><rect class="cls-11" x="16.63" y="7.66" width="5.73" height="23.27"/><rect class="cls-11" x="16.93" y="7.66" width="5.73" height="23.27"/><rect class="cls-11" x="17.23" y="7.66" width="5.73" height="23.27"/><rect class="cls-11" x="17.53" y="7.66" width="5.73" height="23.27"/><rect class="cls-11" x="17.83" y="7.66" width="5.73" height="23.27"/><rect class="cls-12" x="17.83" y="7.66" width="5.73" height="23.27"/><rect class="cls-13" y="14.98" width="5.73" height="15.94"/><rect class="cls-13" x="0.3" y="14.98" width="5.73" height="15.94"/><rect class="cls-13" x="0.6" y="14.98" width="5.73" height="15.94"/><rect class="cls-13" x="0.9" y="14.98" width="5.73" height="15.94"/><rect class="cls-13" x="1.2" y="14.98" width="5.73" height="15.94"/><rect class="cls-13" x="1.5" y="14.98" width="5.73" height="15.94"/><rect class="cls-13" x="1.8" y="14.98" width="5.73" height="15.94"/><rect class="cls-13" x="2.1" y="14.98" width="5.73" height="15.94"/><rect class="cls-13" x="2.4" y="14.98" width="5.73" height="15.94"/><rect class="cls-13" x="2.7" y="14.98" width="5.73" height="15.94"/><rect class="cls-13" x="3" y="14.98" width="5.73" height="15.94"/><rect class="cls-13" x="3.3" y="14.98" width="5.73" height="15.94"/><rect class="cls-13" x="3.6" y="14.98" width="5.73" height="15.94"/><rect class="cls-13" x="3.9" y="14.98" width="5.73" height="15.94"/><rect class="cls-13" x="4.2" y="14.98" width="5.73" height="15.94"/><rect class="cls-13" x="4.5" y="14.98" width="5.73" height="15.94"/><rect class="cls-13" x="4.8" y="14.98" width="5.73" height="15.94"/><rect class="cls-13" x="5.1" y="14.98" width="5.73" height="15.94"/><rect class="cls-13" x="5.4" y="14.98" width="5.73" height="15.94"/><rect class="cls-13" x="5.7" y="14.98" width="5.73" height="15.94"/><rect class="cls-13" x="6" y="14.98" width="5.73" height="15.94"/><rect class="cls-13" x="6.3" y="14.98" width="5.73" height="15.94"/><rect class="cls-13" x="6.6" y="14.98" width="5.73" height="15.94"/><rect class="cls-13" x="6.9" y="14.98" width="5.73" height="15.94"/><rect class="cls-13" x="7.2" y="14.98" width="5.73" height="15.94"/><rect class="cls-13" x="7.5" y="14.98" width="5.73" height="15.94"/><rect class="cls-13" x="7.8" y="14.98" width="5.73" height="15.94"/><rect class="cls-13" x="8.1" y="14.98" width="5.73" height="15.94"/><rect class="cls-13" x="8.4" y="14.98" width="5.73" height="15.94"/><rect class="cls-13" x="8.7" y="14.98" width="5.73" height="15.94"/><rect class="cls-13" x="9" y="14.98" width="5.73" height="15.94"/><rect class="cls-14" x="9" y="14.98" width="5.73" height="15.94"/></g></g></svg>