<svg id="Layer_1" data-name="Layer 1" xmlns="http://www.w3.org/2000/svg" viewBox="0 0 422.03 720"><defs><style>.cls-1{fill:#7c7c7c;}.cls-2{fill:#c2c2c2;}.cls-3{fill:#7b7b7b;}.cls-4{fill:#a7a7a7;}.cls-5{fill:#4d4d4d;}</style></defs><path class="cls-1" d="M207.29,633.54,4.2,525.87a7.91,7.91,0,0,1,0-14L207.29,404.19a8.1,8.1,0,0,1,7.42,0L417.8,511.86a7.91,7.91,0,0,1,0,14L214.71,633.54a7.94,7.94,0,0,1-7.42,0Z"/><path class="cls-2" d="M207.29,571.19,63,494.69a7.91,7.91,0,0,1,0-14l144.29-76.53a8.1,8.1,0,0,1,7.42,0L359,480.72a7.91,7.91,0,0,1,0,14l-144.32,76.5a7.94,7.94,0,0,1-7.42,0Z"/><path class="cls-3" d="M205.07,548.1l-93-49.3a12.56,12.56,0,0,1,0-22.18l93-49.34a12.64,12.64,0,0,1,11.72,0l93.13,49.25a12.57,12.57,0,0,1,0,22.18L216.79,548.1a12.42,12.42,0,0,1-11.72,0Z"/><path class="cls-4" d="M210.93,577.93v44.41a7.92,7.92,0,0,0,11.72,7L417.83,525.87a7.91,7.91,0,0,0,0-14L376,489.65a8.22,8.22,0,0,0-7.44,0L215.21,570.93a7.92,7.92,0,0,0-3.12,2.9A8,8,0,0,0,210.93,577.93Z"/><path class="cls-5" d="M233.05,475.06H231.7c-.82,0-.88,0-.88-.93v-9.58a15.4,15.4,0,0,0-.18-2.35,19.55,19.55,0,0,0-7.11-12.51,18,18,0,0,0-10.82-4.3,19.68,19.68,0,0,0-10.57,1.84,19.43,19.43,0,0,0-11,17.58v9.32c0,.76,0,.82-.82.82h-1.93a4.24,4.24,0,0,0-2.5.81,4.11,4.11,0,0,0-1.54,2.12,7,7,0,0,0-.39,2.49v32.72a4.41,4.41,0,0,0,3.58,4.46,4.5,4.5,0,0,1-3.16-4.93V480.4a6,6,0,0,1,0-1.2,4.12,4.12,0,0,1,1.3-2.58,4.19,4.19,0,0,1,2.68-1.09q1.2-.06,2.4,0c.5,0,.65,0,.65-.67v-9.41a19.63,19.63,0,0,1,39.23-1.17v10.26c0,.61.17.79.73.76a12.06,12.06,0,0,1,1.7,0,4.1,4.1,0,0,1,1.87.2,4.25,4.25,0,0,1,1.6,1,4.13,4.13,0,0,1,1,1.59,4.25,4.25,0,0,1,.22,1.87v33.95a4.07,4.07,0,0,1-.9,2.08,4,4,0,0,1-1.86,1.29.64.64,0,0,0-.64.27,3.7,3.7,0,0,0,3.28-2.55,6.53,6.53,0,0,0,.44-2.43V479.75a4.53,4.53,0,0,0-.34-1.89,4.56,4.56,0,0,0-2.73-2.57A4.61,4.61,0,0,0,233.05,475.06Z"/><path class="cls-5" d="M233.05,475.27a12.06,12.06,0,0,0-1.7,0c-.56,0-.73,0-.73-.76V464.25a19.63,19.63,0,0,0-39.23,1.18v9.17c0,.52,0,.67-.65.67q-1.2-.06-2.4,0a4.14,4.14,0,0,0-4,3.66,8,8,0,0,0,0,1.2v32.38a4.53,4.53,0,0,0,3.14,5h46.88c0-.3.44,0,.64-.27a4,4,0,0,0,1.86-1.29,4,4,0,0,0,.89-2.08v-34a4.13,4.13,0,0,0-.21-1.88,4.27,4.27,0,0,0-1-1.6,4.47,4.47,0,0,0-1.61-1A4.29,4.29,0,0,0,233.05,475.27Zm-19.19,22.94c.47,2.08.88,4.16,1.35,6.27,0,.47,0,.62-.5.62h-7.62c-.5,0-.62,0-.53-.62.5-2.14.91-4.28,1.38-6.42a.72.72,0,0,0,0-.48.71.71,0,0,0-.31-.37,5.3,5.3,0,1,1,8.3-5.9,5.39,5.39,0,0,1,.09,3.23,5.34,5.34,0,0,1-1.8,2.67,1,1,0,0,0-.33.45A.94.94,0,0,0,213.86,498.21Zm9.08-22.91H199.21c-.59,0-.73,0-.7-.73v-9.29a12.62,12.62,0,0,1,25-2.64,13.86,13.86,0,0,1,.24,2.73v9.28c-.12.5-.24.65-.73.65Z"/><path class="cls-5" d="M238,479.75v32.82a6.34,6.34,0,0,1-.44,2.43,3.64,3.64,0,0,1-1.21,1.75,3.72,3.72,0,0,1-2,.8c0-.3.44,0,.64-.27a4,4,0,0,0,1.86-1.29,4,4,0,0,0,.89-2.08v-34a4.24,4.24,0,0,0-.21-1.87,4.13,4.13,0,0,0-1-1.59,4.32,4.32,0,0,0-1.6-1,4.24,4.24,0,0,0-1.87-.2,12.06,12.06,0,0,0-1.7,0c-.56,0-.74,0-.74-.76V464.25a19.62,19.62,0,0,0-39.22,1.18v9.17c0,.52,0,.67-.65.67q-1.2-.06-2.4,0a4.14,4.14,0,0,0-4,3.66,8,8,0,0,0,0,1.2v32.38a4.51,4.51,0,0,0,3.11,5,4.39,4.39,0,0,1-3.46-4.46V480.4a7.24,7.24,0,0,1,.38-2.49,4.26,4.26,0,0,1,4.05-2.93h1.93c.64,0,.82,0,.82-.82v-9.32a19.44,19.44,0,0,1,10.93-17.61,19.74,19.74,0,0,1,10.46-1.84,18,18,0,0,1,10.81,4.3,19.59,19.59,0,0,1,7.12,12.51,15.39,15.39,0,0,1,.17,2.35v9.58c0,.88,0,.93.88.93h1.35a4.58,4.58,0,0,1,3.61,1.18,4.46,4.46,0,0,1,1.12,1.6A4.62,4.62,0,0,1,238,479.75Z"/></svg>