<svg width="149" height="82" viewBox="0 0 149 82" fill="none" xmlns="http://www.w3.org/2000/svg">
<path d="M72.8845 80.9421L1.48713 43.0908C1.03844 42.8549 0.662744 42.501 0.400641 42.0671C0.138538 41.6333 0 41.136 0 40.6291C0 40.1223 0.138538 39.625 0.400641 39.1912C0.662744 38.7573 1.03844 38.4033 1.48713 38.1675L72.8845 0.316165C73.2874 0.108403 73.7342 0 74.1875 0C74.6407 0 75.0875 0.108403 75.4904 0.316165L146.888 38.1675C147.336 38.4033 147.712 38.7573 147.974 39.1912C148.236 39.625 148.375 40.1223 148.375 40.6291C148.375 41.136 148.236 41.6333 147.974 42.0671C147.712 42.501 147.336 42.8549 146.888 43.0908L75.4904 80.9421C75.0891 81.1549 74.6417 81.2662 74.1875 81.2662C73.7332 81.2662 73.2859 81.1549 72.8845 80.9421Z" fill="#A7A7A7"/>
<path d="M72.8845 59.0244L22.1585 32.1319C21.7124 31.8952 21.3392 31.5414 21.0789 31.1087C20.8187 30.6759 20.6812 30.1804 20.6812 29.6754C20.6812 29.1704 20.8187 28.6749 21.0789 28.2422C21.3392 27.8094 21.7124 27.4557 22.1585 27.2189L72.8845 0.316165C73.2874 0.108403 73.7341 0 74.1874 0C74.6407 0 75.0874 0.108403 75.4903 0.316165L126.227 27.2189C126.673 27.4557 127.046 27.8094 127.306 28.2422C127.566 28.6749 127.704 29.1704 127.704 29.6754C127.704 30.1804 127.566 30.6759 127.306 31.1087C127.046 31.5414 126.673 31.8952 126.227 32.1319L75.4903 59.0244C75.089 59.2372 74.6416 59.3485 74.1874 59.3485C73.7331 59.3485 73.2858 59.2372 72.8845 59.0244Z" fill="#C2C2C2"/>
<path d="M72.1017 50.9081L39.4104 33.5737C38.704 33.1968 38.1132 32.635 37.7013 31.9483C37.2894 31.2617 37.0718 30.476 37.0718 29.6753C37.0718 28.8745 37.2894 28.0889 37.7013 27.4022C38.1132 26.7156 38.704 26.1538 39.4104 25.7768L72.1017 8.43218C72.7372 8.09922 73.4441 7.92529 74.1616 7.92529C74.8791 7.92529 75.5859 8.09922 76.2215 8.43218L108.964 25.7459C109.671 26.1229 110.261 26.6847 110.673 27.3713C111.085 28.058 111.303 28.8436 111.303 29.6444C111.303 30.4451 111.085 31.2308 110.673 31.9174C110.261 32.6041 109.671 33.1659 108.964 33.5428L76.2215 50.9081C75.5876 51.2462 74.8801 51.4231 74.1616 51.4231C73.4431 51.4231 72.7356 51.2462 72.1017 50.9081Z" fill="#7B7B7B"/>
<path d="M74.1617 61.3931V77.0075C74.1575 77.4927 74.2803 77.9705 74.5179 78.3936C74.7555 78.8166 75.0996 79.1702 75.5162 79.419C75.9327 79.6679 76.4071 79.8035 76.8922 79.8123C77.3774 79.821 77.8563 79.7027 78.2816 79.4691L146.898 43.0906C147.347 42.8548 147.722 42.5008 147.985 42.067C148.247 41.6331 148.385 41.1359 148.385 40.629C148.385 40.1221 148.247 39.6249 147.985 39.191C147.722 38.7571 147.347 38.4032 146.898 38.1674L132.18 30.3602C131.775 30.1524 131.327 30.0439 130.872 30.0439C130.417 30.0439 129.968 30.1524 129.564 30.3602L75.6655 58.9315C75.2144 59.166 74.836 59.5192 74.571 59.953C74.306 60.3868 74.1645 60.8848 74.1617 61.3931Z" fill="#7C7C7C"/>
<path d="M81.9379 25.231H81.4641C81.1758 25.231 81.1552 25.231 81.1552 24.9014C81.1552 23.7891 81.1552 22.6664 81.1552 21.5334C81.1554 21.2576 81.1348 20.9822 81.0934 20.7095C80.8491 18.9784 79.954 17.4056 78.5905 16.3115C77.526 15.4003 76.1894 14.8679 74.79 14.7975C73.5144 14.6667 72.2276 14.8913 71.0718 15.4463C69.9063 16.0036 68.9227 16.8801 68.2354 17.974C67.5481 19.0678 67.1852 20.3343 67.1888 21.6261C67.1888 22.7179 67.1888 23.8097 67.1888 24.9014C67.1888 25.1692 67.1888 25.1898 66.9004 25.1898C66.612 25.1898 66.4472 25.1898 66.2206 25.1898C65.9053 25.1895 65.598 25.289 65.3426 25.474C65.0873 25.659 64.8971 25.9201 64.7993 26.2198C64.7031 26.5014 64.6578 26.7978 64.6654 27.0953V38.6C64.654 38.9679 64.7744 39.3277 65.0047 39.6147C65.2351 39.9017 65.5603 40.0971 65.9219 40.1656C65.5611 40.0564 65.251 39.8223 65.0472 39.5052C64.8434 39.1881 64.7591 38.8088 64.8096 38.4352C64.8096 34.6449 64.8096 30.8444 64.8096 27.1056C64.799 26.965 64.799 26.8239 64.8096 26.6833C64.8491 26.3361 65.0125 26.0147 65.2698 25.7782C65.527 25.5418 65.861 25.406 66.2103 25.3958C66.4916 25.3804 66.7736 25.3804 67.0549 25.3958C67.23 25.3958 67.2815 25.3958 67.2815 25.1589V21.8527C67.2718 20.0519 67.9666 18.3186 69.2174 17.0229C70.4682 15.7272 72.176 14.9719 73.9761 14.9181C75.7762 14.8643 77.526 15.5164 78.852 16.7351C80.1779 17.9538 80.9749 19.6425 81.0728 21.4408C81.0728 22.6458 81.0728 23.8509 81.0728 25.0456C81.0728 25.2619 81.1346 25.3237 81.3303 25.3134C81.5291 25.2981 81.7288 25.2981 81.9276 25.3134C82.1495 25.2872 82.3743 25.3115 82.5855 25.3844C82.7967 25.4572 82.9886 25.5769 83.1471 25.7343C83.3055 25.8918 83.4263 26.083 83.5005 26.2937C83.5747 26.5044 83.6004 26.7291 83.5756 26.9511V38.5279C83.5756 38.6515 83.5756 38.7648 83.5756 38.8884C83.5416 39.1568 83.4327 39.4102 83.2615 39.6196C83.0903 39.8291 82.8636 39.9861 82.6074 40.0729C82.5353 40.0729 82.4323 40.0729 82.3808 40.1656C82.6408 40.1493 82.8899 40.0551 83.0956 39.8953C83.3014 39.7354 83.4543 39.5174 83.5344 39.2695C83.6421 38.9976 83.6946 38.707 83.6889 38.4146V26.879C83.6973 26.6514 83.6569 26.4246 83.5705 26.2139C83.4841 26.0032 83.3535 25.8134 83.1877 25.6574C83.0218 25.5013 82.8245 25.3825 82.6089 25.3089C82.3934 25.2354 82.1646 25.2088 81.9379 25.231Z" fill="#4D4D4D"/>
<path d="M81.938 25.3032C81.7391 25.2878 81.5394 25.2878 81.3406 25.3032C81.1449 25.3032 81.0831 25.3032 81.0831 25.0354C81.0831 23.8406 81.0831 22.6356 81.0831 21.4305C80.9852 19.6323 80.1882 17.9435 78.8623 16.7248C77.5364 15.5062 75.7866 14.8541 73.9865 14.9079C72.1863 14.9616 70.4786 15.717 69.2278 17.0126C67.9769 18.3083 67.2822 20.0416 67.2918 21.8425V25.0663C67.2918 25.2517 67.2918 25.3032 67.0652 25.3032C66.7839 25.2877 66.502 25.2877 66.2207 25.3032C65.8713 25.3133 65.5374 25.4491 65.2801 25.6856C65.0228 25.9221 64.8594 26.2434 64.8199 26.5906C64.8094 26.7312 64.8094 26.8724 64.8199 27.0129C64.8199 30.8032 64.8199 34.6038 64.8199 38.3941C64.7583 38.7727 64.836 39.1608 65.0387 39.4866C65.2413 39.8123 65.5551 40.0535 65.922 40.1656H82.4015C82.4015 40.0626 82.556 40.1656 82.6281 40.0729C82.8843 39.9862 83.111 39.8291 83.2822 39.6197C83.4534 39.4102 83.5622 39.1568 83.5962 38.8885C83.5962 38.7649 83.5962 38.6516 83.5962 38.528V26.9408C83.6213 26.7179 83.5955 26.4921 83.5208 26.2806C83.446 26.069 83.3242 25.8772 83.1646 25.7195C83.0049 25.5619 82.8116 25.4425 82.5991 25.3704C82.3867 25.2983 82.1606 25.2753 81.938 25.3032ZM75.1917 33.3678C75.3565 34.0991 75.5007 34.8304 75.6655 35.572C75.6655 35.7368 75.6655 35.7883 75.4904 35.7883H72.8125C72.6374 35.7883 72.5962 35.7883 72.6271 35.572C72.8022 34.8201 72.9463 34.0682 73.1111 33.3163C73.1307 33.2612 73.13 33.2009 73.1092 33.1462C73.0885 33.0915 73.049 33.046 72.9978 33.0176C72.6947 32.7771 72.4739 32.4483 72.3661 32.0767C72.2583 31.705 72.2688 31.3091 72.3962 30.9437C72.5235 30.5783 72.7614 30.2616 73.0768 30.0375C73.3923 29.8134 73.7696 29.693 74.1566 29.693C74.5435 29.693 74.9209 29.8134 75.2363 30.0375C75.5517 30.2616 75.7896 30.5783 75.917 30.9437C76.0443 31.3091 76.0548 31.705 75.947 32.0767C75.8392 32.4483 75.6184 32.7771 75.3153 33.0176C75.2619 33.0568 75.2215 33.1112 75.1995 33.1737C75.1774 33.2361 75.1747 33.3038 75.1917 33.3678ZM78.3846 25.3135H70.0418C69.8358 25.3135 69.7843 25.3135 69.7946 25.056C69.7946 24.026 69.7946 22.8828 69.7946 21.791C69.7585 20.67 70.1481 19.577 70.885 18.7315C71.6218 17.886 72.6514 17.3508 73.7668 17.2333C74.8822 17.1159 76.0006 17.4251 76.8974 18.0986C77.7942 18.7721 78.4028 19.7601 78.6009 20.864C78.6589 21.1799 78.6865 21.5007 78.6833 21.8219C78.6833 22.9137 78.6833 23.9951 78.6833 25.0869C78.6421 25.262 78.6009 25.3135 78.4258 25.3135H78.3846Z" fill="#4D4D4D"/>
<path d="M83.6786 26.879V38.4146C83.6843 38.707 83.6318 38.9976 83.5241 39.2695C83.446 39.5128 83.2978 39.7276 83.0981 39.887C82.8983 40.0464 82.656 40.1433 82.4014 40.1656C82.4014 40.0626 82.5559 40.1656 82.628 40.0729C82.8843 39.9862 83.1109 39.8291 83.2821 39.6196C83.4534 39.4102 83.5622 39.1568 83.5962 38.8884C83.5962 38.7648 83.5962 38.6515 83.5962 38.5279V26.9408C83.621 26.7188 83.5954 26.4941 83.5212 26.2834C83.447 26.0727 83.3261 25.8815 83.1677 25.724C83.0092 25.5666 82.8173 25.4469 82.6061 25.3741C82.395 25.3012 82.1701 25.2769 81.9483 25.3031C81.7494 25.2878 81.5497 25.2878 81.3509 25.3031C81.1552 25.3031 81.0934 25.3031 81.0934 25.0354C81.0934 23.8406 81.0934 22.6355 81.0934 21.4305C80.9955 19.6322 80.1985 17.9435 78.8726 16.7248C77.5466 15.5061 75.7968 14.8541 73.9967 14.9078C72.1966 14.9616 70.4889 15.717 69.2381 17.0126C67.9872 18.3083 67.2925 20.0416 67.3021 21.8424V25.0663C67.3021 25.2516 67.3021 25.3031 67.0755 25.3031C66.7942 25.2877 66.5123 25.2877 66.2309 25.3031C65.8816 25.3133 65.5477 25.4491 65.2904 25.6856C65.0331 25.922 64.8697 26.2434 64.8302 26.5906C64.8197 26.7312 64.8197 26.8723 64.8302 27.0129C64.8302 30.8032 64.8302 34.6038 64.8302 38.394C64.7681 38.7713 64.8443 39.1584 65.0449 39.4839C65.2455 39.8094 65.557 40.0515 65.9219 40.1656C65.568 40.0885 65.2523 39.8895 65.0301 39.6034C64.808 39.3172 64.6935 38.9621 64.7066 38.6V27.1056C64.699 26.8081 64.7444 26.5117 64.8405 26.2301C64.9383 25.9304 65.1285 25.6693 65.3839 25.4843C65.6392 25.2993 65.9465 25.1998 66.2618 25.2001C66.4884 25.2001 66.715 25.2001 66.9416 25.2001C67.1682 25.2001 67.23 25.2001 67.23 24.9118C67.23 23.82 67.23 22.7282 67.23 21.6365C67.2207 20.3472 67.5766 19.0817 68.2564 17.9863C68.9363 16.8908 69.9124 16.0102 71.0718 15.4463C72.2154 14.8988 73.4869 14.6744 74.7488 14.7975C76.1482 14.8679 77.4848 15.4004 78.5494 16.3115C79.9128 17.4057 80.8079 18.9784 81.0522 20.7095C81.0936 20.9822 81.1143 21.2576 81.114 21.5335C81.114 22.6664 81.114 23.7891 81.114 24.9015C81.114 25.2104 81.114 25.231 81.423 25.231H81.8968C82.1258 25.2041 82.358 25.2271 82.5774 25.2985C82.7967 25.3698 82.998 25.4879 83.1673 25.6445C83.3367 25.8011 83.4701 25.9926 83.5583 26.2057C83.6466 26.4188 83.6876 26.6485 83.6786 26.879Z" fill="#4D4D4D"/>
</svg>
