<svg xmlns="http://www.w3.org/2000/svg" viewBox="0 0 100 90.8"><defs><style>.cls-1{isolation:isolate;}.cls-2{fill:#333;}.cls-3{fill:#fac6b6;}.cls-4,.cls-7{mix-blend-mode:overlay;}.cls-5{fill:#ccc;}.cls-6{fill:#262626;}.cls-7{fill:#b3b3b3;}</style></defs><g class="cls-1"><g id="Layer_1" data-name="Layer 1"><path class="cls-2" d="M24.63,0H75.37A24.63,24.63,0,0,1,100,24.63V68A19.41,19.41,0,0,1,80.59,87.41H19.41A19.41,19.41,0,0,1,0,68V24.63A24.63,24.63,0,0,1,24.63,0Z"/><rect class="cls-3" x="9.96" y="19.59" width="80.08" height="71.21" rx="16.18"/><circle class="cls-3" cx="9.96" cy="61.35" r="7.29"/><circle class="cls-3" cx="90.04" cy="61.35" r="7.29"/><path class="cls-2" d="M100,22.92V39.18H51.21a16,16,0,0,1-16-16V0H77.08A22.92,22.92,0,0,1,100,22.92Z"/><path class="cls-2" d="M35.17,0V23.14a16,16,0,0,1-16,16H0V22.92A22.92,22.92,0,0,1,22.92,0Z"/><circle class="cls-2" cx="9.96" cy="39.18" r="8.79"/><circle class="cls-2" cx="90.04" cy="39.18" r="8.79"/><g class="cls-4"><path class="cls-5" d="M87.21,2.35H26.79A26.79,26.79,0,0,0,0,29.14V22.92A22.92,22.92,0,0,1,22.92,0H77.08A22.93,22.93,0,0,1,87.21,2.35Z"/></g><rect class="cls-6" x="59.33" y="49.21" width="10.95" height="18.61" rx="5.47"/><rect class="cls-6" x="29.73" y="49.14" width="10.95" height="18.61" rx="5.47"/><rect class="cls-7" x="31.42" y="51.77" width="2.47" height="4.2" rx="1.23"/><rect class="cls-7" x="61.02" y="51.77" width="2.57" height="4.37" rx="1.29"/><rect class="cls-6" x="26.71" y="42.69" width="16.98" height="4.11" rx="2.06"/><rect class="cls-6" x="56.31" y="42.69" width="16.98" height="4.11" rx="2.06"/></g></g></svg>