<svg xmlns="http://www.w3.org/2000/svg" viewBox="0 0 171.65 259.42"><defs><style>.cls-1{isolation:isolate;}.cls-2{fill:#2d3438;}.cls-3{fill:#7a8085;}.cls-4{fill:#c0b9a3;}.cls-5{fill:#282828;}.cls-6{fill:#444c51;}.cls-6,.cls-7{mix-blend-mode:overlay;}.cls-7{fill:#a0a0a0;opacity:0.42;}</style></defs><g class="cls-1"><g id="Layer_2" data-name="Layer 2"><g id="Layer_1-2" data-name="Layer 1"><rect class="cls-2" y="240.72" width="171.65" height="18.7"/><rect class="cls-3" y="93.57" width="171.65" height="147.15"/><polygon class="cls-4" points="154.04 0 154.04 93.57 122.73 93.57 122.73 31.31 48.92 31.31 48.92 93.57 17.61 93.57 17.61 0 154.04 0"/><rect class="cls-5" x="60.73" y="126.18" width="50.19" height="50.19" rx="25.09"/><polygon class="cls-5" points="105.93 200.55 65.72 200.55 72 168.01 99.64 168.01 105.93 200.55"/><polygon class="cls-6" points="138.86 15.19 138.86 93.57 122.71 93.57 122.71 31.33 48.93 31.33 48.93 93.57 32.78 93.57 32.78 15.19 138.86 15.19"/><polygon class="cls-7" points="171.65 93.57 171.65 139.41 70.34 240.72 51.64 259.42 0 259.42 0 192.08 98.51 93.57 122.71 93.57 122.71 69.37 154.04 38.04 154.04 93.57 171.65 93.57"/><polygon class="cls-7" points="116.05 0 84.74 31.31 84.72 31.33 48.93 31.33 48.93 67.11 48.92 67.12 32.78 83.26 22.47 93.57 0 116.04 0 93.57 17.61 93.57 17.61 0 116.05 0"/><polygon class="cls-7" points="171.65 205.5 171.65 259.42 117.73 259.42 171.65 205.5"/></g></g></g></svg>