<svg xmlns="http://www.w3.org/2000/svg" viewBox="0 0 51.95 75.28"><defs><style>.cls-1{fill:#3e4900;}.cls-2{fill:#789b14;}.cls-3{fill:#a4b706;}.cls-4{fill:#d0fb3b;}</style></defs><g id="Layer_2" data-name="Layer 2"><g id="Layer_1-2" data-name="Layer 1"><polygon class="cls-1" points="45.95 36.13 45.95 60.48 30.84 75.28 30.84 65.49 39.31 57.19 39.31 39.41 28.81 29.11 28.81 19.32 39.31 29.62 45.95 36.13"/><polygon class="cls-1" points="46.15 36.13 46.15 60.48 31.04 75.28 31.04 65.49 39.51 57.19 39.51 39.41 29.01 29.11 29.01 19.32 39.51 29.62 46.15 36.13"/><polygon class="cls-1" points="46.35 36.13 46.35 60.48 31.24 75.28 31.24 65.49 39.71 57.19 39.71 39.41 29.21 29.11 29.21 19.32 39.71 29.62 46.35 36.13"/><polygon class="cls-1" points="46.55 36.13 46.55 60.48 31.44 75.28 31.44 65.49 39.91 57.19 39.91 39.41 29.41 29.11 29.41 19.32 39.91 29.62 46.55 36.13"/><polygon class="cls-1" points="46.75 36.13 46.75 60.48 31.64 75.28 31.64 65.49 40.11 57.19 40.11 39.41 29.61 29.11 29.61 19.32 40.11 29.62 46.75 36.13"/><polygon class="cls-1" points="46.95 36.13 46.95 60.48 31.84 75.28 31.84 65.49 40.31 57.19 40.31 39.41 29.81 29.11 29.81 19.32 40.31 29.62 46.95 36.13"/><polygon class="cls-1" points="47.15 36.13 47.15 60.48 32.04 75.28 32.04 65.49 40.51 57.19 40.51 39.41 30.01 29.11 30.01 19.32 40.51 29.62 47.15 36.13"/><polygon class="cls-1" points="47.35 36.13 47.35 60.48 32.24 75.28 32.24 65.49 40.71 57.19 40.71 39.41 30.21 29.11 30.21 19.32 40.71 29.62 47.35 36.13"/><polygon class="cls-1" points="47.55 36.13 47.55 60.48 32.44 75.28 32.44 65.49 40.91 57.19 40.91 39.41 30.41 29.11 30.41 19.32 40.91 29.62 47.55 36.13"/><polygon class="cls-1" points="47.75 36.13 47.75 60.48 32.64 75.28 32.64 65.49 41.11 57.19 41.11 39.41 30.61 29.11 30.61 19.32 41.11 29.62 47.75 36.13"/><polygon class="cls-1" points="47.95 36.13 47.95 60.48 32.84 75.28 32.84 65.49 41.31 57.19 41.31 39.41 30.81 29.11 30.81 19.32 41.31 29.62 47.95 36.13"/><polygon class="cls-1" points="48.15 36.13 48.15 60.48 33.04 75.28 33.04 65.49 41.51 57.19 41.51 39.41 31.01 29.11 31.01 19.32 41.51 29.62 48.15 36.13"/><polygon class="cls-1" points="48.35 36.13 48.35 60.48 33.24 75.28 33.24 65.49 41.71 57.19 41.71 39.41 31.21 29.11 31.21 19.32 41.71 29.62 48.35 36.13"/><polygon class="cls-1" points="48.55 36.13 48.55 60.48 33.44 75.28 33.44 65.49 41.91 57.19 41.91 39.41 31.41 29.11 31.41 19.32 41.91 29.62 48.55 36.13"/><polygon class="cls-1" points="48.75 36.13 48.75 60.48 33.64 75.28 33.64 65.49 42.11 57.19 42.11 39.41 31.61 29.11 31.61 19.32 42.11 29.62 48.75 36.13"/><polygon class="cls-1" points="48.95 36.13 48.95 60.48 33.84 75.28 33.84 65.49 42.31 57.19 42.31 39.41 31.81 29.11 31.81 19.32 42.31 29.62 48.95 36.13"/><polygon class="cls-1" points="49.15 36.13 49.15 60.48 34.04 75.28 34.04 65.49 42.51 57.19 42.51 39.41 32.01 29.11 32.01 19.32 42.51 29.62 49.15 36.13"/><polygon class="cls-1" points="49.35 36.13 49.35 60.48 34.24 75.28 34.24 65.49 42.71 57.19 42.71 39.41 32.21 29.11 32.21 19.32 42.71 29.62 49.35 36.13"/><polygon class="cls-1" points="49.55 36.13 49.55 60.48 34.44 75.28 34.44 65.49 42.91 57.19 42.91 39.41 32.41 29.11 32.41 19.32 42.91 29.62 49.55 36.13"/><polygon class="cls-1" points="49.75 36.13 49.75 60.48 34.64 75.28 34.64 65.49 43.11 57.19 43.11 39.41 32.61 29.11 32.61 19.32 43.11 29.62 49.75 36.13"/><polygon class="cls-1" points="49.95 36.13 49.95 60.48 34.84 75.28 34.84 65.49 43.31 57.19 43.31 39.41 32.81 29.11 32.81 19.32 43.31 29.62 49.95 36.13"/><polygon class="cls-1" points="50.15 36.13 50.15 60.48 35.04 75.28 35.04 65.49 43.51 57.19 43.51 39.41 33.01 29.11 33.01 19.32 43.51 29.62 50.15 36.13"/><polygon class="cls-1" points="50.35 36.13 50.35 60.48 35.24 75.28 35.24 65.49 43.71 57.19 43.71 39.41 33.21 29.11 33.21 19.32 43.71 29.62 50.35 36.13"/><polygon class="cls-1" points="50.55 36.13 50.55 60.48 35.44 75.28 35.44 65.49 43.91 57.19 43.91 39.41 33.41 29.11 33.41 19.32 43.91 29.62 50.55 36.13"/><polygon class="cls-1" points="50.75 36.13 50.75 60.48 35.64 75.28 35.64 65.49 44.11 57.19 44.11 39.41 33.61 29.11 33.61 19.32 44.11 29.62 50.75 36.13"/><polygon class="cls-1" points="50.95 36.13 50.95 60.48 35.84 75.28 35.84 65.49 44.31 57.19 44.31 39.41 33.81 29.11 33.81 19.32 44.31 29.62 50.95 36.13"/><polygon class="cls-1" points="51.15 36.13 51.15 60.48 36.04 75.28 36.04 65.49 44.51 57.19 44.51 39.41 34.01 29.11 34.01 19.32 44.51 29.62 51.15 36.13"/><polygon class="cls-1" points="51.35 36.13 51.35 60.48 36.24 75.28 36.24 65.49 44.71 57.19 44.71 39.41 34.21 29.11 34.21 19.32 44.71 29.62 51.35 36.13"/><polygon class="cls-1" points="51.55 36.13 51.55 60.48 36.44 75.28 36.44 65.49 44.91 57.19 44.91 39.41 34.41 29.11 34.41 19.32 44.91 29.62 51.55 36.13"/><polygon class="cls-1" points="51.75 36.13 51.75 60.48 36.64 75.28 36.64 65.49 45.11 57.19 45.11 39.41 34.61 29.11 34.61 19.32 45.11 29.62 51.75 36.13"/><polygon class="cls-1" points="51.95 36.13 51.95 60.48 36.84 75.28 36.84 65.49 45.31 57.19 45.31 39.41 34.81 29.11 34.81 19.32 45.31 29.62 51.95 36.13"/><polygon class="cls-2" points="51.95 36.13 51.95 60.48 36.84 75.28 36.84 65.49 45.31 57.19 45.31 39.41 34.81 29.11 34.81 19.32 45.31 29.62 51.95 36.13"/><rect class="cls-3" x="17.14" width="11.67" height="29.14"/><rect class="cls-3" x="17.34" width="11.67" height="29.14"/><rect class="cls-3" x="17.54" width="11.67" height="29.14"/><rect class="cls-3" x="17.74" width="11.67" height="29.14"/><rect class="cls-3" x="17.94" width="11.67" height="29.14"/><rect class="cls-3" x="18.14" width="11.67" height="29.14"/><rect class="cls-3" x="18.34" width="11.67" height="29.14"/><rect class="cls-3" x="18.54" width="11.67" height="29.14"/><rect class="cls-3" x="18.74" width="11.67" height="29.14"/><rect class="cls-3" x="18.94" width="11.67" height="29.14"/><rect class="cls-3" x="19.14" width="11.67" height="29.14"/><rect class="cls-3" x="19.34" width="11.67" height="29.14"/><rect class="cls-3" x="19.54" width="11.67" height="29.14"/><rect class="cls-3" x="19.74" width="11.67" height="29.14"/><rect class="cls-3" x="19.94" width="11.67" height="29.14"/><rect class="cls-3" x="20.14" width="11.67" height="29.14"/><rect class="cls-3" x="20.34" width="11.67" height="29.14"/><rect class="cls-3" x="20.54" width="11.67" height="29.14"/><rect class="cls-3" x="20.74" width="11.67" height="29.14"/><rect class="cls-3" x="20.94" width="11.67" height="29.14"/><rect class="cls-3" x="21.14" width="11.67" height="29.14"/><rect class="cls-3" x="21.34" width="11.67" height="29.14"/><rect class="cls-3" x="21.54" width="11.67" height="29.14"/><rect class="cls-3" x="21.74" width="11.67" height="29.14"/><rect class="cls-3" x="21.94" width="11.67" height="29.14"/><rect class="cls-3" x="22.14" width="11.67" height="29.14"/><rect class="cls-3" x="22.34" width="11.67" height="29.14"/><rect class="cls-3" x="22.54" width="11.67" height="29.14"/><rect class="cls-3" x="22.74" width="11.67" height="29.14"/><rect class="cls-3" x="22.94" width="11.67" height="29.14"/><rect class="cls-3" x="23.14" width="11.67" height="29.14"/><rect class="cls-4" x="23.14" width="11.67" height="29.14"/><polygon class="cls-1" points="6.64 29.62 17.15 19.32 17.15 29.11 6.64 39.41 6.64 57.19 15.12 65.49 15.12 75.28 0 60.48 0 50.69 0.01 50.7 0.01 36.13 6.64 29.62"/><polygon class="cls-1" points="6.84 29.62 17.35 19.32 17.35 29.11 6.84 39.41 6.84 57.19 15.32 65.49 15.32 75.28 0.2 60.48 0.2 50.69 0.21 50.7 0.21 36.13 6.84 29.62"/><polygon class="cls-1" points="7.04 29.62 17.55 19.32 17.55 29.11 7.04 39.41 7.04 57.19 15.52 65.49 15.52 75.28 0.4 60.48 0.4 50.69 0.41 50.7 0.41 36.13 7.04 29.62"/><polygon class="cls-1" points="7.24 29.62 17.75 19.32 17.75 29.11 7.24 39.41 7.24 57.19 15.72 65.49 15.72 75.28 0.6 60.48 0.6 50.69 0.61 50.7 0.61 36.13 7.24 29.62"/><polygon class="cls-1" points="7.44 29.62 17.95 19.32 17.95 29.11 7.44 39.41 7.44 57.19 15.92 65.49 15.92 75.28 0.8 60.48 0.8 50.69 0.81 50.7 0.81 36.13 7.44 29.62"/><polygon class="cls-1" points="7.64 29.62 18.15 19.32 18.15 29.11 7.64 39.41 7.64 57.19 16.12 65.49 16.12 75.28 1 60.48 1 50.69 1.01 50.7 1.01 36.13 7.64 29.62"/><polygon class="cls-1" points="7.84 29.62 18.35 19.32 18.35 29.11 7.84 39.41 7.84 57.19 16.32 65.49 16.32 75.28 1.2 60.48 1.2 50.69 1.21 50.7 1.21 36.13 7.84 29.62"/><polygon class="cls-1" points="8.04 29.62 18.55 19.32 18.55 29.11 8.04 39.41 8.04 57.19 16.52 65.49 16.52 75.28 1.4 60.48 1.4 50.69 1.41 50.7 1.41 36.13 8.04 29.62"/><polygon class="cls-1" points="8.24 29.62 18.75 19.32 18.75 29.11 8.24 39.41 8.24 57.19 16.72 65.49 16.72 75.28 1.6 60.48 1.6 50.69 1.61 50.7 1.61 36.13 8.24 29.62"/><polygon class="cls-1" points="8.44 29.62 18.95 19.32 18.95 29.11 8.44 39.41 8.44 57.19 16.92 65.49 16.92 75.28 1.8 60.48 1.8 50.69 1.81 50.7 1.81 36.13 8.44 29.62"/><polygon class="cls-1" points="8.64 29.62 19.15 19.32 19.15 29.11 8.64 39.41 8.64 57.19 17.12 65.49 17.12 75.28 2 60.48 2 50.69 2.01 50.7 2.01 36.13 8.64 29.62"/><polygon class="cls-1" points="8.84 29.62 19.35 19.32 19.35 29.11 8.84 39.41 8.84 57.19 17.32 65.49 17.32 75.28 2.2 60.48 2.2 50.69 2.21 50.7 2.21 36.13 8.84 29.62"/><polygon class="cls-1" points="9.04 29.62 19.55 19.32 19.55 29.11 9.04 39.41 9.04 57.19 17.52 65.49 17.52 75.28 2.4 60.48 2.4 50.69 2.41 50.7 2.41 36.13 9.04 29.62"/><polygon class="cls-1" points="9.24 29.62 19.75 19.32 19.75 29.11 9.24 39.41 9.24 57.19 17.72 65.49 17.72 75.28 2.6 60.48 2.6 50.69 2.61 50.7 2.61 36.13 9.24 29.62"/><polygon class="cls-1" points="9.44 29.62 19.95 19.32 19.95 29.11 9.44 39.41 9.44 57.19 17.92 65.49 17.92 75.28 2.8 60.48 2.8 50.69 2.81 50.7 2.81 36.13 9.44 29.62"/><polygon class="cls-1" points="9.64 29.62 20.15 19.32 20.15 29.11 9.64 39.41 9.64 57.19 18.12 65.49 18.12 75.28 3 60.48 3 50.69 3.01 50.7 3.01 36.13 9.64 29.62"/><polygon class="cls-1" points="9.84 29.62 20.35 19.32 20.35 29.11 9.84 39.41 9.84 57.19 18.32 65.49 18.32 75.28 3.2 60.48 3.2 50.69 3.21 50.7 3.21 36.13 9.84 29.62"/><polygon class="cls-1" points="10.04 29.62 20.55 19.32 20.55 29.11 10.04 39.41 10.04 57.19 18.52 65.49 18.52 75.28 3.4 60.48 3.4 50.69 3.41 50.7 3.41 36.13 10.04 29.62"/><polygon class="cls-1" points="10.24 29.62 20.75 19.32 20.75 29.11 10.24 39.41 10.24 57.19 18.72 65.49 18.72 75.28 3.6 60.48 3.6 50.69 3.61 50.7 3.61 36.13 10.24 29.62"/><polygon class="cls-1" points="10.44 29.62 20.95 19.32 20.95 29.11 10.44 39.41 10.44 57.19 18.92 65.49 18.92 75.28 3.8 60.48 3.8 50.69 3.81 50.7 3.81 36.13 10.44 29.62"/><polygon class="cls-1" points="10.64 29.62 21.15 19.32 21.15 29.11 10.64 39.41 10.64 57.19 19.12 65.49 19.12 75.28 4 60.48 4 50.69 4.01 50.7 4.01 36.13 10.64 29.62"/><polygon class="cls-1" points="10.84 29.62 21.35 19.32 21.35 29.11 10.84 39.41 10.84 57.19 19.32 65.49 19.32 75.28 4.2 60.48 4.2 50.69 4.21 50.7 4.21 36.13 10.84 29.62"/><polygon class="cls-1" points="11.04 29.62 21.55 19.32 21.55 29.11 11.04 39.41 11.04 57.19 19.52 65.49 19.52 75.28 4.4 60.48 4.4 50.69 4.41 50.7 4.41 36.13 11.04 29.62"/><polygon class="cls-1" points="11.24 29.62 21.75 19.32 21.75 29.11 11.24 39.41 11.24 57.19 19.72 65.49 19.72 75.28 4.6 60.48 4.6 50.69 4.61 50.7 4.61 36.13 11.24 29.62"/><polygon class="cls-1" points="11.44 29.62 21.95 19.32 21.95 29.11 11.44 39.41 11.44 57.19 19.92 65.49 19.92 75.28 4.8 60.48 4.8 50.69 4.81 50.7 4.81 36.13 11.44 29.62"/><polygon class="cls-1" points="11.64 29.62 22.15 19.32 22.15 29.11 11.64 39.41 11.64 57.19 20.12 65.49 20.12 75.28 5 60.48 5 50.69 5.01 50.7 5.01 36.13 11.64 29.62"/><polygon class="cls-1" points="11.84 29.62 22.35 19.32 22.35 29.11 11.84 39.41 11.84 57.19 20.32 65.49 20.32 75.28 5.2 60.48 5.2 50.69 5.21 50.7 5.21 36.13 11.84 29.62"/><polygon class="cls-1" points="12.04 29.62 22.55 19.32 22.55 29.11 12.04 39.41 12.04 57.19 20.52 65.49 20.52 75.28 5.4 60.48 5.4 50.69 5.41 50.7 5.41 36.13 12.04 29.62"/><polygon class="cls-1" points="12.24 29.62 22.75 19.32 22.75 29.11 12.24 39.41 12.24 57.19 20.72 65.49 20.72 75.28 5.6 60.48 5.6 50.69 5.61 50.7 5.61 36.13 12.24 29.62"/><polygon class="cls-1" points="12.44 29.62 22.95 19.32 22.95 29.11 12.44 39.41 12.44 57.19 20.92 65.49 20.92 75.28 5.8 60.48 5.8 50.69 5.81 50.7 5.81 36.13 12.44 29.62"/><polygon class="cls-1" points="12.64 29.62 23.15 19.32 23.15 29.11 12.64 39.41 12.64 57.19 21.12 65.49 21.12 75.28 6 60.48 6 50.69 6.01 50.7 6.01 36.13 12.64 29.62"/><polygon class="cls-2" points="12.64 29.62 23.15 19.32 23.15 29.11 12.64 39.41 12.64 57.19 21.12 65.49 21.12 75.28 6 60.48 6 50.69 6.01 50.7 6.01 36.13 12.64 29.62"/></g></g></svg>