<svg xmlns="http://www.w3.org/2000/svg" xmlns:xlink="http://www.w3.org/1999/xlink" viewBox="0 0 399.48 363.16"><defs><style>.cls-1{fill:url(#linear-gradient);}.cls-2{fill:url(#linear-gradient-2);}.cls-3{fill:url(#linear-gradient-3);}.cls-4{fill:url(#linear-gradient-4);}.cls-5{fill:url(#linear-gradient-5);}.cls-6{fill:url(#linear-gradient-6);}.cls-7{fill:url(#linear-gradient-7);}.cls-8{fill:url(#linear-gradient-8);}.cls-9{fill:url(#linear-gradient-9);}.cls-10{fill:url(#linear-gradient-10);}.cls-11{fill:url(#linear-gradient-11);}.cls-12{fill:url(#linear-gradient-12);}.cls-13{fill:url(#linear-gradient-13);}.cls-14{fill:url(#linear-gradient-14);}.cls-15{fill:url(#linear-gradient-15);}.cls-16{fill:url(#linear-gradient-16);}.cls-17{fill:url(#linear-gradient-17);}.cls-18{fill:url(#linear-gradient-18);}.cls-19{fill:url(#linear-gradient-19);}.cls-20{fill:url(#linear-gradient-20);}.cls-21{fill:url(#linear-gradient-21);}.cls-22{fill:url(#linear-gradient-22);}.cls-23{fill:url(#linear-gradient-23);}.cls-24{fill:url(#linear-gradient-24);}.cls-25{fill:url(#linear-gradient-25);}.cls-26{fill:url(#linear-gradient-26);}.cls-27{fill:url(#linear-gradient-27);}.cls-28{fill:url(#linear-gradient-28);}.cls-29{fill:url(#linear-gradient-29);}.cls-30{fill:url(#linear-gradient-30);}.cls-31{fill:url(#linear-gradient-31);}.cls-32{fill:url(#linear-gradient-32);}</style><linearGradient id="linear-gradient" x1="177.24" y1="363.16" x2="177.24" y2="21" gradientUnits="userSpaceOnUse"><stop offset="0" stop-color="#839614"/><stop offset="1" stop-color="#a5c41b"/></linearGradient><linearGradient id="linear-gradient-2" x1="178.74" y1="362.46" x2="178.74" y2="20.3" xlink:href="#linear-gradient"/><linearGradient id="linear-gradient-3" x1="180.24" y1="361.76" x2="180.24" y2="19.6" xlink:href="#linear-gradient"/><linearGradient id="linear-gradient-4" x1="181.74" y1="361.06" x2="181.74" y2="18.9" xlink:href="#linear-gradient"/><linearGradient id="linear-gradient-5" x1="183.24" y1="360.36" x2="183.24" y2="18.2" xlink:href="#linear-gradient"/><linearGradient id="linear-gradient-6" x1="184.74" y1="359.66" x2="184.74" y2="17.5" xlink:href="#linear-gradient"/><linearGradient id="linear-gradient-7" x1="186.24" y1="358.96" x2="186.24" y2="16.8" xlink:href="#linear-gradient"/><linearGradient id="linear-gradient-8" x1="187.74" y1="358.26" x2="187.74" y2="16.1" xlink:href="#linear-gradient"/><linearGradient id="linear-gradient-9" x1="189.24" y1="357.56" x2="189.24" y2="15.4" xlink:href="#linear-gradient"/><linearGradient id="linear-gradient-10" x1="190.74" y1="356.86" x2="190.74" y2="14.7" xlink:href="#linear-gradient"/><linearGradient id="linear-gradient-11" x1="192.24" y1="356.16" x2="192.24" y2="14" xlink:href="#linear-gradient"/><linearGradient id="linear-gradient-12" x1="193.74" y1="355.46" x2="193.74" y2="13.3" xlink:href="#linear-gradient"/><linearGradient id="linear-gradient-13" x1="195.24" y1="354.76" x2="195.24" y2="12.6" xlink:href="#linear-gradient"/><linearGradient id="linear-gradient-14" x1="196.74" y1="354.06" x2="196.74" y2="11.9" xlink:href="#linear-gradient"/><linearGradient id="linear-gradient-15" x1="198.24" y1="353.36" x2="198.24" y2="11.2" xlink:href="#linear-gradient"/><linearGradient id="linear-gradient-16" x1="199.74" y1="352.66" x2="199.74" y2="10.5" xlink:href="#linear-gradient"/><linearGradient id="linear-gradient-17" x1="201.24" y1="351.96" x2="201.24" y2="9.8" xlink:href="#linear-gradient"/><linearGradient id="linear-gradient-18" x1="202.74" y1="351.26" x2="202.74" y2="9.1" xlink:href="#linear-gradient"/><linearGradient id="linear-gradient-19" x1="204.24" y1="350.56" x2="204.24" y2="8.4" xlink:href="#linear-gradient"/><linearGradient id="linear-gradient-20" x1="205.74" y1="349.86" x2="205.74" y2="7.7" xlink:href="#linear-gradient"/><linearGradient id="linear-gradient-21" x1="207.24" y1="349.16" x2="207.24" y2="7" xlink:href="#linear-gradient"/><linearGradient id="linear-gradient-22" x1="208.74" y1="348.46" x2="208.74" y2="6.3" xlink:href="#linear-gradient"/><linearGradient id="linear-gradient-23" x1="210.24" y1="347.76" x2="210.24" y2="5.6" xlink:href="#linear-gradient"/><linearGradient id="linear-gradient-24" x1="211.74" y1="347.06" x2="211.74" y2="4.9" xlink:href="#linear-gradient"/><linearGradient id="linear-gradient-25" x1="213.24" y1="346.36" x2="213.24" y2="4.2" xlink:href="#linear-gradient"/><linearGradient id="linear-gradient-26" x1="214.74" y1="345.66" x2="214.74" y2="3.5" xlink:href="#linear-gradient"/><linearGradient id="linear-gradient-27" x1="216.24" y1="344.96" x2="216.24" y2="2.8" xlink:href="#linear-gradient"/><linearGradient id="linear-gradient-28" x1="217.74" y1="344.26" x2="217.74" y2="2.1" xlink:href="#linear-gradient"/><linearGradient id="linear-gradient-29" x1="219.24" y1="343.56" x2="219.24" y2="1.4" xlink:href="#linear-gradient"/><linearGradient id="linear-gradient-30" x1="220.74" y1="342.86" x2="220.74" y2="0.7" xlink:href="#linear-gradient"/><linearGradient id="linear-gradient-31" x1="222.24" y1="342.16" x2="222.24" y2="0" xlink:href="#linear-gradient"/><linearGradient id="linear-gradient-32" x1="222.24" x2="222.24" y2="342.16" gradientUnits="userSpaceOnUse"><stop offset="0" stop-color="#e8f261"/><stop offset="1" stop-color="#d1d960"/></linearGradient></defs><g id="Layer_2" data-name="Layer 2"><g id="Layer_1-2" data-name="Layer 1"><path class="cls-1" d="M354.43,264.53A138.37,138.37,0,0,1,343.1,312.1a98.6,98.6,0,0,1-19.65,30.22c-16.07,16.52-35.77,22.29-58.32,20-32.74-3.28-54.9-26.16-59-60.94-1.78-14.94-.27-29.85.46-44.76,1.41-28.61,4.3-57.1,7.11-85.6,2.51-25.67,5-51.34,7-77.06.45-5.67.67-11.34,1.1-17,.13-1.77-.05-2.63-2.22-2.63q-36.68.12-73.36,0c-1.7,0-2.26.43-2.41,2.21Q141,110.35,138,144.1q-3.54,40-7.17,80c-2.1,23.1-4.71,46.14-9.09,68.94-2.84,14.78-6.39,29.35-13.17,42.93-6.94,13.88-17.18,23.5-33,26.48-22.22,4.22-43.91-11.8-46.65-34.14-1.11-9,1.31-16.79,5.77-24.25,5.53-9.22,12.2-17.65,18.57-26.27C79,243,94.36,203.73,102.38,161.4c5.19-27.36,7.37-55,8.22-82.81.1-3.39-1-4-4-4.19-12.49-1-24.88-1-37.24,1.37C49.6,79.57,34.75,90.1,24.6,107.36c-3.06,5.2-6.21,10.35-9.25,15.57-1.31,2.28-2.92,3.29-5.69,2.85-3-.49-6.1-.49-9.66-.74C8.22,106,14.55,87,22.18,68.41c9.17-22.33,25.59-35.11,49-39.95C92.9,24,114.93,22.58,137,22c71.37-1.91,142.74-.52,214.12-.24,2.21,0,3,.47,3,2.83,0,16.17.11,32.35.38,48.52,0,2.9-1.34,2.78-3.34,2.77-25.93-.22-51.87-.34-77.8-.65-3,0-3.56.87-3.59,3.66-.37,26.69-2.95,53.24-5.49,79.78-2.77,29-6.3,58-5.47,87.17.33,11.5,1.45,22.91,5.19,33.89,6.08,17.88,18.69,27,36.9,26.65s31.77-10.41,37.23-27.76a64.31,64.31,0,0,0,2.78-14.86c.13-1.88.62-2.6,2.58-2.47a50.38,50.38,0,0,0,7.77,0C353.88,261,354.57,261.93,354.43,264.53Z"/><path class="cls-2" d="M355.93,263.83A138.37,138.37,0,0,1,344.6,311.4,98.6,98.6,0,0,1,325,341.62c-16.07,16.52-35.77,22.29-58.32,20-32.74-3.28-54.9-26.16-59-60.94-1.78-14.94-.27-29.85.46-44.76,1.41-28.61,4.3-57.1,7.11-85.6,2.51-25.67,5-51.34,7-77.06.45-5.67.67-11.34,1.1-17,.13-1.77-.05-2.63-2.22-2.63q-36.68.12-73.36,0c-1.7,0-2.26.43-2.41,2.21q-2.83,33.77-5.86,67.51-3.54,40-7.17,80c-2.1,23.1-4.71,46.14-9.09,68.94-2.84,14.78-6.39,29.35-13.17,42.93-6.94,13.88-17.18,23.5-33,26.48C54.84,366,33.15,350,30.41,327.64c-1.11-9,1.31-16.79,5.77-24.25,5.53-9.22,12.2-17.65,18.57-26.27C80.54,242.27,95.86,203,103.88,160.7c5.19-27.36,7.37-55,8.22-82.81.1-3.39-1-4-4-4.19-12.49-1-24.88-1-37.24,1.37C51.1,78.87,36.25,89.4,26.1,106.66c-3.06,5.2-6.21,10.35-9.25,15.57-1.31,2.28-2.92,3.29-5.69,2.85-3-.49-6.1-.49-9.66-.74,8.22-19,14.55-38.07,22.18-56.63,9.17-22.33,25.59-35.11,49-39.95,21.75-4.51,43.78-5.88,65.86-6.47,71.37-1.91,142.74-.52,214.12-.24,2.21,0,3,.47,3,2.83,0,16.17.11,32.35.38,48.52,0,2.9-1.34,2.78-3.34,2.77-25.93-.22-51.87-.34-77.8-.65-3,0-3.56.87-3.59,3.66-.37,26.69-2.95,53.24-5.49,79.78-2.77,29-6.3,57.95-5.47,87.17.33,11.5,1.45,22.91,5.19,33.89,6.08,17.88,18.69,27,36.9,26.65s31.77-10.41,37.23-27.76a64.31,64.31,0,0,0,2.78-14.86c.13-1.88.62-2.6,2.58-2.47a50.38,50.38,0,0,0,7.77,0C355.38,260.33,356.07,261.23,355.93,263.83Z"/><path class="cls-3" d="M357.43,263.13A138.37,138.37,0,0,1,346.1,310.7a98.6,98.6,0,0,1-19.65,30.22c-16.07,16.52-35.77,22.29-58.32,20-32.74-3.28-54.9-26.16-59-60.94-1.78-14.94-.27-29.85.46-44.76,1.41-28.61,4.3-57.1,7.11-85.6,2.51-25.67,5-51.34,7-77.06.45-5.67.67-11.34,1.1-17,.13-1.77-.05-2.63-2.22-2.63q-36.68.12-73.36,0c-1.7,0-2.26.43-2.41,2.21Q144,109,141,142.7q-3.54,40-7.17,80c-2.1,23.1-4.71,46.14-9.09,68.94-2.84,14.78-6.39,29.35-13.17,42.93-6.94,13.88-17.18,23.5-33,26.48-22.22,4.22-43.91-11.8-46.65-34.14-1.11-9,1.31-16.79,5.77-24.25,5.53-9.22,12.2-17.65,18.57-26.27C82,241.57,97.36,202.33,105.38,160c5.19-27.36,7.37-55,8.22-82.81.1-3.39-1-4-4-4.19-12.49-1-24.88-1-37.24,1.37C52.6,78.17,37.75,88.7,27.6,106c-3.06,5.2-6.21,10.35-9.25,15.57-1.31,2.28-2.92,3.29-5.69,2.85-3-.49-6.1-.49-9.66-.74,8.22-19,14.55-38.07,22.18-56.63,9.17-22.33,25.59-35.11,49-39.95,21.75-4.51,43.78-5.88,65.86-6.47,71.37-1.91,142.74-.52,214.12-.24,2.21,0,3,.47,3,2.83,0,16.17.11,32.35.38,48.52,0,2.9-1.34,2.78-3.34,2.77-25.93-.22-51.87-.34-77.8-.65-3,0-3.56.87-3.59,3.66-.37,26.69-2.95,53.24-5.49,79.78-2.77,29-6.3,58-5.47,87.17.33,11.5,1.45,22.91,5.19,33.89,6.08,17.88,18.69,27,36.9,26.65s31.77-10.41,37.23-27.76a64.31,64.31,0,0,0,2.78-14.86c.13-1.88.62-2.6,2.58-2.47a50.38,50.38,0,0,0,7.77,0C356.88,259.63,357.57,260.53,357.43,263.13Z"/><path class="cls-4" d="M358.93,262.43A138.37,138.37,0,0,1,347.6,310,98.6,98.6,0,0,1,328,340.22c-16.07,16.52-35.77,22.29-58.32,20-32.74-3.28-54.9-26.16-59-60.94-1.78-14.94-.27-29.85.46-44.76,1.41-28.61,4.3-57.1,7.11-85.6,2.51-25.67,5-51.34,7-77.06.45-5.67.67-11.34,1.1-17,.13-1.77-.05-2.63-2.22-2.63q-36.68.12-73.36,0c-1.7,0-2.26.43-2.41,2.21q-2.83,33.77-5.86,67.51-3.54,40-7.17,80c-2.1,23.1-4.71,46.14-9.09,68.94-2.84,14.78-6.39,29.35-13.17,42.93-6.94,13.88-17.18,23.5-33,26.48-22.22,4.22-43.91-11.8-46.65-34.14-1.11-9,1.31-16.79,5.77-24.25,5.53-9.22,12.2-17.65,18.57-26.27,25.79-34.85,41.11-74.09,49.13-116.42,5.19-27.36,7.37-55,8.22-82.81.1-3.39-1-3.95-4-4.19-12.49-1-24.88-1-37.24,1.37C54.1,77.47,39.25,88,29.1,105.26c-3.06,5.2-6.21,10.35-9.25,15.57-1.31,2.28-2.92,3.29-5.69,2.85-3-.49-6.1-.49-9.66-.74,8.22-19,14.55-38.07,22.18-56.63C35.85,44,52.27,31.2,75.65,26.36c21.75-4.51,43.78-5.88,65.86-6.47,71.37-1.91,142.74-.52,214.12-.24,2.21,0,3,.47,3,2.83,0,16.17.11,32.35.38,48.52,0,2.9-1.34,2.78-3.34,2.77-25.93-.22-51.87-.34-77.8-.65-3,0-3.56.87-3.59,3.66-.37,26.69-2.95,53.24-5.49,79.78-2.77,29-6.3,57.95-5.47,87.17.33,11.5,1.45,22.91,5.19,33.89,6.08,17.88,18.69,27,36.9,26.65s31.77-10.41,37.23-27.76a64.31,64.31,0,0,0,2.78-14.86c.13-1.88.62-2.6,2.58-2.47a50.38,50.38,0,0,0,7.77,0C358.38,258.93,359.07,259.83,358.93,262.43Z"/><path class="cls-5" d="M360.43,261.73A138.37,138.37,0,0,1,349.1,309.3a98.6,98.6,0,0,1-19.65,30.22c-16.07,16.52-35.77,22.29-58.32,20-32.74-3.28-54.9-26.16-59-60.94-1.78-14.94-.27-29.85.46-44.76,1.41-28.61,4.3-57.1,7.11-85.6,2.51-25.67,5-51.34,7-77.06.45-5.67.67-11.34,1.1-17,.13-1.77-.05-2.63-2.22-2.63q-36.68.12-73.36,0c-1.7,0-2.26.43-2.41,2.21Q147,107.56,144,141.3q-3.54,40-7.17,80c-2.1,23.1-4.71,46.14-9.09,68.94-2.84,14.78-6.39,29.35-13.17,42.93-6.94,13.88-17.18,23.5-33,26.48-22.22,4.22-43.91-11.8-46.65-34.14-1.11-9,1.31-16.79,5.77-24.25,5.53-9.22,12.2-17.65,18.57-26.27C85,240.17,100.36,200.93,108.38,158.6c5.19-27.36,7.37-55,8.22-82.81.1-3.39-1-4-4-4.19-12.49-1-24.88-1-37.24,1.37C55.6,76.77,40.75,87.3,30.6,104.56c-3.06,5.2-6.21,10.35-9.25,15.57-1.31,2.28-2.92,3.29-5.69,2.85-3-.49-6.1-.49-9.66-.74,8.22-19,14.55-38.07,22.18-56.63,9.17-22.33,25.59-35.11,49-39.95,21.75-4.51,43.78-5.88,65.86-6.47,71.37-1.91,142.74-.52,214.12-.24,2.21,0,3,.47,3,2.83,0,16.17.11,32.35.38,48.52,0,2.9-1.34,2.78-3.34,2.77-25.93-.22-51.87-.34-77.8-.65-3,0-3.56.87-3.59,3.66-.37,26.69-2.95,53.24-5.49,79.78-2.77,29-6.3,57.95-5.47,87.17.33,11.5,1.45,22.91,5.19,33.89,6.08,17.88,18.69,27,36.9,26.65s31.77-10.41,37.23-27.76A64.31,64.31,0,0,0,346.89,261c.13-1.88.62-2.6,2.58-2.47a50.38,50.38,0,0,0,7.77,0C359.88,258.23,360.57,259.13,360.43,261.73Z"/><path class="cls-6" d="M361.93,261A138.37,138.37,0,0,1,350.6,308.6,98.6,98.6,0,0,1,331,338.82c-16.07,16.52-35.77,22.29-58.32,20-32.74-3.28-54.9-26.16-59-60.94-1.78-14.94-.27-29.85.46-44.76,1.41-28.61,4.3-57.1,7.11-85.6,2.51-25.67,5-51.34,7-77.06.45-5.67.67-11.34,1.1-17,.13-1.77-.05-2.63-2.22-2.63q-36.68.12-73.36,0c-1.7,0-2.26.43-2.41,2.21q-2.83,33.76-5.86,67.51-3.54,40-7.17,80c-2.1,23.1-4.71,46.14-9.09,68.94-2.84,14.78-6.39,29.35-13.17,42.93-6.94,13.88-17.18,23.5-33,26.48-22.22,4.22-43.91-11.8-46.65-34.14-1.11-9,1.31-16.79,5.77-24.25,5.53-9.22,12.2-17.65,18.57-26.27,25.79-34.85,41.11-74.09,49.13-116.42,5.19-27.36,7.37-55,8.22-82.81.1-3.39-1-4-4-4.19-12.49-1-24.88-1-37.24,1.37C57.1,76.07,42.25,86.6,32.1,103.86c-3.06,5.2-6.21,10.35-9.25,15.57-1.31,2.28-2.92,3.29-5.69,2.85-3-.49-6.1-.49-9.66-.74,8.22-19,14.55-38.07,22.18-56.63C38.85,42.58,55.27,29.8,78.65,25c21.75-4.51,43.78-5.88,65.86-6.47,71.37-1.91,142.74-.52,214.12-.24,2.21,0,3,.47,3,2.83,0,16.17.11,32.35.38,48.52,0,2.9-1.34,2.78-3.34,2.77-25.93-.22-51.87-.34-77.8-.65-3,0-3.56.87-3.59,3.66-.37,26.69-2.95,53.24-5.49,79.78-2.77,29-6.3,58-5.47,87.17.33,11.5,1.45,22.91,5.19,33.89,6.08,17.88,18.69,27,36.9,26.65s31.77-10.41,37.23-27.76a64.31,64.31,0,0,0,2.78-14.86c.13-1.88.62-2.6,2.58-2.47a50.38,50.38,0,0,0,7.77,0C361.38,257.53,362.07,258.43,361.93,261Z"/><path class="cls-7" d="M363.43,260.33A138.37,138.37,0,0,1,352.1,307.9a98.6,98.6,0,0,1-19.65,30.22c-16.07,16.52-35.77,22.29-58.32,20-32.74-3.28-54.9-26.16-59-60.94-1.78-14.94-.27-29.85.46-44.76,1.41-28.61,4.3-57.1,7.11-85.6,2.51-25.67,5-51.34,7-77.06.45-5.67.67-11.34,1.1-17,.13-1.77-.05-2.63-2.22-2.63q-36.68.12-73.36,0c-1.7,0-2.26.43-2.41,2.21Q150,106.16,147,139.9q-3.54,40-7.17,80c-2.1,23.1-4.71,46.14-9.09,68.94-2.84,14.78-6.39,29.35-13.17,42.93-6.94,13.88-17.18,23.5-33,26.48-22.22,4.22-43.91-11.8-46.65-34.14-1.11-9,1.31-16.79,5.77-24.25,5.53-9.22,12.2-17.65,18.57-26.27C88,238.77,103.36,199.53,111.38,157.2c5.19-27.36,7.37-55,8.22-82.81.1-3.39-1-4-4-4.19-12.49-1-24.88-1-37.24,1.37C58.6,75.37,43.75,85.9,33.6,103.16c-3.06,5.2-6.21,10.35-9.25,15.57C23,121,21.43,122,18.66,121.58c-3-.49-6.1-.49-9.66-.74,8.22-19,14.55-38.07,22.18-56.63,9.17-22.33,25.59-35.11,49-39.95,21.75-4.51,43.78-5.88,65.86-6.47,71.37-1.91,142.74-.52,214.12-.24,2.21,0,3,.47,3,2.83,0,16.17.11,32.35.38,48.52,0,2.9-1.34,2.78-3.34,2.77-25.93-.22-51.87-.34-77.8-.65-3,0-3.56.87-3.59,3.66-.37,26.69-2.95,53.24-5.49,79.78-2.77,29-6.3,57.95-5.47,87.17.33,11.5,1.45,22.91,5.19,33.89,6.08,17.88,18.69,27,36.9,26.65s31.77-10.41,37.23-27.76a64.31,64.31,0,0,0,2.78-14.86c.13-1.88.62-2.6,2.58-2.47a50.38,50.38,0,0,0,7.77,0C362.88,256.83,363.57,257.73,363.43,260.33Z"/><path class="cls-8" d="M364.93,259.63A138.37,138.37,0,0,1,353.6,307.2,98.6,98.6,0,0,1,334,337.42c-16.07,16.52-35.77,22.29-58.32,20-32.74-3.28-54.9-26.16-59-60.94-1.78-14.94-.27-29.85.46-44.76,1.41-28.61,4.3-57.1,7.11-85.6,2.51-25.67,5-51.34,7-77.06.45-5.67.67-11.34,1.1-17,.13-1.77-.05-2.63-2.22-2.63q-36.68.12-73.36,0c-1.7,0-2.26.43-2.41,2.21q-2.83,33.77-5.86,67.51-3.54,40-7.17,80c-2.1,23.1-4.71,46.14-9.09,68.94C129.36,303,125.81,317.52,119,331.1c-6.94,13.88-17.18,23.5-33,26.48-22.22,4.22-43.91-11.8-46.65-34.14-1.11-9,1.31-16.79,5.77-24.25,5.53-9.22,12.2-17.65,18.57-26.27,25.79-34.85,41.11-74.09,49.13-116.42,5.19-27.36,7.37-55,8.22-82.81.1-3.39-1-4-4-4.19-12.49-1-24.88-1-37.24,1.37C60.1,74.67,45.25,85.2,35.1,102.46c-3.06,5.2-6.21,10.35-9.25,15.57-1.31,2.28-2.92,3.29-5.69,2.85-3-.49-6.1-.49-9.66-.74,8.22-19,14.55-38.07,22.18-56.63,9.17-22.33,25.59-35.11,49-39.95,21.75-4.51,43.78-5.88,65.86-6.47,71.37-1.91,142.74-.52,214.12-.24,2.21,0,3,.47,3,2.83,0,16.17.11,32.35.38,48.52,0,2.9-1.34,2.78-3.34,2.77-25.93-.22-51.87-.34-77.8-.65-3,0-3.56.87-3.59,3.66-.37,26.69-2.95,53.24-5.49,79.78-2.77,29-6.3,58-5.47,87.17.33,11.5,1.45,22.91,5.19,33.89,6.08,17.88,18.69,27,36.9,26.65s31.77-10.41,37.23-27.76a64.31,64.31,0,0,0,2.78-14.86c.13-1.88.62-2.6,2.58-2.47a50.38,50.38,0,0,0,7.77,0C364.38,256.13,365.07,257,364.93,259.63Z"/><path class="cls-9" d="M366.43,258.93A138.37,138.37,0,0,1,355.1,306.5a98.6,98.6,0,0,1-19.65,30.22c-16.07,16.52-35.77,22.29-58.32,20-32.74-3.28-54.9-26.16-59-60.94-1.78-14.94-.27-29.85.46-44.76,1.41-28.61,4.3-57.1,7.11-85.6,2.51-25.67,5-51.34,7-77.06.45-5.67.67-11.34,1.1-17,.13-1.77-.05-2.63-2.22-2.63q-36.68.12-73.36,0c-1.7,0-2.26.43-2.41,2.21Q153,104.76,150,138.5q-3.54,40-7.17,80c-2.1,23.1-4.71,46.14-9.09,68.94-2.84,14.78-6.39,29.35-13.17,42.93-6.94,13.88-17.18,23.5-33,26.48-22.22,4.22-43.91-11.8-46.65-34.14-1.11-9,1.31-16.79,5.77-24.25,5.53-9.22,12.2-17.65,18.57-26.27C91,237.37,106.36,198.13,114.38,155.8c5.19-27.36,7.37-55,8.22-82.81.1-3.39-1-3.95-4-4.19-12.49-1-24.88-1-37.24,1.37C61.6,74,46.75,84.5,36.6,101.76c-3.06,5.2-6.21,10.35-9.25,15.57-1.31,2.28-2.92,3.29-5.69,2.85-3-.49-6.1-.49-9.66-.74,8.22-19,14.55-38.07,22.18-56.63,9.17-22.33,25.59-35.11,49-39.95C104.9,18.35,126.93,17,149,16.39c71.37-1.91,142.74-.52,214.12-.24,2.21,0,3,.47,3,2.83,0,16.17.11,32.35.38,48.52,0,2.9-1.34,2.78-3.34,2.77-25.93-.22-51.87-.34-77.8-.65-3,0-3.56.87-3.59,3.66-.37,26.69-2.95,53.24-5.49,79.78-2.77,29-6.3,57.95-5.47,87.17.33,11.5,1.45,22.91,5.19,33.89,6.08,17.88,18.69,27,36.9,26.65s31.77-10.41,37.23-27.76a64.31,64.31,0,0,0,2.78-14.86c.13-1.88.62-2.6,2.58-2.47a50.38,50.38,0,0,0,7.77,0C365.88,255.43,366.57,256.33,366.43,258.93Z"/><path class="cls-10" d="M367.93,258.23A138.37,138.37,0,0,1,356.6,305.8,98.6,98.6,0,0,1,337,336c-16.07,16.52-35.77,22.29-58.32,20-32.74-3.28-54.9-26.16-59-60.94-1.78-14.94-.27-29.85.46-44.76,1.41-28.61,4.3-57.1,7.11-85.6,2.51-25.67,5-51.34,7-77.06.45-5.67.67-11.34,1.1-17,.13-1.77-.05-2.63-2.22-2.63q-36.68.12-73.36,0c-1.7,0-2.26.43-2.41,2.21q-2.83,33.76-5.86,67.51-3.54,40-7.17,80c-2.1,23.1-4.71,46.14-9.09,68.94-2.84,14.78-6.39,29.35-13.17,42.93-6.94,13.88-17.18,23.5-33,26.48C66.84,360.4,45.15,344.38,42.41,322c-1.11-9,1.31-16.79,5.77-24.25,5.53-9.22,12.2-17.65,18.57-26.27,25.79-34.85,41.11-74.09,49.13-116.42,5.19-27.36,7.37-55,8.22-82.81.1-3.39-1-4-4-4.19-12.49-1-24.88-1-37.24,1.37C63.1,73.27,48.25,83.8,38.1,101.06c-3.06,5.2-6.21,10.35-9.25,15.57-1.31,2.28-2.92,3.29-5.69,2.85-3-.49-6.1-.49-9.66-.74,8.22-19,14.55-38.07,22.18-56.63,9.17-22.33,25.59-35.11,49-39.95,21.75-4.51,43.78-5.88,65.86-6.47,71.37-1.91,142.74-.52,214.12-.24,2.21,0,3,.47,3,2.83,0,16.17.11,32.35.38,48.52,0,2.9-1.34,2.78-3.34,2.77-25.93-.22-51.87-.34-77.8-.65-3,0-3.56.87-3.59,3.66-.37,26.69-2.95,53.24-5.49,79.78-2.77,29-6.3,57.95-5.47,87.17.33,11.5,1.45,22.91,5.19,33.89,6.08,17.88,18.69,27,36.9,26.65s31.77-10.41,37.23-27.76a64.31,64.31,0,0,0,2.78-14.86c.13-1.88.62-2.6,2.58-2.47a50.38,50.38,0,0,0,7.77,0C367.38,254.73,368.07,255.63,367.93,258.23Z"/><path class="cls-11" d="M369.43,257.53A138.37,138.37,0,0,1,358.1,305.1a98.6,98.6,0,0,1-19.65,30.22c-16.07,16.52-35.77,22.29-58.32,20-32.74-3.28-54.9-26.16-59-60.94-1.78-14.94-.27-29.85.46-44.76,1.41-28.61,4.3-57.1,7.11-85.6,2.51-25.67,5-51.34,7-77.06.45-5.67.67-11.34,1.1-17,.13-1.77-.05-2.63-2.22-2.63q-36.68.12-73.36,0c-1.7,0-2.26.43-2.41,2.21Q156,103.35,153,137.1q-3.54,40-7.17,80c-2.1,23.1-4.71,46.14-9.09,68.94-2.84,14.78-6.39,29.35-13.17,42.93-6.94,13.88-17.18,23.5-33,26.48-22.22,4.22-43.91-11.8-46.65-34.14-1.11-9,1.31-16.79,5.77-24.25,5.53-9.22,12.2-17.65,18.57-26.27C94,236,109.36,196.73,117.38,154.4c5.19-27.36,7.37-55,8.22-82.81.1-3.39-1-4-4-4.19-12.49-1-24.88-1-37.24,1.37C64.6,72.57,49.75,83.1,39.6,100.36c-3.06,5.2-6.21,10.35-9.25,15.57-1.31,2.28-2.92,3.29-5.69,2.85-3-.49-6.1-.49-9.66-.74C23.22,99,29.55,80,37.18,61.41c9.17-22.33,25.59-35.11,49-39.95C107.9,17,129.93,15.58,152,15c71.37-1.91,142.74-.52,214.12-.24,2.21,0,3,.47,3,2.83,0,16.17.11,32.35.38,48.52,0,2.9-1.34,2.78-3.34,2.77-25.93-.22-51.87-.34-77.8-.65-3,0-3.56.87-3.59,3.66-.37,26.69-2.95,53.24-5.49,79.78-2.77,29-6.3,58-5.47,87.17.33,11.5,1.45,22.91,5.19,33.89,6.08,17.88,18.69,27,36.9,26.65s31.77-10.41,37.23-27.76a64.31,64.31,0,0,0,2.78-14.86c.13-1.88.62-2.6,2.58-2.47a50.38,50.38,0,0,0,7.77,0C368.88,254,369.57,254.93,369.43,257.53Z"/><path class="cls-12" d="M370.93,256.83A138.37,138.37,0,0,1,359.6,304.4,98.6,98.6,0,0,1,340,334.62c-16.07,16.52-35.77,22.29-58.32,20-32.74-3.28-54.9-26.16-59-60.94-1.78-14.94-.27-29.85.46-44.76,1.41-28.61,4.3-57.1,7.11-85.6,2.51-25.67,5-51.34,7-77.06.45-5.67.67-11.34,1.1-17,.13-1.77-.05-2.63-2.22-2.63q-36.68.12-73.36,0c-1.7,0-2.26.43-2.41,2.21q-2.83,33.77-5.86,67.51-3.54,40-7.17,80c-2.1,23.1-4.71,46.14-9.09,68.94-2.84,14.78-6.39,29.35-13.17,42.93-6.94,13.88-17.18,23.5-33,26.48C69.84,359,48.15,343,45.41,320.64c-1.11-9,1.31-16.79,5.77-24.25,5.53-9.22,12.2-17.65,18.57-26.27C95.54,235.27,110.86,196,118.88,153.7c5.19-27.36,7.37-55,8.22-82.81.1-3.39-1-4-4-4.19-12.49-1-24.88-1-37.24,1.37C66.1,71.87,51.25,82.4,41.1,99.66c-3.06,5.2-6.21,10.35-9.25,15.57-1.31,2.28-2.92,3.29-5.69,2.85-3-.49-6.1-.49-9.66-.74,8.22-19,14.55-38.07,22.18-56.63,9.17-22.33,25.59-35.11,49-39.95,21.75-4.51,43.78-5.88,65.86-6.47,71.37-1.91,142.74-.52,214.12-.24,2.21,0,3,.47,3,2.83,0,16.17.11,32.35.38,48.52,0,2.9-1.34,2.78-3.34,2.77-25.93-.22-51.87-.34-77.8-.65-3,0-3.56.87-3.59,3.66-.37,26.69-2.95,53.24-5.49,79.78-2.77,29-6.3,57.95-5.47,87.17.33,11.5,1.45,22.91,5.19,33.89,6.08,17.88,18.69,27,36.9,26.65s31.77-10.41,37.23-27.76a64.31,64.31,0,0,0,2.78-14.86c.13-1.88.62-2.6,2.58-2.47a50.38,50.38,0,0,0,7.77,0C370.38,253.33,371.07,254.23,370.93,256.83Z"/><path class="cls-13" d="M372.43,256.13A138.37,138.37,0,0,1,361.1,303.7a98.6,98.6,0,0,1-19.65,30.22c-16.07,16.52-35.77,22.29-58.32,20-32.74-3.28-54.9-26.16-59-60.94-1.78-14.94-.27-29.85.46-44.76,1.41-28.61,4.3-57.1,7.11-85.6,2.51-25.67,5-51.34,7-77.06.45-5.67.67-11.34,1.1-17,.13-1.77-.05-2.63-2.22-2.63q-36.68.12-73.36,0c-1.7,0-2.26.43-2.41,2.21Q159,102,156,135.7q-3.54,40-7.17,80c-2.1,23.1-4.71,46.14-9.09,68.94-2.84,14.78-6.39,29.35-13.17,42.93-6.94,13.88-17.18,23.5-33,26.48-22.22,4.22-43.91-11.8-46.65-34.14-1.11-9,1.31-16.79,5.77-24.25,5.53-9.22,12.2-17.65,18.57-26.27C97,234.57,112.36,195.33,120.38,153c5.19-27.36,7.37-55,8.22-82.81.1-3.39-1-4-4-4.19-12.49-1-24.88-1-37.24,1.37C67.6,71.17,52.75,81.7,42.6,99c-3.06,5.2-6.21,10.35-9.25,15.57-1.31,2.28-2.92,3.29-5.69,2.85-3-.49-6.1-.49-9.66-.74,8.22-19,14.55-38.07,22.18-56.63,9.17-22.33,25.59-35.11,49-39.95,21.75-4.51,43.78-5.88,65.86-6.47,71.37-1.91,142.74-.52,214.12-.24,2.21,0,3,.47,3,2.83,0,16.17.11,32.35.38,48.52,0,2.9-1.34,2.78-3.34,2.77-25.93-.22-51.87-.34-77.8-.65-3,0-3.56.87-3.59,3.66-.37,26.69-2.95,53.24-5.49,79.78-2.77,29-6.3,58-5.47,87.17.33,11.5,1.45,22.91,5.19,33.89,6.08,17.88,18.69,27,36.9,26.65s31.77-10.41,37.23-27.76a64.31,64.31,0,0,0,2.78-14.86c.13-1.88.62-2.6,2.58-2.47a50.38,50.38,0,0,0,7.77,0C371.88,252.63,372.57,253.53,372.43,256.13Z"/><path class="cls-14" d="M373.93,255.43A138.37,138.37,0,0,1,362.6,303,98.6,98.6,0,0,1,343,333.22c-16.07,16.52-35.77,22.29-58.32,20-32.74-3.28-54.9-26.16-59-60.94-1.78-14.94-.27-29.85.46-44.76,1.41-28.61,4.3-57.1,7.11-85.6,2.51-25.67,5-51.34,7-77.06.45-5.67.67-11.34,1.1-17,.13-1.77-.05-2.63-2.22-2.63q-36.68.12-73.36,0c-1.7,0-2.26.43-2.41,2.21q-2.83,33.77-5.86,67.51-3.54,40-7.17,80c-2.1,23.1-4.71,46.14-9.09,68.94-2.84,14.78-6.39,29.35-13.17,42.93-6.94,13.88-17.18,23.5-33,26.48-22.22,4.22-43.91-11.8-46.65-34.14-1.11-9,1.31-16.79,5.77-24.25,5.53-9.22,12.2-17.65,18.57-26.27,25.79-34.85,41.11-74.09,49.13-116.42,5.19-27.36,7.37-55,8.22-82.81.1-3.39-1-3.95-4-4.19-12.49-1-24.88-1-37.24,1.37C69.1,70.47,54.25,81,44.1,98.26c-3.06,5.2-6.21,10.35-9.25,15.57-1.31,2.28-2.92,3.29-5.69,2.85-3-.49-6.1-.49-9.66-.74,8.22-19,14.55-38.07,22.18-56.63C50.85,37,67.27,24.2,90.65,19.36c21.75-4.51,43.78-5.88,65.86-6.47,71.37-1.91,142.74-.52,214.12-.24,2.21,0,3,.47,3,2.83,0,16.17.11,32.35.38,48.52,0,2.9-1.34,2.78-3.34,2.77-25.93-.22-51.87-.34-77.8-.65-3,0-3.56.87-3.59,3.66-.37,26.69-2.95,53.24-5.49,79.78-2.77,29-6.3,57.95-5.47,87.17.33,11.5,1.45,22.91,5.19,33.89,6.08,17.88,18.69,27,36.9,26.65s31.77-10.41,37.23-27.76a64.31,64.31,0,0,0,2.78-14.86c.13-1.88.62-2.6,2.58-2.47a50.38,50.38,0,0,0,7.77,0C373.38,251.93,374.07,252.83,373.93,255.43Z"/><path class="cls-15" d="M375.43,254.73A138.37,138.37,0,0,1,364.1,302.3a98.6,98.6,0,0,1-19.65,30.22c-16.07,16.52-35.77,22.29-58.32,20-32.74-3.28-54.9-26.16-59-60.94-1.78-14.94-.27-29.85.46-44.76,1.41-28.61,4.3-57.1,7.11-85.6,2.51-25.67,5-51.34,7-77.06.45-5.67.67-11.34,1.1-17,.13-1.77-.05-2.63-2.22-2.63q-36.68.12-73.36,0c-1.7,0-2.26.43-2.41,2.21Q162,100.56,159,134.3q-3.54,40-7.17,80c-2.1,23.1-4.71,46.14-9.09,68.94-2.84,14.78-6.39,29.35-13.17,42.93-6.94,13.88-17.18,23.5-33,26.48-22.22,4.22-43.91-11.8-46.65-34.14-1.11-9,1.31-16.79,5.77-24.25,5.53-9.22,12.2-17.65,18.57-26.27,25.79-34.85,41.11-74.09,49.13-116.42,5.19-27.36,7.37-55,8.22-82.81.1-3.39-1-4-4-4.19-12.49-1-24.88-1-37.24,1.37C70.6,69.77,55.75,80.3,45.6,97.56c-3.06,5.2-6.21,10.35-9.25,15.57-1.31,2.28-2.92,3.29-5.69,2.85-3-.49-6.1-.49-9.66-.74,8.22-19,14.55-38.07,22.18-56.63,9.17-22.33,25.59-35.11,49-39.95,21.75-4.51,43.78-5.88,65.86-6.47,71.37-1.91,142.74-.52,214.12-.24,2.21,0,3,.47,3,2.83,0,16.17.11,32.35.38,48.52,0,2.9-1.34,2.78-3.34,2.77-25.93-.22-51.87-.34-77.8-.65-3,0-3.56.87-3.59,3.66-.37,26.69-2.95,53.24-5.49,79.78-2.77,29-6.3,57.95-5.47,87.17.33,11.5,1.45,22.91,5.19,33.89,6.08,17.88,18.69,27,36.9,26.65s31.77-10.41,37.23-27.76A64.31,64.31,0,0,0,361.89,254c.13-1.88.62-2.6,2.58-2.47a50.38,50.38,0,0,0,7.77,0C374.88,251.23,375.57,252.13,375.43,254.73Z"/><path class="cls-16" d="M376.93,254A138.37,138.37,0,0,1,365.6,301.6,98.6,98.6,0,0,1,346,331.82c-16.07,16.52-35.77,22.29-58.32,20-32.74-3.28-54.9-26.16-59-60.94-1.78-14.94-.27-29.85.46-44.76,1.41-28.61,4.3-57.1,7.11-85.6,2.51-25.67,5-51.34,7-77.06.45-5.67.67-11.34,1.1-17,.13-1.77-.05-2.63-2.22-2.63q-36.68.12-73.36,0c-1.7,0-2.26.43-2.41,2.21q-2.83,33.76-5.86,67.51-3.54,40-7.17,80c-2.1,23.1-4.71,46.14-9.09,68.94-2.84,14.78-6.39,29.35-13.17,42.93-6.94,13.88-17.18,23.5-33,26.48-22.22,4.22-43.91-11.8-46.65-34.14-1.11-9,1.31-16.79,5.77-24.25,5.53-9.22,12.2-17.65,18.57-26.27,25.79-34.85,41.11-74.09,49.13-116.42,5.19-27.36,7.37-55,8.22-82.81.1-3.39-1-4-4-4.19-12.49-1-24.88-1-37.24,1.37C72.1,69.07,57.25,79.6,47.1,96.86c-3.06,5.2-6.21,10.35-9.25,15.57-1.31,2.28-2.92,3.29-5.69,2.85-3-.49-6.1-.49-9.66-.74,8.22-19,14.55-38.07,22.18-56.63C53.85,35.58,70.27,22.8,93.65,18c21.75-4.51,43.78-5.88,65.86-6.47,71.37-1.91,142.74-.52,214.12-.24,2.21,0,3,.47,3,2.83,0,16.17.11,32.35.38,48.52,0,2.9-1.34,2.78-3.34,2.77-25.93-.22-51.87-.34-77.8-.65-3,0-3.56.87-3.59,3.66-.37,26.69-2.95,53.24-5.49,79.78-2.77,29-6.3,58-5.47,87.17.33,11.5,1.45,22.91,5.19,33.89,6.08,17.88,18.69,27,36.9,26.65s31.77-10.41,37.23-27.76a64.31,64.31,0,0,0,2.78-14.86c.13-1.88.62-2.6,2.58-2.47a50.38,50.38,0,0,0,7.77,0C376.38,250.53,377.07,251.43,376.93,254Z"/><path class="cls-17" d="M378.43,253.33A138.37,138.37,0,0,1,367.1,300.9a98.6,98.6,0,0,1-19.65,30.22c-16.07,16.52-35.77,22.29-58.32,20-32.74-3.28-54.9-26.16-59-60.94-1.78-14.94-.27-29.85.46-44.76,1.41-28.61,4.3-57.1,7.11-85.6,2.51-25.67,5-51.34,7-77.06.45-5.67.67-11.34,1.1-17,.13-1.77-.05-2.63-2.22-2.63q-36.68.12-73.36,0c-1.7,0-2.26.43-2.41,2.21Q165,99.16,162,132.9q-3.54,40-7.17,80c-2.1,23.1-4.71,46.14-9.09,68.94-2.84,14.78-6.39,29.35-13.17,42.93-6.94,13.88-17.18,23.5-33,26.48-22.22,4.22-43.91-11.8-46.65-34.14-1.11-9,1.31-16.79,5.77-24.25,5.53-9.22,12.2-17.65,18.57-26.27,25.79-34.85,41.11-74.09,49.13-116.42,5.19-27.36,7.37-55,8.22-82.81.1-3.39-1-4-4-4.19-12.49-1-24.88-1-37.24,1.37C73.6,68.37,58.75,78.9,48.6,96.16c-3.06,5.2-6.21,10.35-9.25,15.57C38,114,36.43,115,33.66,114.58c-3-.49-6.1-.49-9.66-.74,8.22-19,14.55-38.07,22.18-56.63,9.17-22.33,25.59-35.11,49-39.95,21.75-4.51,43.78-5.88,65.86-6.47,71.37-1.91,142.74-.52,214.12-.24,2.21,0,3,.47,3,2.83,0,16.17.11,32.35.38,48.52,0,2.9-1.34,2.78-3.34,2.77-25.93-.22-51.87-.34-77.8-.65-3,0-3.56.87-3.59,3.66-.37,26.69-2.95,53.24-5.49,79.78-2.77,29-6.3,57.95-5.47,87.17.33,11.5,1.45,22.91,5.19,33.89,6.08,17.88,18.69,27,36.9,26.65s31.77-10.41,37.23-27.76a64.31,64.31,0,0,0,2.78-14.86c.13-1.88.62-2.6,2.58-2.47a50.38,50.38,0,0,0,7.77,0C377.88,249.83,378.57,250.73,378.43,253.33Z"/><path class="cls-18" d="M379.93,252.63A138.37,138.37,0,0,1,368.6,300.2,98.6,98.6,0,0,1,349,330.42c-16.07,16.52-35.77,22.29-58.32,20-32.74-3.28-54.9-26.16-59-60.94-1.78-14.94-.27-29.85.46-44.76,1.41-28.61,4.3-57.1,7.11-85.6,2.51-25.67,5-51.34,7-77.06.45-5.67.67-11.34,1.1-17,.13-1.77-.05-2.63-2.22-2.63q-36.68.12-73.36,0c-1.7,0-2.26.43-2.41,2.21q-2.83,33.77-5.86,67.51-3.54,40-7.17,80c-2.1,23.1-4.71,46.14-9.09,68.94C144.36,296,140.81,310.52,134,324.1c-6.94,13.88-17.18,23.5-33,26.48-22.22,4.22-43.91-11.8-46.65-34.14-1.11-9,1.31-16.79,5.77-24.25,5.53-9.22,12.2-17.65,18.57-26.27,25.79-34.85,41.11-74.09,49.13-116.42,5.19-27.36,7.37-55,8.22-82.81.1-3.39-1-3.95-4-4.19-12.49-1-24.88-1-37.24,1.37C75.1,67.67,60.25,78.2,50.1,95.46c-3.06,5.2-6.21,10.35-9.25,15.57-1.31,2.28-2.92,3.29-5.69,2.85-3-.49-6.1-.49-9.66-.74,8.22-19,14.55-38.07,22.18-56.63,9.17-22.33,25.59-35.11,49-39.95,21.75-4.51,43.78-5.88,65.86-6.47,71.37-1.91,142.74-.52,214.12-.24,2.21,0,3,.47,3,2.83,0,16.17.11,32.35.38,48.52,0,2.9-1.34,2.78-3.34,2.77-25.93-.22-51.87-.34-77.8-.65-3,0-3.56.87-3.59,3.66-.37,26.69-2.95,53.24-5.49,79.78-2.77,29-6.3,58-5.47,87.17.33,11.5,1.45,22.91,5.19,33.89,6.08,17.88,18.69,27,36.9,26.65s31.77-10.41,37.23-27.76a64.31,64.31,0,0,0,2.78-14.86c.13-1.88.62-2.6,2.58-2.47a50.38,50.38,0,0,0,7.77,0C379.38,249.13,380.07,250,379.93,252.63Z"/><path class="cls-19" d="M381.43,251.93A138.37,138.37,0,0,1,370.1,299.5a98.6,98.6,0,0,1-19.65,30.22c-16.07,16.52-35.77,22.29-58.32,20-32.74-3.28-54.9-26.16-59-60.94-1.78-14.94-.27-29.85.46-44.76,1.41-28.61,4.3-57.1,7.11-85.6,2.51-25.67,5-51.34,7-77.06.45-5.67.67-11.34,1.1-17,.13-1.77-.05-2.63-2.22-2.63q-36.68.12-73.36,0c-1.7,0-2.26.43-2.41,2.21Q168,97.76,165,131.5q-3.54,40-7.17,80c-2.1,23.1-4.71,46.14-9.09,68.94-2.84,14.78-6.39,29.35-13.17,42.93-6.94,13.88-17.18,23.5-33,26.48-22.22,4.22-43.91-11.8-46.65-34.14-1.11-9,1.31-16.79,5.77-24.25,5.53-9.22,12.2-17.65,18.57-26.27,25.79-34.85,41.11-74.09,49.13-116.42,5.19-27.36,7.37-55,8.22-82.81.1-3.39-1-3.95-4-4.19-12.49-1-24.88-1-37.24,1.37C76.6,67,61.75,77.5,51.6,94.76c-3.06,5.2-6.21,10.35-9.25,15.57-1.31,2.28-2.92,3.29-5.69,2.85-3-.49-6.1-.49-9.66-.74,8.22-19,14.55-38.07,22.18-56.63,9.17-22.33,25.59-35.11,49-39.95C119.9,11.35,141.93,10,164,9.39c71.37-1.91,142.74-.52,214.12-.24,2.21,0,3,.47,3,2.83,0,16.17.11,32.35.38,48.52,0,2.9-1.34,2.78-3.34,2.77-25.93-.22-51.87-.34-77.8-.65-3,0-3.56.87-3.59,3.66-.37,26.69-2.95,53.24-5.49,79.78-2.77,29-6.3,57.95-5.47,87.17.33,11.5,1.45,22.91,5.19,33.89,6.08,17.88,18.69,27,36.9,26.65s31.77-10.41,37.23-27.76a64.31,64.31,0,0,0,2.78-14.86c.13-1.88.62-2.6,2.58-2.47a50.38,50.38,0,0,0,7.77,0C380.88,248.43,381.57,249.33,381.43,251.93Z"/><path class="cls-20" d="M382.93,251.23A138.37,138.37,0,0,1,371.6,298.8,98.6,98.6,0,0,1,352,329c-16.07,16.52-35.77,22.29-58.32,20-32.74-3.28-54.9-26.16-59-60.94-1.78-14.94-.27-29.85.46-44.76,1.41-28.61,4.3-57.1,7.11-85.6,2.51-25.67,5-51.34,7-77.06.45-5.67.67-11.34,1.1-17,.13-1.77-.05-2.63-2.22-2.63q-36.68.12-73.36,0c-1.7,0-2.26.43-2.41,2.21q-2.83,33.77-5.86,67.51-3.54,40-7.17,80c-2.1,23.1-4.71,46.14-9.09,68.94-2.84,14.78-6.39,29.35-13.17,42.93-6.94,13.88-17.18,23.5-33,26.48C81.84,353.4,60.15,337.38,57.41,315c-1.11-9,1.31-16.79,5.77-24.25,5.53-9.22,12.2-17.65,18.57-26.27,25.79-34.85,41.11-74.09,49.13-116.42,5.19-27.36,7.37-55,8.22-82.81.1-3.39-1-4-4-4.19-12.49-1-24.88-1-37.24,1.37C78.1,66.27,63.25,76.8,53.1,94.06c-3.06,5.2-6.21,10.35-9.25,15.57-1.31,2.28-2.92,3.29-5.69,2.85-3-.49-6.1-.49-9.66-.74,8.22-19,14.55-38.07,22.18-56.63,9.17-22.33,25.59-35.11,49-39.95,21.75-4.51,43.78-5.88,65.86-6.47,71.37-1.91,142.74-.52,214.12-.24,2.21,0,3,.47,3,2.83,0,16.17.11,32.35.38,48.52,0,2.9-1.34,2.78-3.34,2.77-25.93-.22-51.87-.34-77.8-.65-3,0-3.56.87-3.59,3.66-.37,26.69-2.95,53.24-5.49,79.78-2.77,29-6.3,57.95-5.47,87.17.33,11.5,1.45,22.91,5.19,33.89,6.08,17.88,18.69,27,36.9,26.65s31.77-10.41,37.23-27.76a64.31,64.31,0,0,0,2.78-14.86c.13-1.88.62-2.6,2.58-2.47a50.38,50.38,0,0,0,7.77,0C382.38,247.73,383.07,248.63,382.93,251.23Z"/><path class="cls-21" d="M384.43,250.53A138.37,138.37,0,0,1,373.1,298.1a98.6,98.6,0,0,1-19.65,30.22c-16.07,16.52-35.77,22.29-58.32,20-32.74-3.28-54.9-26.16-59-60.94-1.78-14.94-.27-29.85.46-44.76,1.41-28.61,4.3-57.1,7.11-85.6,2.51-25.67,5-51.34,7-77.06.45-5.67.67-11.34,1.1-17,.13-1.77-.05-2.63-2.22-2.63q-36.68.12-73.36,0c-1.7,0-2.26.43-2.41,2.21Q171,96.35,168,130.1q-3.54,40-7.17,80c-2.1,23.1-4.71,46.14-9.09,68.94-2.84,14.78-6.39,29.35-13.17,42.93-6.94,13.88-17.18,23.5-33,26.48-22.22,4.22-43.91-11.8-46.65-34.14-1.11-9,1.31-16.79,5.77-24.25,5.53-9.22,12.2-17.65,18.57-26.27C109,229,124.36,189.73,132.38,147.4c5.19-27.36,7.37-55,8.22-82.81.1-3.39-1-4-4-4.19-12.49-1-24.88-1-37.24,1.37C79.6,65.57,64.75,76.1,54.6,93.36c-3.06,5.2-6.21,10.35-9.25,15.57-1.31,2.28-2.92,3.29-5.69,2.85-3-.49-6.1-.49-9.66-.74C38.22,92,44.55,73,52.18,54.41c9.17-22.33,25.59-35.11,49-39.95C122.9,10,144.93,8.58,167,8c71.37-1.91,142.74-.52,214.12-.24,2.21,0,3,.47,3,2.83,0,16.17.11,32.35.38,48.52,0,2.9-1.34,2.78-3.34,2.77-25.93-.22-51.87-.34-77.8-.65-3,0-3.56.87-3.59,3.66-.37,26.69-2.95,53.24-5.49,79.78-2.77,29-6.3,58-5.47,87.17.33,11.5,1.45,22.91,5.19,33.89,6.08,17.88,18.69,27,36.9,26.65s31.77-10.41,37.23-27.76a64.31,64.31,0,0,0,2.78-14.86c.13-1.88.62-2.6,2.58-2.47a50.38,50.38,0,0,0,7.77,0C383.88,247,384.57,247.93,384.43,250.53Z"/><path class="cls-22" d="M385.93,249.83A138.37,138.37,0,0,1,374.6,297.4,98.6,98.6,0,0,1,355,327.62c-16.07,16.52-35.77,22.29-58.32,20-32.74-3.28-54.9-26.16-59-60.94-1.78-14.94-.27-29.85.46-44.76,1.41-28.61,4.3-57.1,7.11-85.6,2.51-25.67,5-51.34,7-77.06.45-5.67.67-11.34,1.1-17,.13-1.77-.05-2.63-2.22-2.63q-36.68.12-73.36,0c-1.7,0-2.26.43-2.41,2.21q-2.83,33.77-5.86,67.51-3.54,40-7.17,80c-2.1,23.1-4.71,46.14-9.09,68.94-2.84,14.78-6.39,29.35-13.17,42.93-6.94,13.88-17.18,23.5-33,26.48C84.84,352,63.15,336,60.41,313.64c-1.11-9,1.31-16.79,5.77-24.25,5.53-9.22,12.2-17.65,18.57-26.27,25.79-34.85,41.11-74.09,49.13-116.42,5.19-27.36,7.37-55,8.22-82.81.1-3.39-1-4-4-4.19-12.49-1-24.88-1-37.24,1.37C81.1,64.87,66.25,75.4,56.1,92.66,53,97.86,49.89,103,46.85,108.23c-1.31,2.28-2.92,3.29-5.69,2.85-3-.49-6.1-.49-9.66-.74,8.22-19,14.55-38.07,22.18-56.63,9.17-22.33,25.59-35.11,49-39.95,21.75-4.51,43.78-5.88,65.86-6.47,71.37-1.91,142.74-.52,214.12-.24,2.21,0,3,.47,3,2.83,0,16.17.11,32.35.38,48.52,0,2.9-1.34,2.78-3.34,2.77-25.93-.22-51.87-.34-77.8-.65-3,0-3.56.87-3.59,3.66-.37,26.69-2.95,53.24-5.49,79.78-2.77,29-6.3,57.95-5.47,87.17.33,11.5,1.45,22.91,5.19,33.89,6.08,17.88,18.69,27,36.9,26.65s31.77-10.41,37.23-27.76a64.31,64.31,0,0,0,2.78-14.86c.13-1.88.62-2.6,2.58-2.47a50.38,50.38,0,0,0,7.77,0C385.38,246.33,386.07,247.23,385.93,249.83Z"/><path class="cls-23" d="M387.43,249.13A138.37,138.37,0,0,1,376.1,296.7a98.6,98.6,0,0,1-19.65,30.22c-16.07,16.52-35.77,22.29-58.32,20-32.74-3.28-54.9-26.16-59-60.94-1.78-14.94-.27-29.85.46-44.76,1.41-28.61,4.3-57.1,7.11-85.6,2.51-25.67,5-51.34,7-77.06.45-5.67.67-11.34,1.1-17,.13-1.77-.05-2.63-2.22-2.63q-36.68.12-73.36,0c-1.7,0-2.26.43-2.41,2.21Q174,95,171,128.7q-3.54,40-7.17,80c-2.1,23.1-4.71,46.14-9.09,68.94-2.84,14.78-6.39,29.35-13.17,42.93-6.94,13.88-17.18,23.5-33,26.48-22.22,4.22-43.91-11.8-46.65-34.14-1.11-9,1.31-16.79,5.77-24.25,5.53-9.22,12.2-17.65,18.57-26.27C112,227.57,127.36,188.33,135.38,146c5.19-27.36,7.37-55,8.22-82.81.1-3.39-1-3.95-4-4.19-12.49-1-24.88-1-37.24,1.37C82.6,64.17,67.75,74.7,57.6,92c-3.06,5.2-6.21,10.35-9.25,15.57-1.31,2.28-2.92,3.29-5.69,2.85-3-.49-6.1-.49-9.66-.74,8.22-19,14.55-38.07,22.18-56.63,9.17-22.33,25.59-35.11,49-39.95C125.9,8.55,147.93,7.18,170,6.59c71.37-1.91,142.74-.52,214.12-.24,2.21,0,3,.47,3,2.83,0,16.17.11,32.35.38,48.52,0,2.9-1.34,2.78-3.34,2.77-25.93-.22-51.87-.34-77.8-.65-3,0-3.56.87-3.59,3.66-.37,26.69-2.95,53.24-5.49,79.78-2.77,29-6.3,58-5.47,87.17.33,11.5,1.45,22.91,5.19,33.89,6.08,17.88,18.69,27,36.9,26.65s31.77-10.41,37.23-27.76a64.31,64.31,0,0,0,2.78-14.86c.13-1.88.62-2.6,2.58-2.47a50.38,50.38,0,0,0,7.77,0C386.88,245.63,387.57,246.53,387.43,249.13Z"/><path class="cls-24" d="M388.93,248.43A138.37,138.37,0,0,1,377.6,296,98.6,98.6,0,0,1,358,326.22c-16.07,16.52-35.77,22.29-58.32,20-32.74-3.28-54.9-26.16-59-60.94-1.78-14.94-.27-29.85.46-44.76,1.41-28.61,4.3-57.1,7.11-85.6,2.51-25.67,5-51.34,7-77.06.45-5.67.67-11.34,1.1-17,.13-1.77-.05-2.63-2.22-2.63q-36.68.12-73.36,0c-1.7,0-2.26.43-2.41,2.21q-2.83,33.76-5.86,67.51-3.54,40-7.17,80c-2.1,23.1-4.71,46.14-9.09,68.94-2.84,14.78-6.39,29.35-13.17,42.93-6.94,13.88-17.18,23.5-33,26.48-22.22,4.22-43.91-11.8-46.65-34.14-1.11-9,1.31-16.79,5.77-24.25,5.53-9.22,12.2-17.65,18.57-26.27,25.79-34.85,41.11-74.09,49.13-116.42,5.19-27.36,7.37-55,8.22-82.81.1-3.39-1-4-4-4.19-12.49-1-24.88-1-37.24,1.37C84.1,63.47,69.25,74,59.1,91.26c-3.06,5.2-6.21,10.35-9.25,15.57-1.31,2.28-2.92,3.29-5.69,2.85-3-.49-6.1-.49-9.66-.74,8.22-19,14.55-38.07,22.18-56.63,9.17-22.33,25.59-35.11,49-39.95,21.75-4.51,43.78-5.88,65.86-6.47C242.88,4,314.25,5.37,385.63,5.65c2.21,0,3,.47,3,2.83,0,16.17.11,32.35.38,48.52,0,2.9-1.34,2.78-3.34,2.77-25.93-.22-51.87-.34-77.8-.65-3,0-3.56.87-3.59,3.66-.37,26.69-2.95,53.24-5.49,79.78-2.77,29-6.3,57.95-5.47,87.17.33,11.5,1.45,22.91,5.19,33.89,6.08,17.88,18.69,27,36.9,26.65s31.77-10.41,37.23-27.76a64.31,64.31,0,0,0,2.78-14.86c.13-1.88.62-2.6,2.58-2.47a50.38,50.38,0,0,0,7.77,0C388.38,244.93,389.07,245.83,388.93,248.43Z"/><path class="cls-25" d="M390.43,247.73A138.37,138.37,0,0,1,379.1,295.3a98.6,98.6,0,0,1-19.65,30.22c-16.07,16.52-35.77,22.29-58.32,20-32.74-3.28-54.9-26.16-59-60.94-1.78-14.94-.27-29.85.46-44.76,1.41-28.61,4.3-57.1,7.11-85.6,2.51-25.67,5-51.34,7-77.06.45-5.67.67-11.34,1.1-17,.13-1.77-.05-2.63-2.22-2.63q-36.68.12-73.36,0c-1.7,0-2.26.43-2.41,2.21Q177,93.56,174,127.3q-3.54,40-7.17,80c-2.1,23.1-4.71,46.14-9.09,68.94-2.84,14.78-6.39,29.35-13.17,42.93-6.94,13.88-17.18,23.5-33,26.48-22.22,4.22-43.91-11.8-46.65-34.14-1.11-9,1.31-16.79,5.77-24.25,5.53-9.22,12.2-17.65,18.57-26.27,25.79-34.85,41.11-74.09,49.13-116.42,5.19-27.36,7.37-55,8.22-82.81.1-3.39-1-3.95-4-4.19-12.49-1-24.88-1-37.24,1.37C85.6,62.77,70.75,73.3,60.6,90.56c-3.06,5.2-6.21,10.35-9.25,15.57-1.31,2.28-2.92,3.29-5.69,2.85-3-.49-6.1-.49-9.66-.74,8.22-19,14.55-38.07,22.18-56.63,9.17-22.33,25.59-35.11,49-39.95C128.9,7.15,150.93,5.78,173,5.19,244.38,3.28,315.75,4.67,387.13,5c2.21,0,3,.47,3,2.83,0,16.17.11,32.35.38,48.52,0,2.9-1.34,2.78-3.34,2.77-25.93-.22-51.87-.34-77.8-.65-3,0-3.56.87-3.59,3.66-.37,26.69-2.95,53.24-5.49,79.78-2.77,29-6.3,57.95-5.47,87.17.33,11.5,1.45,22.91,5.19,33.89,6.08,17.88,18.69,27,36.9,26.65s31.77-10.41,37.23-27.76A64.31,64.31,0,0,0,376.89,247c.13-1.88.62-2.6,2.58-2.47a50.38,50.38,0,0,0,7.77,0C389.88,244.23,390.57,245.13,390.43,247.73Z"/><path class="cls-26" d="M391.93,247A138.37,138.37,0,0,1,380.6,294.6,98.6,98.6,0,0,1,361,324.82c-16.07,16.52-35.77,22.29-58.32,20-32.74-3.28-54.9-26.16-59-60.94-1.78-14.94-.27-29.85.46-44.76,1.41-28.61,4.3-57.1,7.11-85.6,2.51-25.67,5-51.34,7-77.06.45-5.67.67-11.34,1.1-17,.13-1.77-.05-2.63-2.22-2.63q-36.67.12-73.36,0c-1.7,0-2.26.43-2.41,2.21q-2.83,33.76-5.86,67.51-3.54,40-7.17,80c-2.1,23.1-4.71,46.14-9.09,68.94-2.84,14.78-6.39,29.35-13.17,42.93-6.94,13.88-17.18,23.5-33,26.48-22.22,4.22-43.91-11.8-46.65-34.14-1.11-9,1.31-16.79,5.77-24.25,5.53-9.22,12.2-17.65,18.57-26.27,25.79-34.85,41.11-74.09,49.13-116.42,5.19-27.36,7.37-55,8.22-82.81.1-3.39-1-4-4-4.19-12.49-1-24.88-1-37.24,1.37C87.1,62.07,72.25,72.6,62.1,89.86c-3.06,5.2-6.21,10.35-9.25,15.57-1.31,2.28-2.92,3.29-5.69,2.85-3-.49-6.1-.49-9.66-.74,8.22-19,14.55-38.07,22.18-56.63,9.17-22.33,25.59-35.11,49-39.95,21.75-4.51,43.78-5.88,65.86-6.47C245.88,2.58,317.25,4,388.63,4.25c2.21,0,3,.47,3,2.83,0,16.17.11,32.35.38,48.52,0,2.9-1.34,2.78-3.34,2.77-25.93-.22-51.87-.34-77.8-.65-3,0-3.56.87-3.59,3.66-.37,26.69-2.95,53.24-5.49,79.78-2.77,29-6.3,58-5.47,87.17.33,11.5,1.45,22.91,5.19,33.89,6.08,17.88,18.69,27,36.9,26.65s31.77-10.41,37.23-27.76a64.31,64.31,0,0,0,2.78-14.86c.13-1.88.62-2.6,2.58-2.47a50.38,50.38,0,0,0,7.77,0C391.38,243.53,392.07,244.43,391.93,247Z"/><path class="cls-27" d="M393.43,246.33A138.37,138.37,0,0,1,382.1,293.9a98.6,98.6,0,0,1-19.65,30.22c-16.07,16.52-35.77,22.29-58.32,20-32.74-3.28-54.9-26.16-59-60.94-1.78-14.94-.27-29.85.46-44.76,1.41-28.61,4.3-57.1,7.11-85.6,2.51-25.67,5-51.34,7-77.06.45-5.67.67-11.34,1.1-17,.13-1.77-.05-2.63-2.22-2.63q-36.67.12-73.36,0c-1.7,0-2.26.43-2.41,2.21Q180,92.16,177,125.9q-3.54,40-7.17,80c-2.1,23.1-4.71,46.14-9.09,68.94-2.84,14.78-6.39,29.35-13.17,42.93-6.94,13.88-17.18,23.5-33,26.48-22.22,4.22-43.91-11.8-46.65-34.14-1.11-9,1.31-16.79,5.77-24.25,5.53-9.22,12.2-17.65,18.57-26.27,25.79-34.85,41.11-74.09,49.13-116.42,5.19-27.36,7.37-55,8.22-82.81.1-3.39-1-4-4-4.19-12.49-1-24.88-1-37.24,1.37C88.6,61.37,73.75,71.9,63.6,89.16c-3.06,5.2-6.21,10.35-9.25,15.57C53,107,51.43,108,48.66,107.58c-3-.49-6.1-.49-9.66-.74,8.22-19,14.55-38.07,22.18-56.63,9.17-22.33,25.59-35.11,49-39.95C131.9,5.75,153.93,4.38,176,3.79c71.37-1.91,142.74-.52,214.12-.24,2.21,0,3,.47,3,2.83,0,16.17.11,32.35.38,48.52,0,2.9-1.34,2.78-3.34,2.77-25.93-.22-51.87-.34-77.8-.65-3,0-3.56.87-3.59,3.66-.37,26.69-2.95,53.24-5.49,79.78-2.77,29-6.3,57.95-5.47,87.17.33,11.5,1.45,22.91,5.19,33.89,6.08,17.88,18.69,27,36.9,26.65s31.77-10.41,37.23-27.76a64.31,64.31,0,0,0,2.78-14.86c.13-1.88.62-2.6,2.58-2.47a50.38,50.38,0,0,0,7.77,0C392.88,242.83,393.57,243.73,393.43,246.33Z"/><path class="cls-28" d="M394.93,245.63A138.37,138.37,0,0,1,383.6,293.2,98.6,98.6,0,0,1,364,323.42c-16.07,16.52-35.77,22.29-58.32,20-32.74-3.28-54.9-26.16-59-60.94-1.78-14.94-.27-29.85.46-44.76,1.41-28.61,4.3-57.1,7.11-85.6,2.51-25.67,5-51.34,7-77.06.45-5.67.67-11.34,1.1-17,.13-1.77-.05-2.63-2.22-2.63q-36.67.12-73.36,0c-1.7,0-2.26.43-2.41,2.21q-2.83,33.77-5.86,67.51-3.54,40-7.17,80c-2.1,23.1-4.71,46.14-9.09,68.94C159.36,289,155.81,303.52,149,317.1c-6.94,13.88-17.18,23.5-33,26.48-22.22,4.22-43.91-11.8-46.65-34.14-1.11-9,1.31-16.79,5.77-24.25,5.53-9.22,12.2-17.65,18.57-26.27,25.79-34.85,41.11-74.09,49.13-116.42,5.19-27.36,7.37-55,8.22-82.81.1-3.39-1-3.95-4-4.19-12.49-1-24.88-1-37.24,1.37C90.1,60.67,75.25,71.2,65.1,88.46,62,93.66,58.89,98.81,55.85,104c-1.31,2.28-2.92,3.29-5.69,2.85-3-.49-6.1-.49-9.66-.74,8.22-19,14.55-38.07,22.18-56.63,9.17-22.33,25.59-35.11,49-39.95,21.75-4.51,43.78-5.88,65.86-6.47,71.37-1.91,142.74-.52,214.12-.24,2.21,0,3,.47,3,2.83,0,16.17.11,32.35.38,48.52,0,2.9-1.34,2.78-3.34,2.77-25.93-.22-51.87-.34-77.8-.65-3,0-3.56.87-3.59,3.66-.37,26.69-2.95,53.24-5.49,79.78-2.77,29-6.3,58-5.47,87.17.33,11.5,1.45,22.91,5.19,33.89,6.08,17.88,18.69,27,36.9,26.65s31.77-10.41,37.23-27.76a64.31,64.31,0,0,0,2.78-14.86c.13-1.88.62-2.6,2.58-2.47a50.38,50.38,0,0,0,7.77,0C394.38,242.13,395.07,243,394.93,245.63Z"/><path class="cls-29" d="M396.43,244.93A138.37,138.37,0,0,1,385.1,292.5a98.6,98.6,0,0,1-19.65,30.22c-16.07,16.52-35.77,22.29-58.32,20-32.74-3.28-54.9-26.16-59-60.94-1.78-14.94-.27-29.85.46-44.76,1.41-28.61,4.3-57.1,7.11-85.6,2.51-25.67,5-51.34,7-77.06.45-5.67.67-11.34,1.1-17,.13-1.77-.05-2.63-2.22-2.63q-36.67.12-73.36,0c-1.7,0-2.26.43-2.41,2.21Q183,90.76,180,124.5q-3.54,40-7.17,80c-2.1,23.1-4.71,46.14-9.09,68.94-2.84,14.78-6.39,29.35-13.17,42.93-6.94,13.88-17.18,23.5-33,26.48-22.22,4.22-43.91-11.8-46.65-34.14-1.11-9,1.31-16.79,5.77-24.25,5.53-9.22,12.2-17.65,18.57-26.27,25.79-34.85,41.11-74.09,49.13-116.42,5.19-27.36,7.37-55,8.22-82.81.1-3.39-1-4-4-4.19-12.49-1-24.88-1-37.24,1.37C91.6,60,76.75,70.5,66.6,87.76c-3.06,5.2-6.21,10.35-9.25,15.57-1.31,2.28-2.92,3.29-5.69,2.85-3-.49-6.1-.49-9.66-.74,8.22-19,14.55-38.07,22.18-56.63,9.17-22.33,25.59-35.11,49-39.95C134.9,4.35,156.93,3,179,2.39c71.37-1.91,142.74-.52,214.12-.24,2.21,0,3,.47,3,2.83,0,16.17.11,32.35.38,48.52,0,2.9-1.34,2.78-3.34,2.77-25.93-.22-51.87-.34-77.8-.65-3,0-3.56.87-3.59,3.66-.37,26.69-2.95,53.24-5.49,79.78-2.77,29-6.3,57.95-5.47,87.17.33,11.5,1.45,22.91,5.19,33.89,6.08,17.88,18.69,27,36.9,26.65s31.77-10.41,37.23-27.76a64.31,64.31,0,0,0,2.78-14.86c.13-1.88.62-2.6,2.58-2.47a50.38,50.38,0,0,0,7.77,0C395.88,241.43,396.57,242.33,396.43,244.93Z"/><path class="cls-30" d="M397.93,244.23A138.37,138.37,0,0,1,386.6,291.8,98.6,98.6,0,0,1,367,322c-16.07,16.52-35.77,22.29-58.32,20-32.74-3.28-54.9-26.16-59-60.94-1.78-14.94-.27-29.85.46-44.76,1.41-28.61,4.3-57.1,7.11-85.6,2.51-25.67,5-51.34,7-77.06.45-5.67.67-11.34,1.1-17,.13-1.77-.05-2.63-2.22-2.63q-36.67.12-73.36,0c-1.7,0-2.26.43-2.41,2.21q-2.83,33.77-5.86,67.51-3.54,40-7.17,80c-2.1,23.1-4.71,46.14-9.09,68.94-2.84,14.78-6.39,29.35-13.17,42.93-6.94,13.88-17.18,23.5-33,26.48C96.84,346.4,75.15,330.38,72.41,308c-1.11-9,1.31-16.79,5.77-24.25,5.53-9.22,12.2-17.65,18.57-26.27,25.79-34.85,41.11-74.09,49.13-116.42,5.19-27.36,7.37-55,8.22-82.81.1-3.39-1-3.95-4-4.19-12.49-1-24.88-1-37.24,1.37C93.1,59.27,78.25,69.8,68.1,87.06c-3.06,5.2-6.21,10.35-9.25,15.57-1.31,2.28-2.92,3.29-5.69,2.85-3-.49-6.1-.49-9.66-.74,8.22-19,14.55-38.07,22.18-56.63,9.17-22.33,25.59-35.11,49-39.95,21.75-4.51,43.78-5.88,65.86-6.47,71.37-1.91,142.74-.52,214.12-.24,2.21,0,3,.47,3,2.83,0,16.17.11,32.35.38,48.52,0,2.9-1.34,2.78-3.34,2.77-25.93-.22-51.87-.34-77.8-.65-3,0-3.56.87-3.59,3.66-.37,26.69-2.95,53.24-5.49,79.78-2.77,29-6.3,57.95-5.47,87.17.33,11.5,1.45,22.91,5.19,33.89,6.08,17.88,18.69,27,36.9,26.65s31.77-10.41,37.23-27.76a64.31,64.31,0,0,0,2.78-14.86c.13-1.88.62-2.6,2.58-2.47a50.38,50.38,0,0,0,7.77,0C397.38,240.73,398.07,241.63,397.93,244.23Z"/><path class="cls-31" d="M399.43,243.53A138.37,138.37,0,0,1,388.1,291.1a98.6,98.6,0,0,1-19.65,30.22c-16.07,16.52-35.77,22.29-58.32,20-32.74-3.28-54.9-26.16-59-60.94-1.78-14.94-.27-29.85.46-44.76,1.41-28.61,4.3-57.1,7.11-85.6,2.51-25.67,5-51.34,7-77.06.45-5.67.67-11.34,1.1-17,.13-1.77-.05-2.63-2.22-2.63q-36.67.12-73.36,0c-1.7,0-2.26.43-2.41,2.21Q186,89.35,183,123.1q-3.54,40-7.17,80c-2.1,23.1-4.71,46.14-9.09,68.94-2.84,14.78-6.39,29.35-13.17,42.93-6.94,13.88-17.18,23.5-33,26.48-22.22,4.22-43.91-11.8-46.65-34.14-1.11-9,1.31-16.79,5.77-24.25,5.53-9.22,12.2-17.65,18.57-26.27C124,222,139.36,182.73,147.38,140.4c5.19-27.36,7.37-55,8.22-82.81.1-3.39-1-4-4-4.19-12.49-1-24.88-1-37.24,1.37C94.6,58.57,79.75,69.1,69.6,86.36c-3.06,5.2-6.21,10.35-9.25,15.57-1.31,2.28-2.92,3.29-5.69,2.85-3-.49-6.1-.49-9.66-.74C53.22,85,59.55,66,67.18,47.41c9.17-22.33,25.59-35.11,49-39.95C137.9,3,159.93,1.58,182,1,253.38-.92,324.75.47,396.13.75c2.21,0,3,.47,3,2.83,0,16.17.11,32.35.38,48.52,0,2.9-1.34,2.78-3.34,2.77-25.93-.22-51.87-.34-77.8-.65-3,0-3.56.87-3.59,3.66-.37,26.69-2.95,53.24-5.49,79.78-2.77,29-6.3,58-5.47,87.17.33,11.5,1.45,22.91,5.19,33.89,6.08,17.88,18.69,27,36.9,26.65s31.77-10.41,37.23-27.76a64.31,64.31,0,0,0,2.78-14.86c.13-1.88.62-2.6,2.58-2.47a50.38,50.38,0,0,0,7.77,0C398.88,240,399.57,240.93,399.43,243.53Z"/><path class="cls-32" d="M399.43,243.53A138.37,138.37,0,0,1,388.1,291.1a98.6,98.6,0,0,1-19.65,30.22c-16.07,16.52-35.77,22.29-58.32,20-32.74-3.28-54.9-26.16-59-60.94-1.78-14.94-.27-29.85.46-44.76,1.41-28.61,4.3-57.1,7.11-85.6,2.51-25.67,5-51.34,7-77.06.45-5.67.67-11.34,1.1-17,.13-1.77-.05-2.63-2.22-2.63q-36.67.12-73.36,0c-1.7,0-2.26.43-2.41,2.21Q186,89.35,183,123.1q-3.54,40-7.17,80c-2.1,23.1-4.71,46.14-9.09,68.94-2.84,14.78-6.39,29.35-13.17,42.93-6.94,13.88-17.18,23.5-33,26.48-22.22,4.22-43.91-11.8-46.65-34.14-1.11-9,1.31-16.79,5.77-24.25,5.53-9.22,12.2-17.65,18.57-26.27C124,222,139.36,182.73,147.38,140.4c5.19-27.36,7.37-55,8.22-82.81.1-3.39-1-4-4-4.19-12.49-1-24.88-1-37.24,1.37C94.6,58.57,79.75,69.1,69.6,86.36c-3.06,5.2-6.21,10.35-9.25,15.57-1.31,2.28-2.92,3.29-5.69,2.85-3-.49-6.1-.49-9.66-.74C53.22,85,59.55,66,67.18,47.41c9.17-22.33,25.59-35.11,49-39.95C137.9,3,159.93,1.58,182,1,253.38-.92,324.75.47,396.13.75c2.21,0,3,.47,3,2.83,0,16.17.11,32.35.38,48.52,0,2.9-1.34,2.78-3.34,2.77-25.93-.22-51.87-.34-77.8-.65-3,0-3.56.87-3.59,3.66-.37,26.69-2.95,53.24-5.49,79.78-2.77,29-6.3,58-5.47,87.17.33,11.5,1.45,22.91,5.19,33.89,6.08,17.88,18.69,27,36.9,26.65s31.77-10.41,37.23-27.76a64.31,64.31,0,0,0,2.78-14.86c.13-1.88.62-2.6,2.58-2.47a50.38,50.38,0,0,0,7.77,0C398.88,240,399.57,240.93,399.43,243.53Z"/><path class="cls-1" d="M354.43,264.53A138.37,138.37,0,0,1,343.1,312.1a98.6,98.6,0,0,1-19.65,30.22c-16.07,16.52-35.77,22.29-58.32,20-32.74-3.28-54.9-26.16-59-60.94-1.78-14.94-.27-29.85.46-44.76,1.41-28.61,4.3-57.1,7.11-85.6,2.51-25.67,5-51.34,7-77.06.45-5.67.67-11.34,1.1-17,.13-1.77-.05-2.63-2.22-2.63q-36.68.12-73.36,0c-1.7,0-2.26.43-2.41,2.21Q141,110.35,138,144.1q-3.54,40-7.17,80c-2.1,23.1-4.71,46.14-9.09,68.94-2.84,14.78-6.39,29.35-13.17,42.93-6.94,13.88-17.18,23.5-33,26.48-22.22,4.22-43.91-11.8-46.65-34.14-1.11-9,1.31-16.79,5.77-24.25,5.53-9.22,12.2-17.65,18.57-26.27C79,243,94.36,203.73,102.38,161.4c5.19-27.36,7.37-55,8.22-82.81.1-3.39-1-4-4-4.19-12.49-1-24.88-1-37.24,1.37C49.6,79.57,34.75,90.1,24.6,107.36c-3.06,5.2-6.21,10.35-9.25,15.57-1.31,2.28-2.92,3.29-5.69,2.85-3-.49-6.1-.49-9.66-.74C8.22,106,14.55,87,22.18,68.41c9.17-22.33,25.59-35.11,49-39.95C92.9,24,114.93,22.58,137,22c71.37-1.91,142.74-.52,214.12-.24,2.21,0,3,.47,3,2.83,0,16.17.11,32.35.38,48.52,0,2.9-1.34,2.78-3.34,2.77-25.93-.22-51.87-.34-77.8-.65-3,0-3.56.87-3.59,3.66-.37,26.69-2.95,53.24-5.49,79.78-2.77,29-6.3,58-5.47,87.17.33,11.5,1.45,22.91,5.19,33.89,6.08,17.88,18.69,27,36.9,26.65s31.77-10.41,37.23-27.76a64.31,64.31,0,0,0,2.78-14.86c.13-1.88.62-2.6,2.58-2.47a50.38,50.38,0,0,0,7.77,0C353.88,261,354.57,261.93,354.43,264.53Z"/><path class="cls-2" d="M355.93,263.83A138.37,138.37,0,0,1,344.6,311.4,98.6,98.6,0,0,1,325,341.62c-16.07,16.52-35.77,22.29-58.32,20-32.74-3.28-54.9-26.16-59-60.94-1.78-14.94-.27-29.85.46-44.76,1.41-28.61,4.3-57.1,7.11-85.6,2.51-25.67,5-51.34,7-77.06.45-5.67.67-11.34,1.1-17,.13-1.77-.05-2.63-2.22-2.63q-36.68.12-73.36,0c-1.7,0-2.26.43-2.41,2.21q-2.83,33.77-5.86,67.51-3.54,40-7.17,80c-2.1,23.1-4.71,46.14-9.09,68.94-2.84,14.78-6.39,29.35-13.17,42.93-6.94,13.88-17.18,23.5-33,26.48C54.84,366,33.15,350,30.41,327.64c-1.11-9,1.31-16.79,5.77-24.25,5.53-9.22,12.2-17.65,18.57-26.27C80.54,242.27,95.86,203,103.88,160.7c5.19-27.36,7.37-55,8.22-82.81.1-3.39-1-4-4-4.19-12.49-1-24.88-1-37.24,1.37C51.1,78.87,36.25,89.4,26.1,106.66c-3.06,5.2-6.21,10.35-9.25,15.57-1.31,2.28-2.92,3.29-5.69,2.85-3-.49-6.1-.49-9.66-.74,8.22-19,14.55-38.07,22.18-56.63,9.17-22.33,25.59-35.11,49-39.95,21.75-4.51,43.78-5.88,65.86-6.47,71.37-1.91,142.74-.52,214.12-.24,2.21,0,3,.47,3,2.83,0,16.17.11,32.35.38,48.52,0,2.9-1.34,2.78-3.34,2.77-25.93-.22-51.87-.34-77.8-.65-3,0-3.56.87-3.59,3.66-.37,26.69-2.95,53.24-5.49,79.78-2.77,29-6.3,57.95-5.47,87.17.33,11.5,1.45,22.91,5.19,33.89,6.08,17.88,18.69,27,36.9,26.65s31.77-10.41,37.23-27.76a64.31,64.31,0,0,0,2.78-14.86c.13-1.88.62-2.6,2.58-2.47a50.38,50.38,0,0,0,7.77,0C355.38,260.33,356.07,261.23,355.93,263.83Z"/><path class="cls-3" d="M357.43,263.13A138.37,138.37,0,0,1,346.1,310.7a98.6,98.6,0,0,1-19.65,30.22c-16.07,16.52-35.77,22.29-58.32,20-32.74-3.28-54.9-26.16-59-60.94-1.78-14.94-.27-29.85.46-44.76,1.41-28.61,4.3-57.1,7.11-85.6,2.51-25.67,5-51.34,7-77.06.45-5.67.67-11.34,1.1-17,.13-1.77-.05-2.63-2.22-2.63q-36.68.12-73.36,0c-1.7,0-2.26.43-2.41,2.21Q144,109,141,142.7q-3.54,40-7.17,80c-2.1,23.1-4.71,46.14-9.09,68.94-2.84,14.78-6.39,29.35-13.17,42.93-6.94,13.88-17.18,23.5-33,26.48-22.22,4.22-43.91-11.8-46.65-34.14-1.11-9,1.31-16.79,5.77-24.25,5.53-9.22,12.2-17.65,18.57-26.27C82,241.57,97.36,202.33,105.38,160c5.19-27.36,7.37-55,8.22-82.81.1-3.39-1-4-4-4.19-12.49-1-24.88-1-37.24,1.37C52.6,78.17,37.75,88.7,27.6,106c-3.06,5.2-6.21,10.35-9.25,15.57-1.31,2.28-2.92,3.29-5.69,2.85-3-.49-6.1-.49-9.66-.74,8.22-19,14.55-38.07,22.18-56.63,9.17-22.33,25.59-35.11,49-39.95,21.75-4.51,43.78-5.88,65.86-6.47,71.37-1.91,142.74-.52,214.12-.24,2.21,0,3,.47,3,2.83,0,16.17.11,32.35.38,48.52,0,2.9-1.34,2.78-3.34,2.77-25.93-.22-51.87-.34-77.8-.65-3,0-3.56.87-3.59,3.66-.37,26.69-2.95,53.24-5.49,79.78-2.77,29-6.3,58-5.47,87.17.33,11.5,1.45,22.91,5.19,33.89,6.08,17.88,18.69,27,36.9,26.65s31.77-10.41,37.23-27.76a64.31,64.31,0,0,0,2.78-14.86c.13-1.88.62-2.6,2.58-2.47a50.38,50.38,0,0,0,7.77,0C356.88,259.63,357.57,260.53,357.43,263.13Z"/><path class="cls-4" d="M358.93,262.43A138.37,138.37,0,0,1,347.6,310,98.6,98.6,0,0,1,328,340.22c-16.07,16.52-35.77,22.29-58.32,20-32.74-3.28-54.9-26.16-59-60.94-1.78-14.94-.27-29.85.46-44.76,1.41-28.61,4.3-57.1,7.11-85.6,2.51-25.67,5-51.34,7-77.06.45-5.67.67-11.34,1.1-17,.13-1.77-.05-2.63-2.22-2.63q-36.68.12-73.36,0c-1.7,0-2.26.43-2.41,2.21q-2.83,33.77-5.86,67.51-3.54,40-7.17,80c-2.1,23.1-4.71,46.14-9.09,68.94-2.84,14.78-6.39,29.35-13.17,42.93-6.94,13.88-17.18,23.5-33,26.48-22.22,4.22-43.91-11.8-46.65-34.14-1.11-9,1.31-16.79,5.77-24.25,5.53-9.22,12.2-17.65,18.57-26.27,25.79-34.85,41.11-74.09,49.13-116.42,5.19-27.36,7.37-55,8.22-82.81.1-3.39-1-3.95-4-4.19-12.49-1-24.88-1-37.24,1.37C54.1,77.47,39.25,88,29.1,105.26c-3.06,5.2-6.21,10.35-9.25,15.57-1.31,2.28-2.92,3.29-5.69,2.85-3-.49-6.1-.49-9.66-.74,8.22-19,14.55-38.07,22.18-56.63C35.85,44,52.27,31.2,75.65,26.36c21.75-4.51,43.78-5.88,65.86-6.47,71.37-1.91,142.74-.52,214.12-.24,2.21,0,3,.47,3,2.83,0,16.17.11,32.35.38,48.52,0,2.9-1.34,2.78-3.34,2.77-25.93-.22-51.87-.34-77.8-.65-3,0-3.56.87-3.59,3.66-.37,26.69-2.95,53.24-5.49,79.78-2.77,29-6.3,57.95-5.47,87.17.33,11.5,1.45,22.91,5.19,33.89,6.08,17.88,18.69,27,36.9,26.65s31.77-10.41,37.23-27.76a64.31,64.31,0,0,0,2.78-14.86c.13-1.88.62-2.6,2.58-2.47a50.38,50.38,0,0,0,7.77,0C358.38,258.93,359.07,259.83,358.93,262.43Z"/><path class="cls-5" d="M360.43,261.73A138.37,138.37,0,0,1,349.1,309.3a98.6,98.6,0,0,1-19.65,30.22c-16.07,16.52-35.77,22.29-58.32,20-32.74-3.28-54.9-26.16-59-60.94-1.78-14.94-.27-29.85.46-44.76,1.41-28.61,4.3-57.1,7.11-85.6,2.51-25.67,5-51.34,7-77.06.45-5.67.67-11.34,1.1-17,.13-1.77-.05-2.63-2.22-2.63q-36.68.12-73.36,0c-1.7,0-2.26.43-2.41,2.21Q147,107.56,144,141.3q-3.54,40-7.17,80c-2.1,23.1-4.71,46.14-9.09,68.94-2.84,14.78-6.39,29.35-13.17,42.93-6.94,13.88-17.18,23.5-33,26.48-22.22,4.22-43.91-11.8-46.65-34.14-1.11-9,1.31-16.79,5.77-24.25,5.53-9.22,12.2-17.65,18.57-26.27C85,240.17,100.36,200.93,108.38,158.6c5.19-27.36,7.37-55,8.22-82.81.1-3.39-1-4-4-4.19-12.49-1-24.88-1-37.24,1.37C55.6,76.77,40.75,87.3,30.6,104.56c-3.06,5.2-6.21,10.35-9.25,15.57-1.31,2.28-2.92,3.29-5.69,2.85-3-.49-6.1-.49-9.66-.74,8.22-19,14.55-38.07,22.18-56.63,9.17-22.33,25.59-35.11,49-39.95,21.75-4.51,43.78-5.88,65.86-6.47,71.37-1.91,142.74-.52,214.12-.24,2.21,0,3,.47,3,2.83,0,16.17.11,32.35.38,48.52,0,2.9-1.34,2.78-3.34,2.77-25.93-.22-51.87-.34-77.8-.65-3,0-3.56.87-3.59,3.66-.37,26.69-2.95,53.24-5.49,79.78-2.77,29-6.3,57.95-5.47,87.17.33,11.5,1.45,22.91,5.19,33.89,6.08,17.88,18.69,27,36.9,26.65s31.77-10.41,37.23-27.76A64.31,64.31,0,0,0,346.89,261c.13-1.88.62-2.6,2.58-2.47a50.38,50.38,0,0,0,7.77,0C359.88,258.23,360.57,259.13,360.43,261.73Z"/><path class="cls-6" d="M361.93,261A138.37,138.37,0,0,1,350.6,308.6,98.6,98.6,0,0,1,331,338.82c-16.07,16.52-35.77,22.29-58.32,20-32.74-3.28-54.9-26.16-59-60.94-1.78-14.94-.27-29.85.46-44.76,1.41-28.61,4.3-57.1,7.11-85.6,2.51-25.67,5-51.34,7-77.06.45-5.67.67-11.34,1.1-17,.13-1.77-.05-2.63-2.22-2.63q-36.68.12-73.36,0c-1.7,0-2.26.43-2.41,2.21q-2.83,33.76-5.86,67.51-3.54,40-7.17,80c-2.1,23.1-4.71,46.14-9.09,68.94-2.84,14.78-6.39,29.35-13.17,42.93-6.94,13.88-17.18,23.5-33,26.48-22.22,4.22-43.91-11.8-46.65-34.14-1.11-9,1.31-16.79,5.77-24.25,5.53-9.22,12.2-17.65,18.57-26.27,25.79-34.85,41.11-74.09,49.13-116.42,5.19-27.36,7.37-55,8.22-82.81.1-3.39-1-4-4-4.19-12.49-1-24.88-1-37.24,1.37C57.1,76.07,42.25,86.6,32.1,103.86c-3.06,5.2-6.21,10.35-9.25,15.57-1.31,2.28-2.92,3.29-5.69,2.85-3-.49-6.1-.49-9.66-.74,8.22-19,14.55-38.07,22.18-56.63C38.85,42.58,55.27,29.8,78.65,25c21.75-4.51,43.78-5.88,65.86-6.47,71.37-1.91,142.74-.52,214.12-.24,2.21,0,3,.47,3,2.83,0,16.17.11,32.35.38,48.52,0,2.9-1.34,2.78-3.34,2.77-25.93-.22-51.87-.34-77.8-.65-3,0-3.56.87-3.59,3.66-.37,26.69-2.95,53.24-5.49,79.78-2.77,29-6.3,58-5.47,87.17.33,11.5,1.45,22.91,5.19,33.89,6.08,17.88,18.69,27,36.9,26.65s31.77-10.41,37.23-27.76a64.31,64.31,0,0,0,2.78-14.86c.13-1.88.62-2.6,2.58-2.47a50.38,50.38,0,0,0,7.77,0C361.38,257.53,362.07,258.43,361.93,261Z"/><path class="cls-7" d="M363.43,260.33A138.37,138.37,0,0,1,352.1,307.9a98.6,98.6,0,0,1-19.65,30.22c-16.07,16.52-35.77,22.29-58.32,20-32.74-3.28-54.9-26.16-59-60.94-1.78-14.94-.27-29.85.46-44.76,1.41-28.61,4.3-57.1,7.11-85.6,2.51-25.67,5-51.34,7-77.06.45-5.67.67-11.34,1.1-17,.13-1.77-.05-2.63-2.22-2.63q-36.68.12-73.36,0c-1.7,0-2.26.43-2.41,2.21Q150,106.16,147,139.9q-3.54,40-7.17,80c-2.1,23.1-4.71,46.14-9.09,68.94-2.84,14.78-6.39,29.35-13.17,42.93-6.94,13.88-17.18,23.5-33,26.48-22.22,4.22-43.91-11.8-46.65-34.14-1.11-9,1.31-16.79,5.77-24.25,5.53-9.22,12.2-17.65,18.57-26.27C88,238.77,103.36,199.53,111.38,157.2c5.19-27.36,7.37-55,8.22-82.81.1-3.39-1-4-4-4.19-12.49-1-24.88-1-37.24,1.37C58.6,75.37,43.75,85.9,33.6,103.16c-3.06,5.2-6.21,10.35-9.25,15.57C23,121,21.43,122,18.66,121.58c-3-.49-6.1-.49-9.66-.74,8.22-19,14.55-38.07,22.18-56.63,9.17-22.33,25.59-35.11,49-39.95,21.75-4.51,43.78-5.88,65.86-6.47,71.37-1.91,142.74-.52,214.12-.24,2.21,0,3,.47,3,2.83,0,16.17.11,32.35.38,48.52,0,2.9-1.34,2.78-3.34,2.77-25.93-.22-51.87-.34-77.8-.65-3,0-3.56.87-3.59,3.66-.37,26.69-2.95,53.24-5.49,79.78-2.77,29-6.3,57.95-5.47,87.17.33,11.5,1.45,22.91,5.19,33.89,6.08,17.88,18.69,27,36.9,26.65s31.77-10.41,37.23-27.76a64.31,64.31,0,0,0,2.78-14.86c.13-1.88.62-2.6,2.58-2.47a50.38,50.38,0,0,0,7.77,0C362.88,256.83,363.57,257.73,363.43,260.33Z"/><path class="cls-8" d="M364.93,259.63A138.37,138.37,0,0,1,353.6,307.2,98.6,98.6,0,0,1,334,337.42c-16.07,16.52-35.77,22.29-58.32,20-32.74-3.28-54.9-26.16-59-60.94-1.78-14.94-.27-29.85.46-44.76,1.41-28.61,4.3-57.1,7.11-85.6,2.51-25.67,5-51.34,7-77.06.45-5.67.67-11.34,1.1-17,.13-1.77-.05-2.63-2.22-2.63q-36.68.12-73.36,0c-1.7,0-2.26.43-2.41,2.21q-2.83,33.77-5.86,67.51-3.54,40-7.17,80c-2.1,23.1-4.71,46.14-9.09,68.94C129.36,303,125.81,317.52,119,331.1c-6.94,13.88-17.18,23.5-33,26.48-22.22,4.22-43.91-11.8-46.65-34.14-1.11-9,1.31-16.79,5.77-24.25,5.53-9.22,12.2-17.65,18.57-26.27,25.79-34.85,41.11-74.09,49.13-116.42,5.19-27.36,7.37-55,8.22-82.81.1-3.39-1-4-4-4.19-12.49-1-24.88-1-37.24,1.37C60.1,74.67,45.25,85.2,35.1,102.46c-3.06,5.2-6.21,10.35-9.25,15.57-1.31,2.28-2.92,3.29-5.69,2.85-3-.49-6.1-.49-9.66-.74,8.22-19,14.55-38.07,22.18-56.63,9.17-22.33,25.59-35.11,49-39.95,21.75-4.51,43.78-5.88,65.86-6.47,71.37-1.91,142.74-.52,214.12-.24,2.21,0,3,.47,3,2.83,0,16.17.11,32.35.38,48.52,0,2.9-1.34,2.78-3.34,2.77-25.93-.22-51.87-.34-77.8-.65-3,0-3.56.87-3.59,3.66-.37,26.69-2.95,53.24-5.49,79.78-2.77,29-6.3,58-5.47,87.17.33,11.5,1.45,22.91,5.19,33.89,6.08,17.88,18.69,27,36.9,26.65s31.77-10.41,37.23-27.76a64.31,64.31,0,0,0,2.78-14.86c.13-1.88.62-2.6,2.58-2.47a50.38,50.38,0,0,0,7.77,0C364.38,256.13,365.07,257,364.93,259.63Z"/><path class="cls-9" d="M366.43,258.93A138.37,138.37,0,0,1,355.1,306.5a98.6,98.6,0,0,1-19.65,30.22c-16.07,16.52-35.77,22.29-58.32,20-32.74-3.28-54.9-26.16-59-60.94-1.78-14.94-.27-29.85.46-44.76,1.41-28.61,4.3-57.1,7.11-85.6,2.51-25.67,5-51.34,7-77.06.45-5.67.67-11.34,1.1-17,.13-1.77-.05-2.63-2.22-2.63q-36.68.12-73.36,0c-1.7,0-2.26.43-2.41,2.21Q153,104.76,150,138.5q-3.54,40-7.17,80c-2.1,23.1-4.71,46.14-9.09,68.94-2.84,14.78-6.39,29.35-13.17,42.93-6.94,13.88-17.18,23.5-33,26.48-22.22,4.22-43.91-11.8-46.65-34.14-1.11-9,1.31-16.79,5.77-24.25,5.53-9.22,12.2-17.65,18.57-26.27C91,237.37,106.36,198.13,114.38,155.8c5.19-27.36,7.37-55,8.22-82.81.1-3.39-1-3.95-4-4.19-12.49-1-24.88-1-37.24,1.37C61.6,74,46.75,84.5,36.6,101.76c-3.06,5.2-6.21,10.35-9.25,15.57-1.31,2.28-2.92,3.29-5.69,2.85-3-.49-6.1-.49-9.66-.74,8.22-19,14.55-38.07,22.18-56.63,9.17-22.33,25.59-35.11,49-39.95C104.9,18.35,126.93,17,149,16.39c71.37-1.91,142.74-.52,214.12-.24,2.21,0,3,.47,3,2.83,0,16.17.11,32.35.38,48.52,0,2.9-1.34,2.78-3.34,2.77-25.93-.22-51.87-.34-77.8-.65-3,0-3.56.87-3.59,3.66-.37,26.69-2.95,53.24-5.49,79.78-2.77,29-6.3,57.95-5.47,87.17.33,11.5,1.45,22.91,5.19,33.89,6.08,17.88,18.69,27,36.9,26.65s31.77-10.41,37.23-27.76a64.31,64.31,0,0,0,2.78-14.86c.13-1.88.62-2.6,2.58-2.47a50.38,50.38,0,0,0,7.77,0C365.88,255.43,366.57,256.33,366.43,258.93Z"/><path class="cls-10" d="M367.93,258.23A138.37,138.37,0,0,1,356.6,305.8,98.6,98.6,0,0,1,337,336c-16.07,16.52-35.77,22.29-58.32,20-32.74-3.28-54.9-26.16-59-60.94-1.78-14.94-.27-29.85.46-44.76,1.41-28.61,4.3-57.1,7.11-85.6,2.51-25.67,5-51.34,7-77.06.45-5.67.67-11.34,1.1-17,.13-1.77-.05-2.63-2.22-2.63q-36.68.12-73.36,0c-1.7,0-2.26.43-2.41,2.21q-2.83,33.76-5.86,67.51-3.54,40-7.17,80c-2.1,23.1-4.71,46.14-9.09,68.94-2.84,14.78-6.39,29.35-13.17,42.93-6.94,13.88-17.18,23.5-33,26.48C66.84,360.4,45.15,344.38,42.41,322c-1.11-9,1.31-16.79,5.77-24.25,5.53-9.22,12.2-17.65,18.57-26.27,25.79-34.85,41.11-74.09,49.13-116.42,5.19-27.36,7.37-55,8.22-82.81.1-3.39-1-4-4-4.19-12.49-1-24.88-1-37.24,1.37C63.1,73.27,48.25,83.8,38.1,101.06c-3.06,5.2-6.21,10.35-9.25,15.57-1.31,2.28-2.92,3.29-5.69,2.85-3-.49-6.1-.49-9.66-.74,8.22-19,14.55-38.07,22.18-56.63,9.17-22.33,25.59-35.11,49-39.95,21.75-4.51,43.78-5.88,65.86-6.47,71.37-1.91,142.74-.52,214.12-.24,2.21,0,3,.47,3,2.83,0,16.17.11,32.35.38,48.52,0,2.9-1.34,2.78-3.34,2.77-25.93-.22-51.87-.34-77.8-.65-3,0-3.56.87-3.59,3.66-.37,26.69-2.95,53.24-5.49,79.78-2.77,29-6.3,57.95-5.47,87.17.33,11.5,1.45,22.91,5.19,33.89,6.08,17.88,18.69,27,36.9,26.65s31.77-10.41,37.23-27.76a64.31,64.31,0,0,0,2.78-14.86c.13-1.88.62-2.6,2.58-2.47a50.38,50.38,0,0,0,7.77,0C367.38,254.73,368.07,255.63,367.93,258.23Z"/><path class="cls-11" d="M369.43,257.53A138.37,138.37,0,0,1,358.1,305.1a98.6,98.6,0,0,1-19.65,30.22c-16.07,16.52-35.77,22.29-58.32,20-32.74-3.28-54.9-26.16-59-60.94-1.78-14.94-.27-29.85.46-44.76,1.41-28.61,4.3-57.1,7.11-85.6,2.51-25.67,5-51.34,7-77.06.45-5.67.67-11.34,1.1-17,.13-1.77-.05-2.63-2.22-2.63q-36.68.12-73.36,0c-1.7,0-2.26.43-2.41,2.21Q156,103.35,153,137.1q-3.54,40-7.17,80c-2.1,23.1-4.71,46.14-9.09,68.94-2.84,14.78-6.39,29.35-13.17,42.93-6.94,13.88-17.18,23.5-33,26.48-22.22,4.22-43.91-11.8-46.65-34.14-1.11-9,1.31-16.79,5.77-24.25,5.53-9.22,12.2-17.65,18.57-26.27C94,236,109.36,196.73,117.38,154.4c5.19-27.36,7.37-55,8.22-82.81.1-3.39-1-4-4-4.19-12.49-1-24.88-1-37.24,1.37C64.6,72.57,49.75,83.1,39.6,100.36c-3.06,5.2-6.21,10.35-9.25,15.57-1.31,2.28-2.92,3.29-5.69,2.85-3-.49-6.1-.49-9.66-.74C23.22,99,29.55,80,37.18,61.41c9.17-22.33,25.59-35.11,49-39.95C107.9,17,129.93,15.58,152,15c71.37-1.91,142.74-.52,214.12-.24,2.21,0,3,.47,3,2.83,0,16.17.11,32.35.38,48.52,0,2.9-1.34,2.78-3.34,2.77-25.93-.22-51.87-.34-77.8-.65-3,0-3.56.87-3.59,3.66-.37,26.69-2.95,53.24-5.49,79.78-2.77,29-6.3,58-5.47,87.17.33,11.5,1.45,22.91,5.19,33.89,6.08,17.88,18.69,27,36.9,26.65s31.77-10.41,37.23-27.76a64.31,64.31,0,0,0,2.78-14.86c.13-1.88.62-2.6,2.58-2.47a50.38,50.38,0,0,0,7.77,0C368.88,254,369.57,254.93,369.43,257.53Z"/><path class="cls-12" d="M370.93,256.83A138.37,138.37,0,0,1,359.6,304.4,98.6,98.6,0,0,1,340,334.62c-16.07,16.52-35.77,22.29-58.32,20-32.74-3.28-54.9-26.16-59-60.94-1.78-14.94-.27-29.85.46-44.76,1.41-28.61,4.3-57.1,7.11-85.6,2.51-25.67,5-51.34,7-77.06.45-5.67.67-11.34,1.1-17,.13-1.77-.05-2.63-2.22-2.63q-36.68.12-73.36,0c-1.7,0-2.26.43-2.41,2.21q-2.83,33.77-5.86,67.51-3.54,40-7.17,80c-2.1,23.1-4.71,46.14-9.09,68.94-2.84,14.78-6.39,29.35-13.17,42.93-6.94,13.88-17.18,23.5-33,26.48C69.84,359,48.15,343,45.41,320.64c-1.11-9,1.31-16.79,5.77-24.25,5.53-9.22,12.2-17.65,18.57-26.27C95.54,235.27,110.86,196,118.88,153.7c5.19-27.36,7.37-55,8.22-82.81.1-3.39-1-4-4-4.19-12.49-1-24.88-1-37.24,1.37C66.1,71.87,51.25,82.4,41.1,99.66c-3.06,5.2-6.21,10.35-9.25,15.57-1.31,2.28-2.92,3.29-5.69,2.85-3-.49-6.1-.49-9.66-.74,8.22-19,14.55-38.07,22.18-56.63,9.17-22.33,25.59-35.11,49-39.95,21.75-4.51,43.78-5.88,65.86-6.47,71.37-1.91,142.74-.52,214.12-.24,2.21,0,3,.47,3,2.83,0,16.17.11,32.35.38,48.52,0,2.9-1.34,2.78-3.34,2.77-25.93-.22-51.87-.34-77.8-.65-3,0-3.56.87-3.59,3.66-.37,26.69-2.95,53.24-5.49,79.78-2.77,29-6.3,57.95-5.47,87.17.33,11.5,1.45,22.91,5.19,33.89,6.08,17.88,18.69,27,36.9,26.65s31.77-10.41,37.23-27.76a64.31,64.31,0,0,0,2.78-14.86c.13-1.88.62-2.6,2.58-2.47a50.38,50.38,0,0,0,7.77,0C370.38,253.33,371.07,254.23,370.93,256.83Z"/><path class="cls-13" d="M372.43,256.13A138.37,138.37,0,0,1,361.1,303.7a98.6,98.6,0,0,1-19.65,30.22c-16.07,16.52-35.77,22.29-58.32,20-32.74-3.28-54.9-26.16-59-60.94-1.78-14.94-.27-29.85.46-44.76,1.41-28.61,4.3-57.1,7.11-85.6,2.51-25.67,5-51.34,7-77.06.45-5.67.67-11.34,1.1-17,.13-1.77-.05-2.63-2.22-2.63q-36.68.12-73.36,0c-1.7,0-2.26.43-2.41,2.21Q159,102,156,135.7q-3.54,40-7.17,80c-2.1,23.1-4.71,46.14-9.09,68.94-2.84,14.78-6.39,29.35-13.17,42.93-6.94,13.88-17.18,23.5-33,26.48-22.22,4.22-43.91-11.8-46.65-34.14-1.11-9,1.31-16.79,5.77-24.25,5.53-9.22,12.2-17.65,18.57-26.27C97,234.57,112.36,195.33,120.38,153c5.19-27.36,7.37-55,8.22-82.81.1-3.39-1-4-4-4.19-12.49-1-24.88-1-37.24,1.37C67.6,71.17,52.75,81.7,42.6,99c-3.06,5.2-6.21,10.35-9.25,15.57-1.31,2.28-2.92,3.29-5.69,2.85-3-.49-6.1-.49-9.66-.74,8.22-19,14.55-38.07,22.18-56.63,9.17-22.33,25.59-35.11,49-39.95,21.75-4.51,43.78-5.88,65.86-6.47,71.37-1.91,142.74-.52,214.12-.24,2.21,0,3,.47,3,2.83,0,16.17.11,32.35.38,48.52,0,2.9-1.34,2.78-3.34,2.77-25.93-.22-51.87-.34-77.8-.65-3,0-3.56.87-3.59,3.66-.37,26.69-2.95,53.24-5.49,79.78-2.77,29-6.3,58-5.47,87.17.33,11.5,1.45,22.91,5.19,33.89,6.08,17.88,18.69,27,36.9,26.65s31.77-10.41,37.23-27.76a64.31,64.31,0,0,0,2.78-14.86c.13-1.88.62-2.6,2.58-2.47a50.38,50.38,0,0,0,7.77,0C371.88,252.63,372.57,253.53,372.43,256.13Z"/><path class="cls-14" d="M373.93,255.43A138.37,138.37,0,0,1,362.6,303,98.6,98.6,0,0,1,343,333.22c-16.07,16.52-35.77,22.29-58.32,20-32.74-3.28-54.9-26.16-59-60.94-1.78-14.94-.27-29.85.46-44.76,1.41-28.61,4.3-57.1,7.11-85.6,2.51-25.67,5-51.34,7-77.06.45-5.67.67-11.34,1.1-17,.13-1.77-.05-2.63-2.22-2.63q-36.68.12-73.36,0c-1.7,0-2.26.43-2.41,2.21q-2.83,33.77-5.86,67.51-3.54,40-7.17,80c-2.1,23.1-4.71,46.14-9.09,68.94-2.84,14.78-6.39,29.35-13.17,42.93-6.94,13.88-17.18,23.5-33,26.48-22.22,4.22-43.91-11.8-46.65-34.14-1.11-9,1.31-16.79,5.77-24.25,5.53-9.22,12.2-17.65,18.57-26.27,25.79-34.85,41.11-74.09,49.13-116.42,5.19-27.36,7.37-55,8.22-82.81.1-3.39-1-3.95-4-4.19-12.49-1-24.88-1-37.24,1.37C69.1,70.47,54.25,81,44.1,98.26c-3.06,5.2-6.21,10.35-9.25,15.57-1.31,2.28-2.92,3.29-5.69,2.85-3-.49-6.1-.49-9.66-.74,8.22-19,14.55-38.07,22.18-56.63C50.85,37,67.27,24.2,90.65,19.36c21.75-4.51,43.78-5.88,65.86-6.47,71.37-1.91,142.74-.52,214.12-.24,2.21,0,3,.47,3,2.83,0,16.17.11,32.35.38,48.52,0,2.9-1.34,2.78-3.34,2.77-25.93-.22-51.87-.34-77.8-.65-3,0-3.56.87-3.59,3.66-.37,26.69-2.95,53.24-5.49,79.78-2.77,29-6.3,57.95-5.47,87.17.33,11.5,1.45,22.91,5.19,33.89,6.08,17.88,18.69,27,36.9,26.65s31.77-10.41,37.23-27.76a64.31,64.31,0,0,0,2.78-14.86c.13-1.88.62-2.6,2.58-2.47a50.38,50.38,0,0,0,7.77,0C373.38,251.93,374.07,252.83,373.93,255.43Z"/><path class="cls-15" d="M375.43,254.73A138.37,138.37,0,0,1,364.1,302.3a98.6,98.6,0,0,1-19.65,30.22c-16.07,16.52-35.77,22.29-58.32,20-32.74-3.28-54.9-26.16-59-60.94-1.78-14.94-.27-29.85.46-44.76,1.41-28.61,4.3-57.1,7.11-85.6,2.51-25.67,5-51.34,7-77.06.45-5.67.67-11.34,1.1-17,.13-1.77-.05-2.63-2.22-2.63q-36.68.12-73.36,0c-1.7,0-2.26.43-2.41,2.21Q162,100.56,159,134.3q-3.54,40-7.17,80c-2.1,23.1-4.71,46.14-9.09,68.94-2.84,14.78-6.39,29.35-13.17,42.93-6.94,13.88-17.18,23.5-33,26.48-22.22,4.22-43.91-11.8-46.65-34.14-1.11-9,1.31-16.79,5.77-24.25,5.53-9.22,12.2-17.65,18.57-26.27,25.79-34.85,41.11-74.09,49.13-116.42,5.19-27.36,7.37-55,8.22-82.81.1-3.39-1-4-4-4.19-12.49-1-24.88-1-37.24,1.37C70.6,69.77,55.75,80.3,45.6,97.56c-3.06,5.2-6.21,10.35-9.25,15.57-1.31,2.28-2.92,3.29-5.69,2.85-3-.49-6.1-.49-9.66-.74,8.22-19,14.55-38.07,22.18-56.63,9.17-22.33,25.59-35.11,49-39.95,21.75-4.51,43.78-5.88,65.86-6.47,71.37-1.91,142.74-.52,214.12-.24,2.21,0,3,.47,3,2.83,0,16.17.11,32.35.38,48.52,0,2.9-1.34,2.78-3.34,2.77-25.93-.22-51.87-.34-77.8-.65-3,0-3.56.87-3.59,3.66-.37,26.69-2.95,53.24-5.49,79.78-2.77,29-6.3,57.95-5.47,87.17.33,11.5,1.45,22.91,5.19,33.89,6.08,17.88,18.69,27,36.9,26.65s31.77-10.41,37.23-27.76A64.31,64.31,0,0,0,361.89,254c.13-1.88.62-2.6,2.58-2.47a50.38,50.38,0,0,0,7.77,0C374.88,251.23,375.57,252.13,375.43,254.73Z"/><path class="cls-16" d="M376.93,254A138.37,138.37,0,0,1,365.6,301.6,98.6,98.6,0,0,1,346,331.82c-16.07,16.52-35.77,22.29-58.32,20-32.74-3.28-54.9-26.16-59-60.94-1.78-14.94-.27-29.85.46-44.76,1.41-28.61,4.3-57.1,7.11-85.6,2.51-25.67,5-51.34,7-77.06.45-5.67.67-11.34,1.1-17,.13-1.77-.05-2.63-2.22-2.63q-36.68.12-73.36,0c-1.7,0-2.26.43-2.41,2.21q-2.83,33.76-5.86,67.51-3.54,40-7.17,80c-2.1,23.1-4.71,46.14-9.09,68.94-2.84,14.78-6.39,29.35-13.17,42.93-6.94,13.88-17.18,23.5-33,26.48-22.22,4.22-43.91-11.8-46.65-34.14-1.11-9,1.31-16.79,5.77-24.25,5.53-9.22,12.2-17.65,18.57-26.27,25.79-34.85,41.11-74.09,49.13-116.42,5.19-27.36,7.37-55,8.22-82.81.1-3.39-1-4-4-4.19-12.49-1-24.88-1-37.24,1.37C72.1,69.07,57.25,79.6,47.1,96.86c-3.06,5.2-6.21,10.35-9.25,15.57-1.31,2.28-2.92,3.29-5.69,2.85-3-.49-6.1-.49-9.66-.74,8.22-19,14.55-38.07,22.18-56.63C53.85,35.58,70.27,22.8,93.65,18c21.75-4.51,43.78-5.88,65.86-6.47,71.37-1.91,142.74-.52,214.12-.24,2.21,0,3,.47,3,2.83,0,16.17.11,32.35.38,48.52,0,2.9-1.34,2.78-3.34,2.77-25.93-.22-51.87-.34-77.8-.65-3,0-3.56.87-3.59,3.66-.37,26.69-2.95,53.24-5.49,79.78-2.77,29-6.3,58-5.47,87.17.33,11.5,1.45,22.91,5.19,33.89,6.08,17.88,18.69,27,36.9,26.65s31.77-10.41,37.23-27.76a64.31,64.31,0,0,0,2.78-14.86c.13-1.88.62-2.6,2.58-2.47a50.38,50.38,0,0,0,7.77,0C376.38,250.53,377.07,251.43,376.93,254Z"/><path class="cls-17" d="M378.43,253.33A138.37,138.37,0,0,1,367.1,300.9a98.6,98.6,0,0,1-19.65,30.22c-16.07,16.52-35.77,22.29-58.32,20-32.74-3.28-54.9-26.16-59-60.94-1.78-14.94-.27-29.85.46-44.76,1.41-28.61,4.3-57.1,7.11-85.6,2.51-25.67,5-51.34,7-77.06.45-5.67.67-11.34,1.1-17,.13-1.77-.05-2.63-2.22-2.63q-36.68.12-73.36,0c-1.7,0-2.26.43-2.41,2.21Q165,99.16,162,132.9q-3.54,40-7.17,80c-2.1,23.1-4.71,46.14-9.09,68.94-2.84,14.78-6.39,29.35-13.17,42.93-6.94,13.88-17.18,23.5-33,26.48-22.22,4.22-43.91-11.8-46.65-34.14-1.11-9,1.31-16.79,5.77-24.25,5.53-9.22,12.2-17.65,18.57-26.27,25.79-34.85,41.11-74.09,49.13-116.42,5.19-27.36,7.37-55,8.22-82.81.1-3.39-1-4-4-4.19-12.49-1-24.88-1-37.24,1.37C73.6,68.37,58.75,78.9,48.6,96.16c-3.06,5.2-6.21,10.35-9.25,15.57C38,114,36.43,115,33.66,114.58c-3-.49-6.1-.49-9.66-.74,8.22-19,14.55-38.07,22.18-56.63,9.17-22.33,25.59-35.11,49-39.95,21.75-4.51,43.78-5.88,65.86-6.47,71.37-1.91,142.74-.52,214.12-.24,2.21,0,3,.47,3,2.83,0,16.17.11,32.35.38,48.52,0,2.9-1.34,2.78-3.34,2.77-25.93-.22-51.87-.34-77.8-.65-3,0-3.56.87-3.59,3.66-.37,26.69-2.95,53.24-5.49,79.78-2.77,29-6.3,57.95-5.47,87.17.33,11.5,1.45,22.91,5.19,33.89,6.08,17.88,18.69,27,36.9,26.65s31.77-10.41,37.23-27.76a64.31,64.31,0,0,0,2.78-14.86c.13-1.88.62-2.6,2.58-2.47a50.38,50.38,0,0,0,7.77,0C377.88,249.83,378.57,250.73,378.43,253.33Z"/><path class="cls-18" d="M379.93,252.63A138.37,138.37,0,0,1,368.6,300.2,98.6,98.6,0,0,1,349,330.42c-16.07,16.52-35.77,22.29-58.32,20-32.74-3.28-54.9-26.16-59-60.94-1.78-14.94-.27-29.85.46-44.76,1.41-28.61,4.3-57.1,7.11-85.6,2.51-25.67,5-51.34,7-77.06.45-5.67.67-11.34,1.1-17,.13-1.77-.05-2.63-2.22-2.63q-36.68.12-73.36,0c-1.7,0-2.26.43-2.41,2.21q-2.83,33.77-5.86,67.51-3.54,40-7.17,80c-2.1,23.1-4.71,46.14-9.09,68.94C144.36,296,140.81,310.52,134,324.1c-6.94,13.88-17.18,23.5-33,26.48-22.22,4.22-43.91-11.8-46.65-34.14-1.11-9,1.31-16.79,5.77-24.25,5.53-9.22,12.2-17.65,18.57-26.27,25.79-34.85,41.11-74.09,49.13-116.42,5.19-27.36,7.37-55,8.22-82.81.1-3.39-1-3.95-4-4.19-12.49-1-24.88-1-37.24,1.37C75.1,67.67,60.25,78.2,50.1,95.46c-3.06,5.2-6.21,10.35-9.25,15.57-1.31,2.28-2.92,3.29-5.69,2.85-3-.49-6.1-.49-9.66-.74,8.22-19,14.55-38.07,22.18-56.63,9.17-22.33,25.59-35.11,49-39.95,21.75-4.51,43.78-5.88,65.86-6.47,71.37-1.91,142.74-.52,214.12-.24,2.21,0,3,.47,3,2.83,0,16.17.11,32.35.38,48.52,0,2.9-1.34,2.78-3.34,2.77-25.93-.22-51.87-.34-77.8-.65-3,0-3.56.87-3.59,3.66-.37,26.69-2.95,53.24-5.49,79.78-2.77,29-6.3,58-5.47,87.17.33,11.5,1.45,22.91,5.19,33.89,6.08,17.88,18.69,27,36.9,26.65s31.77-10.41,37.23-27.76a64.31,64.31,0,0,0,2.78-14.86c.13-1.88.62-2.6,2.58-2.47a50.38,50.38,0,0,0,7.77,0C379.38,249.13,380.07,250,379.93,252.63Z"/><path class="cls-19" d="M381.43,251.93A138.37,138.37,0,0,1,370.1,299.5a98.6,98.6,0,0,1-19.65,30.22c-16.07,16.52-35.77,22.29-58.32,20-32.74-3.28-54.9-26.16-59-60.94-1.78-14.94-.27-29.85.46-44.76,1.41-28.61,4.3-57.1,7.11-85.6,2.51-25.67,5-51.34,7-77.06.45-5.67.67-11.34,1.1-17,.13-1.77-.05-2.63-2.22-2.63q-36.68.12-73.36,0c-1.7,0-2.26.43-2.41,2.21Q168,97.76,165,131.5q-3.54,40-7.17,80c-2.1,23.1-4.71,46.14-9.09,68.94-2.84,14.78-6.39,29.35-13.17,42.93-6.94,13.88-17.18,23.5-33,26.48-22.22,4.22-43.91-11.8-46.65-34.14-1.11-9,1.31-16.79,5.77-24.25,5.53-9.22,12.2-17.65,18.57-26.27,25.79-34.85,41.11-74.09,49.13-116.42,5.19-27.36,7.37-55,8.22-82.81.1-3.39-1-3.95-4-4.19-12.49-1-24.88-1-37.24,1.37C76.6,67,61.75,77.5,51.6,94.76c-3.06,5.2-6.21,10.35-9.25,15.57-1.31,2.28-2.92,3.29-5.69,2.85-3-.49-6.1-.49-9.66-.74,8.22-19,14.55-38.07,22.18-56.63,9.17-22.33,25.59-35.11,49-39.95C119.9,11.35,141.93,10,164,9.39c71.37-1.91,142.74-.52,214.12-.24,2.21,0,3,.47,3,2.83,0,16.17.11,32.35.38,48.52,0,2.9-1.34,2.78-3.34,2.77-25.93-.22-51.87-.34-77.8-.65-3,0-3.56.87-3.59,3.66-.37,26.69-2.95,53.24-5.49,79.78-2.77,29-6.3,57.95-5.47,87.17.33,11.5,1.45,22.91,5.19,33.89,6.08,17.88,18.69,27,36.9,26.65s31.77-10.41,37.23-27.76a64.31,64.31,0,0,0,2.78-14.86c.13-1.88.62-2.6,2.58-2.47a50.38,50.38,0,0,0,7.77,0C380.88,248.43,381.57,249.33,381.43,251.93Z"/><path class="cls-20" d="M382.93,251.23A138.37,138.37,0,0,1,371.6,298.8,98.6,98.6,0,0,1,352,329c-16.07,16.52-35.77,22.29-58.32,20-32.74-3.28-54.9-26.16-59-60.94-1.78-14.94-.27-29.85.46-44.76,1.41-28.61,4.3-57.1,7.11-85.6,2.51-25.67,5-51.34,7-77.06.45-5.67.67-11.34,1.1-17,.13-1.77-.05-2.63-2.22-2.63q-36.68.12-73.36,0c-1.7,0-2.26.43-2.41,2.21q-2.83,33.77-5.86,67.51-3.54,40-7.17,80c-2.1,23.1-4.71,46.14-9.09,68.94-2.84,14.78-6.39,29.35-13.17,42.93-6.94,13.88-17.18,23.5-33,26.48C81.84,353.4,60.15,337.38,57.41,315c-1.11-9,1.31-16.79,5.77-24.25,5.53-9.22,12.2-17.65,18.57-26.27,25.79-34.85,41.11-74.09,49.13-116.42,5.19-27.36,7.37-55,8.22-82.81.1-3.39-1-4-4-4.19-12.49-1-24.88-1-37.24,1.37C78.1,66.27,63.25,76.8,53.1,94.06c-3.06,5.2-6.21,10.35-9.25,15.57-1.31,2.28-2.92,3.29-5.69,2.85-3-.49-6.1-.49-9.66-.74,8.22-19,14.55-38.07,22.18-56.63,9.17-22.33,25.59-35.11,49-39.95,21.75-4.51,43.78-5.88,65.86-6.47,71.37-1.91,142.74-.52,214.12-.24,2.21,0,3,.47,3,2.83,0,16.17.11,32.35.38,48.52,0,2.9-1.34,2.78-3.34,2.77-25.93-.22-51.87-.34-77.8-.65-3,0-3.56.87-3.59,3.66-.37,26.69-2.95,53.24-5.49,79.78-2.77,29-6.3,57.95-5.47,87.17.33,11.5,1.45,22.91,5.19,33.89,6.08,17.88,18.69,27,36.9,26.65s31.77-10.41,37.23-27.76a64.31,64.31,0,0,0,2.78-14.86c.13-1.88.62-2.6,2.58-2.47a50.38,50.38,0,0,0,7.77,0C382.38,247.73,383.07,248.63,382.93,251.23Z"/><path class="cls-21" d="M384.43,250.53A138.37,138.37,0,0,1,373.1,298.1a98.6,98.6,0,0,1-19.65,30.22c-16.07,16.52-35.77,22.29-58.32,20-32.74-3.28-54.9-26.16-59-60.94-1.78-14.94-.27-29.85.46-44.76,1.41-28.61,4.3-57.1,7.11-85.6,2.51-25.67,5-51.34,7-77.06.45-5.67.67-11.34,1.1-17,.13-1.77-.05-2.63-2.22-2.63q-36.68.12-73.36,0c-1.7,0-2.26.43-2.41,2.21Q171,96.35,168,130.1q-3.54,40-7.17,80c-2.1,23.1-4.71,46.14-9.09,68.94-2.84,14.78-6.39,29.35-13.17,42.93-6.94,13.88-17.18,23.5-33,26.48-22.22,4.22-43.91-11.8-46.65-34.14-1.11-9,1.31-16.79,5.77-24.25,5.53-9.22,12.2-17.65,18.57-26.27C109,229,124.36,189.73,132.38,147.4c5.19-27.36,7.37-55,8.22-82.81.1-3.39-1-4-4-4.19-12.49-1-24.88-1-37.24,1.37C79.6,65.57,64.75,76.1,54.6,93.36c-3.06,5.2-6.21,10.35-9.25,15.57-1.31,2.28-2.92,3.29-5.69,2.85-3-.49-6.1-.49-9.66-.74C38.22,92,44.55,73,52.18,54.41c9.17-22.33,25.59-35.11,49-39.95C122.9,10,144.93,8.58,167,8c71.37-1.91,142.74-.52,214.12-.24,2.21,0,3,.47,3,2.83,0,16.17.11,32.35.38,48.52,0,2.9-1.34,2.78-3.34,2.77-25.93-.22-51.87-.34-77.8-.65-3,0-3.56.87-3.59,3.66-.37,26.69-2.95,53.24-5.49,79.78-2.77,29-6.3,58-5.47,87.17.33,11.5,1.45,22.91,5.19,33.89,6.08,17.88,18.69,27,36.9,26.65s31.77-10.41,37.23-27.76a64.31,64.31,0,0,0,2.78-14.86c.13-1.88.62-2.6,2.58-2.47a50.38,50.38,0,0,0,7.77,0C383.88,247,384.57,247.93,384.43,250.53Z"/><path class="cls-22" d="M385.93,249.83A138.37,138.37,0,0,1,374.6,297.4,98.6,98.6,0,0,1,355,327.62c-16.07,16.52-35.77,22.29-58.32,20-32.74-3.28-54.9-26.16-59-60.94-1.78-14.94-.27-29.85.46-44.76,1.41-28.61,4.3-57.1,7.11-85.6,2.51-25.67,5-51.34,7-77.06.45-5.67.67-11.34,1.1-17,.13-1.77-.05-2.63-2.22-2.63q-36.68.12-73.36,0c-1.7,0-2.26.43-2.41,2.21q-2.83,33.77-5.86,67.51-3.54,40-7.17,80c-2.1,23.1-4.71,46.14-9.09,68.94-2.84,14.78-6.39,29.35-13.17,42.93-6.94,13.88-17.18,23.5-33,26.48C84.84,352,63.15,336,60.41,313.64c-1.11-9,1.31-16.79,5.77-24.25,5.53-9.22,12.2-17.65,18.57-26.27,25.79-34.85,41.11-74.09,49.13-116.42,5.19-27.36,7.37-55,8.22-82.81.1-3.39-1-4-4-4.19-12.49-1-24.88-1-37.24,1.37C81.1,64.87,66.25,75.4,56.1,92.66,53,97.86,49.89,103,46.85,108.23c-1.31,2.28-2.92,3.29-5.69,2.85-3-.49-6.1-.49-9.66-.74,8.22-19,14.55-38.07,22.18-56.63,9.17-22.33,25.59-35.11,49-39.95,21.75-4.51,43.78-5.88,65.86-6.47,71.37-1.91,142.74-.52,214.12-.24,2.21,0,3,.47,3,2.83,0,16.17.11,32.35.38,48.52,0,2.9-1.34,2.78-3.34,2.77-25.93-.22-51.87-.34-77.8-.65-3,0-3.56.87-3.59,3.66-.37,26.69-2.95,53.24-5.49,79.78-2.77,29-6.3,57.95-5.47,87.17.33,11.5,1.45,22.91,5.19,33.89,6.08,17.88,18.69,27,36.9,26.65s31.77-10.41,37.23-27.76a64.31,64.31,0,0,0,2.78-14.86c.13-1.88.62-2.6,2.58-2.47a50.38,50.38,0,0,0,7.77,0C385.38,246.33,386.07,247.23,385.93,249.83Z"/><path class="cls-23" d="M387.43,249.13A138.37,138.37,0,0,1,376.1,296.7a98.6,98.6,0,0,1-19.65,30.22c-16.07,16.52-35.77,22.29-58.32,20-32.74-3.28-54.9-26.16-59-60.94-1.78-14.94-.27-29.85.46-44.76,1.41-28.61,4.3-57.1,7.11-85.6,2.51-25.67,5-51.34,7-77.06.45-5.67.67-11.34,1.1-17,.13-1.77-.05-2.63-2.22-2.63q-36.68.12-73.36,0c-1.7,0-2.26.43-2.41,2.21Q174,95,171,128.7q-3.54,40-7.17,80c-2.1,23.1-4.71,46.14-9.09,68.94-2.84,14.78-6.39,29.35-13.17,42.93-6.94,13.88-17.18,23.5-33,26.48-22.22,4.22-43.91-11.8-46.65-34.14-1.11-9,1.31-16.79,5.77-24.25,5.53-9.22,12.2-17.65,18.57-26.27C112,227.57,127.36,188.33,135.38,146c5.19-27.36,7.37-55,8.22-82.81.1-3.39-1-3.95-4-4.19-12.49-1-24.88-1-37.24,1.37C82.6,64.17,67.75,74.7,57.6,92c-3.06,5.2-6.21,10.35-9.25,15.57-1.31,2.28-2.92,3.29-5.69,2.85-3-.49-6.1-.49-9.66-.74,8.22-19,14.55-38.07,22.18-56.63,9.17-22.33,25.59-35.11,49-39.95C125.9,8.55,147.93,7.18,170,6.59c71.37-1.91,142.74-.52,214.12-.24,2.21,0,3,.47,3,2.83,0,16.17.11,32.35.38,48.52,0,2.9-1.34,2.78-3.34,2.77-25.93-.22-51.87-.34-77.8-.65-3,0-3.56.87-3.59,3.66-.37,26.69-2.95,53.24-5.49,79.78-2.77,29-6.3,58-5.47,87.17.33,11.5,1.45,22.91,5.19,33.89,6.08,17.88,18.69,27,36.9,26.65s31.77-10.41,37.23-27.76a64.31,64.31,0,0,0,2.78-14.86c.13-1.88.62-2.6,2.58-2.47a50.38,50.38,0,0,0,7.77,0C386.88,245.63,387.57,246.53,387.43,249.13Z"/><path class="cls-24" d="M388.93,248.43A138.37,138.37,0,0,1,377.6,296,98.6,98.6,0,0,1,358,326.22c-16.07,16.52-35.77,22.29-58.32,20-32.74-3.28-54.9-26.16-59-60.94-1.78-14.94-.27-29.85.46-44.76,1.41-28.61,4.3-57.1,7.11-85.6,2.51-25.67,5-51.34,7-77.06.45-5.67.67-11.34,1.1-17,.13-1.77-.05-2.63-2.22-2.63q-36.68.12-73.36,0c-1.7,0-2.26.43-2.41,2.21q-2.83,33.76-5.86,67.51-3.54,40-7.17,80c-2.1,23.1-4.71,46.14-9.09,68.94-2.84,14.78-6.39,29.35-13.17,42.93-6.94,13.88-17.18,23.5-33,26.48-22.22,4.22-43.91-11.8-46.65-34.14-1.11-9,1.31-16.79,5.77-24.25,5.53-9.22,12.2-17.65,18.57-26.27,25.79-34.85,41.11-74.09,49.13-116.42,5.19-27.36,7.37-55,8.22-82.81.1-3.39-1-4-4-4.19-12.49-1-24.88-1-37.24,1.37C84.1,63.47,69.25,74,59.1,91.26c-3.06,5.2-6.21,10.35-9.25,15.57-1.31,2.28-2.92,3.29-5.69,2.85-3-.49-6.1-.49-9.66-.74,8.22-19,14.55-38.07,22.18-56.63,9.17-22.33,25.59-35.11,49-39.95,21.75-4.51,43.78-5.88,65.86-6.47C242.88,4,314.25,5.37,385.63,5.65c2.21,0,3,.47,3,2.83,0,16.17.11,32.35.38,48.52,0,2.9-1.34,2.78-3.34,2.77-25.93-.22-51.87-.34-77.8-.65-3,0-3.56.87-3.59,3.66-.37,26.69-2.95,53.24-5.49,79.78-2.77,29-6.3,57.95-5.47,87.17.33,11.5,1.45,22.91,5.19,33.89,6.08,17.88,18.69,27,36.9,26.65s31.77-10.41,37.23-27.76a64.31,64.31,0,0,0,2.78-14.86c.13-1.88.62-2.6,2.58-2.47a50.38,50.38,0,0,0,7.77,0C388.38,244.93,389.07,245.83,388.93,248.43Z"/><path class="cls-25" d="M390.43,247.73A138.37,138.37,0,0,1,379.1,295.3a98.6,98.6,0,0,1-19.65,30.22c-16.07,16.52-35.77,22.29-58.32,20-32.74-3.28-54.9-26.16-59-60.94-1.78-14.94-.27-29.85.46-44.76,1.41-28.61,4.3-57.1,7.11-85.6,2.51-25.67,5-51.34,7-77.06.45-5.67.67-11.34,1.1-17,.13-1.77-.05-2.63-2.22-2.63q-36.68.12-73.36,0c-1.7,0-2.26.43-2.41,2.21Q177,93.56,174,127.3q-3.54,40-7.17,80c-2.1,23.1-4.71,46.14-9.09,68.94-2.84,14.78-6.39,29.35-13.17,42.93-6.94,13.88-17.18,23.5-33,26.48-22.22,4.22-43.91-11.8-46.65-34.14-1.11-9,1.31-16.79,5.77-24.25,5.53-9.22,12.2-17.65,18.57-26.27,25.79-34.85,41.11-74.09,49.13-116.42,5.19-27.36,7.37-55,8.22-82.81.1-3.39-1-3.95-4-4.19-12.49-1-24.88-1-37.24,1.37C85.6,62.77,70.75,73.3,60.6,90.56c-3.06,5.2-6.21,10.35-9.25,15.57-1.31,2.28-2.92,3.29-5.69,2.85-3-.49-6.1-.49-9.66-.74,8.22-19,14.55-38.07,22.18-56.63,9.17-22.33,25.59-35.11,49-39.95C128.9,7.15,150.93,5.78,173,5.19,244.38,3.28,315.75,4.67,387.13,5c2.21,0,3,.47,3,2.83,0,16.17.11,32.35.38,48.52,0,2.9-1.34,2.78-3.34,2.77-25.93-.22-51.87-.34-77.8-.65-3,0-3.56.87-3.59,3.66-.37,26.69-2.95,53.24-5.49,79.78-2.77,29-6.3,57.95-5.47,87.17.33,11.5,1.45,22.91,5.19,33.89,6.08,17.88,18.69,27,36.9,26.65s31.77-10.41,37.23-27.76A64.31,64.31,0,0,0,376.89,247c.13-1.88.62-2.6,2.58-2.47a50.38,50.38,0,0,0,7.77,0C389.88,244.23,390.57,245.13,390.43,247.73Z"/><path class="cls-26" d="M391.93,247A138.37,138.37,0,0,1,380.6,294.6,98.6,98.6,0,0,1,361,324.82c-16.07,16.52-35.77,22.29-58.32,20-32.74-3.28-54.9-26.16-59-60.94-1.78-14.94-.27-29.85.46-44.76,1.41-28.61,4.3-57.1,7.11-85.6,2.51-25.67,5-51.34,7-77.06.45-5.67.67-11.34,1.1-17,.13-1.77-.05-2.63-2.22-2.63q-36.67.12-73.36,0c-1.7,0-2.26.43-2.41,2.21q-2.83,33.76-5.86,67.51-3.54,40-7.17,80c-2.1,23.1-4.71,46.14-9.09,68.94-2.84,14.78-6.39,29.35-13.17,42.93-6.94,13.88-17.18,23.5-33,26.48-22.22,4.22-43.91-11.8-46.65-34.14-1.11-9,1.31-16.79,5.77-24.25,5.53-9.22,12.2-17.65,18.57-26.27,25.79-34.85,41.11-74.09,49.13-116.42,5.19-27.36,7.37-55,8.22-82.81.1-3.39-1-4-4-4.19-12.49-1-24.88-1-37.24,1.37C87.1,62.07,72.25,72.6,62.1,89.86c-3.06,5.2-6.21,10.35-9.25,15.57-1.31,2.28-2.92,3.29-5.69,2.85-3-.49-6.1-.49-9.66-.74,8.22-19,14.55-38.07,22.18-56.63,9.17-22.33,25.59-35.11,49-39.95,21.75-4.51,43.78-5.88,65.86-6.47C245.88,2.58,317.25,4,388.63,4.25c2.21,0,3,.47,3,2.83,0,16.17.11,32.35.38,48.52,0,2.9-1.34,2.78-3.34,2.77-25.93-.22-51.87-.34-77.8-.65-3,0-3.56.87-3.59,3.66-.37,26.69-2.95,53.24-5.49,79.78-2.77,29-6.3,58-5.47,87.17.33,11.5,1.45,22.91,5.19,33.89,6.08,17.88,18.69,27,36.9,26.65s31.77-10.41,37.23-27.76a64.31,64.31,0,0,0,2.78-14.86c.13-1.88.62-2.6,2.58-2.47a50.38,50.38,0,0,0,7.77,0C391.38,243.53,392.07,244.43,391.93,247Z"/><path class="cls-27" d="M393.43,246.33A138.37,138.37,0,0,1,382.1,293.9a98.6,98.6,0,0,1-19.65,30.22c-16.07,16.52-35.77,22.29-58.32,20-32.74-3.28-54.9-26.16-59-60.94-1.78-14.94-.27-29.85.46-44.76,1.41-28.61,4.3-57.1,7.11-85.6,2.51-25.67,5-51.34,7-77.06.45-5.67.67-11.34,1.1-17,.13-1.77-.05-2.63-2.22-2.63q-36.67.12-73.36,0c-1.7,0-2.26.43-2.41,2.21Q180,92.16,177,125.9q-3.54,40-7.17,80c-2.1,23.1-4.71,46.14-9.09,68.94-2.84,14.78-6.39,29.35-13.17,42.93-6.94,13.88-17.18,23.5-33,26.48-22.22,4.22-43.91-11.8-46.65-34.14-1.11-9,1.31-16.79,5.77-24.25,5.53-9.22,12.2-17.65,18.57-26.27,25.79-34.85,41.11-74.09,49.13-116.42,5.19-27.36,7.37-55,8.22-82.81.1-3.39-1-4-4-4.19-12.49-1-24.88-1-37.24,1.37C88.6,61.37,73.75,71.9,63.6,89.16c-3.06,5.2-6.21,10.35-9.25,15.57C53,107,51.43,108,48.66,107.58c-3-.49-6.1-.49-9.66-.74,8.22-19,14.55-38.07,22.18-56.63,9.17-22.33,25.59-35.11,49-39.95C131.9,5.75,153.93,4.38,176,3.79c71.37-1.91,142.74-.52,214.12-.24,2.21,0,3,.47,3,2.83,0,16.17.11,32.35.38,48.52,0,2.9-1.34,2.78-3.34,2.77-25.93-.22-51.87-.34-77.8-.65-3,0-3.56.87-3.59,3.66-.37,26.69-2.95,53.24-5.49,79.78-2.77,29-6.3,57.95-5.47,87.17.33,11.5,1.45,22.91,5.19,33.89,6.08,17.88,18.69,27,36.9,26.65s31.77-10.41,37.23-27.76a64.31,64.31,0,0,0,2.78-14.86c.13-1.88.62-2.6,2.58-2.47a50.38,50.38,0,0,0,7.77,0C392.88,242.83,393.57,243.73,393.43,246.33Z"/><path class="cls-28" d="M394.93,245.63A138.37,138.37,0,0,1,383.6,293.2,98.6,98.6,0,0,1,364,323.42c-16.07,16.52-35.77,22.29-58.32,20-32.74-3.28-54.9-26.16-59-60.94-1.78-14.94-.27-29.85.46-44.76,1.41-28.61,4.3-57.1,7.11-85.6,2.51-25.67,5-51.34,7-77.06.45-5.67.67-11.34,1.1-17,.13-1.77-.05-2.63-2.22-2.63q-36.67.12-73.36,0c-1.7,0-2.26.43-2.41,2.21q-2.83,33.77-5.86,67.51-3.54,40-7.17,80c-2.1,23.1-4.71,46.14-9.09,68.94C159.36,289,155.81,303.52,149,317.1c-6.94,13.88-17.18,23.5-33,26.48-22.22,4.22-43.91-11.8-46.65-34.14-1.11-9,1.31-16.79,5.77-24.25,5.53-9.22,12.2-17.65,18.57-26.27,25.79-34.85,41.11-74.09,49.13-116.42,5.19-27.36,7.37-55,8.22-82.81.1-3.39-1-3.95-4-4.19-12.49-1-24.88-1-37.24,1.37C90.1,60.67,75.25,71.2,65.1,88.46,62,93.66,58.89,98.81,55.85,104c-1.31,2.28-2.92,3.29-5.69,2.85-3-.49-6.1-.49-9.66-.74,8.22-19,14.55-38.07,22.18-56.63,9.17-22.33,25.59-35.11,49-39.95,21.75-4.51,43.78-5.88,65.86-6.47,71.37-1.91,142.74-.52,214.12-.24,2.21,0,3,.47,3,2.83,0,16.17.11,32.35.38,48.52,0,2.9-1.34,2.78-3.34,2.77-25.93-.22-51.87-.34-77.8-.65-3,0-3.56.87-3.59,3.66-.37,26.69-2.95,53.24-5.49,79.78-2.77,29-6.3,58-5.47,87.17.33,11.5,1.45,22.91,5.19,33.89,6.08,17.88,18.69,27,36.9,26.65s31.77-10.41,37.23-27.76a64.31,64.31,0,0,0,2.78-14.86c.13-1.88.62-2.6,2.58-2.47a50.38,50.38,0,0,0,7.77,0C394.38,242.13,395.07,243,394.93,245.63Z"/><path class="cls-29" d="M396.43,244.93A138.37,138.37,0,0,1,385.1,292.5a98.6,98.6,0,0,1-19.65,30.22c-16.07,16.52-35.77,22.29-58.32,20-32.74-3.28-54.9-26.16-59-60.94-1.78-14.94-.27-29.85.46-44.76,1.41-28.61,4.3-57.1,7.11-85.6,2.51-25.67,5-51.34,7-77.06.45-5.67.67-11.34,1.1-17,.13-1.77-.05-2.63-2.22-2.63q-36.67.12-73.36,0c-1.7,0-2.26.43-2.41,2.21Q183,90.76,180,124.5q-3.54,40-7.17,80c-2.1,23.1-4.71,46.14-9.09,68.94-2.84,14.78-6.39,29.35-13.17,42.93-6.94,13.88-17.18,23.5-33,26.48-22.22,4.22-43.91-11.8-46.65-34.14-1.11-9,1.31-16.79,5.77-24.25,5.53-9.22,12.2-17.65,18.57-26.27,25.79-34.85,41.11-74.09,49.13-116.42,5.19-27.36,7.37-55,8.22-82.81.1-3.39-1-4-4-4.19-12.49-1-24.88-1-37.24,1.37C91.6,60,76.75,70.5,66.6,87.76c-3.06,5.2-6.21,10.35-9.25,15.57-1.31,2.28-2.92,3.29-5.69,2.85-3-.49-6.1-.49-9.66-.74,8.22-19,14.55-38.07,22.18-56.63,9.17-22.33,25.59-35.11,49-39.95C134.9,4.35,156.93,3,179,2.39c71.37-1.91,142.74-.52,214.12-.24,2.21,0,3,.47,3,2.83,0,16.17.11,32.35.38,48.52,0,2.9-1.34,2.78-3.34,2.77-25.93-.22-51.87-.34-77.8-.65-3,0-3.56.87-3.59,3.66-.37,26.69-2.95,53.24-5.49,79.78-2.77,29-6.3,57.95-5.47,87.17.33,11.5,1.45,22.91,5.19,33.89,6.08,17.88,18.69,27,36.9,26.65s31.77-10.41,37.23-27.76a64.31,64.31,0,0,0,2.78-14.86c.13-1.88.62-2.6,2.58-2.47a50.38,50.38,0,0,0,7.77,0C395.88,241.43,396.57,242.33,396.43,244.93Z"/><path class="cls-30" d="M397.93,244.23A138.37,138.37,0,0,1,386.6,291.8,98.6,98.6,0,0,1,367,322c-16.07,16.52-35.77,22.29-58.32,20-32.74-3.28-54.9-26.16-59-60.94-1.78-14.94-.27-29.85.46-44.76,1.41-28.61,4.3-57.1,7.11-85.6,2.51-25.67,5-51.34,7-77.06.45-5.67.67-11.34,1.1-17,.13-1.77-.05-2.63-2.22-2.63q-36.67.12-73.36,0c-1.7,0-2.26.43-2.41,2.21q-2.83,33.77-5.86,67.51-3.54,40-7.17,80c-2.1,23.1-4.71,46.14-9.09,68.94-2.84,14.78-6.39,29.35-13.17,42.93-6.94,13.88-17.18,23.5-33,26.48C96.84,346.4,75.15,330.38,72.41,308c-1.11-9,1.31-16.79,5.77-24.25,5.53-9.22,12.2-17.65,18.57-26.27,25.79-34.85,41.11-74.09,49.13-116.42,5.19-27.36,7.37-55,8.22-82.81.1-3.39-1-3.95-4-4.19-12.49-1-24.88-1-37.24,1.37C93.1,59.27,78.25,69.8,68.1,87.06c-3.06,5.2-6.21,10.35-9.25,15.57-1.31,2.28-2.92,3.29-5.69,2.85-3-.49-6.1-.49-9.66-.74,8.22-19,14.55-38.07,22.18-56.63,9.17-22.33,25.59-35.11,49-39.95,21.75-4.51,43.78-5.88,65.86-6.47,71.37-1.91,142.74-.52,214.12-.24,2.21,0,3,.47,3,2.83,0,16.17.11,32.35.38,48.52,0,2.9-1.34,2.78-3.34,2.77-25.93-.22-51.87-.34-77.8-.65-3,0-3.56.87-3.59,3.66-.37,26.69-2.95,53.24-5.49,79.78-2.77,29-6.3,57.95-5.47,87.17.33,11.5,1.45,22.91,5.19,33.89,6.08,17.88,18.69,27,36.9,26.65s31.77-10.41,37.23-27.76a64.31,64.31,0,0,0,2.78-14.86c.13-1.88.62-2.6,2.58-2.47a50.38,50.38,0,0,0,7.77,0C397.38,240.73,398.07,241.63,397.93,244.23Z"/><path class="cls-31" d="M399.43,243.53A138.37,138.37,0,0,1,388.1,291.1a98.6,98.6,0,0,1-19.65,30.22c-16.07,16.52-35.77,22.29-58.32,20-32.74-3.28-54.9-26.16-59-60.94-1.78-14.94-.27-29.85.46-44.76,1.41-28.61,4.3-57.1,7.11-85.6,2.51-25.67,5-51.34,7-77.06.45-5.67.67-11.34,1.1-17,.13-1.77-.05-2.63-2.22-2.63q-36.67.12-73.36,0c-1.7,0-2.26.43-2.41,2.21Q186,89.35,183,123.1q-3.54,40-7.17,80c-2.1,23.1-4.71,46.14-9.09,68.94-2.84,14.78-6.39,29.35-13.17,42.93-6.94,13.88-17.18,23.5-33,26.48-22.22,4.22-43.91-11.8-46.65-34.14-1.11-9,1.31-16.79,5.77-24.25,5.53-9.22,12.2-17.65,18.57-26.27C124,222,139.36,182.73,147.38,140.4c5.19-27.36,7.37-55,8.22-82.81.1-3.39-1-4-4-4.19-12.49-1-24.88-1-37.24,1.37C94.6,58.57,79.75,69.1,69.6,86.36c-3.06,5.2-6.21,10.35-9.25,15.57-1.31,2.28-2.92,3.29-5.69,2.85-3-.49-6.1-.49-9.66-.74C53.22,85,59.55,66,67.18,47.41c9.17-22.33,25.59-35.11,49-39.95C137.9,3,159.93,1.58,182,1,253.38-.92,324.75.47,396.13.75c2.21,0,3,.47,3,2.83,0,16.17.11,32.35.38,48.52,0,2.9-1.34,2.78-3.34,2.77-25.93-.22-51.87-.34-77.8-.65-3,0-3.56.87-3.59,3.66-.37,26.69-2.95,53.24-5.49,79.78-2.77,29-6.3,58-5.47,87.17.33,11.5,1.45,22.91,5.19,33.89,6.08,17.88,18.69,27,36.9,26.65s31.77-10.41,37.23-27.76a64.31,64.31,0,0,0,2.78-14.86c.13-1.88.62-2.6,2.58-2.47a50.38,50.38,0,0,0,7.77,0C398.88,240,399.57,240.93,399.43,243.53Z"/><path class="cls-32" d="M399.43,243.53A138.37,138.37,0,0,1,388.1,291.1a98.6,98.6,0,0,1-19.65,30.22c-16.07,16.52-35.77,22.29-58.32,20-32.74-3.28-54.9-26.16-59-60.94-1.78-14.94-.27-29.85.46-44.76,1.41-28.61,4.3-57.1,7.11-85.6,2.51-25.67,5-51.34,7-77.06.45-5.67.67-11.34,1.1-17,.13-1.77-.05-2.63-2.22-2.63q-36.67.12-73.36,0c-1.7,0-2.26.43-2.41,2.21Q186,89.35,183,123.1q-3.54,40-7.17,80c-2.1,23.1-4.71,46.14-9.09,68.94-2.84,14.78-6.39,29.35-13.17,42.93-6.94,13.88-17.18,23.5-33,26.48-22.22,4.22-43.91-11.8-46.65-34.14-1.11-9,1.31-16.79,5.77-24.25,5.53-9.22,12.2-17.65,18.57-26.27C124,222,139.36,182.73,147.38,140.4c5.19-27.36,7.37-55,8.22-82.81.1-3.39-1-4-4-4.19-12.49-1-24.88-1-37.24,1.37C94.6,58.57,79.75,69.1,69.6,86.36c-3.06,5.2-6.21,10.35-9.25,15.57-1.31,2.28-2.92,3.29-5.69,2.85-3-.49-6.1-.49-9.66-.74C53.22,85,59.55,66,67.18,47.41c9.17-22.33,25.59-35.11,49-39.95C137.9,3,159.93,1.58,182,1,253.38-.92,324.75.47,396.13.75c2.21,0,3,.47,3,2.83,0,16.17.11,32.35.38,48.52,0,2.9-1.34,2.78-3.34,2.77-25.93-.22-51.87-.34-77.8-.65-3,0-3.56.87-3.59,3.66-.37,26.69-2.95,53.24-5.49,79.78-2.77,29-6.3,58-5.47,87.17.33,11.5,1.45,22.91,5.19,33.89,6.08,17.88,18.69,27,36.9,26.65s31.77-10.41,37.23-27.76a64.31,64.31,0,0,0,2.78-14.86c.13-1.88.62-2.6,2.58-2.47a50.38,50.38,0,0,0,7.77,0C398.88,240,399.57,240.93,399.43,243.53Z"/></g></g></svg>