<svg xmlns="http://www.w3.org/2000/svg" viewBox="0 0 779.42 839.39"><defs><style>.cls-1{fill:#707070;}</style></defs><g id="Layer_2" data-name="Layer 2"><g id="Layer_1-2" data-name="Layer 1"><path class="cls-1" d="M0,51.51V787.84a8.11,8.11,0,0,0,13.81,5.75L397.21,419.7,13.81,45.76A8.12,8.12,0,0,0,0,51.51Z"/><path class="cls-1" d="M558,266.06,77.23,1.2,76.93,1c-8.28-4.5-16.15,6.7-9.37,13.22L444.4,374.6Z"/><path class="cls-1" d="M67.6,825.13c-6.82,6.52,1.05,17.72,9.37,13.23l.3-.17L558,573.33,444.4,464.76Z"/><path class="cls-1" d="M752,372.86,617.79,298.92,491.56,419.7,617.79,540.41,752,466.54C788.55,446.36,788.55,393,752,372.86Z"/></g></g></svg>