<svg xmlns="http://www.w3.org/2000/svg" viewBox="0 0 258 231.65"><defs><style>.cls-1{fill:#515151;}.cls-2{fill:#f5f5f5;}.cls-3{fill:#898989;stroke:#545454;stroke-miterlimit:10;stroke-width:6px;}.cls-4{fill:#f9f9f9;}</style></defs><g id="Layer_2" data-name="Layer 2"><g id="Layer_1-2" data-name="Layer 1"><polygon class="cls-1" points="228 12 228 177.65 114 231.65 0 177.65 0 12 228 12"/><polygon class="cls-1" points="229 11.6 229 177.25 115 231.25 1 177.25 1 11.6 229 11.6"/><polygon class="cls-1" points="230 11.2 230 176.85 116 230.85 2 176.85 2 11.2 230 11.2"/><polygon class="cls-1" points="231 10.8 231 176.45 117 230.45 3 176.45 3 10.8 231 10.8"/><polygon class="cls-1" points="232 10.4 232 176.05 118 230.05 4 176.05 4 10.4 232 10.4"/><polygon class="cls-1" points="233 10 233 175.65 119 229.65 5 175.65 5 10 233 10"/><polygon class="cls-1" points="234 9.6 234 175.25 120 229.25 6 175.25 6 9.6 234 9.6"/><polygon class="cls-1" points="235 9.2 235 174.85 121 228.85 7 174.85 7 9.2 235 9.2"/><polygon class="cls-1" points="236 8.8 236 174.45 122 228.45 8 174.45 8 8.8 236 8.8"/><polygon class="cls-1" points="237 8.4 237 174.05 123 228.05 9 174.05 9 8.4 237 8.4"/><polygon class="cls-1" points="238 8 238 173.65 124 227.65 10 173.65 10 8 238 8"/><polygon class="cls-1" points="239 7.6 239 173.25 125 227.25 11 173.25 11 7.6 239 7.6"/><polygon class="cls-1" points="240 7.2 240 172.85 126 226.85 12 172.85 12 7.2 240 7.2"/><polygon class="cls-1" points="241 6.8 241 172.45 127 226.45 13 172.45 13 6.8 241 6.8"/><polygon class="cls-1" points="242 6.4 242 172.05 128 226.05 14 172.05 14 6.4 242 6.4"/><polygon class="cls-1" points="243 6 243 171.65 129 225.65 15 171.65 15 6 243 6"/><polygon class="cls-1" points="244 5.6 244 171.25 130 225.25 16 171.25 16 5.6 244 5.6"/><polygon class="cls-1" points="245 5.2 245 170.85 131 224.85 17 170.85 17 5.2 245 5.2"/><polygon class="cls-1" points="246 4.8 246 170.45 132 224.45 18 170.45 18 4.8 246 4.8"/><polygon class="cls-1" points="247 4.4 247 170.05 133 224.05 19 170.05 19 4.4 247 4.4"/><polygon class="cls-1" points="248 4 248 169.65 134 223.65 20 169.65 20 4 248 4"/><polygon class="cls-1" points="249 3.6 249 169.25 135 223.25 21 169.25 21 3.6 249 3.6"/><polygon class="cls-1" points="250 3.2 250 168.85 136 222.85 22 168.85 22 3.2 250 3.2"/><polygon class="cls-1" points="251 2.8 251 168.45 137 222.45 23 168.45 23 2.8 251 2.8"/><polygon class="cls-1" points="252 2.4 252 168.05 138 222.05 24 168.05 24 2.4 252 2.4"/><polygon class="cls-1" points="253 2 253 167.65 139 221.65 25 167.65 25 2 253 2"/><polygon class="cls-1" points="254 1.6 254 167.25 140 221.25 26 167.25 26 1.6 254 1.6"/><polygon class="cls-1" points="255 1.2 255 166.85 141 220.85 27 166.85 27 1.2 255 1.2"/><polygon class="cls-1" points="256 0.8 256 166.45 142 220.45 28 166.45 28 0.8 256 0.8"/><polygon class="cls-1" points="257 0.4 257 166.05 143 220.05 29 166.05 29 0.4 257 0.4"/><polygon class="cls-1" points="258 0 258 165.65 144 219.65 30 165.65 30 0 258 0"/><polygon class="cls-2" points="258 0 258 165.65 144 219.65 30 165.65 30 0 258 0"/><polygon class="cls-3" points="229.56 25.95 229.56 146.74 144 187.27 58.44 146.74 58.44 25.95 229.56 25.95"/><rect class="cls-4" x="153.02" y="45.21" width="31.01" height="93.5"/><rect class="cls-4" x="103.98" y="45.21" width="31.01" height="93.5"/></g></g></svg>