<svg id="Outline" xmlns="http://www.w3.org/2000/svg" viewBox="0 0 512 512"><path d="M492.45,218.32q-42.29-74.16-85.54-147.77C392.4,45.87,370,33.28,341.38,32.77s-57-.11-85.46-.11c-28.15,0-56.31-.32-84.45.09-29.2.42-51.94,13.1-66.73,38.36Q61.57,144.76,19.25,218.9C5.41,243.26,5.37,268.66,19.2,293q42.51,74.89,86.26,149.07c14.35,24.28,36.74,36.86,64.9,37.11q85.7.75,171.41,0c28.21-.24,50.51-13,64.84-37.23q43.68-73.92,86-148.63C506.67,268.65,506.54,243,492.45,218.32Zm-27.24,58.56q-42.85,75-86.48,149.49c-8,13.74-21,20.75-36.88,20.95-28.64.36-57.29.1-85.94.1-28.31,0-56.62.18-84.93-.06-16.72-.15-29.88-7.46-38.33-22q-42.84-73.53-85.28-147.3C39,263.58,39,248.49,47.33,234q42.54-74,85.55-147.72c8.25-14.14,21.18-21.52,37.5-21.59q85.7-.35,171.38,0c16.12.06,29,7.33,37.17,21.28q43.44,74.34,86.24,149C473,248.62,473,263.27,465.21,276.88Z"/><path d="M256,161.49c-52,0-94.69,42.6-94.7,94.5S204,350.51,256,350.51s94.71-42.61,94.71-94.5S308,161.49,256,161.49Zm0,157.1c-34.22,0-62.62-28.28-62.71-62.47s28.11-62.48,62.46-62.71,63.07,28.39,63,62.71S290.24,318.58,256,318.59Z"/></svg>