<svg id="Layer_1" data-name="Layer 1" xmlns="http://www.w3.org/2000/svg" xmlns:xlink="http://www.w3.org/1999/xlink" viewBox="0 0 1080 1080"><defs><style>.cls-1{fill:#ffc783;}.cls-2{fill:#ffb24d;}.cls-10,.cls-3{fill:none;}.cls-4{fill:#e83830;}.cls-5{clip-path:url(#clip-path);}.cls-6{clip-path:url(#clip-path-2);}.cls-7{fill:#ff741f;}.cls-8{clip-path:url(#clip-path-3);}.cls-9{clip-path:url(#clip-path-4);}.cls-10{stroke:#c935c4;stroke-miterlimit:10;stroke-width:11px;}.cls-11{fill:#db874d;}.cls-12{fill:#f39a5e;}.cls-13{fill:#fcb07c;}.cls-14{fill:#b7460d;}.cls-15{fill:#db590b;}.cls-16{fill:#f47738;}.cls-17{fill:#b71b0d;}.cls-18{fill:#db250b;}.cls-19{fill:#f44838;}.cls-20{fill:#0ec0af;}.cls-21{fill:#0be0e4;}.cls-22{fill:#3afdec;}.cls-23{fill:#0d32b5;}.cls-24{fill:#1a3dd3;}.cls-25{fill:#375ff1;}.cls-26{fill:#008ee8;}.cls-27{fill:#00ff81;}.cls-28{fill:#71ffb4;}.cls-29{fill:#ce9151;}.cls-30{fill:#f2ae5b;}.cls-31{fill:#ffc78d;}</style><clipPath id="clip-path"><circle class="cls-1" cx="554.78" cy="539.54" r="63.65" transform="translate(-74 88.4) rotate(-8.54)"/></clipPath><clipPath id="clip-path-2"><circle class="cls-2" cx="554.78" cy="539.54" r="56.54" transform="translate(-74 88.4) rotate(-8.54)"/></clipPath><clipPath id="clip-path-3"><circle class="cls-3" cx="554.78" cy="539.54" r="48.01" transform="translate(-74 88.4) rotate(-8.54)"/></clipPath><clipPath id="clip-path-4"><circle class="cls-4" cx="554.78" cy="539.54" r="33.23" transform="translate(-74 88.4) rotate(-8.54)"/></clipPath></defs><circle class="cls-1" cx="554.78" cy="539.54" r="63.65" transform="translate(-74 88.4) rotate(-8.54)"/><circle class="cls-1" cx="554.78" cy="539.54" r="63.65" transform="translate(-74 88.4) rotate(-8.54)"/><g class="cls-5"><path class="cls-1" d="M565,496.22c-.59,6.32,9.36,9.61,9.19,16,0,1.16-.39,2.44.26,3.39a3.79,3.79,0,0,0,1.54,1.13l8.21,4a2,2,0,0,0,1.17.29,1.86,1.86,0,0,0,.88-.54,63.17,63.17,0,0,0,8.54-9.43c.52-.71,1-1.66.6-2.42a2.35,2.35,0,0,0-1.73-.85l-5.15-.89c-1.12-4.29-2.57-9-6.42-11.23-1.13-.64-2.39-1-3.52-1.64C574.26,491.64,565.8,487.06,565,496.22Z"/></g><circle class="cls-2" cx="554.78" cy="539.54" r="56.54" transform="translate(-74 88.4) rotate(-8.54)"/><circle class="cls-2" cx="554.78" cy="539.54" r="56.54" transform="translate(-74 88.4) rotate(-8.54)"/><g class="cls-6"><path class="cls-2" d="M563.81,501.06c-.52,5.62,8.32,8.53,8.17,14.18,0,1-.35,2.16.23,3a3.28,3.28,0,0,0,1.37,1l7.29,3.57a1.78,1.78,0,0,0,1,.26,1.73,1.73,0,0,0,.78-.48,55.23,55.23,0,0,0,7.58-8.37c.47-.64.94-1.48.53-2.16a2.09,2.09,0,0,0-1.53-.75l-4.57-.79c-1-3.81-2.28-8-5.71-10-1-.57-2.12-.9-3.13-1.46C572.08,497,564.56,492.92,563.81,501.06Z"/></g><circle class="cls-7" cx="554.78" cy="539.54" r="48.01" transform="translate(-74 88.4) rotate(-8.54)"/><g class="cls-8"><path class="cls-7" d="M562.45,506.86c-.45,4.77,7.06,7.25,6.93,12,0,.88-.29,1.84.2,2.56a2.83,2.83,0,0,0,1.16.85l6.2,3a1.37,1.37,0,0,0,.87.22,1.54,1.54,0,0,0,.67-.4,47.72,47.72,0,0,0,6.44-7.11c.39-.54.79-1.26.45-1.83a1.76,1.76,0,0,0-1.31-.64l-3.88-.67c-.84-3.24-1.93-6.82-4.84-8.47-.85-.49-1.8-.77-2.66-1.24C569.47,503.41,563.09,500,562.45,506.86Z"/></g><circle class="cls-4" cx="554.78" cy="539.54" r="33.23" transform="translate(-74 88.4) rotate(-8.54)"/><circle class="cls-4" cx="554.78" cy="539.54" r="33.23" transform="translate(-74 88.4) rotate(-8.54)"/><g class="cls-9"><path class="cls-4" d="M560.08,516.93c-.3,3.3,4.89,5,4.81,8.33,0,.6-.21,1.27.13,1.77a1.84,1.84,0,0,0,.81.58l4.28,2.1a1,1,0,0,0,.61.16,1.1,1.1,0,0,0,.46-.28,33.12,33.12,0,0,0,4.46-4.93c.27-.37.54-.86.31-1.26A1.19,1.19,0,0,0,575,523l-2.68-.47c-.59-2.24-1.34-4.71-3.35-5.86-.59-.33-1.25-.53-1.84-.86C564.94,514.54,560.53,512.14,560.08,516.93Z"/></g><circle class="cls-10" cx="554.37" cy="537.64" r="105.32"/><circle class="cls-11" cx="659.69" cy="537.64" r="19.45"/><circle class="cls-11" cx="659.69" cy="537.64" r="19.45"/><circle class="cls-12" cx="659.69" cy="537.64" r="16.51"/><circle class="cls-13" cx="659.69" cy="537.64" r="11.7"/><circle class="cls-13" cx="659.69" cy="537.64" r="11.7"/><circle class="cls-10" cx="554.3" cy="537.88" r="147.18"/><circle class="cls-14" cx="628.79" cy="663.2" r="22.92" transform="translate(-284.95 680.45) rotate(-47.61)"/><circle class="cls-15" cx="628.85" cy="663.13" r="19.92" transform="translate(-284.88 680.48) rotate(-47.61)"/><circle class="cls-16" cx="628.85" cy="663.13" r="14.75" transform="translate(-284.88 680.48) rotate(-47.61)"/><circle class="cls-10" cx="554.3" cy="539.54" r="231.51"/><circle class="cls-17" cx="577.7" cy="771.04" r="22.92" transform="translate(-381.24 677.85) rotate(-47.61)"/><circle class="cls-18" cx="577.76" cy="770.98" r="19.92" transform="translate(-381.17 677.88) rotate(-47.61)"/><circle class="cls-19" cx="577.76" cy="770.98" r="14.75" transform="translate(-381.17 677.88) rotate(-47.61)"/><circle class="cls-10" cx="554.71" cy="540" r="369.71"/><circle class="cls-20" cx="311.08" cy="818.65" r="22.92" transform="translate(-503.26 496.45) rotate(-47.61)"/><circle class="cls-21" cx="311.14" cy="818.59" r="19.92" transform="translate(-503.19 496.48) rotate(-47.61)"/><circle class="cls-22" cx="311.14" cy="818.59" r="14.75" transform="translate(-503.19 496.48) rotate(-47.61)"/><circle class="cls-10" cx="554.78" cy="540" r="430.34"/><circle class="cls-23" cx="294.77" cy="198.69" r="22.92" transform="translate(-50.71 282.44) rotate(-47.61)"/><circle class="cls-24" cx="294.84" cy="198.63" r="19.92" transform="translate(-50.64 282.46) rotate(-47.61)"/><circle class="cls-25" cx="294.84" cy="198.63" r="14.75" transform="translate(-50.64 282.46) rotate(-47.61)"/><circle class="cls-10" cx="554.3" cy="539.46" r="189.96"/><circle class="cls-26" cx="365.02" cy="549.21" r="21.09" transform="translate(-218.6 242.19) rotate(-28.64)"/><circle class="cls-27" cx="365.02" cy="549.21" r="15.28" transform="translate(-218.6 242.19) rotate(-28.64)"/><circle class="cls-28" cx="365.02" cy="549.21" r="11.42" transform="translate(-218.6 242.19) rotate(-28.64)"/><circle class="cls-10" cx="554.71" cy="539.54" r="294.54"/><circle class="cls-29" cx="781.79" cy="729.42" r="22.92" transform="translate(-284.01 815.02) rotate(-47.61)"/><circle class="cls-30" cx="781.85" cy="729.35" r="19.92" transform="translate(-283.94 815.05) rotate(-47.61)"/><circle class="cls-31" cx="781.85" cy="729.35" r="14.75" transform="translate(-283.94 815.05) rotate(-47.61)"/></svg>