<svg xmlns="http://www.w3.org/2000/svg" xmlns:xlink="http://www.w3.org/1999/xlink" viewBox="0 0 871.68 871.68"><defs><style>.cls-1{fill:#ffc783;}.cls-2{fill:#ffb24d;}.cls-10,.cls-3{fill:none;}.cls-4{fill:#e83830;}.cls-5{clip-path:url(#clip-path);}.cls-6{clip-path:url(#clip-path-2);}.cls-7{fill:#ff741f;}.cls-8{clip-path:url(#clip-path-3);}.cls-9{clip-path:url(#clip-path-4);}.cls-10{stroke:#c935c4;stroke-miterlimit:10;stroke-width:11px;}.cls-11{fill:#db874d;}.cls-12{fill:#f39a5e;}.cls-13{fill:#fcb07c;}.cls-14{fill:#b7460d;}.cls-15{fill:#db590b;}.cls-16{fill:#f47738;}.cls-17{fill:#b71b0d;}.cls-18{fill:#db250b;}.cls-19{fill:#f44838;}.cls-20{fill:#0ec0af;}.cls-21{fill:#0be0e4;}.cls-22{fill:#3afdec;}.cls-23{fill:#0d32b5;}.cls-24{fill:#1a3dd3;}.cls-25{fill:#375ff1;}.cls-26{fill:#ce9151;}.cls-27{fill:#f2ae5b;}.cls-28{fill:#008ee8;}.cls-29{fill:#00ff81;}.cls-30{fill:#71ffb4;}.cls-31{fill:#ffc78d;}</style><clipPath id="clip-path"><circle class="cls-1" cx="435.84" cy="435.37" r="63.65" transform="translate(-59.84 69.58) rotate(-8.54)"/></clipPath><clipPath id="clip-path-2"><circle class="cls-2" cx="435.84" cy="435.37" r="56.54" transform="translate(-59.84 69.58) rotate(-8.54)"/></clipPath><clipPath id="clip-path-3"><circle class="cls-3" cx="435.84" cy="435.37" r="48.01" transform="translate(-59.84 69.58) rotate(-8.54)"/></clipPath><clipPath id="clip-path-4"><circle class="cls-4" cx="435.84" cy="435.37" r="33.23" transform="translate(-59.84 69.58) rotate(-8.54)"/></clipPath></defs><g id="Layer_2" data-name="Layer 2"><g id="Layer_1-2" data-name="Layer 1"><circle class="cls-1" cx="435.84" cy="435.37" r="63.65" transform="translate(-59.84 69.58) rotate(-8.54)"/><circle class="cls-1" cx="435.84" cy="435.37" r="63.65" transform="translate(-59.84 69.58) rotate(-8.54)"/><g class="cls-5"><path class="cls-1" d="M446,392.06c-.59,6.32,9.36,9.61,9.19,16,0,1.16-.39,2.43.26,3.39a3.68,3.68,0,0,0,1.54,1.12l8.22,4a1.94,1.94,0,0,0,1.16.29,2,2,0,0,0,.88-.54,63.17,63.17,0,0,0,8.54-9.43c.52-.71,1.05-1.66.6-2.42a2.35,2.35,0,0,0-1.73-.85l-5.15-.89c-1.12-4.29-2.57-9-6.42-11.23-1.13-.64-2.39-1-3.52-1.64C455.32,387.48,446.86,382.9,446,392.06Z"/></g><circle class="cls-2" cx="435.84" cy="435.37" r="56.54" transform="translate(-59.84 69.58) rotate(-8.54)"/><circle class="cls-2" cx="435.84" cy="435.37" r="56.54" transform="translate(-59.84 69.58) rotate(-8.54)"/><g class="cls-6"><path class="cls-2" d="M444.87,396.89c-.52,5.62,8.32,8.54,8.17,14.18,0,1-.35,2.17.23,3a3.46,3.46,0,0,0,1.37,1l7.29,3.57a1.78,1.78,0,0,0,1,.26,1.73,1.73,0,0,0,.78-.48,55.79,55.79,0,0,0,7.58-8.38c.47-.63.94-1.47.53-2.15a2.09,2.09,0,0,0-1.53-.75l-4.57-.79c-1-3.81-2.28-8-5.71-10-1-.57-2.12-.9-3.12-1.46C453.14,392.83,445.63,388.76,444.87,396.89Z"/></g><circle class="cls-7" cx="435.84" cy="435.37" r="48.01" transform="translate(-59.84 69.58) rotate(-8.54)"/><g class="cls-8"><path class="cls-7" d="M443.51,402.7c-.45,4.77,7.06,7.25,6.93,12,0,.87-.29,1.84.2,2.56a2.92,2.92,0,0,0,1.16.85l6.2,3a1.38,1.38,0,0,0,.88.22,1.57,1.57,0,0,0,.66-.4,47.79,47.79,0,0,0,6.44-7.12c.39-.53.79-1.25.45-1.82a1.81,1.81,0,0,0-1.31-.65l-3.88-.66c-.84-3.24-1.93-6.82-4.84-8.48-.85-.48-1.8-.76-2.66-1.23C450.53,399.25,444.15,395.79,443.51,402.7Z"/></g><circle class="cls-4" cx="435.84" cy="435.37" r="33.23" transform="translate(-59.84 69.58) rotate(-8.54)"/><circle class="cls-4" cx="435.84" cy="435.37" r="33.23" transform="translate(-59.84 69.58) rotate(-8.54)"/><g class="cls-9"><path class="cls-4" d="M441.15,412.76c-.31,3.3,4.89,5,4.8,8.33,0,.61-.21,1.28.13,1.78a2,2,0,0,0,.81.58l4.28,2.1a1,1,0,0,0,.61.15.93.93,0,0,0,.46-.28,32.56,32.56,0,0,0,4.46-4.92c.27-.37.54-.87.31-1.26a1.24,1.24,0,0,0-.91-.45l-2.68-.46c-.59-2.24-1.34-4.72-3.35-5.86-.59-.34-1.25-.53-1.84-.86C446,410.37,441.59,408,441.15,412.76Z"/></g><circle class="cls-10" cx="435.43" cy="433.48" r="105.32"/><circle class="cls-10" cx="435.36" cy="433.72" r="147.18"/><circle class="cls-10" cx="435.36" cy="435.3" r="189.96"/><circle class="cls-10" cx="435.36" cy="435.37" r="231.51"/><circle class="cls-10" cx="435.77" cy="435.37" r="294.54"/><circle class="cls-10" cx="435.77" cy="435.84" r="369.71"/><circle class="cls-10" cx="435.84" cy="435.84" r="430.34"/><circle class="cls-11" cx="540.75" cy="433.48" r="19.45"/><circle class="cls-11" cx="540.75" cy="433.48" r="19.45"/><circle class="cls-12" cx="540.75" cy="433.48" r="16.51"/><circle class="cls-13" cx="540.75" cy="433.48" r="11.7"/><circle class="cls-13" cx="540.75" cy="433.48" r="11.7"/><circle class="cls-14" cx="509.85" cy="559.04" r="22.92" transform="translate(-246.77 558.67) rotate(-47.61)"/><circle class="cls-15" cx="509.91" cy="558.97" r="19.92" transform="translate(-246.7 558.7) rotate(-47.61)"/><circle class="cls-16" cx="509.91" cy="558.97" r="14.75" transform="translate(-246.7 558.7) rotate(-47.61)"/><circle class="cls-17" cx="458.76" cy="666.88" r="22.92" transform="translate(-343.06 556.08) rotate(-47.61)"/><circle class="cls-18" cx="458.82" cy="666.82" r="19.92" transform="translate(-342.99 556.1) rotate(-47.61)"/><circle class="cls-19" cx="458.82" cy="666.82" r="14.75" transform="translate(-342.99 556.1) rotate(-47.61)"/><circle class="cls-20" cx="192.14" cy="714.49" r="22.92" transform="translate(-465.08 374.68) rotate(-47.61)"/><circle class="cls-21" cx="192.2" cy="714.42" r="19.92" transform="translate(-465.01 374.7) rotate(-47.61)"/><circle class="cls-22" cx="192.2" cy="714.42" r="14.75" transform="translate(-465.01 374.7) rotate(-47.61)"/><circle class="cls-23" cx="175.83" cy="94.53" r="22.92" transform="translate(-12.53 160.66) rotate(-47.61)"/><circle class="cls-24" cx="175.9" cy="94.47" r="19.92" transform="translate(-12.46 160.69) rotate(-47.61)"/><circle class="cls-25" cx="175.9" cy="94.47" r="14.75" transform="translate(-12.46 160.69) rotate(-47.61)"/><circle class="cls-26" cx="662.85" cy="625.26" r="22.92" transform="translate(-245.83 693.24) rotate(-47.61)"/><circle class="cls-27" cx="662.91" cy="625.19" r="19.92" transform="translate(-245.76 693.27) rotate(-47.61)"/><circle class="cls-28" cx="246.08" cy="445.05" r="21.09" transform="translate(-183.22 172.43) rotate(-28.64)"/><circle class="cls-29" cx="246.08" cy="445.05" r="15.28" transform="translate(-183.22 172.43) rotate(-28.64)"/><circle class="cls-30" cx="246.08" cy="445.05" r="11.42" transform="translate(-183.22 172.43) rotate(-28.64)"/><circle class="cls-31" cx="662.91" cy="625.19" r="14.75" transform="translate(-245.76 693.27) rotate(-47.61)"/></g></g></svg>