<svg xmlns="http://www.w3.org/2000/svg" viewBox="0 0 722.1 770.61"><defs><style>.cls-1{fill:none;stroke:#ccc;stroke-miterlimit:10;stroke-width:36px;}.cls-2{fill:#c7eac3;}.cls-3{fill:#83ea8a;}.cls-4{fill:#eaeaea;}.cls-5{fill:#52953e;}</style></defs><g id="Layer_2" data-name="Layer 2"><g id="Layer_1-2" data-name="Layer 1"><polyline class="cls-1" points="168.86 601.75 168.86 173.06 553.24 388.88 168.86 601.75"/><circle class="cls-2" cx="553.24" cy="388.88" r="168.86"/><circle class="cls-3" cx="553.24" cy="388.88" r="149.83"/><path class="cls-4" d="M553.24,229.82h0a9.55,9.55,0,0,1-9,9.5A149.84,149.84,0,0,0,403.69,379.85a9.55,9.55,0,0,1-9.5,9h0a9.49,9.49,0,0,1-9.51-10A168.89,168.89,0,0,1,543.24,220.31,9.5,9.5,0,0,1,553.24,229.82Z"/><path class="cls-5" d="M561.39,306.79l21.13,42.82a9.11,9.11,0,0,0,6.85,5l47.26,6.87a9.08,9.08,0,0,1,5,15.5l-34.19,33.34a9.07,9.07,0,0,0-2.62,8l8.08,47.07A9.09,9.09,0,0,1,599.74,475l-42.27-22.22a9.1,9.1,0,0,0-8.46,0L506.74,475a9.09,9.09,0,0,1-13.19-9.58l8.08-47.07a9.1,9.1,0,0,0-2.62-8L464.81,377a9.09,9.09,0,0,1,5-15.5l47.26-6.87a9.08,9.08,0,0,0,6.84-5l21.14-42.82A9.09,9.09,0,0,1,561.39,306.79Z"/><circle class="cls-2" cx="168.86" cy="601.75" r="168.86"/><circle class="cls-3" cx="168.86" cy="601.75" r="149.83"/><path class="cls-4" d="M168.86,442.69h0a9.54,9.54,0,0,1-9,9.5A149.84,149.84,0,0,0,19.31,592.72a9.55,9.55,0,0,1-9.5,9h0a9.49,9.49,0,0,1-9.51-10A168.89,168.89,0,0,1,158.86,433.18,9.5,9.5,0,0,1,168.86,442.69Z"/><path class="cls-5" d="M177,519.66l21.14,42.82a9.08,9.08,0,0,0,6.84,5l47.26,6.87a9.09,9.09,0,0,1,5,15.5l-34.2,33.34a9.07,9.07,0,0,0-2.62,8l8.08,47.07a9.09,9.09,0,0,1-13.19,9.58l-42.27-22.22a9,9,0,0,0-8.46,0l-42.27,22.22a9.09,9.09,0,0,1-13.19-9.58l8.08-47.07a9.07,9.07,0,0,0-2.62-8l-34.2-33.34a9.09,9.09,0,0,1,5-15.5l47.26-6.87a9.11,9.11,0,0,0,6.85-5l21.13-42.82A9.09,9.09,0,0,1,177,519.66Z"/><circle class="cls-2" cx="168.86" cy="168.86" r="168.86"/><circle class="cls-3" cx="168.86" cy="168.86" r="149.83"/><path class="cls-4" d="M168.86,9.8h0a9.54,9.54,0,0,1-9,9.5A149.84,149.84,0,0,0,19.31,159.83a9.55,9.55,0,0,1-9.5,9h0a9.49,9.49,0,0,1-9.51-10A168.89,168.89,0,0,1,158.86.29,9.49,9.49,0,0,1,168.86,9.8Z"/><path class="cls-5" d="M177,86.76l21.14,42.83a9.08,9.08,0,0,0,6.84,5l47.26,6.87a9.09,9.09,0,0,1,5,15.5l-34.2,33.33a9.1,9.1,0,0,0-2.62,8.05l8.08,47.07A9.09,9.09,0,0,1,215.36,255l-42.27-22.23a9.1,9.1,0,0,0-8.46,0L122.36,255a9.09,9.09,0,0,1-13.19-9.58l8.08-47.07a9.1,9.1,0,0,0-2.62-8.05l-34.2-33.33a9.09,9.09,0,0,1,5-15.5l47.26-6.87a9.11,9.11,0,0,0,6.85-5l21.13-42.83A9.09,9.09,0,0,1,177,86.76Z"/></g></g></svg>