<svg xmlns="http://www.w3.org/2000/svg" viewBox="0 0 106.01 88.66"><defs><style>.cls-1{fill:#a8b500;}.cls-2{fill:#cbff21;}.cls-3{fill:#a0a800;}.cls-4{fill:#c6f921;}.cls-5{fill:#8b8e00;}.cls-6{fill:#bdeb1f;}.cls-7{fill:#656d00;}.cls-8{fill:#cbfc21;}</style></defs><g id="Layer_2" data-name="Layer 2"><g id="Layer_1-2" data-name="Layer 1"><rect class="cls-1" x="77.57" width="16.44" height="88.66"/><rect class="cls-1" x="77.97" width="16.44" height="88.66"/><rect class="cls-1" x="78.37" width="16.44" height="88.66"/><rect class="cls-1" x="78.77" width="16.44" height="88.66"/><rect class="cls-1" x="79.17" width="16.44" height="88.66"/><rect class="cls-1" x="79.57" width="16.44" height="88.66"/><rect class="cls-1" x="79.97" width="16.44" height="88.66"/><rect class="cls-1" x="80.37" width="16.44" height="88.66"/><rect class="cls-1" x="80.77" width="16.44" height="88.66"/><rect class="cls-1" x="81.17" width="16.44" height="88.66"/><rect class="cls-1" x="81.57" width="16.44" height="88.66"/><rect class="cls-1" x="81.97" width="16.44" height="88.66"/><rect class="cls-1" x="82.37" width="16.44" height="88.66"/><rect class="cls-1" x="82.77" width="16.44" height="88.66"/><rect class="cls-1" x="83.17" width="16.44" height="88.66"/><rect class="cls-1" x="83.57" width="16.44" height="88.66"/><rect class="cls-1" x="83.97" width="16.44" height="88.66"/><rect class="cls-1" x="84.37" width="16.44" height="88.66"/><rect class="cls-1" x="84.77" width="16.44" height="88.66"/><rect class="cls-1" x="85.17" width="16.44" height="88.66"/><rect class="cls-1" x="85.57" width="16.44" height="88.66"/><rect class="cls-1" x="85.97" width="16.44" height="88.66"/><rect class="cls-1" x="86.37" width="16.44" height="88.66"/><rect class="cls-1" x="86.77" width="16.44" height="88.66"/><rect class="cls-1" x="87.17" width="16.44" height="88.66"/><rect class="cls-1" x="87.57" width="16.44" height="88.66"/><rect class="cls-1" x="87.97" width="16.44" height="88.66"/><rect class="cls-1" x="88.37" width="16.44" height="88.66"/><rect class="cls-1" x="88.77" width="16.44" height="88.66"/><rect class="cls-1" x="89.17" width="16.44" height="88.66"/><rect class="cls-1" x="89.57" width="16.44" height="88.66"/><rect class="cls-2" x="89.57" width="16.44" height="88.66"/><rect class="cls-3" x="51.19" y="10.85" width="16.44" height="77.82"/><rect class="cls-3" x="51.59" y="10.85" width="16.44" height="77.82"/><rect class="cls-3" x="51.99" y="10.85" width="16.44" height="77.82"/><rect class="cls-3" x="52.39" y="10.85" width="16.44" height="77.82"/><rect class="cls-3" x="52.79" y="10.85" width="16.44" height="77.82"/><rect class="cls-3" x="53.19" y="10.85" width="16.44" height="77.82"/><rect class="cls-3" x="53.59" y="10.85" width="16.44" height="77.82"/><rect class="cls-3" x="53.99" y="10.85" width="16.44" height="77.82"/><rect class="cls-3" x="54.39" y="10.85" width="16.44" height="77.82"/><rect class="cls-3" x="54.79" y="10.85" width="16.44" height="77.82"/><rect class="cls-3" x="55.19" y="10.85" width="16.44" height="77.82"/><rect class="cls-3" x="55.59" y="10.85" width="16.44" height="77.82"/><rect class="cls-3" x="55.99" y="10.85" width="16.44" height="77.82"/><rect class="cls-3" x="56.39" y="10.85" width="16.44" height="77.82"/><rect class="cls-3" x="56.79" y="10.85" width="16.44" height="77.82"/><rect class="cls-3" x="57.19" y="10.85" width="16.44" height="77.82"/><rect class="cls-3" x="57.59" y="10.85" width="16.44" height="77.82"/><rect class="cls-3" x="57.99" y="10.85" width="16.44" height="77.82"/><rect class="cls-3" x="58.39" y="10.85" width="16.44" height="77.82"/><rect class="cls-3" x="58.79" y="10.85" width="16.44" height="77.82"/><rect class="cls-3" x="59.19" y="10.85" width="16.44" height="77.82"/><rect class="cls-3" x="59.59" y="10.85" width="16.44" height="77.82"/><rect class="cls-3" x="59.99" y="10.85" width="16.44" height="77.82"/><rect class="cls-3" x="60.39" y="10.85" width="16.44" height="77.82"/><rect class="cls-3" x="60.79" y="10.85" width="16.44" height="77.82"/><rect class="cls-3" x="61.19" y="10.85" width="16.44" height="77.82"/><rect class="cls-3" x="61.59" y="10.85" width="16.44" height="77.82"/><rect class="cls-3" x="61.99" y="10.85" width="16.44" height="77.82"/><rect class="cls-3" x="62.39" y="10.85" width="16.44" height="77.82"/><rect class="cls-3" x="62.79" y="10.85" width="16.44" height="77.82"/><rect class="cls-3" x="63.19" y="10.85" width="16.44" height="77.82"/><rect class="cls-4" x="63.19" y="10.85" width="16.44" height="77.82"/><rect class="cls-5" x="25.32" y="32.26" width="16.44" height="56.4"/><rect class="cls-5" x="25.72" y="32.26" width="16.44" height="56.4"/><rect class="cls-5" x="26.12" y="32.26" width="16.44" height="56.4"/><rect class="cls-5" x="26.52" y="32.26" width="16.44" height="56.4"/><rect class="cls-5" x="26.92" y="32.26" width="16.44" height="56.4"/><rect class="cls-5" x="27.32" y="32.26" width="16.44" height="56.4"/><rect class="cls-5" x="27.72" y="32.26" width="16.44" height="56.4"/><rect class="cls-5" x="28.12" y="32.26" width="16.44" height="56.4"/><rect class="cls-5" x="28.52" y="32.26" width="16.44" height="56.4"/><rect class="cls-5" x="28.92" y="32.26" width="16.44" height="56.4"/><rect class="cls-5" x="29.32" y="32.26" width="16.44" height="56.4"/><rect class="cls-5" x="29.72" y="32.26" width="16.44" height="56.4"/><rect class="cls-5" x="30.12" y="32.26" width="16.44" height="56.4"/><rect class="cls-5" x="30.52" y="32.26" width="16.44" height="56.4"/><rect class="cls-5" x="30.92" y="32.26" width="16.44" height="56.4"/><rect class="cls-5" x="31.32" y="32.26" width="16.44" height="56.4"/><rect class="cls-5" x="31.72" y="32.26" width="16.44" height="56.4"/><rect class="cls-5" x="32.12" y="32.26" width="16.44" height="56.4"/><rect class="cls-5" x="32.52" y="32.26" width="16.44" height="56.4"/><rect class="cls-5" x="32.92" y="32.26" width="16.44" height="56.4"/><rect class="cls-5" x="33.32" y="32.26" width="16.44" height="56.4"/><rect class="cls-5" x="33.72" y="32.26" width="16.44" height="56.4"/><rect class="cls-5" x="34.12" y="32.26" width="16.44" height="56.4"/><rect class="cls-5" x="34.52" y="32.26" width="16.44" height="56.4"/><rect class="cls-5" x="34.92" y="32.26" width="16.44" height="56.4"/><rect class="cls-5" x="35.32" y="32.26" width="16.44" height="56.4"/><rect class="cls-5" x="35.72" y="32.26" width="16.44" height="56.4"/><rect class="cls-5" x="36.12" y="32.26" width="16.44" height="56.4"/><rect class="cls-5" x="36.52" y="32.26" width="16.44" height="56.4"/><rect class="cls-5" x="36.92" y="32.26" width="16.44" height="56.4"/><rect class="cls-5" x="37.32" y="32.26" width="16.44" height="56.4"/><rect class="cls-6" x="37.32" y="32.26" width="16.44" height="56.4"/><rect class="cls-7" y="42.96" width="16.44" height="45.71"/><rect class="cls-7" x="0.4" y="42.96" width="16.44" height="45.71"/><rect class="cls-7" x="0.8" y="42.96" width="16.44" height="45.71"/><rect class="cls-7" x="1.2" y="42.96" width="16.44" height="45.71"/><rect class="cls-7" x="1.6" y="42.96" width="16.44" height="45.71"/><rect class="cls-7" x="2" y="42.96" width="16.44" height="45.71"/><rect class="cls-7" x="2.4" y="42.96" width="16.44" height="45.71"/><rect class="cls-7" x="2.8" y="42.96" width="16.44" height="45.71"/><rect class="cls-7" x="3.2" y="42.96" width="16.44" height="45.71"/><rect class="cls-7" x="3.6" y="42.96" width="16.44" height="45.71"/><rect class="cls-7" x="4" y="42.96" width="16.44" height="45.71"/><rect class="cls-7" x="4.4" y="42.96" width="16.44" height="45.71"/><rect class="cls-7" x="4.8" y="42.96" width="16.44" height="45.71"/><rect class="cls-7" x="5.2" y="42.96" width="16.44" height="45.71"/><rect class="cls-7" x="5.6" y="42.96" width="16.44" height="45.71"/><rect class="cls-7" x="6" y="42.96" width="16.44" height="45.71"/><rect class="cls-7" x="6.4" y="42.96" width="16.44" height="45.71"/><rect class="cls-7" x="6.8" y="42.96" width="16.44" height="45.71"/><rect class="cls-7" x="7.2" y="42.96" width="16.44" height="45.71"/><rect class="cls-7" x="7.6" y="42.96" width="16.44" height="45.71"/><rect class="cls-7" x="8" y="42.96" width="16.44" height="45.71"/><rect class="cls-7" x="8.4" y="42.96" width="16.44" height="45.71"/><rect class="cls-7" x="8.8" y="42.96" width="16.44" height="45.71"/><rect class="cls-7" x="9.2" y="42.96" width="16.44" height="45.71"/><rect class="cls-7" x="9.6" y="42.96" width="16.44" height="45.71"/><rect class="cls-7" x="10" y="42.96" width="16.44" height="45.71"/><rect class="cls-7" x="10.4" y="42.96" width="16.44" height="45.71"/><rect class="cls-7" x="10.8" y="42.96" width="16.44" height="45.71"/><rect class="cls-7" x="11.2" y="42.96" width="16.44" height="45.71"/><rect class="cls-7" x="11.6" y="42.96" width="16.44" height="45.71"/><rect class="cls-7" x="12" y="42.96" width="16.44" height="45.71"/><rect class="cls-8" x="12" y="42.96" width="16.44" height="45.71"/></g></g></svg>