<svg xmlns="http://www.w3.org/2000/svg" viewBox="0 0 258 231.91"><defs><style>.cls-1{fill:#762c0d;}.cls-2{fill:#ff9028;}.cls-3{fill:#ad5c17;stroke:#692a09;stroke-miterlimit:10;stroke-width:5px;}</style></defs><g id="Layer_2" data-name="Layer 2"><g id="Layer_1-2" data-name="Layer 1"><polygon class="cls-1" points="228 12 228 177.91 114 231.91 0 177.91 0 12 228 12"/><polygon class="cls-1" points="229 11.6 229 177.51 115 231.51 1 177.51 1 11.6 229 11.6"/><polygon class="cls-1" points="230 11.2 230 177.11 116 231.11 2 177.11 2 11.2 230 11.2"/><polygon class="cls-1" points="231 10.8 231 176.71 117 230.71 3 176.71 3 10.8 231 10.8"/><polygon class="cls-1" points="232 10.4 232 176.31 118 230.31 4 176.31 4 10.4 232 10.4"/><polygon class="cls-1" points="233 10 233 175.91 119 229.91 5 175.91 5 10 233 10"/><polygon class="cls-1" points="234 9.6 234 175.51 120 229.51 6 175.51 6 9.6 234 9.6"/><polygon class="cls-1" points="235 9.2 235 175.11 121 229.11 7 175.11 7 9.2 235 9.2"/><polygon class="cls-1" points="236 8.8 236 174.71 122 228.71 8 174.71 8 8.8 236 8.8"/><polygon class="cls-1" points="237 8.4 237 174.31 123 228.31 9 174.31 9 8.4 237 8.4"/><polygon class="cls-1" points="238 8 238 173.91 124 227.91 10 173.91 10 8 238 8"/><polygon class="cls-1" points="239 7.6 239 173.51 125 227.51 11 173.51 11 7.6 239 7.6"/><polygon class="cls-1" points="240 7.2 240 173.11 126 227.11 12 173.11 12 7.2 240 7.2"/><polygon class="cls-1" points="241 6.8 241 172.71 127 226.71 13 172.71 13 6.8 241 6.8"/><polygon class="cls-1" points="242 6.4 242 172.31 128 226.31 14 172.31 14 6.4 242 6.4"/><polygon class="cls-1" points="243 6 243 171.91 129 225.91 15 171.91 15 6 243 6"/><polygon class="cls-1" points="244 5.6 244 171.51 130 225.51 16 171.51 16 5.6 244 5.6"/><polygon class="cls-1" points="245 5.2 245 171.11 131 225.11 17 171.11 17 5.2 245 5.2"/><polygon class="cls-1" points="246 4.8 246 170.71 132 224.71 18 170.71 18 4.8 246 4.8"/><polygon class="cls-1" points="247 4.4 247 170.31 133 224.31 19 170.31 19 4.4 247 4.4"/><polygon class="cls-1" points="248 4 248 169.91 134 223.91 20 169.91 20 4 248 4"/><polygon class="cls-1" points="249 3.6 249 169.51 135 223.51 21 169.51 21 3.6 249 3.6"/><polygon class="cls-1" points="250 3.2 250 169.11 136 223.11 22 169.11 22 3.2 250 3.2"/><polygon class="cls-1" points="251 2.8 251 168.71 137 222.71 23 168.71 23 2.8 251 2.8"/><polygon class="cls-1" points="252 2.4 252 168.31 138 222.31 24 168.31 24 2.4 252 2.4"/><polygon class="cls-1" points="253 2 253 167.91 139 221.91 25 167.91 25 2 253 2"/><polygon class="cls-1" points="254 1.6 254 167.51 140 221.51 26 167.51 26 1.6 254 1.6"/><polygon class="cls-1" points="255 1.2 255 167.11 141 221.11 27 167.11 27 1.2 255 1.2"/><polygon class="cls-1" points="256 0.8 256 166.71 142 220.71 28 166.71 28 0.8 256 0.8"/><polygon class="cls-1" points="257 0.4 257 166.31 143 220.31 29 166.31 29 0.4 257 0.4"/><polygon class="cls-1" points="258 0 258 165.91 144 219.91 30 165.91 30 0 258 0"/><polygon class="cls-2" points="258 0 258 165.91 144 219.91 30 165.91 30 0 258 0"/><polygon class="cls-3" points="229.57 26.21 229.57 147 144.01 187.53 58.44 147 58.44 26.21 229.57 26.21"/><rect class="cls-2" x="177.6" y="45.47" width="31.01" height="93.5"/><rect class="cls-2" x="128.56" y="45.47" width="31.01" height="93.5"/><rect class="cls-2" x="79.52" y="45.47" width="31.01" height="93.5"/></g></g></svg>