<?xml version="1.0" encoding="utf-8"?>
<!-- Generator: Adobe Illustrator 25.4.1, SVG Export Plug-In . SVG Version: 6.00 Build 0)  -->
<svg version="1.1" id="Layer_1" xmlns="http://www.w3.org/2000/svg" xmlns:xlink="http://www.w3.org/1999/xlink" x="0px" y="0px"
	 viewBox="0 0 77.8 102.7" style="enable-background:new 0 0 77.8 102.7;" xml:space="preserve">
<style type="text/css">
	.st0{fill:#FFF5C2;stroke:#FFBC17;stroke-width:7.2413;stroke-miterlimit:10;}
</style>
<path class="st0" d="M73.3,50.6L15.8,98.4c-1.1,0.8-2.5-0.2-2.1-1.5L19.3,77l4.9-17.4c0.3-0.9-0.4-1.8-1.3-1.8H5.4
	c-0.9,0-1.5-0.9-1.3-1.8l3.2-11.1L18.9,5c0.2-0.6,0.7-1,1.3-1h44.5c1,0,1.6,1,1.3,1.9l-2.7,7L50.4,46.1c-0.4,0.9,0.3,1.9,1.3,1.9
	h20.6C73.6,48.1,74.3,49.7,73.3,50.6z"/>
</svg>
