<svg xmlns="http://www.w3.org/2000/svg" viewBox="0 0 470.74 691.5"><defs><style>.cls-1{fill:#cc6305;}.cls-2{fill:#ffc400;}.cls-3{fill:#fff;opacity:0.32;}</style></defs><g id="Layer_2" data-name="Layer 2"><g id="Layer_1-2" data-name="Layer 1"><path class="cls-1" d="M467.31,375.61,79.18,689.41a9.16,9.16,0,0,1-14.56-9.69l37.86-130.38,33.13-114.11a9.17,9.17,0,0,0-8.81-11.72H9.17A9.17,9.17,0,0,1,.39,411.7L22.1,339,100.36,77a9.18,9.18,0,0,1,8.8-6.54H409.78A9.17,9.17,0,0,1,418.3,83L400,129.21,313.64,346.75a9.17,9.17,0,0,0,8.52,12.57H461.55A9.16,9.16,0,0,1,467.31,375.61Z"/><path class="cls-1" d="M467.31,373.26,79.18,687.06a9.16,9.16,0,0,1-14.56-9.68L102.48,547l33.13-114.11a9.17,9.17,0,0,0-8.81-11.72H9.17a9.17,9.17,0,0,1-8.78-11.8l21.71-72.7,78.26-262a9.17,9.17,0,0,1,8.8-6.53H409.78a9.16,9.16,0,0,1,8.52,12.55L400,126.86,313.64,344.41A9.17,9.17,0,0,0,322.16,357H461.55A9.16,9.16,0,0,1,467.31,373.26Z"/><path class="cls-1" d="M467.31,370.91,79.18,684.72A9.16,9.16,0,0,1,64.62,675l37.86-130.39,33.13-114.1a9.18,9.18,0,0,0-8.81-11.73H9.17A9.17,9.17,0,0,1,.39,407l21.71-72.7,78.26-262a9.17,9.17,0,0,1,8.8-6.53H409.78a9.16,9.16,0,0,1,8.52,12.55L400,124.51,313.64,342.06a9.17,9.17,0,0,0,8.52,12.56H461.55A9.16,9.16,0,0,1,467.31,370.91Z"/><path class="cls-1" d="M467.31,368.57,79.18,682.37a9.16,9.16,0,0,1-14.56-9.69l37.86-130.39,33.13-114.1a9.18,9.18,0,0,0-8.81-11.73H9.17a9.17,9.17,0,0,1-8.78-11.8L22.1,332l78.26-262a9.18,9.18,0,0,1,8.8-6.53H409.78A9.16,9.16,0,0,1,418.3,76L400,122.17,313.64,339.71a9.17,9.17,0,0,0,8.52,12.56H461.55A9.17,9.17,0,0,1,467.31,368.57Z"/><path class="cls-1" d="M467.31,366.22,79.18,680a9.16,9.16,0,0,1-14.56-9.69L102.48,540l33.13-114.11a9.18,9.18,0,0,0-8.81-11.73H9.17a9.17,9.17,0,0,1-8.78-11.8l21.71-72.7,78.26-262a9.18,9.18,0,0,1,8.8-6.53H409.78a9.16,9.16,0,0,1,8.52,12.55L400,119.82,313.64,337.36a9.17,9.17,0,0,0,8.52,12.56H461.55A9.17,9.17,0,0,1,467.31,366.22Z"/><path class="cls-1" d="M467.31,363.87,79.18,677.67A9.16,9.16,0,0,1,64.62,668L102.48,537.6l33.13-114.11a9.18,9.18,0,0,0-8.81-11.73H9.17A9.17,9.17,0,0,1,.39,400l21.71-72.7,78.26-262a9.18,9.18,0,0,1,8.8-6.53H409.78a9.16,9.16,0,0,1,8.52,12.55L400,117.47,313.64,335a9.18,9.18,0,0,0,8.52,12.57H461.55A9.16,9.16,0,0,1,467.31,363.87Z"/><path class="cls-1" d="M467.31,361.52,79.18,675.32a9.16,9.16,0,0,1-14.56-9.69l37.86-130.38,33.13-114.11a9.18,9.18,0,0,0-8.81-11.73H9.17a9.17,9.17,0,0,1-8.78-11.8l21.71-72.7,78.26-262a9.18,9.18,0,0,1,8.8-6.54H409.78a9.17,9.17,0,0,1,8.52,12.55L400,115.12,313.64,332.66a9.17,9.17,0,0,0,8.52,12.57H461.55A9.16,9.16,0,0,1,467.31,361.52Z"/><path class="cls-1" d="M467.31,359.17,79.18,673a9.16,9.16,0,0,1-14.56-9.68L102.48,532.9l33.13-114.11a9.17,9.17,0,0,0-8.81-11.72H9.17A9.17,9.17,0,0,1,.39,395.26l21.71-72.7,78.26-262a9.18,9.18,0,0,1,8.8-6.54H409.78a9.17,9.17,0,0,1,8.52,12.55L400,112.77,313.64,330.31a9.17,9.17,0,0,0,8.52,12.57H461.55A9.16,9.16,0,0,1,467.31,359.17Z"/><path class="cls-1" d="M467.31,356.82,79.18,670.62a9.16,9.16,0,0,1-14.56-9.68l37.86-130.39,33.13-114.1a9.18,9.18,0,0,0-8.81-11.73H9.17a9.17,9.17,0,0,1-8.78-11.8l21.71-72.7,78.26-262a9.17,9.17,0,0,1,8.8-6.53H409.78a9.16,9.16,0,0,1,8.52,12.55L400,110.42,313.64,328a9.17,9.17,0,0,0,8.52,12.56H461.55A9.16,9.16,0,0,1,467.31,356.82Z"/><path class="cls-1" d="M467.31,354.47,79.18,668.28a9.16,9.16,0,0,1-14.56-9.69L102.48,528.2l33.13-114.1a9.18,9.18,0,0,0-8.81-11.73H9.17a9.17,9.17,0,0,1-8.78-11.8l21.71-72.7,78.26-262a9.17,9.17,0,0,1,8.8-6.53H409.78a9.16,9.16,0,0,1,8.52,12.55L400,108.07,313.64,325.62a9.17,9.17,0,0,0,8.52,12.56H461.55A9.16,9.16,0,0,1,467.31,354.47Z"/><path class="cls-1" d="M467.31,352.13,79.18,665.93a9.16,9.16,0,0,1-14.56-9.69l37.86-130.38,33.13-114.11A9.18,9.18,0,0,0,126.8,400H9.17a9.17,9.17,0,0,1-8.78-11.8l21.71-72.7,78.26-262a9.18,9.18,0,0,1,8.8-6.53H409.78a9.16,9.16,0,0,1,8.52,12.55L400,105.73,313.64,323.27a9.17,9.17,0,0,0,8.52,12.56H461.55A9.17,9.17,0,0,1,467.31,352.13Z"/><path class="cls-1" d="M467.31,349.78,79.18,663.58a9.16,9.16,0,0,1-14.56-9.69l37.86-130.38L135.61,409.4a9.18,9.18,0,0,0-8.81-11.73H9.17a9.17,9.17,0,0,1-8.78-11.8l21.71-72.7,78.26-262a9.18,9.18,0,0,1,8.8-6.53H409.78a9.16,9.16,0,0,1,8.52,12.55L400,103.38,313.64,320.92a9.17,9.17,0,0,0,8.52,12.56H461.55A9.17,9.17,0,0,1,467.31,349.78Z"/><path class="cls-1" d="M467.31,347.43,79.18,661.23a9.16,9.16,0,0,1-14.56-9.69l37.86-130.38,33.13-114.11a9.18,9.18,0,0,0-8.81-11.73H9.17a9.17,9.17,0,0,1-8.78-11.8l21.71-72.7,78.26-262a9.18,9.18,0,0,1,8.8-6.53H409.78a9.16,9.16,0,0,1,8.52,12.55L400,101,313.64,318.57a9.18,9.18,0,0,0,8.52,12.57H461.55A9.16,9.16,0,0,1,467.31,347.43Z"/><path class="cls-1" d="M467.31,345.08,79.18,658.88a9.16,9.16,0,0,1-14.56-9.69l37.86-130.38L135.61,404.7A9.18,9.18,0,0,0,126.8,393H9.17a9.17,9.17,0,0,1-8.78-11.8l21.71-72.7,78.26-262a9.18,9.18,0,0,1,8.8-6.54H409.78a9.17,9.17,0,0,1,8.52,12.55L400,98.68,313.64,316.22a9.17,9.17,0,0,0,8.52,12.57H461.55A9.16,9.16,0,0,1,467.31,345.08Z"/><path class="cls-1" d="M467.31,342.73,79.18,656.53a9.16,9.16,0,0,1-14.56-9.68l37.86-130.39,33.13-114.11a9.17,9.17,0,0,0-8.81-11.72H9.17a9.17,9.17,0,0,1-8.78-11.8L22.1,306.12l78.26-262a9.17,9.17,0,0,1,8.8-6.53H409.78a9.16,9.16,0,0,1,8.52,12.55L400,96.33,313.64,313.88a9.17,9.17,0,0,0,8.52,12.56H461.55A9.16,9.16,0,0,1,467.31,342.73Z"/><path class="cls-1" d="M467.31,340.38,79.18,654.19a9.16,9.16,0,0,1-14.56-9.69l37.86-130.39L135.61,400a9.18,9.18,0,0,0-8.81-11.73H9.17a9.17,9.17,0,0,1-8.78-11.8l21.71-72.7,78.26-262a9.17,9.17,0,0,1,8.8-6.53H409.78a9.16,9.16,0,0,1,8.52,12.55L400,94,313.64,311.53a9.17,9.17,0,0,0,8.52,12.56H461.55A9.16,9.16,0,0,1,467.31,340.38Z"/><path class="cls-1" d="M467.31,338,79.18,651.84a9.16,9.16,0,0,1-14.56-9.69l37.86-130.39,33.13-114.1a9.18,9.18,0,0,0-8.81-11.73H9.17a9.17,9.17,0,0,1-8.78-11.8l21.71-72.7,78.26-262a9.18,9.18,0,0,1,8.8-6.53H409.78a9.16,9.16,0,0,1,8.52,12.55L400,91.63,313.64,309.18a9.17,9.17,0,0,0,8.52,12.56H461.55A9.17,9.17,0,0,1,467.31,338Z"/><path class="cls-1" d="M467.31,335.69,79.18,649.49a9.16,9.16,0,0,1-14.56-9.69l37.86-130.38,33.13-114.11a9.18,9.18,0,0,0-8.81-11.73H9.17a9.17,9.17,0,0,1-8.78-11.8l21.71-72.7,78.26-262a9.18,9.18,0,0,1,8.8-6.53H409.78a9.16,9.16,0,0,1,8.52,12.55L400,89.29,313.64,306.83a9.17,9.17,0,0,0,8.52,12.56H461.55A9.17,9.17,0,0,1,467.31,335.69Z"/><path class="cls-1" d="M467.31,333.34,79.18,647.14a9.16,9.16,0,0,1-14.56-9.69l37.86-130.38L135.61,393a9.18,9.18,0,0,0-8.81-11.73H9.17a9.17,9.17,0,0,1-8.78-11.8l21.71-72.7,78.26-262a9.18,9.18,0,0,1,8.8-6.53H409.78a9.16,9.16,0,0,1,8.52,12.55L400,86.94,313.64,304.48a9.18,9.18,0,0,0,8.52,12.57H461.55A9.16,9.16,0,0,1,467.31,333.34Z"/><path class="cls-1" d="M467.31,331,79.18,644.79a9.16,9.16,0,0,1-14.56-9.69l37.86-130.38,33.13-114.11a9.18,9.18,0,0,0-8.81-11.73H9.17a9.17,9.17,0,0,1-8.78-11.8l21.71-72.7,78.26-262a9.18,9.18,0,0,1,8.8-6.53H409.78a9.16,9.16,0,0,1,8.52,12.55L400,84.59,313.64,302.13a9.17,9.17,0,0,0,8.52,12.57H461.55A9.16,9.16,0,0,1,467.31,331Z"/><path class="cls-1" d="M467.31,328.64,79.18,642.44a9.16,9.16,0,0,1-14.56-9.68l37.86-130.39,33.13-114.11a9.17,9.17,0,0,0-8.81-11.72H9.17A9.17,9.17,0,0,1,.39,364.73L22.1,292,100.36,30a9.18,9.18,0,0,1,8.8-6.54H409.78A9.17,9.17,0,0,1,418.3,36L400,82.24,313.64,299.78a9.17,9.17,0,0,0,8.52,12.57H461.55A9.16,9.16,0,0,1,467.31,328.64Z"/><path class="cls-1" d="M467.31,326.29,79.18,640.09a9.16,9.16,0,0,1-14.56-9.68L102.48,500l33.13-114.11a9.17,9.17,0,0,0-8.81-11.72H9.17a9.17,9.17,0,0,1-8.78-11.8l21.71-72.7,78.26-262a9.17,9.17,0,0,1,8.8-6.53H409.78a9.16,9.16,0,0,1,8.52,12.55L400,79.89,313.64,297.44A9.17,9.17,0,0,0,322.16,310H461.55A9.16,9.16,0,0,1,467.31,326.29Z"/><path class="cls-1" d="M467.31,323.94,79.18,637.75a9.16,9.16,0,0,1-14.56-9.69l37.86-130.39,33.13-114.1a9.18,9.18,0,0,0-8.81-11.73H9.17A9.17,9.17,0,0,1,.39,360l21.71-72.7,78.26-262a9.17,9.17,0,0,1,8.8-6.53H409.78a9.16,9.16,0,0,1,8.52,12.55L400,77.54,313.64,295.09a9.17,9.17,0,0,0,8.52,12.56H461.55A9.16,9.16,0,0,1,467.31,323.94Z"/><path class="cls-1" d="M467.31,321.6,79.18,635.4a9.16,9.16,0,0,1-14.56-9.69l37.86-130.38,33.13-114.11a9.18,9.18,0,0,0-8.81-11.73H9.17a9.17,9.17,0,0,1-8.78-11.8L22.1,285,100.36,23a9.18,9.18,0,0,1,8.8-6.53H409.78A9.16,9.16,0,0,1,418.3,29L400,75.2,313.64,292.74a9.17,9.17,0,0,0,8.52,12.56H461.55A9.17,9.17,0,0,1,467.31,321.6Z"/><path class="cls-1" d="M467.31,319.25,79.18,633.05a9.16,9.16,0,0,1-14.56-9.69L102.48,493l33.13-114.11a9.18,9.18,0,0,0-8.81-11.73H9.17a9.17,9.17,0,0,1-8.78-11.8l21.71-72.7,78.26-262a9.18,9.18,0,0,1,8.8-6.53H409.78a9.16,9.16,0,0,1,8.52,12.55L400,72.85,313.64,290.39A9.17,9.17,0,0,0,322.16,303H461.55A9.17,9.17,0,0,1,467.31,319.25Z"/><path class="cls-1" d="M467.31,316.9,79.18,630.7A9.16,9.16,0,0,1,64.62,621l37.86-130.38,33.13-114.11a9.18,9.18,0,0,0-8.81-11.73H9.17A9.17,9.17,0,0,1,.39,353l21.71-72.7,78.26-262a9.18,9.18,0,0,1,8.8-6.53H409.78a9.16,9.16,0,0,1,8.52,12.55L400,70.5,313.64,288a9.18,9.18,0,0,0,8.52,12.57H461.55A9.16,9.16,0,0,1,467.31,316.9Z"/><path class="cls-1" d="M467.31,314.55,79.18,628.35a9.16,9.16,0,0,1-14.56-9.69l37.86-130.38,33.13-114.11a9.18,9.18,0,0,0-8.81-11.73H9.17a9.17,9.17,0,0,1-8.78-11.8l21.71-72.7,78.26-262a9.18,9.18,0,0,1,8.8-6.54H409.78a9.17,9.17,0,0,1,8.52,12.55L400,68.15,313.64,285.69a9.17,9.17,0,0,0,8.52,12.57H461.55A9.16,9.16,0,0,1,467.31,314.55Z"/><path class="cls-1" d="M467.31,312.2,79.18,626a9.16,9.16,0,0,1-14.56-9.68l37.86-130.39,33.13-114.11a9.17,9.17,0,0,0-8.81-11.72H9.17A9.17,9.17,0,0,1,.39,348.3L22.1,275.59l78.26-262a9.17,9.17,0,0,1,8.8-6.53H409.78A9.16,9.16,0,0,1,418.3,19.6L400,65.8,313.64,283.34a9.17,9.17,0,0,0,8.52,12.57H461.55A9.16,9.16,0,0,1,467.31,312.2Z"/><path class="cls-1" d="M467.31,309.85,79.18,623.66A9.16,9.16,0,0,1,64.62,614l37.86-130.39,33.13-114.1a9.18,9.18,0,0,0-8.81-11.73H9.17A9.17,9.17,0,0,1,.39,346l21.71-72.7,78.26-262a9.17,9.17,0,0,1,8.8-6.53H409.78a9.16,9.16,0,0,1,8.52,12.55L400,63.45,313.64,281a9.17,9.17,0,0,0,8.52,12.56H461.55A9.16,9.16,0,0,1,467.31,309.85Z"/><path class="cls-1" d="M467.31,307.5,79.18,621.31a9.16,9.16,0,0,1-14.56-9.69l37.86-130.39,33.13-114.1a9.18,9.18,0,0,0-8.81-11.73H9.17A9.17,9.17,0,0,1,.39,343.6L22.1,270.9l78.26-262a9.18,9.18,0,0,1,8.8-6.53H409.78A9.16,9.16,0,0,1,418.3,14.9L400,61.1,313.64,278.65a9.17,9.17,0,0,0,8.52,12.56H461.55A9.16,9.16,0,0,1,467.31,307.5Z"/><path class="cls-1" d="M467.31,305.16,79.18,619a9.16,9.16,0,0,1-14.56-9.69l37.86-130.38,33.13-114.11a9.18,9.18,0,0,0-8.81-11.73H9.17a9.17,9.17,0,0,1-8.78-11.8l21.71-72.7,78.26-262A9.18,9.18,0,0,1,109.16,0H409.78a9.16,9.16,0,0,1,8.52,12.55L400,58.76,313.64,276.3a9.17,9.17,0,0,0,8.52,12.56H461.55A9.17,9.17,0,0,1,467.31,305.16Z"/><path class="cls-2" d="M467.31,305.16,79.18,619a9.16,9.16,0,0,1-14.56-9.69l37.86-130.38,33.13-114.11a9.18,9.18,0,0,0-8.81-11.73H9.17a9.17,9.17,0,0,1-8.78-11.8l21.71-72.7,78.26-262A9.18,9.18,0,0,1,109.16,0H409.78a9.16,9.16,0,0,1,8.52,12.55L400,58.76,313.64,276.3a9.17,9.17,0,0,0,8.52,12.56H461.55A9.17,9.17,0,0,1,467.31,305.16Z"/><path class="cls-3" d="M418.3,12.55,400,58.76,102.48,478.89l33.13-114.11a9.18,9.18,0,0,0-8.81-11.73H9.17a9.17,9.17,0,0,1-8.78-11.8l21.71-72.7L212.25,0H409.78A9.16,9.16,0,0,1,418.3,12.55Z"/></g></g></svg>