<?xml version="1.0" encoding="utf-8"?>
<!-- Generator: Adobe Illustrator 25.4.1, SVG Export Plug-In . SVG Version: 6.00 Build 0)  -->
<svg version="1.1" id="Layer_1" xmlns="http://www.w3.org/2000/svg" xmlns:xlink="http://www.w3.org/1999/xlink" x="0px" y="0px"
	 viewBox="0 0 77.8 102.7" style="enable-background:new 0 0 77.8 102.7;" xml:space="preserve">
<style type="text/css">
	.st0{fill:#FFC400;}
</style>
<path class="st0" d="M77.3,50.5l-64.2,51.9c-1.2,0.9-2.8-0.2-2.4-1.6l6.3-21.6l5.5-18.9c0.3-1-0.4-1.9-1.5-1.9H1.5c-1,0-1.7-1-1.5-2
	l3.6-12L16.6,1.1C16.8,0.4,17.4,0,18,0h49.7c1.1,0,1.8,1.1,1.4,2.1l-3,7.6l-14.3,36c-0.4,1,0.3,2.1,1.4,2.1h23
	C77.7,47.8,78.4,49.6,77.3,50.5z"/>
</svg>
