<svg id="Layer_1" data-name="Layer 1" xmlns="http://www.w3.org/2000/svg" viewBox="0 0 500 500"><defs><style>.cls-1{fill:#f7931e;}.cls-2{fill:#ffc400;}.cls-3{fill:#fff;opacity:0.32;}</style></defs><path class="cls-1" d="M404.7,245.79,100.21,492a7.19,7.19,0,0,1-11.43-7.6l29.7-102.29,26-89.51a7.2,7.2,0,0,0-6.91-9.21H45.28a7.19,7.19,0,0,1-6.89-9.25l17-57,61.4-205.55a7.21,7.21,0,0,1,6.9-5.13H359.56a7.2,7.2,0,0,1,6.69,9.85L351.87,52.49,284.14,223.15a7.2,7.2,0,0,0,6.69,9.86H400.17A7.19,7.19,0,0,1,404.7,245.79Z"/><path class="cls-1" d="M406.54,245.79,102.05,492a7.19,7.19,0,0,1-11.43-7.6l29.7-102.29,26-89.51a7.2,7.2,0,0,0-6.91-9.21H47.12a7.19,7.19,0,0,1-6.89-9.25l17-57L118.66,11.52a7.21,7.21,0,0,1,6.9-5.13H361.4a7.2,7.2,0,0,1,6.69,9.85L353.71,52.49,286,223.15a7.2,7.2,0,0,0,6.69,9.86H402A7.19,7.19,0,0,1,406.54,245.79Z"/><path class="cls-1" d="M408.38,245.79,103.89,492a7.18,7.18,0,0,1-11.42-7.6l29.69-102.29,26-89.51a7.19,7.19,0,0,0-6.9-9.21H49a7.19,7.19,0,0,1-6.88-9.25l17-57,61.4-205.55a7.2,7.2,0,0,1,6.89-5.13H363.25a7.2,7.2,0,0,1,6.69,9.85L355.55,52.49,287.82,223.15a7.2,7.2,0,0,0,6.69,9.86H403.86A7.19,7.19,0,0,1,408.38,245.79Z"/><path class="cls-1" d="M410.23,245.79,105.73,492a7.18,7.18,0,0,1-11.42-7.6L124,382.08l26-89.51a7.2,7.2,0,0,0-6.91-9.21H50.81a7.19,7.19,0,0,1-6.89-9.25l17-57,61.4-205.55a7.21,7.21,0,0,1,6.9-5.13H365.09a7.2,7.2,0,0,1,6.69,9.85L357.4,52.49,289.66,223.15a7.21,7.21,0,0,0,6.69,9.86H405.7A7.19,7.19,0,0,1,410.23,245.79Z"/><path class="cls-1" d="M412.07,245.79,107.57,492a7.19,7.19,0,0,1-11.42-7.6l29.7-102.29,26-89.51a7.2,7.2,0,0,0-6.91-9.21H52.65a7.19,7.19,0,0,1-6.89-9.25l17-57,61.4-205.55a7.21,7.21,0,0,1,6.9-5.13H366.93a7.2,7.2,0,0,1,6.69,9.85L359.24,52.49,291.51,223.15A7.2,7.2,0,0,0,298.2,233H407.54A7.19,7.19,0,0,1,412.07,245.79Z"/><path class="cls-1" d="M413.91,245.79,109.42,492A7.19,7.19,0,0,1,98,484.37l29.7-102.29,26-89.51a7.2,7.2,0,0,0-6.91-9.21H54.49a7.19,7.19,0,0,1-6.89-9.25l17-57L126,11.52a7.21,7.21,0,0,1,6.9-5.13H368.77a7.2,7.2,0,0,1,6.69,9.85L361.08,52.49,293.35,223.15A7.2,7.2,0,0,0,300,233H409.39A7.19,7.19,0,0,1,413.91,245.79Z"/><path class="cls-1" d="M415.75,245.79,111.26,492a7.18,7.18,0,0,1-11.42-7.6l29.69-102.29,26-89.51a7.2,7.2,0,0,0-6.91-9.21H56.33a7.18,7.18,0,0,1-6.88-9.25l17-57,61.4-205.55a7.2,7.2,0,0,1,6.89-5.13H370.62a7.2,7.2,0,0,1,6.69,9.85L362.92,52.49,295.19,223.15a7.2,7.2,0,0,0,6.69,9.86H411.23A7.19,7.19,0,0,1,415.75,245.79Z"/><path class="cls-1" d="M417.6,245.79,113.1,492a7.18,7.18,0,0,1-11.42-7.6l29.7-102.29,26-89.51a7.2,7.2,0,0,0-6.91-9.21H58.18a7.19,7.19,0,0,1-6.89-9.25l17-57,61.4-205.55a7.21,7.21,0,0,1,6.9-5.13H372.46a7.2,7.2,0,0,1,6.69,9.85L364.77,52.49,297,223.15a7.21,7.21,0,0,0,6.69,9.86H413.07A7.19,7.19,0,0,1,417.6,245.79Z"/><path class="cls-1" d="M419.44,245.79,114.94,492a7.18,7.18,0,0,1-11.42-7.6l29.7-102.29,26-89.51a7.2,7.2,0,0,0-6.91-9.21H60a7.19,7.19,0,0,1-6.89-9.25l17-57,61.4-205.55a7.21,7.21,0,0,1,6.9-5.13H374.3A7.2,7.2,0,0,1,381,16.24L366.61,52.49,298.88,223.15a7.2,7.2,0,0,0,6.69,9.86H414.91A7.19,7.19,0,0,1,419.44,245.79Z"/><path class="cls-1" d="M421.28,245.79,116.79,492a7.19,7.19,0,0,1-11.43-7.6l29.7-102.29,26-89.51a7.2,7.2,0,0,0-6.91-9.21H61.86A7.19,7.19,0,0,1,55,274.11l17-57L133.4,11.52a7.21,7.21,0,0,1,6.9-5.13H376.14a7.2,7.2,0,0,1,6.69,9.85L368.45,52.49,300.72,223.15a7.2,7.2,0,0,0,6.69,9.86H416.76A7.19,7.19,0,0,1,421.28,245.79Z"/><path class="cls-1" d="M423.12,245.79,118.63,492a7.18,7.18,0,0,1-11.42-7.6L136.9,382.08l26-89.51a7.2,7.2,0,0,0-6.91-9.21H63.7a7.18,7.18,0,0,1-6.88-9.25l17-57,61.4-205.55a7.2,7.2,0,0,1,6.89-5.13H378a7.21,7.21,0,0,1,6.7,9.85L370.29,52.49,302.56,223.15a7.2,7.2,0,0,0,6.69,9.86H418.6A7.19,7.19,0,0,1,423.12,245.79Z"/><path class="cls-1" d="M425,245.79,120.47,492a7.18,7.18,0,0,1-11.42-7.6l29.7-102.29,26-89.51a7.2,7.2,0,0,0-6.91-9.21H65.54a7.19,7.19,0,0,1-6.88-9.25l17-57,61.4-205.55A7.21,7.21,0,0,1,144,6.39H379.83a7.2,7.2,0,0,1,6.69,9.85L372.14,52.49,304.4,223.15a7.21,7.21,0,0,0,6.69,9.86H420.44A7.19,7.19,0,0,1,425,245.79Z"/><path class="cls-1" d="M426.81,245.79,122.31,492a7.18,7.18,0,0,1-11.42-7.6l29.7-102.29,26-89.51a7.2,7.2,0,0,0-6.91-9.21H67.39a7.19,7.19,0,0,1-6.89-9.25l17-57,61.4-205.55a7.21,7.21,0,0,1,6.9-5.13H381.67a7.2,7.2,0,0,1,6.69,9.85L374,52.49,306.25,223.15a7.2,7.2,0,0,0,6.69,9.86H422.28A7.19,7.19,0,0,1,426.81,245.79Z"/><path class="cls-1" d="M428.65,245.79,124.16,492a7.19,7.19,0,0,1-11.43-7.6l29.7-102.29,26-89.51a7.2,7.2,0,0,0-6.91-9.21H69.23a7.19,7.19,0,0,1-6.89-9.25l17-57,61.4-205.55a7.21,7.21,0,0,1,6.9-5.13H383.51a7.2,7.2,0,0,1,6.69,9.85L375.82,52.49,308.09,223.15a7.2,7.2,0,0,0,6.69,9.86H424.13A7.19,7.19,0,0,1,428.65,245.79Z"/><path class="cls-1" d="M430.49,245.79,126,492a7.18,7.18,0,0,1-11.42-7.6l29.69-102.29,26-89.51a7.2,7.2,0,0,0-6.91-9.21H71.07a7.18,7.18,0,0,1-6.88-9.25l17-57,61.4-205.55a7.19,7.19,0,0,1,6.89-5.13H385.35A7.2,7.2,0,0,1,392,16.24L377.66,52.49,309.93,223.15a7.2,7.2,0,0,0,6.69,9.86H426A7.19,7.19,0,0,1,430.49,245.79Z"/><path class="cls-1" d="M432.34,245.79,127.84,492a7.18,7.18,0,0,1-11.42-7.6l29.7-102.29,26-89.51a7.2,7.2,0,0,0-6.91-9.21H72.91A7.19,7.19,0,0,1,66,274.11l17-57,61.4-205.55a7.21,7.21,0,0,1,6.9-5.13H387.2a7.2,7.2,0,0,1,6.69,9.85L379.5,52.49,311.77,223.15a7.21,7.21,0,0,0,6.69,9.86H427.81A7.19,7.19,0,0,1,432.34,245.79Z"/><path class="cls-1" d="M434.18,245.79,129.68,492a7.18,7.18,0,0,1-11.42-7.6L148,382.08l26-89.51a7.2,7.2,0,0,0-6.91-9.21H74.76a7.19,7.19,0,0,1-6.89-9.25l17-57L146.3,11.52a7.21,7.21,0,0,1,6.9-5.13H389a7.2,7.2,0,0,1,6.69,9.85L381.35,52.49,313.62,223.15a7.2,7.2,0,0,0,6.69,9.86H429.65A7.19,7.19,0,0,1,434.18,245.79Z"/><path class="cls-1" d="M436,245.79,131.53,492a7.19,7.19,0,0,1-11.43-7.6l29.7-102.29,26-89.51a7.2,7.2,0,0,0-6.91-9.21H76.6a7.19,7.19,0,0,1-6.89-9.25l17-57,61.4-205.55A7.21,7.21,0,0,1,155,6.39H390.88a7.2,7.2,0,0,1,6.69,9.85L383.19,52.49,315.46,223.15a7.2,7.2,0,0,0,6.69,9.86H431.5A7.19,7.19,0,0,1,436,245.79Z"/><path class="cls-1" d="M437.86,245.79,133.37,492a7.18,7.18,0,0,1-11.42-7.6l29.69-102.29,26-89.51a7.2,7.2,0,0,0-6.91-9.21H78.44a7.18,7.18,0,0,1-6.88-9.25l17-57L150,11.52a7.19,7.19,0,0,1,6.89-5.13H392.72a7.2,7.2,0,0,1,6.69,9.85L385,52.49,317.3,223.15A7.2,7.2,0,0,0,324,233H433.34A7.19,7.19,0,0,1,437.86,245.79Z"/><path class="cls-1" d="M439.71,245.79,135.21,492a7.18,7.18,0,0,1-11.42-7.6l29.7-102.29,26-89.51a7.2,7.2,0,0,0-6.91-9.21H80.28a7.19,7.19,0,0,1-6.88-9.25l17-57,61.4-205.55a7.21,7.21,0,0,1,6.9-5.13H394.57a7.2,7.2,0,0,1,6.69,9.85L386.87,52.49,319.14,223.15a7.21,7.21,0,0,0,6.69,9.86H435.18A7.19,7.19,0,0,1,439.71,245.79Z"/><path class="cls-1" d="M441.55,245.79,137.05,492a7.18,7.18,0,0,1-11.42-7.6l29.7-102.29,26-89.51a7.2,7.2,0,0,0-6.91-9.21H82.13a7.19,7.19,0,0,1-6.89-9.25l17-57,61.4-205.55a7.21,7.21,0,0,1,6.9-5.13H396.41a7.2,7.2,0,0,1,6.69,9.85L388.72,52.49,321,223.15a7.21,7.21,0,0,0,6.7,9.86H437A7.19,7.19,0,0,1,441.55,245.79Z"/><path class="cls-1" d="M443.39,245.79,138.9,492a7.19,7.19,0,0,1-11.43-7.6l29.7-102.29,26-89.51a7.2,7.2,0,0,0-6.91-9.21H84a7.19,7.19,0,0,1-6.89-9.25l17-57,61.4-205.55a7.21,7.21,0,0,1,6.9-5.13H398.25a7.2,7.2,0,0,1,6.69,9.85L390.56,52.49,322.83,223.15a7.2,7.2,0,0,0,6.69,9.86H438.87A7.19,7.19,0,0,1,443.39,245.79Z"/><path class="cls-1" d="M445.23,245.79,140.74,492a7.18,7.18,0,0,1-11.42-7.6L159,382.08l26-89.51a7.2,7.2,0,0,0-6.91-9.21H85.81a7.18,7.18,0,0,1-6.88-9.25l17-57L157.35,11.52a7.21,7.21,0,0,1,6.9-5.13H400.09a7.2,7.2,0,0,1,6.69,9.85L392.4,52.49,324.67,223.15a7.2,7.2,0,0,0,6.69,9.86H440.71A7.19,7.19,0,0,1,445.23,245.79Z"/><path class="cls-1" d="M447.08,245.79,142.58,492a7.18,7.18,0,0,1-11.42-7.6l29.7-102.29,26-89.51a7.2,7.2,0,0,0-6.91-9.21H87.65a7.19,7.19,0,0,1-6.88-9.25l17-57L159.2,11.52a7.2,7.2,0,0,1,6.89-5.13H401.94a7.2,7.2,0,0,1,6.69,9.85L394.24,52.49,326.51,223.15A7.21,7.21,0,0,0,333.2,233H442.55A7.19,7.19,0,0,1,447.08,245.79Z"/><path class="cls-1" d="M448.92,245.79,144.42,492a7.18,7.18,0,0,1-11.42-7.6l29.7-102.29,26-89.51a7.2,7.2,0,0,0-6.91-9.21H89.5a7.19,7.19,0,0,1-6.89-9.25l17-57L161,11.52a7.21,7.21,0,0,1,6.9-5.13H403.78a7.2,7.2,0,0,1,6.69,9.85L396.09,52.49,328.35,223.15A7.21,7.21,0,0,0,335,233H444.39A7.19,7.19,0,0,1,448.92,245.79Z"/><path class="cls-1" d="M450.76,245.79,146.27,492a7.19,7.19,0,0,1-11.43-7.6l29.7-102.29,26-89.51a7.2,7.2,0,0,0-6.91-9.21H91.34a7.19,7.19,0,0,1-6.89-9.25l17-57,61.4-205.55a7.21,7.21,0,0,1,6.9-5.13H405.62a7.2,7.2,0,0,1,6.69,9.85L397.93,52.49,330.2,223.15a7.2,7.2,0,0,0,6.69,9.86H446.23A7.19,7.19,0,0,1,450.76,245.79Z"/><path class="cls-1" d="M452.6,245.79,148.11,492a7.18,7.18,0,0,1-11.42-7.6l29.69-102.29,26-89.51a7.2,7.2,0,0,0-6.91-9.21H93.18a7.19,7.19,0,0,1-6.89-9.25l17-57L164.72,11.52a7.21,7.21,0,0,1,6.9-5.13H407.46a7.2,7.2,0,0,1,6.69,9.85L399.77,52.49,332,223.15a7.2,7.2,0,0,0,6.69,9.86H448.08A7.19,7.19,0,0,1,452.6,245.79Z"/><path class="cls-1" d="M454.45,245.79,150,492a7.18,7.18,0,0,1-11.42-7.6l29.7-102.29,26-89.51a7.19,7.19,0,0,0-6.9-9.21H95a7.19,7.19,0,0,1-6.88-9.25l17-57,61.4-205.55a7.2,7.2,0,0,1,6.89-5.13H409.31A7.2,7.2,0,0,1,416,16.24L401.61,52.49,333.88,223.15a7.2,7.2,0,0,0,6.69,9.86H449.92A7.19,7.19,0,0,1,454.45,245.79Z"/><path class="cls-1" d="M456.29,245.79,151.79,492a7.18,7.18,0,0,1-11.42-7.6l29.7-102.29,26-89.51a7.2,7.2,0,0,0-6.91-9.21H96.87A7.19,7.19,0,0,1,90,274.11l17-57,61.4-205.55a7.21,7.21,0,0,1,6.9-5.13H411.15a7.2,7.2,0,0,1,6.69,9.85L403.46,52.49,335.72,223.15a7.21,7.21,0,0,0,6.69,9.86H451.76A7.19,7.19,0,0,1,456.29,245.79Z"/><path class="cls-1" d="M458.13,245.79,153.64,492a7.19,7.19,0,0,1-11.43-7.6l29.7-102.29,26-89.51a7.2,7.2,0,0,0-6.91-9.21H98.71a7.19,7.19,0,0,1-6.89-9.25l17-57,61.4-205.55a7.21,7.21,0,0,1,6.9-5.13H413a7.2,7.2,0,0,1,6.69,9.85L405.3,52.49,337.57,223.15a7.2,7.2,0,0,0,6.69,9.86H453.6A7.19,7.19,0,0,1,458.13,245.79Z"/><path class="cls-1" d="M460,245.79,155.48,492a7.19,7.19,0,0,1-11.43-7.6l29.7-102.29,26-89.51a7.2,7.2,0,0,0-6.91-9.21H100.55a7.19,7.19,0,0,1-6.89-9.25l17-57L172.09,11.52A7.21,7.21,0,0,1,179,6.39H414.83a7.2,7.2,0,0,1,6.69,9.85L407.14,52.49,339.41,223.15A7.2,7.2,0,0,0,346.1,233H455.45A7.19,7.19,0,0,1,460,245.79Z"/><path class="cls-2" d="M460,245.79,155.48,492a7.19,7.19,0,0,1-11.43-7.6l29.7-102.29,26-89.51a7.2,7.2,0,0,0-6.91-9.21H100.55a7.19,7.19,0,0,1-6.89-9.25l17-57L172.09,11.52A7.21,7.21,0,0,1,179,6.39H414.83a7.2,7.2,0,0,1,6.69,9.85L407.14,52.49,339.41,223.15A7.2,7.2,0,0,0,346.1,233H455.45A7.19,7.19,0,0,1,460,245.79Z"/><path class="cls-3" d="M421.52,16.24,407.14,52.49,173.75,382.08l26-89.51a7.2,7.2,0,0,0-6.91-9.21H100.55a7.19,7.19,0,0,1-6.89-9.25l17-57L259.87,6.39h155A7.2,7.2,0,0,1,421.52,16.24Z"/></svg>