<?xml version="1.0" encoding="utf-8"?>
<!-- Generator: Adobe Illustrator 25.4.1, SVG Export Plug-In . SVG Version: 6.00 Build 0)  -->
<svg version="1.1" id="Layer_1" xmlns="http://www.w3.org/2000/svg" xmlns:xlink="http://www.w3.org/1999/xlink" x="0px" y="0px"
	 viewBox="0 0 100 100" style="enable-background:new 0 0 100 100;" xml:space="preserve">
<style type="text/css">
	.st0{fill:#8C270C;}
	.st1{fill:#AA3D1B;}
	.st2{fill:#FC9775;}
	.st3{fill:#BC4524;}
	.st4{fill:#AF2804;}
	.st5{fill:#DB5020;}
	.st6{fill:#F2794A;}
	.st7{fill:#510008;}
	.st8{fill:#7A0006;}
</style>
<g id="Layer_2_00000050661810692842806760000003360335315215766166_">
	<g id="Layer_1-2">
		<path class="st0" d="M79.6,37.5c0,19.2-14.6,35.4-33.7,37.3c-1.2,0.1-2.5,0.2-3.7,0.2h3.7v24.8h-7.5V68.6h3.7
			c17.2,0,31.2-14,31.2-31.2S59.4,6.3,42.2,6.3V0C62.9,0,79.6,16.8,79.6,37.5L79.6,37.5z"/>
		<path class="st0" d="M79.9,37.5c0,19.2-14.6,35.4-33.7,37.3c-1.2,0.1-2.5,0.2-3.7,0.2h3.7v24.8h-7.5V68.6h3.7
			c17.2,0,31.2-14,31.2-31.2S59.6,6.3,42.4,6.3V0C63.1,0,79.9,16.8,79.9,37.5L79.9,37.5z"/>
		<path class="st0" d="M80.1,37.5c0,19.2-14.6,35.3-33.7,37.3c-1.2,0.1-2.5,0.2-3.7,0.2h3.7v24.8h-7.5V68.6h3.7
			c17.2,0,31.2-14,31.2-31.2S59.8,6.3,42.6,6.3l0,0V0C63.3,0,80.1,16.8,80.1,37.5L80.1,37.5z"/>
		<path class="st0" d="M80.3,37.5c0,19.2-14.6,35.4-33.7,37.3c-1.2,0.1-2.5,0.2-3.7,0.2h3.7v24.8h-7.5V68.6h3.7
			c17.2-0.3,30.9-14.6,30.6-31.8C73.1,20.1,59.6,6.6,42.8,6.3V0C63.5,0,80.3,16.8,80.3,37.5C80.3,37.5,80.3,37.5,80.3,37.5z"/>
		<path class="st0" d="M80.6,37.5c0,19.2-14.6,35.4-33.7,37.3c-1.2,0.1-2.5,0.2-3.7,0.2h3.7v24.8h-7.5V68.6h3.7
			c17.2,0,31.2-14,31.2-31.2S60.3,6.3,43.1,6.3l0,0V0C63.8,0,80.6,16.8,80.6,37.5L80.6,37.5z"/>
		<path class="st0" d="M80.8,37.5c0,19.2-14.6,35.4-33.7,37.3c-1.2,0.1-2.5,0.2-3.7,0.2h3.7v24.8h-7.5V68.6h3.7
			c17.2,0,31.2-14,31.2-31.2S60.6,6.3,43.3,6.3V0C64,0,80.8,16.8,80.8,37.5L80.8,37.5z"/>
		<path class="st0" d="M81.1,37.5c0,19.2-14.6,35.4-33.7,37.3c-1.2,0.1-2.5,0.2-3.7,0.2h3.7v24.8h-7.5V68.6h3.7
			c17.2,0,31.2-14,31.2-31.2S60.8,6.3,43.6,6.3V0C64.3,0,81.1,16.8,81.1,37.5L81.1,37.5z"/>
		<path class="st0" d="M81.3,37.5c0,19.2-14.6,35.3-33.7,37.3c-1.2,0.1-2.5,0.2-3.7,0.2h3.7v24.8h-7.5V68.6h3.7
			C61,68.6,75,54.7,75,37.5S61,6.3,43.8,6.3V0C64.5,0,81.3,16.8,81.3,37.5L81.3,37.5z"/>
		<path class="st0" d="M81.5,37.5c0,19.2-14.6,35.4-33.7,37.3c-1.2,0.1-2.5,0.2-3.7,0.2h3.7v24.8h-7.5V68.6H44
			c17.2-0.3,30.9-14.6,30.6-31.8C74.3,20.1,60.8,6.6,44,6.3V0C64.7,0,81.5,16.8,81.5,37.5C81.5,37.5,81.5,37.5,81.5,37.5z"/>
		<path class="st0" d="M81.8,37.5c0,19.2-14.6,35.4-33.7,37.3c-1.2,0.1-2.5,0.2-3.7,0.2H48v24.8h-7.5V68.6h3.7
			c17.2,0,31.2-14,31.2-31.2S61.5,6.3,44.3,6.3V0C65,0,81.8,16.8,81.8,37.5L81.8,37.5z"/>
		<path class="st0" d="M82,37.5c0,19.2-14.6,35.4-33.7,37.3c-1.2,0.1-2.5,0.2-3.7,0.2h3.7v24.8h-7.5V68.6h3.7
			c17.2,0,31.2-14,31.2-31.2S61.7,6.3,44.5,6.3V0C65.2,0,82,16.8,82,37.5L82,37.5z"/>
		<path class="st0" d="M82.2,37.5c0,19.2-14.6,35.4-33.7,37.3c-1.2,0.1-2.5,0.2-3.7,0.2h3.7v24.8H41V68.6h3.7
			c17.2,0,31.2-14,31.2-31.2S62,6.3,44.8,6.3V0C65.5,0,82.2,16.8,82.2,37.5L82.2,37.5z"/>
		<path class="st0" d="M82.5,37.5c0,19.2-14.6,35.3-33.7,37.3c-1.2,0.1-2.5,0.2-3.7,0.2h3.7v24.8h-7.5V68.6H45
			c17.2,0,31.2-14,31.2-31.2S62.2,6.3,45,6.3V0C65.7,0,82.5,16.8,82.5,37.5L82.5,37.5z"/>
		<path class="st0" d="M82.7,37.5c0,19.2-14.6,35.4-33.7,37.3c-1.2,0.1-2.5,0.2-3.7,0.2H49v24.8h-7.5V68.6h3.7
			c17.2-0.3,30.9-14.6,30.6-31.8C75.4,20.1,62,6.6,45.2,6.3V0C65.9,0,82.7,16.8,82.7,37.5C82.7,37.5,82.7,37.5,82.7,37.5z"/>
		<path class="st0" d="M82.9,37.5c0,19.2-14.6,35.4-33.7,37.3c-1.2,0.1-2.5,0.2-3.7,0.2h3.7v24.8h-7.5V68.6h3.7
			c17.2,0,31.2-14,31.2-31.2S62.7,6.3,45.5,6.3l0,0V0C66.2,0,82.9,16.8,82.9,37.5L82.9,37.5z"/>
		<path class="st0" d="M83.2,37.5c0,19.2-14.6,35.4-33.7,37.3c-1.2,0.1-2.5,0.2-3.7,0.2h3.7v24.8H42V68.6h3.7
			c17.2,0,31.2-14,31.2-31.2S62.9,6.3,45.7,6.3V0C66.4,0,83.2,16.8,83.2,37.5L83.2,37.5z"/>
		<path class="st0" d="M83.4,37.5c0,19.2-14.6,35.4-33.7,37.3c-1.2,0.1-2.5,0.2-3.7,0.2h3.7v24.8h-7.5V68.6h3.7
			c17.2,0,31.2-14,31.2-31.2S63.2,6.3,45.9,6.3l0,0V0C66.6,0,83.4,16.8,83.4,37.5L83.4,37.5z"/>
		<path class="st0" d="M83.7,37.5c0,19.2-14.6,35.3-33.7,37.3c-1.2,0.1-2.5,0.2-3.7,0.2h3.7v24.8h-7.5V68.6h3.7
			c17.2,0,31.2-14,31.2-31.2S63.4,6.3,46.2,6.3V0C66.9,0,83.7,16.8,83.7,37.5L83.7,37.5z"/>
		<path class="st0" d="M83.9,37.5c0,19.2-14.6,35.4-33.7,37.3c-1.2,0.1-2.5,0.2-3.7,0.2h3.7v24.8h-7.5V68.6h3.7
			C63.6,68.3,77.3,54.1,77,36.9C76.6,20.1,63.1,6.6,46.4,6.3V0C67.1,0,83.9,16.8,83.9,37.5C83.9,37.5,83.9,37.5,83.9,37.5z"/>
		<path class="st0" d="M84.1,37.5c0,19.2-14.6,35.4-33.7,37.3c-1.2,0.1-2.5,0.2-3.7,0.2h3.7v24.8h-7.5V68.6h3.7
			c17.2,0,31.2-14,31.2-31.2S63.9,6.3,46.7,6.3V0C67.4,0,84.1,16.8,84.1,37.5L84.1,37.5z"/>
		<path class="st0" d="M84.4,37.5c0,19.2-14.6,35.4-33.7,37.3c-1.2,0.1-2.5,0.2-3.7,0.2h3.7v24.8h-7.5V68.6h3.7
			c17.2,0,31.2-14,31.2-31.2S64.1,6.3,46.9,6.3l0,0V0C67.6,0,84.4,16.8,84.4,37.5L84.4,37.5z"/>
		<path class="st0" d="M84.6,37.5c0,19.2-14.6,35.4-33.7,37.3c-1.2,0.1-2.5,0.2-3.7,0.2h3.7v24.8h-7.5V68.6h3.7
			c17.2,0,31.2-14,31.2-31.2S64.3,6.3,47.1,6.3V0C67.8,0,84.6,16.8,84.6,37.5L84.6,37.5z"/>
		<path class="st0" d="M84.8,37.5c0,19.2-14.6,35.3-33.7,37.3c-1.2,0.1-2.5,0.2-3.7,0.2h3.7v24.8h-7.5V68.6h3.7
			c17.2,0,31.2-14,31.2-31.2S64.6,6.3,47.4,6.3V0C68.1,0,84.8,16.8,84.8,37.5L84.8,37.5z"/>
		<path class="st0" d="M85.1,37.5c0,19.2-14.6,35.4-33.7,37.3c-1.2,0.1-2.5,0.2-3.7,0.2h3.7v24.8h-7.5V68.6h3.7
			c17.2-0.3,30.9-14.6,30.6-31.8C77.8,20.1,64.3,6.6,47.6,6.3V0C68.3,0,85.1,16.8,85.1,37.5C85.1,37.5,85.1,37.5,85.1,37.5z"/>
		<path class="st0" d="M85.3,37.5c0,19.2-14.6,35.4-33.7,37.3c-1.2,0.1-2.5,0.2-3.7,0.2h3.7v24.8h-7.5V68.6h3.7
			c17.2,0,31.2-14,31.2-31.2S65.1,6.3,47.8,6.3V0C68.5,0,85.3,16.8,85.3,37.5L85.3,37.5z"/>
		<path class="st0" d="M85.6,37.5c0,19.2-14.6,35.4-33.7,37.3c-1.2,0.1-2.5,0.2-3.7,0.2h3.7v24.8h-7.5V68.6h3.7
			c17.2,0,31.2-14,31.2-31.2S65.3,6.3,48.1,6.3V0C68.8,0,85.6,16.8,85.6,37.5L85.6,37.5z"/>
		<path class="st0" d="M85.8,37.5c0,19.2-14.6,35.4-33.7,37.3c-1.2,0.1-2.5,0.2-3.7,0.2h3.7v24.8h-7.5V68.6h3.7
			c17.2,0,31.2-14,31.2-31.2S65.5,6.3,48.3,6.3V0C69,0,85.8,16.8,85.8,37.5L85.8,37.5z"/>
		<path class="st0" d="M86,37.5c0,19.2-14.6,35.3-33.7,37.3c-1.2,0.1-2.5,0.2-3.7,0.2h3.7v24.8h-7.5V68.6h3.7
			c17.2,0,31.2-14,31.2-31.2S65.8,6.3,48.6,6.3V0C69.2,0,86,16.8,86,37.5L86,37.5z"/>
		<path class="st0" d="M86.3,37.5c0,19.2-14.6,35.4-33.7,37.3c-1.2,0.1-2.5,0.2-3.7,0.2h3.7v24.8h-7.5V68.6h3.7
			C66,68.3,79.7,54.1,79.3,36.9C79,20.1,65.5,6.6,48.8,6.3V0C69.5,0,86.2,16.8,86.3,37.5C86.3,37.5,86.3,37.5,86.3,37.5z"/>
		<path class="st0" d="M86.5,37.5c0,19.2-14.6,35.4-33.7,37.3c-1.2,0.1-2.5,0.2-3.7,0.2h3.7v24.8h-7.5V68.6H49
			c17.2,0,31.2-14,31.2-31.2S66.2,6.3,49,6.3V0C69.7,0,86.5,16.8,86.5,37.5L86.5,37.5z"/>
		<path class="st0" d="M86.7,37.5c0,19.2-14.6,35.4-33.7,37.3c-1.2,0.1-2.5,0.2-3.7,0.2H53v24.8h-7.5V68.6h3.7
			c17.2,0,31.2-14,31.2-31.2S66.5,6.3,49.3,6.3V0C70,0,86.7,16.8,86.7,37.5L86.7,37.5z"/>
		<path class="st1" d="M86.7,37.5c0,19.2-14.6,35.4-33.7,37.3c-1.2,0.1-2.5,0.2-3.7,0.2H53v24.8h-7.5V68.6h3.7
			c17.2,0,31.2-14,31.2-31.2S66.5,6.3,49.3,6.3V0C70,0,86.7,16.8,86.7,37.5L86.7,37.5z"/>
		<path class="st1" d="M53,74.8v0.2h-3.7C50.5,74.9,51.8,74.9,53,74.8z"/>
		<circle class="st2" cx="49.3" cy="37.5" r="28.9"/>
		<path class="st3" d="M42.2,8.6v28.9H13.3C13.3,21.5,26.2,8.6,42.2,8.6C42.2,8.6,42.2,8.6,42.2,8.6z"/>
		<path class="st3" d="M42.4,8.6v28.9H13.5C13.5,21.5,26.4,8.6,42.4,8.6C42.4,8.6,42.4,8.6,42.4,8.6z"/>
		<path class="st3" d="M42.6,8.6v28.9H13.7C13.7,21.5,26.7,8.6,42.6,8.6C42.6,8.6,42.6,8.6,42.6,8.6z"/>
		<path class="st3" d="M42.8,8.6v28.9H14C14,21.5,26.9,8.6,42.8,8.6z"/>
		<path class="st3" d="M43.1,8.6v28.9H14.2C14.2,21.5,27.1,8.6,43.1,8.6C43.1,8.6,43.1,8.6,43.1,8.6z"/>
		<path class="st3" d="M43.3,8.6v28.9H14.4C14.4,21.5,27.4,8.6,43.3,8.6C43.3,8.6,43.3,8.6,43.3,8.6z"/>
		<path class="st3" d="M43.6,8.6v28.9H14.7C14.7,21.5,27.6,8.6,43.6,8.6C43.6,8.6,43.6,8.6,43.6,8.6z"/>
		<path class="st3" d="M43.8,8.6v28.9H14.9C14.9,21.5,27.8,8.6,43.8,8.6C43.8,8.6,43.8,8.6,43.8,8.6z"/>
		<path class="st3" d="M44,8.6v28.9H15.2C15.2,21.5,28.1,8.6,44,8.6z"/>
		<path class="st3" d="M44.3,8.6v28.9H15.4C15.4,21.5,28.3,8.6,44.3,8.6C44.3,8.6,44.3,8.6,44.3,8.6z"/>
		<path class="st3" d="M44.5,8.6v28.9H15.6C15.6,21.5,28.6,8.6,44.5,8.6C44.5,8.6,44.5,8.6,44.5,8.6z"/>
		<path class="st3" d="M44.8,8.6v28.9H15.9C15.9,21.5,28.8,8.6,44.8,8.6C44.8,8.6,44.8,8.6,44.8,8.6z"/>
		<path class="st3" d="M45,8.6v28.9H16.1C16.1,21.5,29,8.6,45,8.6C45,8.6,45,8.6,45,8.6z"/>
		<path class="st3" d="M45.2,8.6v28.9H16.3C16.3,21.5,29.3,8.6,45.2,8.6z"/>
		<path class="st3" d="M45.5,8.6v28.9H16.6C16.6,21.5,29.5,8.6,45.5,8.6C45.5,8.6,45.5,8.6,45.5,8.6z"/>
		<path class="st3" d="M45.7,8.6v28.9H16.8C16.8,21.5,29.7,8.6,45.7,8.6C45.7,8.6,45.7,8.6,45.7,8.6z"/>
		<path class="st3" d="M45.9,8.6v28.9H17.1C17,21.5,30,8.6,45.9,8.6C45.9,8.6,45.9,8.6,45.9,8.6z"/>
		<path class="st3" d="M46.2,8.6v28.9H17.3C17.3,21.5,30.2,8.6,46.2,8.6C46.2,8.6,46.2,8.6,46.2,8.6z"/>
		<path class="st3" d="M46.4,8.6v28.9H17.5C17.5,21.5,30.4,8.6,46.4,8.6z"/>
		<path class="st3" d="M46.7,8.6v28.9H17.8C17.8,21.5,30.7,8.6,46.7,8.6C46.6,8.6,46.7,8.6,46.7,8.6z"/>
		<path class="st3" d="M46.9,8.6v28.9H18C18,21.5,30.9,8.6,46.9,8.6C46.9,8.6,46.9,8.6,46.9,8.6z"/>
		<path class="st3" d="M47.1,8.6v28.9H18.2C18.2,21.5,31.2,8.6,47.1,8.6C47.1,8.6,47.1,8.6,47.1,8.6z"/>
		<path class="st3" d="M47.4,8.6v28.9H18.5C18.5,21.5,31.4,8.6,47.4,8.6C47.4,8.6,47.4,8.6,47.4,8.6z"/>
		<path class="st3" d="M47.6,8.6v28.9H18.7C18.7,21.5,31.6,8.6,47.6,8.6z"/>
		<path class="st3" d="M47.8,8.6v28.9H18.9C18.9,21.5,31.9,8.6,47.8,8.6C47.8,8.6,47.8,8.6,47.8,8.6z"/>
		<path class="st3" d="M48.1,8.6v28.9H19.2C19.2,21.5,32.1,8.6,48.1,8.6C48.1,8.6,48.1,8.6,48.1,8.6z"/>
		<path class="st3" d="M48.3,8.6v28.9H19.4C19.4,21.5,32.3,8.6,48.3,8.6C48.3,8.6,48.3,8.6,48.3,8.6z"/>
		<path class="st3" d="M48.6,8.6v28.9H19.7C19.6,21.5,32.6,8.6,48.6,8.6C48.5,8.6,48.5,8.6,48.6,8.6z"/>
		<path class="st3" d="M48.8,8.6v28.9H19.9C19.9,21.5,32.8,8.6,48.8,8.6z"/>
		<path class="st3" d="M49,8.6v28.9H20.1C20.1,21.5,33.1,8.6,49,8.6C49,8.6,49,8.6,49,8.6z"/>
		<path class="st3" d="M49.3,8.6v28.9H20.4C20.4,21.5,33.3,8.6,49.3,8.6C49.3,8.6,49.3,8.6,49.3,8.6z"/>
		<path class="st2" d="M49.3,8.6v28.9H20.4C20.4,21.5,33.3,8.6,49.3,8.6C49.3,8.6,49.3,8.6,49.3,8.6z"/>
		<path class="st4" d="M61.8,58.7c-11.7,10.8-30,10.1-40.8-1.6c-5-5.4-7.7-12.4-7.7-19.7h28.9L61.8,58.7z"/>
		<path class="st4" d="M62,58.7c-11.7,10.8-30,10.1-40.8-1.6c-5-5.4-7.7-12.4-7.7-19.7h28.9L62,58.7z"/>
		<path class="st4" d="M62.2,58.7c-11.7,10.8-30,10.1-40.8-1.6c-5-5.4-7.7-12.4-7.7-19.7h28.9L62.2,58.7z"/>
		<path class="st4" d="M62.5,58.7c-11.7,10.8-30,10.1-40.8-1.6c-5-5.4-7.7-12.4-7.7-19.7h28.9L62.5,58.7z"/>
		<path class="st4" d="M62.7,58.7c-11.7,10.8-30,10.1-40.8-1.6c-5-5.4-7.7-12.4-7.7-19.7h28.9L62.7,58.7z"/>
		<path class="st4" d="M63,58.7c-11.7,10.8-30,10.1-40.8-1.6c-5-5.4-7.7-12.4-7.7-19.7h28.9L63,58.7z"/>
		<path class="st4" d="M63.2,58.7c-11.7,10.8-30,10.1-40.8-1.6c-5-5.4-7.7-12.4-7.7-19.7h28.9L63.2,58.7z"/>
		<path class="st4" d="M63.4,58.7c-11.7,10.8-30,10.1-40.8-1.6c-5-5.4-7.7-12.4-7.7-19.7h28.9L63.4,58.7z"/>
		<path class="st4" d="M63.6,58.7c-11.7,10.8-30,10.1-40.8-1.6c-5-5.4-7.7-12.4-7.7-19.7H44L63.6,58.7z"/>
		<path class="st4" d="M63.9,58.7c-11.7,10.8-30,10.1-40.8-1.6c-5-5.4-7.7-12.4-7.7-19.7h28.9L63.9,58.7z"/>
		<path class="st4" d="M64.1,58.7c-11.7,10.8-30,10.1-40.8-1.6c-5-5.4-7.7-12.4-7.7-19.7h28.9L64.1,58.7z"/>
		<path class="st4" d="M64.3,58.7c-11.7,10.8-30,10.1-40.8-1.6c-5-5.4-7.7-12.4-7.7-19.7h28.9L64.3,58.7z"/>
		<path class="st4" d="M64.6,58.7c-11.7,10.8-30,10.1-40.8-1.6c-5-5.4-7.7-12.4-7.7-19.7H45L64.6,58.7z"/>
		<path class="st4" d="M64.8,58.7c-11.7,10.8-30,10.1-40.8-1.6c-5-5.4-7.7-12.4-7.7-19.7h28.9L64.8,58.7z"/>
		<path class="st4" d="M65.1,58.7c-11.7,10.8-30,10.1-40.8-1.6c-5-5.4-7.7-12.4-7.7-19.7h28.9L65.1,58.7z"/>
		<path class="st4" d="M65.3,58.7c-11.7,10.8-30,10.1-40.8-1.6c-5-5.4-7.7-12.4-7.7-19.7h28.9L65.3,58.7z"/>
		<path class="st4" d="M65.5,58.7c-11.7,10.8-30,10.1-40.8-1.6c-5-5.4-7.7-12.4-7.7-19.7h28.9L65.5,58.7z"/>
		<path class="st4" d="M65.8,58.7c-11.7,10.8-30,10.1-40.8-1.6c-5-5.4-7.7-12.4-7.7-19.7h28.9L65.8,58.7z"/>
		<path class="st4" d="M66,58.7c-11.7,10.8-30,10.1-40.8-1.6c-5-5.4-7.7-12.4-7.7-19.7h28.9L66,58.7z"/>
		<path class="st4" d="M66.2,58.7c-11.7,10.8-30,10.1-40.8-1.6c-5-5.4-7.7-12.4-7.7-19.7h28.9L66.2,58.7z"/>
		<path class="st4" d="M66.5,58.7c-11.7,10.8-30,10.1-40.8-1.6c-5-5.4-7.7-12.4-7.7-19.7h28.9L66.5,58.7z"/>
		<path class="st4" d="M66.7,58.7c-11.7,10.8-30,10.1-40.8-1.6c-5-5.4-7.7-12.4-7.7-19.7h28.9L66.7,58.7z"/>
		<path class="st4" d="M67,58.7c-11.7,10.8-30,10.1-40.8-1.6c-5-5.4-7.7-12.4-7.7-19.7h28.9L67,58.7z"/>
		<path class="st4" d="M67.2,58.7c-11.7,10.8-30,10.1-40.8-1.6c-5-5.4-7.7-12.4-7.7-19.7h28.9L67.2,58.7z"/>
		<path class="st4" d="M67.4,58.7c-11.7,10.8-30,10.1-40.8-1.6c-5-5.4-7.7-12.4-7.7-19.7h28.9L67.4,58.7z"/>
		<path class="st4" d="M67.7,58.7c-11.7,10.8-30,10.1-40.8-1.6c-5-5.4-7.7-12.4-7.7-19.7h28.9L67.7,58.7z"/>
		<path class="st4" d="M67.9,58.7c-11.7,10.8-30,10.1-40.8-1.6c-5-5.4-7.7-12.4-7.7-19.7h28.9L67.9,58.7z"/>
		<path class="st4" d="M68.1,58.7c-11.7,10.8-30,10.1-40.8-1.6c-5-5.4-7.7-12.4-7.7-19.7h28.9L68.1,58.7z"/>
		<path class="st4" d="M68.4,58.7c-11.7,10.8-30,10.1-40.8-1.6c-5-5.4-7.7-12.4-7.7-19.7h28.9L68.4,58.7z"/>
		<path class="st4" d="M68.6,58.7c-11.7,10.8-30,10.1-40.8-1.6c-5-5.4-7.7-12.4-7.7-19.7H49L68.6,58.7z"/>
		<path class="st4" d="M68.9,58.7c-11.7,10.8-30,10.1-40.8-1.6c-5-5.4-7.7-12.4-7.7-19.7h28.9L68.9,58.7z"/>
		<path class="st5" d="M68.9,58.7c-11.7,10.8-30,10.1-40.8-1.6c-5-5.4-7.7-12.4-7.7-19.7h28.9L68.9,58.7z"/>
		<path class="st6" d="M78.2,37.5c0,8.1-3.4,15.8-9.3,21.3L49.3,37.5V8.6C65.2,8.6,78.2,21.5,78.2,37.5
			C78.2,37.5,78.2,37.5,78.2,37.5z"/>
		<rect x="27.4" y="93.4" class="st7" width="29.6" height="6.6"/>
		<rect x="27.6" y="93.4" class="st7" width="29.6" height="6.6"/>
		<rect x="27.9" y="93.4" class="st7" width="29.6" height="6.6"/>
		<rect x="28.1" y="93.4" class="st7" width="29.6" height="6.6"/>
		<rect x="28.3" y="93.4" class="st7" width="29.6" height="6.6"/>
		<rect x="28.6" y="93.4" class="st7" width="29.6" height="6.6"/>
		<rect x="28.8" y="93.4" class="st7" width="29.6" height="6.6"/>
		<rect x="29" y="93.4" class="st7" width="29.6" height="6.6"/>
		<rect x="29.3" y="93.4" class="st7" width="29.6" height="6.6"/>
		<rect x="29.5" y="93.4" class="st7" width="29.6" height="6.6"/>
		<rect x="29.8" y="93.4" class="st7" width="29.6" height="6.6"/>
		<rect x="30" y="93.4" class="st7" width="29.6" height="6.6"/>
		<rect x="30.2" y="93.4" class="st7" width="29.6" height="6.6"/>
		<rect x="30.5" y="93.4" class="st7" width="29.6" height="6.6"/>
		<rect x="30.7" y="93.4" class="st7" width="29.6" height="6.6"/>
		<rect x="30.9" y="93.4" class="st7" width="29.6" height="6.6"/>
		<rect x="31.2" y="93.4" class="st7" width="29.6" height="6.6"/>
		<rect x="31.4" y="93.4" class="st7" width="29.6" height="6.6"/>
		<rect x="31.7" y="93.4" class="st7" width="29.6" height="6.6"/>
		<rect x="31.9" y="93.4" class="st7" width="29.6" height="6.6"/>
		<rect x="32.1" y="93.4" class="st7" width="29.6" height="6.6"/>
		<rect x="32.4" y="93.4" class="st7" width="29.6" height="6.6"/>
		<rect x="32.6" y="93.4" class="st7" width="29.6" height="6.6"/>
		<rect x="32.8" y="93.4" class="st7" width="29.6" height="6.6"/>
		<rect x="33.1" y="93.4" class="st7" width="29.6" height="6.6"/>
		<rect x="33.3" y="93.4" class="st7" width="29.6" height="6.6"/>
		<rect x="33.5" y="93.4" class="st7" width="29.6" height="6.6"/>
		<rect x="33.8" y="93.4" class="st7" width="29.6" height="6.6"/>
		<rect x="34" y="93.4" class="st7" width="29.6" height="6.6"/>
		<rect x="34.3" y="93.4" class="st7" width="29.6" height="6.6"/>
		<rect x="34.5" y="93.4" class="st7" width="29.6" height="6.6"/>
		<rect x="34.5" y="93.4" class="st8" width="29.6" height="6.6"/>
	</g>
</g>
</svg>
