<svg xmlns="http://www.w3.org/2000/svg" viewBox="0 0 118.2 83.46"><defs><style>.cls-1{fill:#aa3d1b;}.cls-2{fill:#f2794a;}.cls-3{fill:#7a0006;}.cls-4{fill:#db5020;}.cls-5{fill:#8c541b;}.cls-6{fill:#fc9775;}.cls-7{fill:#fff;opacity:0.32;}</style></defs><g id="Layer_2" data-name="Layer 2"><g id="Layer_1-2" data-name="Layer 1"><polygon class="cls-1" points="53.1 83.46 79.69 41.82 106.2 83.46 53.1 83.46"/><polygon class="cls-1" points="53.5 83.46 80.09 41.82 106.6 83.46 53.5 83.46"/><polygon class="cls-1" points="53.9 83.46 80.49 41.82 107 83.46 53.9 83.46"/><polygon class="cls-1" points="54.3 83.46 80.89 41.82 107.4 83.46 54.3 83.46"/><polygon class="cls-1" points="54.7 83.46 81.29 41.82 107.8 83.46 54.7 83.46"/><polygon class="cls-1" points="55.1 83.46 81.69 41.82 108.2 83.46 55.1 83.46"/><polygon class="cls-1" points="55.5 83.46 82.09 41.82 108.6 83.46 55.5 83.46"/><polygon class="cls-1" points="55.9 83.46 82.49 41.82 109 83.46 55.9 83.46"/><polygon class="cls-1" points="56.3 83.46 82.89 41.82 109.4 83.46 56.3 83.46"/><polygon class="cls-1" points="56.7 83.46 83.29 41.82 109.8 83.46 56.7 83.46"/><polygon class="cls-1" points="57.1 83.46 83.69 41.82 110.2 83.46 57.1 83.46"/><polygon class="cls-1" points="57.5 83.46 84.09 41.82 110.6 83.46 57.5 83.46"/><polygon class="cls-1" points="57.9 83.46 84.49 41.82 111 83.46 57.9 83.46"/><polygon class="cls-1" points="58.3 83.46 84.89 41.82 111.4 83.46 58.3 83.46"/><polygon class="cls-1" points="58.7 83.46 85.29 41.82 111.8 83.46 58.7 83.46"/><polygon class="cls-1" points="59.1 83.46 85.69 41.82 112.2 83.46 59.1 83.46"/><polygon class="cls-1" points="59.5 83.46 86.09 41.82 112.6 83.46 59.5 83.46"/><polygon class="cls-1" points="59.9 83.46 86.49 41.82 113 83.46 59.9 83.46"/><polygon class="cls-1" points="60.3 83.46 86.89 41.82 113.4 83.46 60.3 83.46"/><polygon class="cls-1" points="60.7 83.46 87.29 41.82 113.8 83.46 60.7 83.46"/><polygon class="cls-1" points="61.1 83.46 87.69 41.82 114.2 83.46 61.1 83.46"/><polygon class="cls-1" points="61.5 83.46 88.09 41.82 114.6 83.46 61.5 83.46"/><polygon class="cls-1" points="61.9 83.46 88.49 41.82 115 83.46 61.9 83.46"/><polygon class="cls-1" points="62.3 83.46 88.89 41.82 115.4 83.46 62.3 83.46"/><polygon class="cls-1" points="62.7 83.46 89.29 41.82 115.8 83.46 62.7 83.46"/><polygon class="cls-1" points="63.1 83.46 89.69 41.82 116.2 83.46 63.1 83.46"/><polygon class="cls-1" points="63.5 83.46 90.09 41.82 116.6 83.46 63.5 83.46"/><polygon class="cls-1" points="63.9 83.46 90.49 41.82 117 83.46 63.9 83.46"/><polygon class="cls-1" points="64.3 83.46 90.89 41.82 117.4 83.46 64.3 83.46"/><polygon class="cls-1" points="64.7 83.46 91.29 41.82 117.8 83.46 64.7 83.46"/><polygon class="cls-1" points="65.1 83.46 91.69 41.82 118.2 83.46 65.1 83.46"/><polygon class="cls-2" points="65.1 83.46 91.69 41.82 118.2 83.46 65.1 83.46"/><polygon class="cls-3" points="0 83.46 26.59 41.82 53.1 83.46 0 83.46"/><polygon class="cls-3" points="0.4 83.46 26.99 41.82 53.5 83.46 0.4 83.46"/><polygon class="cls-3" points="0.8 83.46 27.39 41.82 53.9 83.46 0.8 83.46"/><polygon class="cls-3" points="1.2 83.46 27.79 41.82 54.3 83.46 1.2 83.46"/><polygon class="cls-3" points="1.6 83.46 28.19 41.82 54.7 83.46 1.6 83.46"/><polygon class="cls-3" points="2 83.46 28.59 41.82 55.1 83.46 2 83.46"/><polygon class="cls-3" points="2.4 83.46 28.99 41.82 55.5 83.46 2.4 83.46"/><polygon class="cls-3" points="2.8 83.46 29.39 41.82 55.9 83.46 2.8 83.46"/><polygon class="cls-3" points="3.2 83.46 29.79 41.82 56.3 83.46 3.2 83.46"/><polygon class="cls-3" points="3.6 83.46 30.19 41.82 56.7 83.46 3.6 83.46"/><polygon class="cls-3" points="4 83.46 30.59 41.82 57.1 83.46 4 83.46"/><polygon class="cls-3" points="4.4 83.46 30.99 41.82 57.5 83.46 4.4 83.46"/><polygon class="cls-3" points="4.8 83.46 31.39 41.82 57.9 83.46 4.8 83.46"/><polygon class="cls-3" points="5.2 83.46 31.79 41.82 58.3 83.46 5.2 83.46"/><polygon class="cls-3" points="5.6 83.46 32.19 41.82 58.7 83.46 5.6 83.46"/><polygon class="cls-3" points="6 83.46 32.59 41.82 59.1 83.46 6 83.46"/><polygon class="cls-3" points="6.4 83.46 32.99 41.82 59.5 83.46 6.4 83.46"/><polygon class="cls-3" points="6.8 83.46 33.39 41.82 59.9 83.46 6.8 83.46"/><polygon class="cls-3" points="7.2 83.46 33.79 41.82 60.3 83.46 7.2 83.46"/><polygon class="cls-3" points="7.6 83.46 34.19 41.82 60.7 83.46 7.6 83.46"/><polygon class="cls-3" points="8 83.46 34.59 41.82 61.1 83.46 8 83.46"/><polygon class="cls-3" points="8.4 83.46 34.99 41.82 61.5 83.46 8.4 83.46"/><polygon class="cls-3" points="8.8 83.46 35.39 41.82 61.9 83.46 8.8 83.46"/><polygon class="cls-3" points="9.2 83.46 35.79 41.82 62.3 83.46 9.2 83.46"/><polygon class="cls-3" points="9.6 83.46 36.19 41.82 62.7 83.46 9.6 83.46"/><polygon class="cls-3" points="10 83.46 36.59 41.82 63.1 83.46 10 83.46"/><polygon class="cls-3" points="10.4 83.46 36.99 41.82 63.5 83.46 10.4 83.46"/><polygon class="cls-3" points="10.8 83.46 37.39 41.82 63.9 83.46 10.8 83.46"/><polygon class="cls-3" points="11.2 83.46 37.79 41.82 64.3 83.46 11.2 83.46"/><polygon class="cls-3" points="11.6 83.46 38.19 41.82 64.7 83.46 11.6 83.46"/><polygon class="cls-3" points="12 83.46 38.59 41.82 65.1 83.46 12 83.46"/><polygon class="cls-4" points="12 83.46 38.59 41.82 65.1 83.46 12 83.46"/><polygon class="cls-5" points="26.55 41.82 53.14 0.19 79.65 41.82 26.55 41.82"/><polygon class="cls-5" points="26.95 41.82 53.54 0.19 80.05 41.82 26.95 41.82"/><polygon class="cls-5" points="27.35 41.82 53.94 0.19 80.45 41.82 27.35 41.82"/><polygon class="cls-5" points="27.75 41.82 54.34 0.19 80.85 41.82 27.75 41.82"/><polygon class="cls-5" points="28.15 41.82 54.74 0.19 81.25 41.82 28.15 41.82"/><polygon class="cls-5" points="28.55 41.82 55.14 0.19 81.65 41.82 28.55 41.82"/><polygon class="cls-5" points="28.95 41.82 55.54 0.19 82.05 41.82 28.95 41.82"/><polygon class="cls-5" points="29.35 41.82 55.94 0.19 82.45 41.82 29.35 41.82"/><polygon class="cls-5" points="29.75 41.82 56.34 0.19 82.85 41.82 29.75 41.82"/><polygon class="cls-5" points="30.15 41.82 56.74 0.19 83.25 41.82 30.15 41.82"/><polygon class="cls-5" points="30.55 41.82 57.14 0.19 83.65 41.82 30.55 41.82"/><polygon class="cls-5" points="30.95 41.82 57.54 0.19 84.05 41.82 30.95 41.82"/><polygon class="cls-5" points="31.35 41.82 57.94 0.19 84.45 41.82 31.35 41.82"/><polygon class="cls-5" points="31.75 41.82 58.34 0.19 84.85 41.82 31.75 41.82"/><polygon class="cls-5" points="32.15 41.82 58.74 0.19 85.25 41.82 32.15 41.82"/><polygon class="cls-5" points="32.55 41.82 59.14 0.19 85.65 41.82 32.55 41.82"/><polygon class="cls-5" points="32.95 41.82 59.54 0.19 86.05 41.82 32.95 41.82"/><polygon class="cls-5" points="33.35 41.82 59.94 0.19 86.45 41.82 33.35 41.82"/><polygon class="cls-5" points="33.75 41.82 60.34 0.19 86.85 41.82 33.75 41.82"/><polygon class="cls-5" points="34.15 41.82 60.74 0.19 87.25 41.82 34.15 41.82"/><polygon class="cls-5" points="34.55 41.82 61.14 0.19 87.65 41.82 34.55 41.82"/><polygon class="cls-5" points="34.95 41.82 61.54 0.19 88.05 41.82 34.95 41.82"/><polygon class="cls-5" points="35.35 41.82 61.94 0.19 88.45 41.82 35.35 41.82"/><polygon class="cls-5" points="35.75 41.82 62.34 0.19 88.85 41.82 35.75 41.82"/><polygon class="cls-5" points="36.15 41.82 62.74 0.19 89.25 41.82 36.15 41.82"/><polygon class="cls-5" points="36.55 41.82 63.14 0.19 89.65 41.82 36.55 41.82"/><polygon class="cls-5" points="36.95 41.82 63.54 0.19 90.05 41.82 36.95 41.82"/><polygon class="cls-5" points="37.35 41.82 63.94 0.19 90.45 41.82 37.35 41.82"/><polygon class="cls-5" points="37.75 41.82 64.34 0.19 90.85 41.82 37.75 41.82"/><polygon class="cls-5" points="38.15 41.82 64.74 0.19 91.25 41.82 38.15 41.82"/><polygon class="cls-5" points="38.55 41.82 65.14 0.19 91.65 41.82 38.55 41.82"/><polygon class="cls-6" points="38.55 41.82 65.14 0.19 91.65 41.82 38.55 41.82"/><path class="cls-7" d="M71.35,83.46s31-1.69,34.23-6.85c4.34-7-12.2-31.87-12.2-31.87l24.82,38.5Z"/><path class="cls-7" d="M31,53.62S19.41,74,21.38,78.16c2.66,5.61,25.23,5.29,25.23,5.29H12Z"/><path class="cls-7" d="M78.78,21.85S70.1,6.85,64.85,7.39c-4.62.48-13.74,14.16-13.74,14.16L64.91,0Z"/></g></g></svg>