<?xml version="1.0" encoding="utf-8"?>
<!-- Generator: Adobe Illustrator 25.4.1, SVG Export Plug-In . SVG Version: 6.00 Build 0)  -->
<svg version="1.1" id="Layer_1" xmlns="http://www.w3.org/2000/svg" xmlns:xlink="http://www.w3.org/1999/xlink" x="0px" y="0px"
	 viewBox="0 0 118.2 83.5" style="enable-background:new 0 0 118.2 83.5;" xml:space="preserve">
<style type="text/css">
	.st0{fill:#AA3D1B;}
	.st1{fill:#F2794A;}
	.st2{fill:#7A0006;}
	.st3{fill:#DB5020;}
	.st4{fill:#8C541B;}
	.st5{fill:#FC9775;}
	.st6{opacity:0.32;fill:#FFFFFF;enable-background:new    ;}
	.st7{fill:#0E043A;}
	.st8{fill:#162C74;}
	.st9{fill:#1B0957;}
	.st10{fill:#64E2FF;}
	.st11{fill:#2819A2;}
</style>
<g id="Layer_2_00000123429030524341821830000001223146986745627267_">
	<g id="Layer_1-2">
		<polygon class="st0" points="53.1,83.5 79.7,41.8 106.2,83.5 		"/>
		<polygon class="st0" points="53.5,83.5 80.1,41.8 106.6,83.5 		"/>
		<polygon class="st0" points="53.9,83.5 80.5,41.8 107,83.5 		"/>
		<polygon class="st0" points="54.3,83.5 80.9,41.8 107.4,83.5 		"/>
		<polygon class="st0" points="54.7,83.5 81.3,41.8 107.8,83.5 		"/>
		<polygon class="st0" points="55.1,83.5 81.7,41.8 108.2,83.5 		"/>
		<polygon class="st0" points="55.5,83.5 82.1,41.8 108.6,83.5 		"/>
		<polygon class="st0" points="55.9,83.5 82.5,41.8 109,83.5 		"/>
		<polygon class="st0" points="56.3,83.5 82.9,41.8 109.4,83.5 		"/>
		<polygon class="st0" points="56.7,83.5 83.3,41.8 109.8,83.5 		"/>
		<polygon class="st0" points="57.1,83.5 83.7,41.8 110.2,83.5 		"/>
		<polygon class="st0" points="57.5,83.5 84.1,41.8 110.6,83.5 		"/>
		<polygon class="st0" points="57.9,83.5 84.5,41.8 111,83.5 		"/>
		<polygon class="st0" points="58.3,83.5 84.9,41.8 111.4,83.5 		"/>
		<polygon class="st0" points="58.7,83.5 85.3,41.8 111.8,83.5 		"/>
		<polygon class="st0" points="59.1,83.5 85.7,41.8 112.2,83.5 		"/>
		<polygon class="st0" points="59.5,83.5 86.1,41.8 112.6,83.5 		"/>
		<polygon class="st0" points="59.9,83.5 86.5,41.8 113,83.5 		"/>
		<polygon class="st0" points="60.3,83.5 86.9,41.8 113.4,83.5 		"/>
		<polygon class="st0" points="60.7,83.5 87.3,41.8 113.8,83.5 		"/>
		<polygon class="st0" points="61.1,83.5 87.7,41.8 114.2,83.5 		"/>
		<polygon class="st0" points="61.5,83.5 88.1,41.8 114.6,83.5 		"/>
		<polygon class="st0" points="61.9,83.5 88.5,41.8 115,83.5 		"/>
		<polygon class="st0" points="62.3,83.5 88.9,41.8 115.4,83.5 		"/>
		<polygon class="st0" points="62.7,83.5 89.3,41.8 115.8,83.5 		"/>
		<polygon class="st0" points="63.1,83.5 89.7,41.8 116.2,83.5 		"/>
		<polygon class="st0" points="63.5,83.5 90.1,41.8 116.6,83.5 		"/>
		<polygon class="st0" points="63.9,83.5 90.5,41.8 117,83.5 		"/>
		<polygon class="st0" points="64.3,83.5 90.9,41.8 117.4,83.5 		"/>
		<polygon class="st0" points="64.7,83.5 91.3,41.8 117.8,83.5 		"/>
		<polygon class="st0" points="65.1,83.5 91.7,41.8 118.2,83.5 		"/>
		<polygon class="st1" points="65.1,83.5 91.7,41.8 118.2,83.5 		"/>
		<polygon class="st2" points="0,83.5 26.6,41.8 53.1,83.5 		"/>
		<polygon class="st2" points="0.4,83.5 27,41.8 53.5,83.5 		"/>
		<polygon class="st2" points="0.8,83.5 27.4,41.8 53.9,83.5 		"/>
		<polygon class="st2" points="1.2,83.5 27.8,41.8 54.3,83.5 		"/>
		<polygon class="st2" points="1.6,83.5 28.2,41.8 54.7,83.5 		"/>
		<polygon class="st2" points="2,83.5 28.6,41.8 55.1,83.5 		"/>
		<polygon class="st2" points="2.4,83.5 29,41.8 55.5,83.5 		"/>
		<polygon class="st2" points="2.8,83.5 29.4,41.8 55.9,83.5 		"/>
		<polygon class="st2" points="3.2,83.5 29.8,41.8 56.3,83.5 		"/>
		<polygon class="st2" points="3.6,83.5 30.2,41.8 56.7,83.5 		"/>
		<polygon class="st2" points="4,83.5 30.6,41.8 57.1,83.5 		"/>
		<polygon class="st2" points="4.4,83.5 31,41.8 57.5,83.5 		"/>
		<polygon class="st2" points="4.8,83.5 31.4,41.8 57.9,83.5 		"/>
		<polygon class="st2" points="5.2,83.5 31.8,41.8 58.3,83.5 		"/>
		<polygon class="st2" points="5.6,83.5 32.2,41.8 58.7,83.5 		"/>
		<polygon class="st2" points="6,83.5 32.6,41.8 59.1,83.5 		"/>
		<polygon class="st2" points="6.4,83.5 33,41.8 59.5,83.5 		"/>
		<polygon class="st2" points="6.8,83.5 33.4,41.8 59.9,83.5 		"/>
		<polygon class="st2" points="7.2,83.5 33.8,41.8 60.3,83.5 		"/>
		<polygon class="st2" points="7.6,83.5 34.2,41.8 60.7,83.5 		"/>
		<polygon class="st2" points="8,83.5 34.6,41.8 61.1,83.5 		"/>
		<polygon class="st2" points="8.4,83.5 35,41.8 61.5,83.5 		"/>
		<polygon class="st2" points="8.8,83.5 35.4,41.8 61.9,83.5 		"/>
		<polygon class="st2" points="9.2,83.5 35.8,41.8 62.3,83.5 		"/>
		<polygon class="st2" points="9.6,83.5 36.2,41.8 62.7,83.5 		"/>
		<polygon class="st2" points="10,83.5 36.6,41.8 63.1,83.5 		"/>
		<polygon class="st2" points="10.4,83.5 37,41.8 63.5,83.5 		"/>
		<polygon class="st2" points="10.8,83.5 37.4,41.8 63.9,83.5 		"/>
		<polygon class="st2" points="11.2,83.5 37.8,41.8 64.3,83.5 		"/>
		<polygon class="st2" points="11.6,83.5 38.2,41.8 64.7,83.5 		"/>
		<polygon class="st2" points="12,83.5 38.6,41.8 65.1,83.5 		"/>
		<polygon class="st3" points="12,83.5 38.6,41.8 65.1,83.5 		"/>
		<polygon class="st4" points="26.5,41.8 53.1,0.2 79.7,41.8 		"/>
		<polygon class="st4" points="27,41.8 53.5,0.2 80.1,41.8 		"/>
		<polygon class="st4" points="27.4,41.8 53.9,0.2 80.4,41.8 		"/>
		<polygon class="st4" points="27.8,41.8 54.3,0.2 80.8,41.8 		"/>
		<polygon class="st4" points="28.1,41.8 54.7,0.2 81.2,41.8 		"/>
		<polygon class="st4" points="28.5,41.8 55.1,0.2 81.7,41.8 		"/>
		<polygon class="st4" points="29,41.8 55.5,0.2 82.1,41.8 		"/>
		<polygon class="st4" points="29.4,41.8 55.9,0.2 82.4,41.8 		"/>
		<polygon class="st4" points="29.8,41.8 56.3,0.2 82.8,41.8 		"/>
		<polygon class="st4" points="30.1,41.8 56.7,0.2 83.2,41.8 		"/>
		<polygon class="st4" points="30.5,41.8 57.1,0.2 83.7,41.8 		"/>
		<polygon class="st4" points="31,41.8 57.5,0.2 84.1,41.8 		"/>
		<polygon class="st4" points="31.4,41.8 57.9,0.2 84.4,41.8 		"/>
		<polygon class="st4" points="31.8,41.8 58.3,0.2 84.8,41.8 		"/>
		<polygon class="st4" points="32.2,41.8 58.7,0.2 85.2,41.8 		"/>
		<polygon class="st4" points="32.5,41.8 59.1,0.2 85.7,41.8 		"/>
		<polygon class="st4" points="33,41.8 59.5,0.2 86.1,41.8 		"/>
		<polygon class="st4" points="33.3,41.8 59.9,0.2 86.4,41.8 		"/>
		<polygon class="st4" points="33.8,41.8 60.3,0.2 86.8,41.8 		"/>
		<polygon class="st4" points="34.2,41.8 60.7,0.2 87.2,41.8 		"/>
		<polygon class="st4" points="34.5,41.8 61.1,0.2 87.7,41.8 		"/>
		<polygon class="st4" points="35,41.8 61.5,0.2 88.1,41.8 		"/>
		<polygon class="st4" points="35.3,41.8 61.9,0.2 88.4,41.8 		"/>
		<polygon class="st4" points="35.8,41.8 62.3,0.2 88.8,41.8 		"/>
		<polygon class="st4" points="36.2,41.8 62.7,0.2 89.2,41.8 		"/>
		<polygon class="st4" points="36.5,41.8 63.1,0.2 89.7,41.8 		"/>
		<polygon class="st4" points="37,41.8 63.5,0.2 90.1,41.8 		"/>
		<polygon class="st4" points="37.3,41.8 63.9,0.2 90.4,41.8 		"/>
		<polygon class="st4" points="37.8,41.8 64.3,0.2 90.8,41.8 		"/>
		<polygon class="st4" points="38.2,41.8 64.7,0.2 91.2,41.8 		"/>
		<polygon class="st4" points="38.5,41.8 65.1,0.2 91.7,41.8 		"/>
		<polygon class="st5" points="38.5,41.8 65.1,0.2 91.7,41.8 		"/>
		<path class="st6" d="M71.3,83.5c0,0,31-1.7,34.2-6.8c4.3-7-12.2-31.9-12.2-31.9l24.8,38.5L71.3,83.5z"/>
		<path class="st6" d="M31,53.6c0,0-11.6,20.4-9.6,24.5c2.7,5.6,25.2,5.3,25.2,5.3H12L31,53.6z"/>
		<path class="st6" d="M78.8,21.9c0,0-8.7-15-13.9-14.5c-4.6,0.5-13.7,14.2-13.7,14.2L64.9,0L78.8,21.9z"/>
	</g>
</g>
<image style="overflow:visible;" width="540" height="471" xlink:href="A89C3BF3.jpg"  transform="matrix(0.2187 -4.377840e-02 4.377840e-02 0.2187 -297.2885 -45.9249)">
</image>
<polygon class="st7" points="-78.5,174 -117.5,149.6 -78.5,127.2 -39.5,149.6 "/>
<polygon class="st8" points="-39.5,149.6 -78.5,127.2 -78.5,83.5 -39.5,101.3 "/>
<polygon class="st9" points="-117.5,149.6 -78.5,127.2 -78.5,83.5 -117.5,101.3 "/>
<polygon class="st7" points="-224,-69.6 -263,-94 -224,-116.4 -185.1,-94 "/>
<polygon class="st8" points="-185.1,-94 -224,-116.4 -224,-160.2 -185.1,-142.3 "/>
<polygon class="st9" points="-263,-94 -224,-116.4 -224,-160.2 -263,-142.3 "/>
<image style="overflow:visible;" width="99" height="96" xlink:href="A89C3BF0.jpg"  transform="matrix(1 0 0 1 1.61 -130.9452)">
</image>
<path class="st10" d="M-59.5-34.9c0,0.7,0,1.4-0.1,2.1c-0.2,2-0.7,3.8-1.5,5.6c-2.9,6.7-9.6,11.4-17.4,11.4c-3.4,0-6.7-0.9-9.4-2.5
	c-1.7-1-3.2-2.2-4.5-3.6c-3.2-3.4-5.1-8-5.1-13c0-0.7,0-1.4,0.1-2.1c0.2-2,0.7-3.8,1.5-5.6C-93-49.3-86.3-54-78.5-54
	c3.4,0,6.7,0.9,9.4,2.5c1.7,1,3.2,2.2,4.5,3.6C-61.4-44.5-59.5-39.9-59.5-34.9z"/>
<path class="st11" d="M-37.2-48.6c-1.9-5.6-15.1-6.5-31.8-2.9c1.7,1,3.2,2.2,4.5,3.6c8.3-0.9,14.3,0.1,15.4,3.3
	c1,3.1-3.2,7.6-10.4,11.8c-4.4,2.5-9.8,5-15.9,7c-6.1,2-11.9,3.3-16.9,3.9c-8.3,0.9-14.3-0.1-15.4-3.3c-1-3.1,3.2-7.6,10.4-11.8
	c0.2-2,0.7-3.8,1.5-5.6c-15.6,7.1-25.7,15.7-23.8,21.3c1.9,5.6,15.1,6.5,31.8,2.9c4.4-0.9,9-2.2,13.7-3.7s9.1-3.3,13.2-5.1
	C-45.5-34.3-35.4-43-37.2-48.6z"/>
<path class="st10" d="M-127.8,53.6c0,0.7,0,1.4-0.1,2.1c-0.2,2-0.7,3.8-1.5,5.6c-2.9,6.7-9.6,11.4-17.4,11.4c-3.4,0-6.7-0.9-9.4-2.5
	c-1.7-1-3.2-2.2-4.5-3.6c-3.2-3.4-5.1-8-5.1-13c0-0.7,0-1.4,0.1-2.1c0.2-2,0.7-3.8,1.5-5.6c2.9-6.7,9.6-11.4,17.4-11.4
	c3.4,0,6.7,0.9,9.4,2.5c1.7,1,3.2,2.2,4.5,3.6C-129.7,44.1-127.8,48.6-127.8,53.6z"/>
<image style="overflow:visible;" width="151" height="70" xlink:href="A89C3BF2.jpg"  transform="matrix(1 0 0 1 -169.1956 -172.614)">
</image>
<image style="overflow:visible;" width="156" height="146" xlink:href="A89C3BEE.jpg"  transform="matrix(1 0 0 1 -162.7283 -105.4674)">
</image>
</svg>
