<svg xmlns="http://www.w3.org/2000/svg" viewBox="0 0 169.11 155.98"><defs><style>.cls-1{fill:#937403;}.cls-2{fill:#ffc91d;}.cls-3{fill:#d8a504;}.cls-4{fill:#6e8325;}.cls-5{fill:#e0ff25;}.cls-6{fill:#b2d525;}.cls-10,.cls-7,.cls-9{fill:#fff;}.cls-7{opacity:0.28;}.cls-8{fill:#313807;}.cls-10{stroke:#313807;stroke-linecap:round;stroke-linejoin:round;stroke-width:2.93px;}</style></defs><g id="Layer_2" data-name="Layer 2"><g id="Layer_1-2" data-name="Layer 1"><rect class="cls-1" x="1.31" y="58.27" width="152.92" height="39.43" rx="4.68" transform="translate(-9.09 10.27) rotate(-7.14)"/><rect class="cls-1" x="1.76" y="58.27" width="152.92" height="39.43" rx="4.68" transform="translate(-9.09 10.33) rotate(-7.14)"/><rect class="cls-1" x="2.22" y="58.27" width="152.92" height="39.43" rx="4.68" transform="translate(-9.08 10.38) rotate(-7.14)"/><rect class="cls-1" x="2.67" y="58.27" width="152.92" height="39.43" rx="4.68" transform="translate(-9.08 10.44) rotate(-7.14)"/><rect class="cls-1" x="3.12" y="58.27" width="152.92" height="39.43" rx="4.68" transform="translate(-9.08 10.49) rotate(-7.14)"/><rect class="cls-1" x="3.57" y="58.27" width="152.92" height="39.43" rx="4.68" transform="translate(-9.07 10.55) rotate(-7.14)"/><rect class="cls-1" x="4.03" y="58.27" width="152.92" height="39.43" rx="4.68" transform="translate(-9.07 10.61) rotate(-7.14)"/><rect class="cls-1" x="4.48" y="58.27" width="152.92" height="39.43" rx="4.68" transform="translate(-9.06 10.66) rotate(-7.14)"/><rect class="cls-1" x="4.93" y="58.27" width="152.92" height="39.43" rx="4.68" transform="translate(-9.06 10.72) rotate(-7.14)"/><rect class="cls-1" x="5.38" y="58.27" width="152.92" height="39.43" rx="4.68" transform="translate(-9.06 10.78) rotate(-7.14)"/><rect class="cls-1" x="5.84" y="58.27" width="152.92" height="39.43" rx="4.68" transform="translate(-9.05 10.83) rotate(-7.14)"/><rect class="cls-1" x="6.29" y="58.27" width="152.92" height="39.43" rx="4.68" transform="translate(-9.05 10.89) rotate(-7.14)"/><rect class="cls-1" x="6.74" y="58.27" width="152.92" height="39.43" rx="4.68" transform="translate(-9.05 10.94) rotate(-7.14)"/><rect class="cls-1" x="7.19" y="58.27" width="152.92" height="39.43" rx="4.68" transform="translate(-9.04 11) rotate(-7.14)"/><rect class="cls-1" x="7.64" y="58.27" width="152.92" height="39.43" rx="4.68" transform="translate(-9.04 11.06) rotate(-7.14)"/><rect class="cls-1" x="8.1" y="58.27" width="152.92" height="39.43" rx="4.68" transform="translate(-9.04 11.11) rotate(-7.14)"/><rect class="cls-1" x="8.55" y="58.27" width="152.92" height="39.43" rx="4.68" transform="translate(-9.03 11.17) rotate(-7.14)"/><rect class="cls-1" x="9" y="58.27" width="152.92" height="39.43" rx="4.68" transform="translate(-9.03 11.23) rotate(-7.14)"/><rect class="cls-1" x="9.45" y="58.27" width="152.92" height="39.43" rx="4.68" transform="translate(-9.03 11.28) rotate(-7.14)"/><rect class="cls-1" x="9.91" y="58.27" width="152.92" height="39.43" rx="4.68" transform="translate(-9.02 11.34) rotate(-7.14)"/><rect class="cls-1" x="10.36" y="58.27" width="152.92" height="39.43" rx="4.68" transform="translate(-9.02 11.39) rotate(-7.14)"/><rect class="cls-1" x="10.81" y="58.27" width="152.92" height="39.43" rx="4.68" transform="translate(-9.02 11.45) rotate(-7.14)"/><rect class="cls-1" x="11.26" y="58.27" width="152.92" height="39.43" rx="4.68" transform="translate(-9.01 11.51) rotate(-7.14)"/><rect class="cls-1" x="11.72" y="58.27" width="152.92" height="39.43" rx="4.68" transform="translate(-9.01 11.56) rotate(-7.14)"/><rect class="cls-1" x="12.17" y="58.27" width="152.92" height="39.43" rx="4.68" transform="translate(-9.01 11.62) rotate(-7.14)"/><rect class="cls-1" x="12.62" y="58.27" width="152.92" height="39.43" rx="4.68" transform="translate(-9 11.67) rotate(-7.14)"/><rect class="cls-1" x="13.07" y="58.27" width="152.92" height="39.43" rx="4.68" transform="translate(-9 11.73) rotate(-7.14)"/><rect class="cls-1" x="13.52" y="58.27" width="152.92" height="39.43" rx="4.68" transform="translate(-8.99 11.79) rotate(-7.14)"/><rect class="cls-1" x="13.98" y="58.27" width="152.92" height="39.43" rx="4.68" transform="translate(-8.99 11.84) rotate(-7.14)"/><rect class="cls-1" x="14.43" y="58.27" width="152.92" height="39.43" rx="4.68" transform="translate(-8.99 11.9) rotate(-7.14)"/><rect class="cls-1" x="14.88" y="58.27" width="152.92" height="39.43" rx="4.68" transform="translate(-8.98 11.96) rotate(-7.14)"/><rect class="cls-2" x="14.88" y="58.27" width="152.92" height="39.43" rx="4.68" transform="translate(-8.98 11.96) rotate(-7.14)"/><rect class="cls-3" x="23.85" y="66.66" width="134.98" height="22.65" rx="2.12" transform="translate(-8.98 11.96) rotate(-7.14)"/><rect class="cls-4" x="1.31" width="152.92" height="39.43" rx="4.68"/><rect class="cls-4" x="1.76" width="152.92" height="39.43" rx="4.68"/><rect class="cls-4" x="2.22" width="152.92" height="39.43" rx="4.68"/><rect class="cls-4" x="2.67" width="152.92" height="39.43" rx="4.68"/><rect class="cls-4" x="3.12" width="152.92" height="39.43" rx="4.68"/><rect class="cls-4" x="3.57" width="152.92" height="39.43" rx="4.68"/><rect class="cls-4" x="4.03" width="152.92" height="39.43" rx="4.68"/><rect class="cls-4" x="4.48" width="152.92" height="39.43" rx="4.68"/><rect class="cls-4" x="4.93" width="152.92" height="39.43" rx="4.68"/><rect class="cls-4" x="5.38" width="152.92" height="39.43" rx="4.68"/><rect class="cls-4" x="5.84" width="152.92" height="39.43" rx="4.68"/><rect class="cls-4" x="6.29" width="152.92" height="39.43" rx="4.68"/><rect class="cls-4" x="6.74" width="152.92" height="39.43" rx="4.68"/><rect class="cls-4" x="7.19" width="152.92" height="39.43" rx="4.68"/><rect class="cls-4" x="7.64" width="152.92" height="39.43" rx="4.68"/><rect class="cls-4" x="8.1" width="152.92" height="39.43" rx="4.68"/><rect class="cls-4" x="8.55" width="152.92" height="39.43" rx="4.68"/><rect class="cls-4" x="9" width="152.92" height="39.43" rx="4.68"/><rect class="cls-4" x="9.45" width="152.92" height="39.43" rx="4.68"/><rect class="cls-4" x="9.91" width="152.92" height="39.43" rx="4.68"/><rect class="cls-4" x="10.36" width="152.92" height="39.43" rx="4.68"/><rect class="cls-4" x="10.81" width="152.92" height="39.43" rx="4.68"/><rect class="cls-4" x="11.26" width="152.92" height="39.43" rx="4.68"/><rect class="cls-4" x="11.72" width="152.92" height="39.43" rx="4.68"/><rect class="cls-4" x="12.17" width="152.92" height="39.43" rx="4.68"/><rect class="cls-4" x="12.62" width="152.92" height="39.43" rx="4.68"/><rect class="cls-4" x="13.07" width="152.92" height="39.43" rx="4.68"/><rect class="cls-4" x="13.52" width="152.92" height="39.43" rx="4.68"/><rect class="cls-4" x="13.98" width="152.92" height="39.43" rx="4.68"/><rect class="cls-4" x="14.43" width="152.92" height="39.43" rx="4.68"/><rect class="cls-4" x="14.88" width="152.92" height="39.43" rx="4.68"/><rect class="cls-5" x="14.88" width="152.92" height="39.43" rx="4.68"/><rect class="cls-6" x="23.85" y="8.39" width="134.98" height="22.65" rx="2.12"/><rect class="cls-4" x="1.31" y="116.55" width="152.92" height="39.43" rx="4.68"/><rect class="cls-4" x="1.76" y="116.55" width="152.92" height="39.43" rx="4.68"/><rect class="cls-4" x="2.22" y="116.55" width="152.92" height="39.43" rx="4.68"/><rect class="cls-4" x="2.67" y="116.55" width="152.92" height="39.43" rx="4.68"/><rect class="cls-4" x="3.12" y="116.55" width="152.92" height="39.43" rx="4.68"/><rect class="cls-4" x="3.57" y="116.55" width="152.92" height="39.43" rx="4.68"/><rect class="cls-4" x="4.03" y="116.55" width="152.92" height="39.43" rx="4.68"/><rect class="cls-4" x="4.48" y="116.55" width="152.92" height="39.43" rx="4.68"/><rect class="cls-4" x="4.93" y="116.55" width="152.92" height="39.43" rx="4.68"/><rect class="cls-4" x="5.38" y="116.55" width="152.92" height="39.43" rx="4.68"/><rect class="cls-4" x="5.84" y="116.55" width="152.92" height="39.43" rx="4.68"/><rect class="cls-4" x="6.29" y="116.55" width="152.92" height="39.43" rx="4.68"/><rect class="cls-4" x="6.74" y="116.55" width="152.92" height="39.43" rx="4.68"/><rect class="cls-4" x="7.19" y="116.55" width="152.92" height="39.43" rx="4.68"/><rect class="cls-4" x="7.64" y="116.55" width="152.92" height="39.43" rx="4.68"/><rect class="cls-4" x="8.1" y="116.55" width="152.92" height="39.43" rx="4.68"/><rect class="cls-4" x="8.55" y="116.55" width="152.92" height="39.43" rx="4.68"/><rect class="cls-4" x="9" y="116.55" width="152.92" height="39.43" rx="4.68"/><rect class="cls-4" x="9.45" y="116.55" width="152.92" height="39.43" rx="4.68"/><rect class="cls-4" x="9.91" y="116.55" width="152.92" height="39.43" rx="4.68"/><rect class="cls-4" x="10.36" y="116.55" width="152.92" height="39.43" rx="4.68"/><rect class="cls-4" x="10.81" y="116.55" width="152.92" height="39.43" rx="4.68"/><rect class="cls-4" x="11.26" y="116.55" width="152.92" height="39.43" rx="4.68"/><rect class="cls-4" x="11.72" y="116.55" width="152.92" height="39.43" rx="4.68"/><rect class="cls-4" x="12.17" y="116.55" width="152.92" height="39.43" rx="4.68"/><rect class="cls-4" x="12.62" y="116.55" width="152.92" height="39.43" rx="4.68"/><rect class="cls-4" x="13.07" y="116.55" width="152.92" height="39.43" rx="4.68"/><rect class="cls-4" x="13.52" y="116.55" width="152.92" height="39.43" rx="4.68"/><rect class="cls-4" x="13.98" y="116.55" width="152.92" height="39.43" rx="4.68"/><rect class="cls-4" x="14.43" y="116.55" width="152.92" height="39.43" rx="4.68"/><rect class="cls-4" x="14.88" y="116.55" width="152.92" height="39.43" rx="4.68"/><rect class="cls-5" x="14.88" y="116.55" width="152.92" height="39.43" rx="4.68"/><rect class="cls-6" x="23.85" y="124.94" width="134.98" height="22.65" rx="2.12"/><polygon class="cls-7" points="107.14 155.98 25.94 155.98 47.66 116.55 128.86 116.55 107.14 155.98"/><polygon class="cls-7" points="107.14 39.43 25.94 39.43 47.66 0 128.86 0 107.14 39.43"/><polygon class="cls-7" points="109.95 95.53 22.74 106.45 46.25 63.77 133.46 52.84 109.95 95.53"/><path class="cls-8" d="M107.85,82a1.82,1.82,0,0,1,2,1.59l1.85,14.75a1.84,1.84,0,0,0,2.05,1.6l31-3.89a1.83,1.83,0,0,1,2,1.59l4.57,36.53a1.82,1.82,0,0,1-1.59,2l-43.67,5.47a1.82,1.82,0,0,1-1.35-.37l-18.6-14.46a1.82,1.82,0,0,1-.32-2.57L90.81,118a1.86,1.86,0,0,1,1.22-.69,1.83,1.83,0,0,1,1.36.37l6.51,5.06a1.79,1.79,0,0,0,1.34.38,1.83,1.83,0,0,0,1.6-2L98.33,85a1.84,1.84,0,0,1,1.59-2l7.93-1m-.37-2.92-7.92,1a4.76,4.76,0,0,0-4.14,5.32l4.18,33.37-4.41-3.43a4.71,4.71,0,0,0-3.52-1,4.76,4.76,0,0,0-3.17,1.8l-4.9,6.31a4.76,4.76,0,0,0,.84,6.69L103,143.61a4.72,4.72,0,0,0,3.52,1l43.67-5.46a4.78,4.78,0,0,0,4.13-5.33l-4.57-36.53a4.77,4.77,0,0,0-5.32-4.13l-29.95,3.75L112.8,83.2a4.77,4.77,0,0,0-5.32-4.14Z"/><path class="cls-8" d="M108.16,82a1.83,1.83,0,0,1,2,1.59l1.85,14.75a1.84,1.84,0,0,0,2,1.6l31-3.89a1.83,1.83,0,0,1,2,1.59l4.57,36.53a1.83,1.83,0,0,1-1.59,2l-43.67,5.47a1.82,1.82,0,0,1-1.35-.37L86.55,126.83a1.83,1.83,0,0,1-.32-2.57l4.9-6.31a1.84,1.84,0,0,1,1.22-.69,1.81,1.81,0,0,1,1.35.37l6.51,5.06a1.81,1.81,0,0,0,1.34.38,1.84,1.84,0,0,0,1.61-2L98.65,85a1.83,1.83,0,0,1,1.59-2l7.92-1m-.36-2.92-7.92,1a4.76,4.76,0,0,0-4.14,5.32l4.18,33.37-4.41-3.43a4.71,4.71,0,0,0-3.52-1,4.78,4.78,0,0,0-3.18,1.8l-4.89,6.31A4.67,4.67,0,0,0,83,126a4.78,4.78,0,0,0,1.8,3.18l18.6,14.46a4.74,4.74,0,0,0,3.52,1l43.67-5.46a4.78,4.78,0,0,0,4.14-5.33l-4.57-36.53a4.78,4.78,0,0,0-5.33-4.13l-29.95,3.75L113.12,83.2a4.78,4.78,0,0,0-5.32-4.14Z"/><path class="cls-8" d="M108.48,82a1.83,1.83,0,0,1,2,1.59l1.84,14.75a1.85,1.85,0,0,0,2,1.6l31-3.89a1.82,1.82,0,0,1,2,1.59l4.58,36.53a1.83,1.83,0,0,1-1.6,2l-43.66,5.47a1.84,1.84,0,0,1-1.36-.37l-18.6-14.46a1.83,1.83,0,0,1-.32-2.57l4.9-6.31a1.84,1.84,0,0,1,2.57-.32l6.51,5.06a1.8,1.8,0,0,0,1.34.38,1.83,1.83,0,0,0,1.6-2L99,85a1.82,1.82,0,0,1,1.59-2l7.92-1m-.37-2.92-7.92,1a4.77,4.77,0,0,0-4.14,5.32l4.18,33.37-4.41-3.43a4.68,4.68,0,0,0-3.52-1,4.76,4.76,0,0,0-3.17,1.8l-4.9,6.31a4.78,4.78,0,0,0,.84,6.69l18.6,14.46a4.74,4.74,0,0,0,3.52,1l43.67-5.46a4.79,4.79,0,0,0,4.14-5.33l-4.58-36.53a4.76,4.76,0,0,0-5.32-4.13l-29.95,3.75L113.44,83.2a4.79,4.79,0,0,0-5.33-4.14Z"/><path class="cls-8" d="M108.79,82a1.82,1.82,0,0,1,2,1.59l1.85,14.75a1.84,1.84,0,0,0,2,1.6l31-3.89a1.83,1.83,0,0,1,2.05,1.59l4.57,36.53a1.82,1.82,0,0,1-1.59,2l-43.67,5.47a1.82,1.82,0,0,1-1.35-.37l-18.6-14.46a1.82,1.82,0,0,1-.32-2.57L91.76,118a1.86,1.86,0,0,1,1.22-.69,1.83,1.83,0,0,1,1.36.37l6.51,5.06a1.79,1.79,0,0,0,1.34.38,1.83,1.83,0,0,0,1.6-2L99.28,85a1.84,1.84,0,0,1,1.59-2l7.92-1m-.36-2.92-7.92,1a4.76,4.76,0,0,0-4.14,5.32l4.18,33.37-4.41-3.43a4.71,4.71,0,0,0-3.52-1,4.76,4.76,0,0,0-3.17,1.8l-4.9,6.31a4.76,4.76,0,0,0,.84,6.69L104,143.61a4.72,4.72,0,0,0,3.52,1l43.67-5.46a4.78,4.78,0,0,0,4.13-5.33l-4.57-36.53a4.77,4.77,0,0,0-5.32-4.13l-29.95,3.75L113.75,83.2a4.77,4.77,0,0,0-5.32-4.14Z"/><path class="cls-8" d="M109.11,82a1.83,1.83,0,0,1,2,1.59L113,98.32a1.84,1.84,0,0,0,2,1.6l31-3.89a1.83,1.83,0,0,1,2.05,1.59l4.57,36.53a1.83,1.83,0,0,1-1.59,2l-43.67,5.47a1.82,1.82,0,0,1-1.35-.37L87.5,126.83a1.83,1.83,0,0,1-.32-2.57l4.9-6.31a1.84,1.84,0,0,1,1.22-.69,1.81,1.81,0,0,1,1.35.37l6.51,5.06a1.81,1.81,0,0,0,1.34.38,1.84,1.84,0,0,0,1.61-2L99.6,85a1.83,1.83,0,0,1,1.59-2l7.92-1m-.36-2.92-7.92,1a4.76,4.76,0,0,0-4.14,5.32l4.18,33.37-4.41-3.43a4.71,4.71,0,0,0-3.52-1,4.78,4.78,0,0,0-3.18,1.8l-4.89,6.31a4.67,4.67,0,0,0-1,3.51,4.78,4.78,0,0,0,1.8,3.18l18.6,14.46a4.74,4.74,0,0,0,3.52,1l43.67-5.46a4.78,4.78,0,0,0,4.14-5.33l-4.57-36.53a4.78,4.78,0,0,0-5.33-4.13l-29.95,3.75L114.07,83.2a4.78,4.78,0,0,0-5.32-4.14Z"/><path class="cls-8" d="M109.43,82a1.83,1.83,0,0,1,2,1.59l1.84,14.75a1.85,1.85,0,0,0,2.05,1.6l31-3.89a1.82,1.82,0,0,1,2.05,1.59L153,134.15a1.83,1.83,0,0,1-1.6,2l-43.66,5.47a1.84,1.84,0,0,1-1.36-.37l-18.6-14.46a1.83,1.83,0,0,1-.32-2.57L92.4,118a1.84,1.84,0,0,1,2.57-.32l6.51,5.06a1.8,1.8,0,0,0,1.34.38,1.83,1.83,0,0,0,1.6-2l-4.5-36a1.82,1.82,0,0,1,1.59-2l7.92-1m-.37-2.92-7.92,1A4.77,4.77,0,0,0,97,85.38l4.18,33.37-4.41-3.43a4.68,4.68,0,0,0-3.52-1,4.76,4.76,0,0,0-3.17,1.8l-4.9,6.31a4.78,4.78,0,0,0,.84,6.69l18.6,14.46a4.74,4.74,0,0,0,3.52,1l43.67-5.46a4.79,4.79,0,0,0,4.14-5.33l-4.58-36.53a4.76,4.76,0,0,0-5.32-4.13l-30,3.75L114.39,83.2a4.79,4.79,0,0,0-5.33-4.14Z"/><path class="cls-8" d="M109.74,82a1.82,1.82,0,0,1,2.05,1.59l1.85,14.75a1.84,1.84,0,0,0,2,1.6l31-3.89a1.83,1.83,0,0,1,2.05,1.59l4.57,36.53a1.82,1.82,0,0,1-1.59,2l-43.67,5.47a1.82,1.82,0,0,1-1.35-.37l-18.6-14.46a1.82,1.82,0,0,1-.32-2.57L92.71,118a1.86,1.86,0,0,1,1.22-.69,1.83,1.83,0,0,1,1.36.37l6.51,5.06a1.79,1.79,0,0,0,1.34.38,1.83,1.83,0,0,0,1.6-2l-4.51-36a1.84,1.84,0,0,1,1.59-2l7.92-1m-.36-2.92-7.92,1a4.76,4.76,0,0,0-4.14,5.32l4.18,33.37-4.41-3.43a4.71,4.71,0,0,0-3.52-1,4.76,4.76,0,0,0-3.17,1.8l-4.9,6.31a4.76,4.76,0,0,0,.84,6.69l18.6,14.46a4.72,4.72,0,0,0,3.52,1l43.67-5.46a4.78,4.78,0,0,0,4.13-5.33l-4.57-36.53a4.77,4.77,0,0,0-5.32-4.13l-29.95,3.75L114.7,83.2a4.77,4.77,0,0,0-5.32-4.14Z"/><path class="cls-8" d="M110.06,82a1.83,1.83,0,0,1,2,1.59L114,98.32a1.83,1.83,0,0,0,2,1.6L147.05,96a1.82,1.82,0,0,1,2,1.59l4.58,36.53a1.83,1.83,0,0,1-1.59,2l-43.67,5.47a1.82,1.82,0,0,1-1.35-.37L88.45,126.83a1.83,1.83,0,0,1-.32-2.57L93,118a1.84,1.84,0,0,1,1.22-.69,1.81,1.81,0,0,1,1.35.37l6.51,5.06a1.81,1.81,0,0,0,1.34.38,1.84,1.84,0,0,0,1.61-2l-4.51-36a1.83,1.83,0,0,1,1.59-2l7.92-1m-.36-2.92-7.92,1a4.76,4.76,0,0,0-4.14,5.32l4.18,33.37-4.41-3.43a4.71,4.71,0,0,0-3.52-1,4.78,4.78,0,0,0-3.18,1.8l-4.89,6.31a4.67,4.67,0,0,0-1,3.51,4.78,4.78,0,0,0,1.8,3.18l18.6,14.46a4.74,4.74,0,0,0,3.52,1l43.67-5.46a4.78,4.78,0,0,0,4.14-5.33L152,97.25a4.78,4.78,0,0,0-5.33-4.13l-29.95,3.75L115,83.2a4.78,4.78,0,0,0-5.32-4.14Z"/><path class="cls-8" d="M110.38,82a1.83,1.83,0,0,1,2.05,1.59l1.84,14.75a1.85,1.85,0,0,0,2,1.6l31-3.89a1.82,1.82,0,0,1,2,1.59L154,134.15a1.83,1.83,0,0,1-1.6,2l-43.66,5.47a1.84,1.84,0,0,1-1.36-.37l-18.6-14.46a1.83,1.83,0,0,1-.32-2.57l4.9-6.31a1.84,1.84,0,0,1,2.57-.32l6.51,5.06a1.8,1.8,0,0,0,1.34.38,1.83,1.83,0,0,0,1.6-2l-4.5-36a1.82,1.82,0,0,1,1.59-2l7.92-1M110,79.06l-7.92,1A4.77,4.77,0,0,0,98,85.38l4.18,33.37-4.41-3.43a4.68,4.68,0,0,0-3.52-1,4.76,4.76,0,0,0-3.17,1.8l-4.9,6.31a4.78,4.78,0,0,0,.84,6.69l18.6,14.46a4.74,4.74,0,0,0,3.52,1l43.67-5.46a4.79,4.79,0,0,0,4.14-5.33l-4.58-36.53A4.76,4.76,0,0,0,147,93.12l-29.95,3.75L115.34,83.2A4.79,4.79,0,0,0,110,79.06Z"/><path class="cls-8" d="M110.69,82a1.82,1.82,0,0,1,2,1.59l1.85,14.75a1.84,1.84,0,0,0,2,1.6l31-3.89a1.83,1.83,0,0,1,2,1.59l4.57,36.53a1.82,1.82,0,0,1-1.59,2L109,141.66a1.82,1.82,0,0,1-1.35-.37l-18.6-14.46a1.82,1.82,0,0,1-.32-2.57L93.66,118a1.85,1.85,0,0,1,2.58-.32l6.51,5.06a1.79,1.79,0,0,0,1.34.38,1.83,1.83,0,0,0,1.6-2l-4.51-36a1.84,1.84,0,0,1,1.59-2l7.92-1m-.36-2.92-7.92,1a4.76,4.76,0,0,0-4.14,5.32l4.18,33.37L98,115.32a4.71,4.71,0,0,0-3.52-1,4.76,4.76,0,0,0-3.17,1.8l-4.9,6.31a4.76,4.76,0,0,0,.84,6.69l18.6,14.46a4.72,4.72,0,0,0,3.52,1l43.67-5.46a4.78,4.78,0,0,0,4.13-5.33l-4.57-36.53a4.77,4.77,0,0,0-5.32-4.13l-30,3.75L115.65,83.2a4.77,4.77,0,0,0-5.32-4.14Z"/><path class="cls-8" d="M111,82a1.83,1.83,0,0,1,2,1.59l1.85,14.75a1.83,1.83,0,0,0,2,1.6L148,96a1.82,1.82,0,0,1,2,1.59l4.58,36.53a1.83,1.83,0,0,1-1.59,2l-43.67,5.47a1.82,1.82,0,0,1-1.35-.37L89.4,126.83a1.83,1.83,0,0,1-.32-2.57L94,118a1.84,1.84,0,0,1,1.22-.69,1.81,1.81,0,0,1,1.35.37l6.51,5.06a1.81,1.81,0,0,0,1.34.38,1.84,1.84,0,0,0,1.61-2L101.5,85a1.83,1.83,0,0,1,1.59-2L111,82m-.36-2.92-7.92,1a4.76,4.76,0,0,0-4.14,5.32l4.18,33.37-4.42-3.43a4.67,4.67,0,0,0-3.51-1,4.78,4.78,0,0,0-3.18,1.8l-4.89,6.31a4.67,4.67,0,0,0-1,3.51,4.78,4.78,0,0,0,1.8,3.18l18.6,14.46a4.74,4.74,0,0,0,3.52,1l43.67-5.46a4.78,4.78,0,0,0,4.14-5.33L153,97.25a4.78,4.78,0,0,0-5.33-4.13l-29.95,3.75L116,83.2a4.78,4.78,0,0,0-5.32-4.14Z"/><path class="cls-8" d="M111.33,82a1.83,1.83,0,0,1,2,1.59l1.84,14.75a1.85,1.85,0,0,0,2,1.6l31-3.89a1.82,1.82,0,0,1,2.05,1.59l4.58,36.53a1.83,1.83,0,0,1-1.6,2l-43.66,5.47a1.84,1.84,0,0,1-1.36-.37l-18.6-14.46a1.83,1.83,0,0,1-.32-2.57L94.3,118a1.84,1.84,0,0,1,2.57-.32l6.51,5.06a1.8,1.8,0,0,0,1.34.38,1.83,1.83,0,0,0,1.6-2l-4.51-36a1.84,1.84,0,0,1,1.6-2l7.92-1M111,79.06l-7.92,1a4.77,4.77,0,0,0-4.14,5.32l4.18,33.37-4.41-3.43a4.68,4.68,0,0,0-3.52-1,4.76,4.76,0,0,0-3.17,1.8l-4.9,6.31a4.78,4.78,0,0,0,.84,6.69l18.6,14.46a4.74,4.74,0,0,0,3.52,1l43.67-5.46a4.79,4.79,0,0,0,4.14-5.33l-4.58-36.53A4.76,4.76,0,0,0,148,93.12L118,96.87,116.29,83.2A4.79,4.79,0,0,0,111,79.06Z"/><path class="cls-8" d="M111.64,82a1.82,1.82,0,0,1,2,1.59l1.85,14.75a1.84,1.84,0,0,0,2,1.6l31-3.89a1.83,1.83,0,0,1,2.05,1.59l4.57,36.53a1.82,1.82,0,0,1-1.59,2L110,141.66a1.82,1.82,0,0,1-1.35-.37L90,126.83a1.83,1.83,0,0,1-.33-2.57l4.9-6.31a1.85,1.85,0,0,1,2.58-.32l6.5,5.06a1.83,1.83,0,0,0,3-1.67l-4.51-36a1.84,1.84,0,0,1,1.59-2l7.92-1m-.36-2.92-7.92,1a4.76,4.76,0,0,0-4.14,5.32l4.18,33.37L99,115.32a4.71,4.71,0,0,0-3.52-1,4.76,4.76,0,0,0-3.17,1.8l-4.9,6.31a4.76,4.76,0,0,0,.84,6.69l18.6,14.46a4.72,4.72,0,0,0,3.52,1L154,139.11a4.78,4.78,0,0,0,4.13-5.33l-4.57-36.53a4.77,4.77,0,0,0-5.32-4.13l-30,3.75L116.6,83.2a4.77,4.77,0,0,0-5.32-4.14Z"/><path class="cls-8" d="M112,82A1.83,1.83,0,0,1,114,83.57l1.85,14.75a1.83,1.83,0,0,0,2,1.6L149,96a1.82,1.82,0,0,1,2,1.59l4.58,36.53a1.83,1.83,0,0,1-1.59,2l-43.67,5.47a1.82,1.82,0,0,1-1.35-.37L90.35,126.83a1.83,1.83,0,0,1-.32-2.57l4.9-6.31a1.84,1.84,0,0,1,2.57-.32l6.51,5.06a1.81,1.81,0,0,0,1.34.38,1.84,1.84,0,0,0,1.61-2l-4.51-36A1.83,1.83,0,0,1,104,83L112,82m-.36-2.92-7.92,1a4.76,4.76,0,0,0-4.14,5.32l4.18,33.37-4.42-3.43a4.67,4.67,0,0,0-3.51-1,4.78,4.78,0,0,0-3.18,1.8l-4.89,6.31a4.67,4.67,0,0,0-1,3.51,4.78,4.78,0,0,0,1.8,3.18l18.6,14.46a4.74,4.74,0,0,0,3.52,1l43.67-5.46a4.78,4.78,0,0,0,4.14-5.33l-4.57-36.53a4.78,4.78,0,0,0-5.33-4.13l-30,3.75L116.92,83.2a4.78,4.78,0,0,0-5.32-4.14Z"/><path class="cls-8" d="M112.28,82a1.83,1.83,0,0,1,2,1.59l1.84,14.75a1.85,1.85,0,0,0,2,1.6l31-3.89a1.82,1.82,0,0,1,2.05,1.59l4.58,36.53a1.83,1.83,0,0,1-1.6,2l-43.66,5.47a1.84,1.84,0,0,1-1.36-.37l-18.6-14.46a1.83,1.83,0,0,1-.32-2.57l4.9-6.31a1.84,1.84,0,0,1,2.57-.32l6.51,5.06a1.8,1.8,0,0,0,1.34.38,1.83,1.83,0,0,0,1.6-2l-4.51-36a1.84,1.84,0,0,1,1.6-2l7.92-1m-.37-2.92-7.92,1a4.77,4.77,0,0,0-4.14,5.32L104,118.75l-4.41-3.43a4.68,4.68,0,0,0-3.52-1,4.76,4.76,0,0,0-3.17,1.8L88,122.46a4.78,4.78,0,0,0,.84,6.69l18.6,14.46a4.74,4.74,0,0,0,3.52,1l43.67-5.46a4.79,4.79,0,0,0,4.14-5.33l-4.58-36.53a4.76,4.76,0,0,0-5.32-4.13L119,96.87,117.24,83.2a4.79,4.79,0,0,0-5.33-4.14Z"/><path class="cls-8" d="M112.59,82a1.82,1.82,0,0,1,2,1.59l1.85,14.75a1.84,1.84,0,0,0,2.05,1.6l31-3.89a1.83,1.83,0,0,1,2,1.59l4.57,36.53a1.82,1.82,0,0,1-1.59,2l-43.67,5.47a1.82,1.82,0,0,1-1.35-.37L91,126.83a1.83,1.83,0,0,1-.33-2.57l4.9-6.31a1.85,1.85,0,0,1,2.58-.32l6.5,5.06a1.83,1.83,0,0,0,3-1.67l-4.51-36a1.84,1.84,0,0,1,1.59-2l7.92-1m-.36-2.92-7.92,1a4.76,4.76,0,0,0-4.14,5.32l4.18,33.37-4.41-3.43a4.71,4.71,0,0,0-3.52-1,4.76,4.76,0,0,0-3.17,1.8l-4.9,6.31a4.76,4.76,0,0,0,.84,6.69l18.6,14.46a4.72,4.72,0,0,0,3.52,1L155,139.11a4.78,4.78,0,0,0,4.13-5.33l-4.57-36.53a4.77,4.77,0,0,0-5.32-4.13l-30,3.75L117.55,83.2a4.77,4.77,0,0,0-5.32-4.14Z"/><path class="cls-8" d="M112.91,82a1.83,1.83,0,0,1,2,1.59l1.85,14.75a1.83,1.83,0,0,0,2,1.6L149.9,96a1.82,1.82,0,0,1,2,1.59l4.58,36.53a1.83,1.83,0,0,1-1.59,2l-43.67,5.47a1.85,1.85,0,0,1-1.36-.37L91.3,126.83a1.83,1.83,0,0,1-.32-2.57l4.9-6.31a1.84,1.84,0,0,1,2.57-.32l6.51,5.06a1.81,1.81,0,0,0,1.34.38,1.84,1.84,0,0,0,1.61-2L103.4,85A1.82,1.82,0,0,1,105,83l7.92-1m-.36-2.92-7.92,1a4.76,4.76,0,0,0-4.14,5.32l4.18,33.37-4.42-3.43a4.67,4.67,0,0,0-3.51-1,4.78,4.78,0,0,0-3.18,1.8l-4.9,6.31a4.71,4.71,0,0,0-1,3.51,4.78,4.78,0,0,0,1.8,3.18l18.6,14.46a4.74,4.74,0,0,0,3.52,1l43.67-5.46a4.78,4.78,0,0,0,4.14-5.33l-4.57-36.53a4.78,4.78,0,0,0-5.33-4.13l-29.95,3.75L117.87,83.2a4.78,4.78,0,0,0-5.32-4.14Z"/><path class="cls-8" d="M113.23,82a1.83,1.83,0,0,1,2,1.59l1.84,14.75a1.85,1.85,0,0,0,2,1.6l31-3.89a1.82,1.82,0,0,1,2,1.59l4.58,36.53a1.83,1.83,0,0,1-1.6,2l-43.67,5.47a1.83,1.83,0,0,1-1.35-.37l-18.6-14.46a1.83,1.83,0,0,1-.32-2.57L96.2,118a1.84,1.84,0,0,1,2.57-.32l6.51,5.06a1.8,1.8,0,0,0,1.34.38,1.83,1.83,0,0,0,1.6-2l-4.51-36a1.84,1.84,0,0,1,1.6-2l7.92-1m-.37-2.92-7.92,1a4.77,4.77,0,0,0-4.14,5.32L105,118.75l-4.41-3.43a4.68,4.68,0,0,0-3.52-1,4.76,4.76,0,0,0-3.17,1.8L89,122.46a4.76,4.76,0,0,0,.84,6.69l18.6,14.46a4.74,4.74,0,0,0,3.52,1l43.67-5.46a4.79,4.79,0,0,0,4.14-5.33l-4.58-36.53a4.76,4.76,0,0,0-5.32-4.13L119.9,96.87,118.19,83.2a4.79,4.79,0,0,0-5.33-4.14Z"/><path class="cls-8" d="M113.54,82a1.82,1.82,0,0,1,2,1.59l1.85,14.75a1.84,1.84,0,0,0,2,1.6l31-3.89a1.83,1.83,0,0,1,2.05,1.59l4.57,36.53a1.82,1.82,0,0,1-1.59,2l-43.67,5.47a1.82,1.82,0,0,1-1.35-.37l-18.6-14.46a1.83,1.83,0,0,1-.33-2.57l4.9-6.31a1.85,1.85,0,0,1,2.58-.32l6.5,5.06a1.83,1.83,0,0,0,3-1.67L104,85a1.84,1.84,0,0,1,1.59-2l7.92-1m-.36-2.92-7.92,1a4.76,4.76,0,0,0-4.14,5.32l4.18,33.37-4.41-3.43a4.71,4.71,0,0,0-3.52-1,4.76,4.76,0,0,0-3.17,1.8l-4.9,6.31a4.76,4.76,0,0,0,.84,6.69l18.6,14.46a4.72,4.72,0,0,0,3.52,1l43.67-5.46a4.78,4.78,0,0,0,4.13-5.33l-4.57-36.53a4.77,4.77,0,0,0-5.32-4.13l-30,3.75L118.5,83.2a4.77,4.77,0,0,0-5.32-4.14Z"/><path class="cls-8" d="M113.86,82a1.83,1.83,0,0,1,2,1.59l1.85,14.75a1.83,1.83,0,0,0,2,1.6L150.85,96a1.82,1.82,0,0,1,2,1.59l4.58,36.53a1.83,1.83,0,0,1-1.59,2l-43.67,5.47a1.85,1.85,0,0,1-1.36-.37l-18.6-14.46a1.83,1.83,0,0,1-.32-2.57l4.9-6.31a1.84,1.84,0,0,1,2.57-.32l6.51,5.06a1.8,1.8,0,0,0,1.34.38,1.84,1.84,0,0,0,1.61-2l-4.51-36a1.82,1.82,0,0,1,1.59-2l7.92-1m-.36-2.92-7.92,1a4.76,4.76,0,0,0-4.14,5.32l4.18,33.37-4.42-3.43a4.67,4.67,0,0,0-3.51-1,4.78,4.78,0,0,0-3.18,1.8l-4.9,6.31a4.71,4.71,0,0,0-1,3.51,4.78,4.78,0,0,0,1.8,3.18l18.6,14.46a4.74,4.74,0,0,0,3.52,1l43.67-5.46a4.78,4.78,0,0,0,4.14-5.33l-4.57-36.53a4.78,4.78,0,0,0-5.33-4.13l-29.95,3.75L118.82,83.2a4.78,4.78,0,0,0-5.32-4.14Z"/><path class="cls-8" d="M114.18,82a1.83,1.83,0,0,1,2,1.59l1.84,14.75a1.85,1.85,0,0,0,2.05,1.6l31-3.89a1.83,1.83,0,0,1,2.05,1.59l4.58,36.53a1.83,1.83,0,0,1-1.6,2l-43.67,5.47a1.83,1.83,0,0,1-1.35-.37l-18.6-14.46a1.83,1.83,0,0,1-.32-2.57l4.9-6.31a1.84,1.84,0,0,1,2.57-.32l6.51,5.06a1.79,1.79,0,0,0,1.34.38,1.83,1.83,0,0,0,1.6-2l-4.51-36a1.84,1.84,0,0,1,1.6-2l7.92-1m-.37-2.92-7.92,1a4.77,4.77,0,0,0-4.14,5.32l4.18,33.37-4.41-3.43a4.68,4.68,0,0,0-3.52-1,4.76,4.76,0,0,0-3.17,1.8l-4.9,6.31a4.76,4.76,0,0,0,.84,6.69l18.6,14.46a4.74,4.74,0,0,0,3.52,1l43.67-5.46a4.79,4.79,0,0,0,4.14-5.33l-4.58-36.53a4.76,4.76,0,0,0-5.32-4.13l-30,3.75L119.14,83.2a4.79,4.79,0,0,0-5.33-4.14Z"/><path class="cls-8" d="M114.49,82a1.82,1.82,0,0,1,2.05,1.59l1.85,14.75a1.84,1.84,0,0,0,2,1.6l31-3.89a1.83,1.83,0,0,1,2.05,1.59l4.57,36.53a1.82,1.82,0,0,1-1.59,2l-43.67,5.47a1.82,1.82,0,0,1-1.35-.37l-18.6-14.46a1.83,1.83,0,0,1-.33-2.57l4.9-6.31a1.85,1.85,0,0,1,2.58-.32l6.5,5.06a1.83,1.83,0,0,0,2.95-1.67L105,85a1.84,1.84,0,0,1,1.59-2l7.92-1m-.36-2.92-7.92,1a4.76,4.76,0,0,0-4.14,5.32l4.18,33.37-4.41-3.43a4.71,4.71,0,0,0-3.52-1,4.76,4.76,0,0,0-3.17,1.8l-4.9,6.31a4.76,4.76,0,0,0,.84,6.69l18.6,14.46a4.72,4.72,0,0,0,3.52,1l43.66-5.46a4.78,4.78,0,0,0,4.14-5.33l-4.57-36.53a4.77,4.77,0,0,0-5.32-4.13l-30,3.75L119.45,83.2a4.77,4.77,0,0,0-5.32-4.14Z"/><path class="cls-8" d="M114.81,82a1.83,1.83,0,0,1,2,1.59l1.85,14.75a1.83,1.83,0,0,0,2,1.6L151.8,96a1.82,1.82,0,0,1,2,1.59l4.58,36.53a1.83,1.83,0,0,1-1.59,2l-43.67,5.47a1.85,1.85,0,0,1-1.36-.37L93.2,126.83a1.83,1.83,0,0,1-.32-2.57l4.9-6.31a1.84,1.84,0,0,1,2.57-.32l6.51,5.06a1.8,1.8,0,0,0,1.34.38,1.84,1.84,0,0,0,1.61-2L105.3,85a1.82,1.82,0,0,1,1.59-2l7.92-1m-.36-2.92-7.93,1a4.76,4.76,0,0,0-4.13,5.32l4.18,33.37-4.42-3.43a4.67,4.67,0,0,0-3.51-1,4.78,4.78,0,0,0-3.18,1.8l-4.9,6.31a4.71,4.71,0,0,0-1,3.51,4.78,4.78,0,0,0,1.8,3.18L110,143.61a4.74,4.74,0,0,0,3.52,1l43.67-5.46a4.78,4.78,0,0,0,4.14-5.33l-4.57-36.53a4.78,4.78,0,0,0-5.33-4.13l-29.95,3.75L119.77,83.2a4.78,4.78,0,0,0-5.32-4.14Z"/><path class="cls-8" d="M115.13,82a1.82,1.82,0,0,1,2,1.59L119,98.32a1.85,1.85,0,0,0,2,1.6l31-3.89a1.83,1.83,0,0,1,2,1.59l4.58,36.53a1.83,1.83,0,0,1-1.6,2l-43.67,5.47a1.83,1.83,0,0,1-1.35-.37l-18.6-14.46a1.83,1.83,0,0,1-.32-2.57L98.1,118a1.84,1.84,0,0,1,2.57-.32l6.51,5.06a1.79,1.79,0,0,0,1.34.38,1.83,1.83,0,0,0,1.6-2l-4.51-36a1.84,1.84,0,0,1,1.6-2l7.92-1m-.37-2.92-7.92,1a4.77,4.77,0,0,0-4.14,5.32l4.18,33.37-4.41-3.43a4.68,4.68,0,0,0-3.52-1,4.76,4.76,0,0,0-3.17,1.8l-4.9,6.31a4.76,4.76,0,0,0,.84,6.69l18.6,14.46a4.74,4.74,0,0,0,3.52,1l43.67-5.46a4.79,4.79,0,0,0,4.14-5.33l-4.58-36.53a4.76,4.76,0,0,0-5.32-4.13L121.8,96.87,120.09,83.2a4.79,4.79,0,0,0-5.33-4.14Z"/><path class="cls-8" d="M115.44,82a1.82,1.82,0,0,1,2,1.59l1.85,14.75a1.84,1.84,0,0,0,2,1.6l31-3.89a1.83,1.83,0,0,1,2,1.59l4.57,36.53a1.82,1.82,0,0,1-1.59,2l-43.67,5.47a1.82,1.82,0,0,1-1.35-.37l-18.6-14.46a1.83,1.83,0,0,1-.33-2.57l4.9-6.31a1.85,1.85,0,0,1,2.58-.32l6.5,5.06a1.83,1.83,0,0,0,3-1.67l-4.51-36a1.84,1.84,0,0,1,1.59-2l7.92-1m-.36-2.92-7.92,1A4.76,4.76,0,0,0,103,85.38l4.18,33.37-4.41-3.43a4.77,4.77,0,0,0-6.69.83l-4.9,6.31a4.76,4.76,0,0,0,.84,6.69l18.6,14.46a4.72,4.72,0,0,0,3.52,1l43.66-5.46a4.78,4.78,0,0,0,4.14-5.33l-4.57-36.53a4.78,4.78,0,0,0-5.33-4.13l-29.95,3.75L120.4,83.2a4.77,4.77,0,0,0-5.32-4.14Z"/><path class="cls-8" d="M115.76,82a1.83,1.83,0,0,1,2,1.59l1.85,14.75a1.83,1.83,0,0,0,2,1.6L152.75,96a1.82,1.82,0,0,1,2,1.59l4.58,36.53a1.83,1.83,0,0,1-1.59,2l-43.67,5.47a1.85,1.85,0,0,1-1.36-.37l-18.6-14.46a1.83,1.83,0,0,1-.32-2.57l4.9-6.31a1.84,1.84,0,0,1,2.57-.32l6.51,5.06a1.8,1.8,0,0,0,1.34.38,1.84,1.84,0,0,0,1.61-2l-4.51-36a1.82,1.82,0,0,1,1.59-2l7.92-1m-.36-2.92-7.93,1a4.76,4.76,0,0,0-4.13,5.32l4.18,33.37-4.42-3.43a4.67,4.67,0,0,0-3.51-1,4.78,4.78,0,0,0-3.18,1.8l-4.9,6.31a4.71,4.71,0,0,0-1,3.51,4.78,4.78,0,0,0,1.8,3.18L111,143.61a4.74,4.74,0,0,0,3.52,1l43.67-5.46a4.78,4.78,0,0,0,4.14-5.33L157.7,97.25a4.76,4.76,0,0,0-5.32-4.13l-29.95,3.75L120.72,83.2a4.78,4.78,0,0,0-5.32-4.14Z"/><path class="cls-8" d="M116.08,82a1.82,1.82,0,0,1,2,1.59L120,98.32a1.85,1.85,0,0,0,2,1.6l31-3.89a1.83,1.83,0,0,1,2.05,1.59l4.58,36.53a1.83,1.83,0,0,1-1.6,2l-43.67,5.47a1.82,1.82,0,0,1-1.35-.37l-18.6-14.46a1.83,1.83,0,0,1-.32-2.57l4.9-6.31a1.84,1.84,0,0,1,2.57-.32l6.51,5.06a1.79,1.79,0,0,0,1.34.38,1.83,1.83,0,0,0,1.6-2l-4.51-36a1.84,1.84,0,0,1,1.6-2l7.92-1m-.37-2.92-7.92,1a4.77,4.77,0,0,0-4.14,5.32l4.18,33.37-4.41-3.43a4.68,4.68,0,0,0-3.52-1,4.76,4.76,0,0,0-3.17,1.8l-4.9,6.31a4.76,4.76,0,0,0,.84,6.69l18.6,14.46a4.74,4.74,0,0,0,3.52,1l43.67-5.46a4.79,4.79,0,0,0,4.14-5.33L158,97.25a4.77,4.77,0,0,0-5.32-4.13l-29.95,3.75L121,83.2a4.79,4.79,0,0,0-5.33-4.14Z"/><path class="cls-8" d="M116.39,82a1.82,1.82,0,0,1,2,1.59l1.85,14.75a1.84,1.84,0,0,0,2,1.6l31-3.89a1.83,1.83,0,0,1,2.05,1.59L160,134.15a1.82,1.82,0,0,1-1.59,2l-43.67,5.47a1.82,1.82,0,0,1-1.35-.37l-18.6-14.46a1.83,1.83,0,0,1-.33-2.57l4.9-6.31a1.85,1.85,0,0,1,2.58-.32l6.5,5.06a1.81,1.81,0,0,0,1.34.38,1.83,1.83,0,0,0,1.61-2l-4.51-36a1.83,1.83,0,0,1,1.59-2l7.92-1M116,79.06l-7.92,1A4.76,4.76,0,0,0,104,85.38l4.18,33.37-4.41-3.43a4.77,4.77,0,0,0-6.69.83l-4.9,6.31a4.76,4.76,0,0,0,.84,6.69l18.6,14.46a4.72,4.72,0,0,0,3.52,1l43.66-5.46a4.78,4.78,0,0,0,4.14-5.33l-4.57-36.53A4.78,4.78,0,0,0,153,93.12l-29.95,3.75L121.35,83.2A4.77,4.77,0,0,0,116,79.06Z"/><path class="cls-8" d="M116.71,82a1.83,1.83,0,0,1,2.05,1.59l1.85,14.75a1.83,1.83,0,0,0,2,1.6l31-3.89a1.82,1.82,0,0,1,2,1.59l4.58,36.53a1.83,1.83,0,0,1-1.59,2l-43.67,5.47a1.85,1.85,0,0,1-1.36-.37L95.1,126.83a1.83,1.83,0,0,1-.32-2.57l4.9-6.31a1.84,1.84,0,0,1,2.57-.32l6.51,5.06a1.8,1.8,0,0,0,1.34.38,1.84,1.84,0,0,0,1.61-2L107.2,85a1.82,1.82,0,0,1,1.59-2l7.92-1m-.36-2.92-7.93,1a4.76,4.76,0,0,0-4.13,5.32l4.17,33.37-4.41-3.43a4.67,4.67,0,0,0-3.51-1,4.78,4.78,0,0,0-3.18,1.8l-4.9,6.31a4.71,4.71,0,0,0-1,3.51,4.78,4.78,0,0,0,1.8,3.18l18.6,14.46a4.74,4.74,0,0,0,3.52,1l43.67-5.46a4.78,4.78,0,0,0,4.14-5.33l-4.58-36.53a4.76,4.76,0,0,0-5.32-4.13l-30,3.75L121.67,83.2a4.78,4.78,0,0,0-5.32-4.14Z"/><path class="cls-8" d="M117,82a1.82,1.82,0,0,1,2,1.59l1.85,14.75a1.85,1.85,0,0,0,2,1.6L154,96a1.83,1.83,0,0,1,2.05,1.59l4.58,36.53a1.83,1.83,0,0,1-1.6,2l-43.67,5.47a1.82,1.82,0,0,1-1.35-.37l-18.6-14.46a1.83,1.83,0,0,1-.32-2.57L100,118a1.84,1.84,0,0,1,2.57-.32l6.51,5.06a1.79,1.79,0,0,0,1.34.38,1.83,1.83,0,0,0,1.6-2l-4.51-36a1.84,1.84,0,0,1,1.6-2L117,82m-.37-2.92-7.92,1a4.77,4.77,0,0,0-4.14,5.32l4.18,33.37-4.41-3.43a4.68,4.68,0,0,0-3.52-1,4.76,4.76,0,0,0-3.17,1.8l-4.9,6.31a4.76,4.76,0,0,0,.84,6.69l18.6,14.46a4.74,4.74,0,0,0,3.52,1l43.67-5.46a4.79,4.79,0,0,0,4.14-5.33L159,97.25a4.77,4.77,0,0,0-5.32-4.13L123.7,96.87,122,83.2a4.79,4.79,0,0,0-5.33-4.14Z"/><path class="cls-8" d="M117.34,82a1.82,1.82,0,0,1,2,1.59l1.85,14.75a1.84,1.84,0,0,0,2.05,1.6l31-3.89a1.83,1.83,0,0,1,2,1.59L161,134.15a1.83,1.83,0,0,1-1.59,2l-43.67,5.47a1.82,1.82,0,0,1-1.35-.37l-18.6-14.46a1.83,1.83,0,0,1-.33-2.57l4.9-6.31a1.85,1.85,0,0,1,2.58-.32l6.5,5.06a1.81,1.81,0,0,0,1.34.38,1.83,1.83,0,0,0,1.61-2l-4.51-36a1.83,1.83,0,0,1,1.59-2l7.92-1M117,79.06l-7.92,1a4.76,4.76,0,0,0-4.14,5.32l4.18,33.37-4.41-3.43a4.77,4.77,0,0,0-6.69.83l-4.9,6.31a4.76,4.76,0,0,0,.84,6.69l18.6,14.46a4.72,4.72,0,0,0,3.52,1l43.66-5.46a4.78,4.78,0,0,0,4.14-5.33l-4.57-36.53A4.78,4.78,0,0,0,154,93.12L124,96.87,122.3,83.2A4.77,4.77,0,0,0,117,79.06Z"/><path class="cls-9" d="M115.87,143.12a3.27,3.27,0,0,1-2.43-.67L94.84,128a3.26,3.26,0,0,1-1.25-2.2,3.22,3.22,0,0,1,.67-2.43l4.89-6.31a3.31,3.31,0,0,1,4.64-.58l6.5,5.06a.34.34,0,0,0,.26.08.36.36,0,0,0,.33-.41l-4.51-36a3.31,3.31,0,0,1,2.87-3.69l7.92-1a3.31,3.31,0,0,1,3.69,2.87l1.84,14.75a.38.38,0,0,0,.41.32l31.05-3.89a3.3,3.3,0,0,1,3.68,2.87L162.41,134a3.31,3.31,0,0,1-2.87,3.69Z"/><path class="cls-8" d="M117.34,82a1.82,1.82,0,0,1,2,1.59l1.85,14.75a1.84,1.84,0,0,0,2.05,1.6l31-3.89a1.83,1.83,0,0,1,2,1.59L161,134.15a1.83,1.83,0,0,1-1.59,2l-43.67,5.47a1.82,1.82,0,0,1-1.35-.37l-18.6-14.46a1.83,1.83,0,0,1-.33-2.57l4.9-6.31a1.85,1.85,0,0,1,2.58-.32l6.5,5.06a1.81,1.81,0,0,0,1.34.38,1.83,1.83,0,0,0,1.61-2l-4.51-36a1.83,1.83,0,0,1,1.59-2l7.92-1M117,79.06l-7.92,1a4.76,4.76,0,0,0-4.14,5.32l4.18,33.37-4.41-3.43a4.77,4.77,0,0,0-6.69.83l-4.9,6.31a4.76,4.76,0,0,0,.84,6.69l18.6,14.46a4.72,4.72,0,0,0,3.52,1l43.66-5.46a4.78,4.78,0,0,0,4.14-5.33l-4.57-36.53A4.78,4.78,0,0,0,154,93.12L124,96.87,122.3,83.2A4.77,4.77,0,0,0,117,79.06Z"/><line class="cls-10" x1="122.53" y1="96.84" x2="124.75" y2="114.57"/><line class="cls-10" x1="134.48" y1="98.51" x2="136.31" y2="113.13"/><line class="cls-10" x1="146.04" y1="97.06" x2="147.87" y2="111.68"/></g></g></svg>