<?xml version="1.0" encoding="utf-8"?>
<!-- Generator: Adobe Illustrator 25.4.1, SVG Export Plug-In . SVG Version: 6.00 Build 0)  -->
<svg version="1.1" id="Outline" xmlns="http://www.w3.org/2000/svg" xmlns:xlink="http://www.w3.org/1999/xlink" x="0px" y="0px"
	 viewBox="0 0 512 512" style="enable-background:new 0 0 512 512;" xml:space="preserve">
<style type="text/css">
	.st0{fill:none;stroke:#000000;stroke-width:48;stroke-miterlimit:10;}
</style>
<path class="st0" d="M158.1,45.3h195.7c69.9,0,126.6,56.7,126.6,126.6v173.5c0,69.9-56.7,126.6-126.6,126.6H158.1
	c-69.9,0-126.6-56.7-126.6-126.6V171.9C31.5,101.9,88.2,45.3,158.1,45.3z"/>
<g>
	<path d="M181.8,165L181.8,165c16.9,0,30.6,13.7,30.6,30.6v67.5c0,16.9-13.7,30.6-30.6,30.6h0c-16.9,0-30.6-13.7-30.6-30.6v-67.5
		C151.2,178.7,164.9,165,181.8,165z"/>
	<path d="M330.2,165L330.2,165c16.9,0,30.6,13.7,30.6,30.6v67.5c0,16.9-13.7,30.6-30.6,30.6l0,0c-16.9,0-30.6-13.7-30.6-30.6v-67.5
		C299.6,178.7,313.3,165,330.2,165z"/>
</g>
</svg>
