<svg xmlns="http://www.w3.org/2000/svg" viewBox="0 0 62.09 84.51"><defs><style>.cls-1{fill:#8c270c;}.cls-2{fill:#aa3d1b;}.cls-3{fill:#fc9775;}.cls-4{fill:#bc4524;}.cls-5{fill:#af2804;}.cls-6{fill:#db5020;}.cls-7{fill:#f2794a;}.cls-8{fill:#510008;}.cls-9{fill:#7a0006;}</style></defs><g id="Layer_2" data-name="Layer 2"><g id="Layer_1-2" data-name="Layer 1"><path class="cls-1" d="M56.09,31.67A31.68,31.68,0,0,1,27.58,63.18c-1,.1-2.09.15-3.16.15h3.16v21H21.27V58h3.15a26.34,26.34,0,0,0,0-52.68V0A31.67,31.67,0,0,1,56.09,31.67Z"/><path class="cls-1" d="M56.29,31.67A31.68,31.68,0,0,1,27.78,63.18c-1,.1-2.09.15-3.16.15h3.16v21H21.47V58h3.15a26.34,26.34,0,0,0,0-52.68V0A31.67,31.67,0,0,1,56.29,31.67Z"/><path class="cls-1" d="M56.49,31.67A31.68,31.68,0,0,1,28,63.18c-1,.1-2.09.15-3.16.15H28v21H21.67V58h3.15a26.34,26.34,0,0,0,0-52.68V0A31.67,31.67,0,0,1,56.49,31.67Z"/><path class="cls-1" d="M56.69,31.67A31.68,31.68,0,0,1,28.18,63.18c-1,.1-2.09.15-3.16.15h3.16v21H21.87V58H25A26.34,26.34,0,0,0,25,5.33V0A31.67,31.67,0,0,1,56.69,31.67Z"/><path class="cls-1" d="M56.89,31.67A31.68,31.68,0,0,1,28.38,63.18c-1,.1-2.09.15-3.16.15h3.16v21H22.07V58h3.15a26.34,26.34,0,0,0,0-52.68V0A31.67,31.67,0,0,1,56.89,31.67Z"/><path class="cls-1" d="M57.09,31.67A31.68,31.68,0,0,1,28.58,63.18c-1,.1-2.09.15-3.16.15h3.16v21H22.27V58h3.15a26.34,26.34,0,0,0,0-52.68V0A31.67,31.67,0,0,1,57.09,31.67Z"/><path class="cls-1" d="M57.29,31.67A31.68,31.68,0,0,1,28.78,63.18c-1,.1-2.09.15-3.16.15h3.16v21H22.47V58h3.15a26.34,26.34,0,0,0,0-52.68V0A31.67,31.67,0,0,1,57.29,31.67Z"/><path class="cls-1" d="M57.49,31.67A31.68,31.68,0,0,1,29,63.18c-1,.1-2.09.15-3.16.15H29v21H22.67V58h3.15a26.34,26.34,0,0,0,0-52.68V0A31.67,31.67,0,0,1,57.49,31.67Z"/><path class="cls-1" d="M57.69,31.67A31.68,31.68,0,0,1,29.18,63.18c-1,.1-2.09.15-3.16.15h3.16v21H22.87V58H26A26.34,26.34,0,0,0,26,5.33V0A31.67,31.67,0,0,1,57.69,31.67Z"/><path class="cls-1" d="M57.89,31.67A31.68,31.68,0,0,1,29.38,63.18c-1,.1-2.09.15-3.16.15h3.16v21H23.07V58h3.15a26.34,26.34,0,0,0,0-52.68V0A31.67,31.67,0,0,1,57.89,31.67Z"/><path class="cls-1" d="M58.09,31.67A31.68,31.68,0,0,1,29.58,63.18c-1,.1-2.09.15-3.16.15h3.16v21H23.27V58h3.15a26.34,26.34,0,0,0,0-52.68V0A31.67,31.67,0,0,1,58.09,31.67Z"/><path class="cls-1" d="M58.29,31.67A31.68,31.68,0,0,1,29.78,63.18c-1,.1-2.09.15-3.16.15h3.16v21H23.47V58h3.15a26.34,26.34,0,0,0,0-52.68V0A31.67,31.67,0,0,1,58.29,31.67Z"/><path class="cls-1" d="M58.49,31.67A31.68,31.68,0,0,1,30,63.18c-1,.1-2.09.15-3.16.15H30v21H23.67V58h3.15a26.34,26.34,0,0,0,0-52.68V0A31.67,31.67,0,0,1,58.49,31.67Z"/><path class="cls-1" d="M58.69,31.67A31.68,31.68,0,0,1,30.18,63.18c-1,.1-2.09.15-3.16.15h3.16v21H23.87V58H27A26.34,26.34,0,0,0,27,5.33V0A31.67,31.67,0,0,1,58.69,31.67Z"/><path class="cls-1" d="M58.89,31.67A31.68,31.68,0,0,1,30.38,63.18c-1,.1-2.09.15-3.16.15h3.16v21H24.07V58h3.15a26.34,26.34,0,0,0,0-52.68V0A31.67,31.67,0,0,1,58.89,31.67Z"/><path class="cls-1" d="M59.09,31.67A31.68,31.68,0,0,1,30.58,63.18c-1,.1-2.09.15-3.16.15h3.16v21H24.27V58h3.15a26.34,26.34,0,0,0,0-52.68V0A31.67,31.67,0,0,1,59.09,31.67Z"/><path class="cls-1" d="M59.29,31.67A31.68,31.68,0,0,1,30.78,63.18c-1,.1-2.09.15-3.16.15h3.16v21H24.47V58h3.15a26.34,26.34,0,0,0,0-52.68V0A31.67,31.67,0,0,1,59.29,31.67Z"/><path class="cls-1" d="M59.49,31.67A31.68,31.68,0,0,1,31,63.18c-1,.1-2.09.15-3.16.15H31v21H24.67V58h3.15a26.34,26.34,0,0,0,0-52.68V0A31.67,31.67,0,0,1,59.49,31.67Z"/><path class="cls-1" d="M59.69,31.67A31.68,31.68,0,0,1,31.18,63.18c-1,.1-2.09.15-3.16.15h3.16v21H24.87V58H28A26.34,26.34,0,0,0,28,5.33V0A31.67,31.67,0,0,1,59.69,31.67Z"/><path class="cls-1" d="M59.89,31.67A31.68,31.68,0,0,1,31.38,63.18c-1,.1-2.09.15-3.16.15h3.16v21H25.07V58h3.15a26.34,26.34,0,0,0,0-52.68V0A31.67,31.67,0,0,1,59.89,31.67Z"/><path class="cls-1" d="M60.09,31.67A31.68,31.68,0,0,1,31.58,63.18c-1,.1-2.09.15-3.16.15h3.16v21H25.27V58h3.15a26.34,26.34,0,0,0,0-52.68V0A31.67,31.67,0,0,1,60.09,31.67Z"/><path class="cls-1" d="M60.29,31.67A31.68,31.68,0,0,1,31.78,63.18c-1,.1-2.09.15-3.16.15h3.16v21H25.47V58h3.15a26.34,26.34,0,0,0,0-52.68V0A31.67,31.67,0,0,1,60.29,31.67Z"/><path class="cls-1" d="M60.49,31.67A31.68,31.68,0,0,1,32,63.18c-1,.1-2.09.15-3.16.15H32v21H25.67V58h3.15a26.34,26.34,0,0,0,0-52.68V0A31.67,31.67,0,0,1,60.49,31.67Z"/><path class="cls-1" d="M60.69,31.67A31.68,31.68,0,0,1,32.18,63.18c-1,.1-2.09.15-3.16.15h3.16v21H25.87V58H29A26.34,26.34,0,0,0,29,5.33V0A31.67,31.67,0,0,1,60.69,31.67Z"/><path class="cls-1" d="M60.89,31.67A31.68,31.68,0,0,1,32.38,63.18c-1,.1-2.09.15-3.16.15h3.16v21H26.07V58h3.15a26.34,26.34,0,0,0,0-52.68V0A31.67,31.67,0,0,1,60.89,31.67Z"/><path class="cls-1" d="M61.09,31.67A31.68,31.68,0,0,1,32.58,63.18c-1,.1-2.09.15-3.16.15h3.16v21H26.27V58h3.15a26.34,26.34,0,0,0,0-52.68V0A31.67,31.67,0,0,1,61.09,31.67Z"/><path class="cls-1" d="M61.29,31.67A31.68,31.68,0,0,1,32.78,63.18c-1,.1-2.09.15-3.16.15h3.16v21H26.47V58h3.15a26.34,26.34,0,0,0,0-52.68V0A31.67,31.67,0,0,1,61.29,31.67Z"/><path class="cls-1" d="M61.49,31.67A31.68,31.68,0,0,1,33,63.18c-1,.1-2.09.15-3.16.15H33v21H26.67V58h3.15a26.34,26.34,0,0,0,0-52.68V0A31.67,31.67,0,0,1,61.49,31.67Z"/><path class="cls-1" d="M61.69,31.67A31.68,31.68,0,0,1,33.18,63.18c-1,.1-2.09.15-3.16.15h3.16v21H26.87V58H30A26.34,26.34,0,0,0,30,5.33V0A31.67,31.67,0,0,1,61.69,31.67Z"/><path class="cls-1" d="M61.89,31.67A31.68,31.68,0,0,1,33.38,63.18c-1,.1-2.09.15-3.16.15h3.16v21H27.07V58h3.15a26.34,26.34,0,0,0,0-52.68V0A31.67,31.67,0,0,1,61.89,31.67Z"/><path class="cls-1" d="M62.09,31.67A31.68,31.68,0,0,1,33.58,63.18c-1,.1-2.09.15-3.16.15h3.16v21H27.27V58h3.15a26.34,26.34,0,0,0,0-52.68V0A31.67,31.67,0,0,1,62.09,31.67Z"/><path class="cls-2" d="M62.09,31.67A31.68,31.68,0,0,1,33.58,63.18c-1,.1-2.09.15-3.16.15h3.16v21H27.27V58h3.15a26.34,26.34,0,0,0,0-52.68V0A31.67,31.67,0,0,1,62.09,31.67Z"/><path class="cls-2" d="M33.58,63.18v.15H30.42C31.49,63.33,32.54,63.28,33.58,63.18Z"/><circle class="cls-3" cx="30.43" cy="31.66" r="24.43"/><path class="cls-4" d="M24.42,7.24V31.67H0A24.42,24.42,0,0,1,24.42,7.24Z"/><path class="cls-4" d="M24.62,7.24V31.67H.2A24.42,24.42,0,0,1,24.62,7.24Z"/><path class="cls-4" d="M24.82,7.24V31.67H.4A24.42,24.42,0,0,1,24.82,7.24Z"/><path class="cls-4" d="M25,7.24V31.67H.6A24.42,24.42,0,0,1,25,7.24Z"/><path class="cls-4" d="M25.22,7.24V31.67H.8A24.42,24.42,0,0,1,25.22,7.24Z"/><path class="cls-4" d="M25.42,7.24V31.67H1A24.42,24.42,0,0,1,25.42,7.24Z"/><path class="cls-4" d="M25.62,7.24V31.67H1.2A24.42,24.42,0,0,1,25.62,7.24Z"/><path class="cls-4" d="M25.82,7.24V31.67H1.4A24.42,24.42,0,0,1,25.82,7.24Z"/><path class="cls-4" d="M26,7.24V31.67H1.6A24.42,24.42,0,0,1,26,7.24Z"/><path class="cls-4" d="M26.22,7.24V31.67H1.8A24.42,24.42,0,0,1,26.22,7.24Z"/><path class="cls-4" d="M26.42,7.24V31.67H2A24.42,24.42,0,0,1,26.42,7.24Z"/><path class="cls-4" d="M26.62,7.24V31.67H2.2A24.42,24.42,0,0,1,26.62,7.24Z"/><path class="cls-4" d="M26.82,7.24V31.67H2.4A24.42,24.42,0,0,1,26.82,7.24Z"/><path class="cls-4" d="M27,7.24V31.67H2.6A24.42,24.42,0,0,1,27,7.24Z"/><path class="cls-4" d="M27.22,7.24V31.67H2.8A24.42,24.42,0,0,1,27.22,7.24Z"/><path class="cls-4" d="M27.42,7.24V31.67H3A24.42,24.42,0,0,1,27.42,7.24Z"/><path class="cls-4" d="M27.62,7.24V31.67H3.2A24.42,24.42,0,0,1,27.62,7.24Z"/><path class="cls-4" d="M27.82,7.24V31.67H3.4A24.42,24.42,0,0,1,27.82,7.24Z"/><path class="cls-4" d="M28,7.24V31.67H3.6A24.42,24.42,0,0,1,28,7.24Z"/><path class="cls-4" d="M28.22,7.24V31.67H3.8A24.42,24.42,0,0,1,28.22,7.24Z"/><path class="cls-4" d="M28.42,7.24V31.67H4A24.42,24.42,0,0,1,28.42,7.24Z"/><path class="cls-4" d="M28.62,7.24V31.67H4.2A24.42,24.42,0,0,1,28.62,7.24Z"/><path class="cls-4" d="M28.82,7.24V31.67H4.4A24.42,24.42,0,0,1,28.82,7.24Z"/><path class="cls-4" d="M29,7.24V31.67H4.6A24.42,24.42,0,0,1,29,7.24Z"/><path class="cls-4" d="M29.22,7.24V31.67H4.8A24.42,24.42,0,0,1,29.22,7.24Z"/><path class="cls-4" d="M29.42,7.24V31.67H5A24.42,24.42,0,0,1,29.42,7.24Z"/><path class="cls-4" d="M29.62,7.24V31.67H5.2A24.42,24.42,0,0,1,29.62,7.24Z"/><path class="cls-4" d="M29.82,7.24V31.67H5.4A24.42,24.42,0,0,1,29.82,7.24Z"/><path class="cls-4" d="M30,7.24V31.67H5.6A24.42,24.42,0,0,1,30,7.24Z"/><path class="cls-4" d="M30.22,7.24V31.67H5.8A24.42,24.42,0,0,1,30.22,7.24Z"/><path class="cls-4" d="M30.42,7.24V31.67H6A24.42,24.42,0,0,1,30.42,7.24Z"/><path class="cls-3" d="M30.42,7.24V31.67H6A24.42,24.42,0,0,1,30.42,7.24Z"/><path class="cls-5" d="M41,49.63a24.42,24.42,0,0,1-41-18H24.42Z"/><path class="cls-5" d="M41.17,49.63a24.42,24.42,0,0,1-41-18H24.62Z"/><path class="cls-5" d="M41.37,49.63a24.42,24.42,0,0,1-41-18H24.82Z"/><path class="cls-5" d="M41.57,49.63a24.42,24.42,0,0,1-41-18H25Z"/><path class="cls-5" d="M41.77,49.63a24.42,24.42,0,0,1-41-18H25.22Z"/><path class="cls-5" d="M42,49.63a24.42,24.42,0,0,1-41-18H25.42Z"/><path class="cls-5" d="M42.17,49.63a24.42,24.42,0,0,1-41-18H25.62Z"/><path class="cls-5" d="M42.37,49.63a24.42,24.42,0,0,1-41-18H25.82Z"/><path class="cls-5" d="M42.57,49.63a24.42,24.42,0,0,1-41-18H26Z"/><path class="cls-5" d="M42.77,49.63a24.42,24.42,0,0,1-41-18H26.22Z"/><path class="cls-5" d="M43,49.63a24.42,24.42,0,0,1-41-18H26.42Z"/><path class="cls-5" d="M43.17,49.63a24.42,24.42,0,0,1-41-18H26.62Z"/><path class="cls-5" d="M43.37,49.63a24.42,24.42,0,0,1-41-18H26.82Z"/><path class="cls-5" d="M43.57,49.63a24.42,24.42,0,0,1-41-18H27Z"/><path class="cls-5" d="M43.77,49.63a24.42,24.42,0,0,1-41-18H27.22Z"/><path class="cls-5" d="M44,49.63a24.42,24.42,0,0,1-41-18H27.42Z"/><path class="cls-5" d="M44.17,49.63a24.42,24.42,0,0,1-41-18H27.62Z"/><path class="cls-5" d="M44.37,49.63a24.42,24.42,0,0,1-41-18H27.82Z"/><path class="cls-5" d="M44.57,49.63a24.42,24.42,0,0,1-41-18H28Z"/><path class="cls-5" d="M44.77,49.63a24.42,24.42,0,0,1-41-18H28.22Z"/><path class="cls-5" d="M45,49.63a24.42,24.42,0,0,1-41-18H28.42Z"/><path class="cls-5" d="M45.17,49.63a24.42,24.42,0,0,1-41-18H28.62Z"/><path class="cls-5" d="M45.37,49.63a24.42,24.42,0,0,1-41-18H28.82Z"/><path class="cls-5" d="M45.57,49.63a24.42,24.42,0,0,1-41-18H29Z"/><path class="cls-5" d="M45.77,49.63a24.42,24.42,0,0,1-41-18H29.22Z"/><path class="cls-5" d="M46,49.63a24.42,24.42,0,0,1-41-18H29.42Z"/><path class="cls-5" d="M46.17,49.63a24.42,24.42,0,0,1-41-18H29.62Z"/><path class="cls-5" d="M46.37,49.63a24.42,24.42,0,0,1-41-18H29.82Z"/><path class="cls-5" d="M46.57,49.63a24.42,24.42,0,0,1-41-18H30Z"/><path class="cls-5" d="M46.77,49.63a24.42,24.42,0,0,1-41-18H30.22Z"/><path class="cls-5" d="M47,49.63a24.42,24.42,0,0,1-41-18H30.42Z"/><path class="cls-6" d="M47,49.63a24.42,24.42,0,0,1-41-18H30.42Z"/><path class="cls-7" d="M54.85,31.67a24.31,24.31,0,0,1-7.88,18l-16.55-18V7.24A24.42,24.42,0,0,1,54.85,31.67Z"/><rect class="cls-8" x="11.94" y="78.94" width="24.98" height="5.57"/><rect class="cls-8" x="12.14" y="78.94" width="24.98" height="5.57"/><rect class="cls-8" x="12.34" y="78.94" width="24.98" height="5.57"/><rect class="cls-8" x="12.54" y="78.94" width="24.98" height="5.57"/><rect class="cls-8" x="12.74" y="78.94" width="24.98" height="5.57"/><rect class="cls-8" x="12.94" y="78.94" width="24.98" height="5.57"/><rect class="cls-8" x="13.14" y="78.94" width="24.98" height="5.57"/><rect class="cls-8" x="13.34" y="78.94" width="24.98" height="5.57"/><rect class="cls-8" x="13.54" y="78.94" width="24.98" height="5.57"/><rect class="cls-8" x="13.74" y="78.94" width="24.98" height="5.57"/><rect class="cls-8" x="13.94" y="78.94" width="24.98" height="5.57"/><rect class="cls-8" x="14.14" y="78.94" width="24.98" height="5.57"/><rect class="cls-8" x="14.34" y="78.94" width="24.98" height="5.57"/><rect class="cls-8" x="14.54" y="78.94" width="24.98" height="5.57"/><rect class="cls-8" x="14.74" y="78.94" width="24.98" height="5.57"/><rect class="cls-8" x="14.94" y="78.94" width="24.98" height="5.57"/><rect class="cls-8" x="15.14" y="78.94" width="24.98" height="5.57"/><rect class="cls-8" x="15.34" y="78.94" width="24.98" height="5.57"/><rect class="cls-8" x="15.54" y="78.94" width="24.98" height="5.57"/><rect class="cls-8" x="15.74" y="78.94" width="24.98" height="5.57"/><rect class="cls-8" x="15.94" y="78.94" width="24.98" height="5.57"/><rect class="cls-8" x="16.14" y="78.94" width="24.98" height="5.57"/><rect class="cls-8" x="16.34" y="78.94" width="24.98" height="5.57"/><rect class="cls-8" x="16.54" y="78.94" width="24.98" height="5.57"/><rect class="cls-8" x="16.74" y="78.94" width="24.98" height="5.57"/><rect class="cls-8" x="16.94" y="78.94" width="24.98" height="5.57"/><rect class="cls-8" x="17.14" y="78.94" width="24.98" height="5.57"/><rect class="cls-8" x="17.34" y="78.94" width="24.98" height="5.57"/><rect class="cls-8" x="17.54" y="78.94" width="24.98" height="5.57"/><rect class="cls-8" x="17.74" y="78.94" width="24.98" height="5.57"/><rect class="cls-8" x="17.94" y="78.94" width="24.98" height="5.57"/><rect class="cls-9" x="17.94" y="78.94" width="24.98" height="5.57"/></g></g></svg>